<svg width="36" height="37" viewBox="0 0 36 37" fill="none" xmlns="http://www.w3.org/2000/svg">
<path fill-rule="evenodd" clip-rule="evenodd" d="M32.7266 35.5547H34.3116C34.7107 35.5547 35.0342 35.8782 35.0342 36.2773C35.0342 36.6764 34.7107 37 34.3116 37H0.722656C0.323533 37 0 36.6764 0 36.2773C0 35.8782 0.323533 35.5547 0.722656 35.5547H2.39315V29.036C2.39315 27.9649 3.2646 27.0934 4.33579 27.0934H7.87862C8.94974 27.0934 9.82126 27.9648 9.82126 29.036V35.5547H13.8459V22.9678C13.8459 21.8967 14.7173 21.0252 15.7885 21.0252H19.3313C20.4025 21.0252 21.2739 21.8966 21.2739 22.9678V35.5547H25.2985V12.5407C25.2985 11.4695 26.17 10.598 27.2412 10.598H30.7839C31.855 10.598 32.7266 11.4695 32.7266 12.5407V35.5547ZM3.83886 35.5547H8.37627V29.0361C8.37627 28.7618 8.15318 28.5387 7.87894 28.5387H4.33619C4.06194 28.5387 3.83886 28.7618 3.83886 29.0361V35.5547ZM19.8292 35.5547H15.2918V22.9678C15.2918 22.6936 15.5148 22.4705 15.7891 22.4705H19.3318C19.606 22.4705 19.8292 22.6936 19.8292 22.9678V35.5547ZM26.7446 35.5547H31.2821V12.5407C31.2821 12.2665 31.059 12.0434 30.7847 12.0434H27.242C26.9677 12.0434 26.7446 12.2665 26.7446 12.5407V35.5547Z" fill="#031B4E"/>
<path fill-rule="evenodd" clip-rule="evenodd" d="M32.7257 0.759945C32.7358 0.562732 32.6664 0.362195 32.5158 0.211594C32.3652 0.0609922 32.1647 -0.00845508 31.9675 0.00173438C31.9558 0.00122852 31.9443 0 31.9325 0H27.5604C27.1613 0 26.8378 0.323533 26.8378 0.722656C26.8378 1.12178 27.1613 1.44531 27.5604 1.44531H30.26L23.1161 8.58935L20.422 5.89529C20.2865 5.75979 20.1027 5.68362 19.911 5.68362C19.7194 5.68362 19.5355 5.75979 19.4 5.89529L6.40891 18.8865C6.12672 19.1687 6.12672 19.6263 6.40891 19.9085C6.55005 20.0495 6.73498 20.1201 6.9199 20.1201C7.10483 20.1201 7.28983 20.0495 7.43089 19.9084L19.911 7.42818L22.6051 10.1222C22.8873 10.4044 23.3449 10.4044 23.6271 10.1222L31.2821 2.46737V4.91067C31.2821 5.30979 31.6056 5.63332 32.0047 5.63332C32.4039 5.63332 32.7274 5.30979 32.7274 4.91067V0.794922C32.7274 0.783143 32.7262 0.771652 32.7257 0.759945Z" fill="#031B4E"/>
<path fill-rule="evenodd" clip-rule="evenodd" d="M4.48242 22.6416C4.88153 22.6416 5.20508 22.3181 5.20508 21.9189C5.20508 21.5198 4.88153 21.1963 4.48242 21.1963C4.08331 21.1963 3.75977 21.5198 3.75977 21.9189C3.75977 22.3181 4.08331 22.6416 4.48242 22.6416Z" fill="#031B4E"/>
</svg>
