<?xml version="1.0" encoding="UTF-8"?>
<svg width="170px" height="25px" viewBox="0 0 170 25" version="1.1" xmlns="http://www.w3.org/2000/svg" xmlns:xlink="http://www.w3.org/1999/xlink">
    <!-- Generator: Sketch 52.6 (67491) - http://www.bohemiancoding.com/sketch -->
    <title>Blue logo</title>
    <desc>Created with Sketch.</desc>
    <g id="New-Designs" stroke="none" stroke-width="1" fill="none" fill-rule="evenodd">
        <g id="Dashbiard-Copy" transform="translate(-154.000000, -28.000000)" fill="#FFFFFF">
            <g id="top-nav">
                <g id="nav" transform="translate(154.000000, 21.000000)">
                    <g id="Blue-logo" transform="translate(0.000000, 7.000000)">
                        <path d="M32.5803909,23.7151868 C32.3285665,23.7603048 31.9540585,23.8247591 31.4611716,23.9042528 C30.9682847,23.9837465 30.4689407,24.0245676 29.9631397,24.0245676 C29.4573387,24.0245676 29.0053463,23.9901919 28.6028578,23.9214406 C28.2003694,23.8526893 27.8624513,23.7151868 27.5869511,23.5089329 C27.311451,23.302679 27.0983689,23.0212284 26.9498571,22.6667295 C26.8013453,22.3122307 26.7260133,21.8481594 26.7260133,21.2745158 L26.7260133,1.33664064 C26.9778376,1.2915226 27.3523456,1.22706826 27.8452325,1.14757458 C28.3381194,1.0680809 28.8374634,1.02725982 29.3432644,1.02725982 C29.8490654,1.02725982 30.3010578,1.06163546 30.7035463,1.13038676 C31.1060347,1.19913805 31.4439529,1.33664064 31.719453,1.54289452 C31.9949531,1.7491484 32.2080352,2.03059901 32.356547,2.38509787 C32.5050588,2.73959673 32.5803909,3.20366796 32.5803909,3.77731157 L32.5803909,23.7151868 Z" id="Shape"></path>
                        <path d="M44.1149912,24.2995728 C42.7611664,24.2995728 41.5041971,24.1105067 40.3440833,23.7323746 C39.1839695,23.3542425 38.1745199,22.7870443 37.313582,22.0307801 C36.4526441,21.2745158 35.7746555,20.3227401 35.2817686,19.1776014 C34.7888816,18.0324626 34.541362,16.6918124 34.541362,15.1556507 C34.541362,13.6431222 34.7888816,12.3432931 35.2817686,11.2540148 C35.7746555,10.1647365 36.4246636,9.27096963 37.2274882,8.57271431 C38.0303128,7.87445898 38.9493639,7.35882428 39.9824894,7.0258102 C41.0156149,6.69279612 42.0724161,6.52736332 43.1507408,6.52736332 C44.3668156,6.52736332 45.4752731,6.70998394 46.473961,7.07737367 C47.472649,7.44476339 48.3335869,7.94750723 49.0567747,8.58990213 C49.7799625,9.23229703 50.3417245,9.99930365 50.7442129,10.8930705 C51.1467014,11.7868373 51.3468695,12.7600978 51.3468695,13.8150005 C51.3468695,14.5948979 51.1294826,15.1900263 50.6925567,15.6025341 C50.2556307,16.0150419 49.6486695,16.2793046 48.8673684,16.393174 L40.3613021,17.6650729 C40.6131264,18.4213371 41.1296891,18.9885353 41.9109903,19.3666674 C42.6922914,19.7447995 43.5876668,19.9338656 44.5971165,19.9338656 C45.5376911,19.9338656 46.4287618,19.8135508 47.2660239,19.5729213 C48.103286,19.3322918 48.7877316,19.0508412 49.3150561,18.730718 C49.683107,18.9606051 49.9930446,19.2807283 50.244869,19.6932361 C50.4966933,20.1057438 50.6236816,20.5418849 50.6236816,20.9995107 C50.6236816,22.0307801 50.1415564,22.7977867 49.177306,23.302679 C48.4433564,23.6915535 47.6168561,23.9558163 46.6978049,24.0933189 C45.7787537,24.2308215 44.9178158,24.2995728 44.1149912,24.2995728 Z M43.1507408,10.7899435 C42.5997406,10.7899435 42.1240724,10.8823281 41.7215839,11.0649487 C41.3190955,11.2475693 40.9919391,11.4839019 40.7401147,11.7696495 C40.4882904,12.055397 40.2988841,12.3776687 40.1718957,12.7321676 C40.0449074,13.0866664 39.9717277,13.4476107 39.9480519,13.8150005 L45.836867,12.8524823 C45.767992,12.3948565 45.5161676,11.9350823 45.0792417,11.4774565 C44.6423157,11.0198307 44.000917,10.7899435 43.1507408,10.7899435 Z" id="Shape"></path>
                        <path d="M61.0001957,20.0369925 C61.3897701,20.0369925 61.8202391,19.9961715 62.2916026,19.9166778 C62.762966,19.8371841 63.1116459,19.7276117 63.3419468,19.5901091 L63.3419468,16.8400574 L60.8624457,17.0463113 C60.2188946,17.0914293 59.6915702,17.2289319 59.27832,17.458819 C58.8650698,17.6887062 58.6584447,18.0324626 58.6584447,18.4900884 C58.6584447,18.9477142 58.8370893,19.3215494 59.1922262,19.607297 C59.5473631,19.8930445 60.1500196,20.0369925 61.0001957,20.0369925 Z M60.7246956,6.52736332 C61.9644462,6.52736332 63.0944271,6.65412352 64.1167909,6.90549543 C65.1391546,7.15686735 66.0108542,7.5414449 66.734042,8.0570796 C67.4572299,8.57271431 68.0146871,9.2258516 68.4042615,10.0164915 C68.7938359,10.8071314 68.9896993,11.7417193 68.9896993,12.8181067 L68.9896993,20.5182516 C68.9896993,21.11338 68.8239687,21.6010845 68.4903553,21.9792166 C68.1567419,22.3573487 67.7607105,22.6839174 67.302261,22.9589225 C65.8106862,23.8526893 63.7099977,24.2995728 61.0001957,24.2995728 C59.784121,24.2995728 58.6864252,24.1857034 57.711413,23.9558163 C56.7364009,23.7259291 55.8969864,23.3821727 55.1974744,22.9245469 C54.4979624,22.4669211 53.9577239,21.8825351 53.5789112,21.1713889 C53.2000985,20.4602427 53.0106922,19.6352272 53.0106922,18.6963423 C53.0106922,17.1150626 53.4820557,15.9011725 54.4226303,15.0525237 C55.3632049,14.203875 56.8224947,13.6774979 58.7961948,13.471244 L63.3075093,12.9899849 L63.3075093,12.7493554 C63.3075093,12.0854757 63.0147904,11.6085136 62.4293526,11.3227661 C61.8439149,11.0370185 61.0001957,10.8930705 59.8981952,10.8930705 C59.0264956,10.8930705 58.1763195,10.985455 57.3498191,11.1680756 C56.5233187,11.3506963 55.7764551,11.5805834 55.1113806,11.8555886 C54.8122047,11.6493347 54.5603804,11.3335084 54.3537553,10.9102583 C54.1471302,10.4870081 54.0438176,10.0444217 54.0438176,9.58679589 C54.0438176,8.9916675 54.1880247,8.5147054 54.4742866,8.16020654 C54.7605484,7.80570769 55.2039314,7.50062382 55.8001309,7.2492519 C56.4652054,6.99787998 57.2529636,6.81311088 58.1591007,6.69924155 C59.0652378,6.58537222 59.921871,6.52736332 60.7246956,6.52736332 Z" id="Shape"></path>
                        <path d="M81.5102027,13.1618632 C81.5102027,12.450717 81.3100346,11.9307853 80.9075462,11.5977712 C80.5050577,11.2647572 79.9605145,11.0993244 79.2717642,11.0993244 C78.8133148,11.0993244 78.35917,11.1573333 77.9114823,11.2712026 C77.4637946,11.3850719 77.0785249,11.5569502 76.7578256,11.7868373 L76.7578256,23.7151868 C76.5275247,23.7839381 76.1659308,23.8526893 75.6730438,23.9214406 C75.1801569,23.9901919 74.6678989,24.0245676 74.1405744,24.0245676 C73.6347734,24.0245676 73.182781,23.9901919 72.7802926,23.9214406 C72.3778041,23.8526893 72.039886,23.7151868 71.7643859,23.5089329 C71.4888857,23.302679 71.2758036,23.0212284 71.1272918,22.6667295 C70.97878,22.3122307 70.903448,21.8481594 70.903448,21.2745158 L70.903448,10.9618218 C70.903448,10.3430601 71.034741,9.83816781 71.2994794,9.4492933 C71.5642178,9.0604188 71.9258117,8.70377146 72.3842611,8.38364825 C73.1655623,7.8336379 74.1470314,7.38675449 75.3286687,7.04299802 C76.5103059,6.69924155 77.8253886,6.52736332 79.2717642,6.52736332 C81.8653396,6.52736332 83.8627155,7.09456149 85.2638919,8.22895784 C86.6650683,9.36335419 87.3645803,10.9381885 87.3645803,12.9556093 L87.3645803,23.7151868 C87.1342794,23.7839381 86.7726855,23.8526893 86.2797986,23.9214406 C85.7869116,23.9901919 85.2746536,24.0245676 84.7473291,24.0245676 C84.2415281,24.0245676 83.7895357,23.9901919 83.3870473,23.9214406 C82.9845588,23.8526893 82.6466407,23.7151868 82.3711406,23.5089329 C82.0956404,23.302679 81.8825583,23.0212284 81.7340465,22.6667295 C81.5855348,22.3122307 81.5102027,21.8481594 81.5102027,21.2745158 L81.5102027,13.1618632 Z" id="Shape"></path>
                        <path d="M103.765684,18.7650936 C103.765684,20.5075092 103.111371,21.8696442 101.802745,22.8557956 C100.49412,23.841947 98.5656189,24.3339484 96.0172428,24.3339484 C95.0529923,24.3339484 94.1576169,24.2651971 93.3311166,24.1276945 C92.5046162,23.9901919 91.7986471,23.7774926 91.2132094,23.4917451 C90.6277716,23.2059975 90.1693222,22.8450532 89.8357088,22.4089122 C89.5020953,21.9727712 89.3363648,21.4571365 89.3363648,20.8620081 C89.3363648,20.3119977 89.4504391,19.8479265 89.68074,19.4697944 C89.9110408,19.0916623 90.186541,18.775836 90.5072403,18.5244641 C91.1723148,18.8918538 91.9363972,19.2184225 92.7973351,19.50417 C93.658273,19.7899176 94.6505039,19.9338656 95.7761802,19.9338656 C96.4886063,19.9338656 97.0331495,19.8307387 97.4119621,19.6244848 C97.7907748,19.4182309 97.9801811,19.1432257 97.9801811,18.7994693 C97.9801811,18.479346 97.8424311,18.2258256 97.566931,18.043205 C97.2914308,17.8605844 96.8329814,17.7101909 96.1894303,17.5963216 L95.1563049,17.3900677 C93.158929,17.0011932 91.6716588,16.3867285 90.6966467,15.5509706 C89.7216345,14.7152127 89.2330523,13.516362 89.2330523,11.9587155 C89.2330523,11.1100667 89.4160016,10.3430601 89.7840525,9.65554718 C90.1521034,8.96803425 90.6686662,8.39439064 91.3337407,7.93676484 C91.9988152,7.47913904 92.7973351,7.1224917 93.727148,6.87111979 C94.6569609,6.61974787 95.6836293,6.49298767 96.8093056,6.49298767 C97.6594818,6.49298767 98.4558493,6.55529353 99.2027129,6.68205373 C99.9495766,6.80881393 100.597432,6.99787998 101.148433,7.2492519 C101.699433,7.50062382 102.136359,7.82719247 102.457058,8.22895784 C102.777757,8.63072321 102.939183,9.10553683 102.939183,9.65554718 C102.939183,10.1819243 102.842328,10.6352531 102.646464,11.0133852 C102.450601,11.3915174 102.205234,11.7073436 101.906058,11.9587155 C101.723109,11.8448462 101.447608,11.7245314 101.079558,11.5977712 C100.711507,11.471011 100.31117,11.3571417 99.8742445,11.2540148 C99.4373185,11.1508878 98.9960878,11.0649487 98.5484001,10.9961974 C98.1007124,10.9274461 97.6939193,10.8930705 97.3258684,10.8930705 C96.568243,10.8930705 95.9828053,10.9790096 95.5695551,11.1508878 C95.1563049,11.3227661 94.9496798,11.5913258 94.9496798,11.9587155 C94.9496798,12.2100874 95.0637541,12.4163413 95.294055,12.5774772 C95.5243558,12.738613 95.9591295,12.886858 96.6026805,13.0243606 L97.6702435,13.2649901 C99.8742445,13.7698824 101.441151,14.4616923 102.370964,15.3447167 C103.300777,16.2277412 103.765684,17.3664345 103.765684,18.7650936 Z" id="Shape"></path>
                        <path d="M111.443291,18.0088294 C111.443291,18.6039578 111.632697,19.0293564 112.01151,19.2807283 C112.390323,19.5321002 112.924104,19.6588604 113.612854,19.6588604 C113.95723,19.6588604 114.312366,19.6309302 114.680417,19.5729213 C115.048468,19.5149124 115.369168,19.4418642 115.644668,19.3494796 C115.851293,19.6008515 116.029938,19.8823021 116.178449,20.191683 C116.326961,20.5010638 116.402293,20.8727505 116.402293,21.3088915 C116.402293,22.179025 116.075137,22.8901712 115.420824,23.4401816 C114.766511,23.9901919 113.612854,24.2651971 111.959854,24.2651971 C109.938802,24.2651971 108.384809,23.8075713 107.29357,22.8901712 C106.202332,21.9727712 105.657788,20.483876 105.657788,18.4213371 L105.657788,3.70856027 C105.909613,3.63980898 106.271207,3.56461225 106.74257,3.48511857 C107.213934,3.40562489 107.713278,3.36480381 108.240602,3.36480381 C109.250052,3.36480381 110.03781,3.54312747 110.599572,3.89762633 C111.161334,4.25212519 111.443291,5.00409247 111.443291,6.1492312 L111.443291,8.3492726 L115.954606,8.3492726 C116.092356,8.60064452 116.223649,8.91647078 116.350637,9.29460289 C116.477625,9.67273501 116.540043,10.0916882 116.540043,10.549314 C116.540043,11.3506963 116.361399,11.9307853 116.006262,12.2852842 C115.651125,12.639783 115.173304,12.8181067 114.577105,12.8181067 L111.443291,12.8181067 L111.443291,18.0088294 Z" id="Shape"></path>
                        <path d="M126.526923,20.0369925 C126.916497,20.0369925 127.346966,19.9961715 127.81833,19.9166778 C128.289693,19.8371841 128.638373,19.7276117 128.868674,19.5901091 L128.868674,16.8400574 L126.389173,17.0463113 C125.745622,17.0914293 125.218297,17.2289319 124.805047,17.458819 C124.391797,17.6887062 124.185172,18.0324626 124.185172,18.4900884 C124.185172,18.9477142 124.363816,19.3215494 124.718953,19.607297 C125.07409,19.8930445 125.676747,20.0369925 126.526923,20.0369925 Z M126.251423,6.52736332 C127.491173,6.52736332 128.621154,6.65412352 129.643518,6.90549543 C130.665882,7.15686735 131.537581,7.5414449 132.260769,8.0570796 C132.983957,8.57271431 133.541414,9.2258516 133.930988,10.0164915 C134.320563,10.8071314 134.516426,11.7417193 134.516426,12.8181067 L134.516426,20.5182516 C134.516426,21.11338 134.350696,21.6010845 134.017082,21.9792166 C133.683469,22.3573487 133.287437,22.6839174 132.828988,22.9589225 C131.337413,23.8526893 129.236725,24.2995728 126.526923,24.2995728 C125.310848,24.2995728 124.213152,24.1857034 123.23814,23.9558163 C122.263128,23.7259291 121.423713,23.3821727 120.724201,22.9245469 C120.024689,22.4669211 119.484451,21.8825351 119.105638,21.1713889 C118.726825,20.4602427 118.537419,19.6352272 118.537419,18.6963423 C118.537419,17.1150626 119.008783,15.9011725 119.949357,15.0525237 C120.889932,14.203875 122.349222,13.6774979 124.322922,13.471244 L128.834236,12.9899849 L128.834236,12.7493554 C128.834236,12.0854757 128.541517,11.6085136 127.95608,11.3227661 C127.370642,11.0370185 126.526923,10.8930705 125.424922,10.8930705 C124.553223,10.8930705 123.703046,10.985455 122.876546,11.1680756 C122.050046,11.3506963 121.303182,11.5805834 120.638108,11.8555886 C120.338932,11.6493347 120.087107,11.3335084 119.880482,10.9102583 C119.673857,10.4870081 119.570545,10.0444217 119.570545,9.58679589 C119.570545,8.9916675 119.714752,8.5147054 120.001014,8.16020654 C120.287275,7.80570769 120.730658,7.50062382 121.326858,7.2492519 C121.991932,6.99787998 122.779691,6.81311088 123.685828,6.69924155 C124.591965,6.58537222 125.448598,6.52736332 126.251423,6.52736332 Z" id="Shape"></path>
                        <path d="M146.533139,11.1337 C145.958463,11.1337 145.41392,11.2260846 144.897357,11.4087052 C144.380794,11.5913258 143.933107,11.862034 143.554294,12.2165329 C143.175481,12.5710317 142.872001,13.0136182 142.6417,13.5399953 C142.411399,14.0663724 142.297325,14.685134 142.297325,15.3962802 C142.297325,16.8164241 142.704118,17.8820692 143.519856,18.5932154 C144.335595,19.3043616 145.327826,19.6588604 146.498701,19.6588604 C147.187452,19.6588604 147.783651,19.5793667 148.289452,19.4182309 C148.795253,19.2570951 149.242941,19.0852168 149.632515,18.9025962 C150.090965,19.2227194 150.43534,19.5729213 150.665641,19.9510534 C150.895942,20.3291855 151.010016,20.7825144 151.010016,21.3088915 C151.010016,22.2477763 150.562328,22.9761104 149.666953,23.4917451 C148.771577,24.0073798 147.531827,24.2651971 145.947701,24.2651971 C144.501326,24.2651971 143.1927,24.0524978 142.021824,23.6292476 C140.850949,23.2059975 139.845804,22.6087206 139.008542,21.841714 C138.17128,21.0747074 137.521272,20.1508619 137.062822,19.0744744 C136.604373,17.998087 136.374072,16.8056817 136.374072,15.4994072 C136.374072,13.9868787 136.621592,12.6634163 137.114479,11.5290199 C137.607365,10.3946236 138.278897,9.46003569 139.129073,8.72740472 C139.979249,7.99477374 140.960718,7.44476339 142.073481,7.07737367 C143.186243,6.70998394 144.363575,6.52736332 145.603326,6.52736332 C147.256327,6.52736332 148.530515,6.82600175 149.42589,7.42113014 C150.321266,8.01625852 150.768953,8.78541362 150.768953,9.72429848 C150.768953,10.1604395 150.665641,10.5665018 150.459016,10.9446339 C150.252391,11.3227661 150.011328,11.6493347 149.735828,11.9243399 C149.346253,11.7417193 148.87489,11.5633956 148.32389,11.3915174 C147.772889,11.2196391 147.17669,11.1337 146.533139,11.1337 Z" id="Shape"></path>
                        <path d="M169.294378,20.7245055 C169.180304,21.8008929 168.863909,22.6259084 168.347346,23.1995521 C167.830784,23.7731957 167.079615,24.0589432 166.091689,24.0589432 C165.357739,24.0589432 164.703427,23.8806196 164.128751,23.5261207 C163.554075,23.1716218 162.934199,22.570048 162.269125,21.7213992 L158.859811,17.458819 L158.859811,23.7151868 C158.607986,23.7603048 158.233478,23.8247591 157.740592,23.9042528 C157.247705,23.9837465 156.748361,24.0245676 156.24256,24.0245676 C155.736759,24.0245676 155.284766,23.9901919 154.882278,23.9214406 C154.479789,23.8526893 154.141871,23.7151868 153.866371,23.5089329 C153.590871,23.302679 153.377789,23.0212284 153.229277,22.6667295 C153.080765,22.3122307 153.005433,21.8481594 153.005433,21.2745158 L153.005433,1.37101629 C153.257258,1.30226499 153.631765,1.22706826 154.124652,1.14757458 C154.617539,1.0680809 155.116883,1.02725982 155.622684,1.02725982 C156.128485,1.02725982 156.580478,1.06163546 156.982966,1.13038676 C157.385455,1.19913805 157.723373,1.33664064 157.998873,1.54289452 C158.274373,1.7491484 158.487455,2.03059901 158.635967,2.38509787 C158.784479,2.73959673 158.859811,3.20366796 158.859811,3.77731157 L158.859811,12.8524823 L164.783063,6.80236849 C165.977615,6.80236849 166.935408,7.06663128 167.658596,7.59300837 C168.381784,8.11938546 168.743378,8.78541362 168.743378,9.58679589 C168.743378,9.93055236 168.685264,10.2463786 168.57119,10.5321262 C168.457116,10.8178737 168.278471,11.1100667 168.037409,11.4087052 C167.796346,11.7073436 167.486408,12.0210214 167.107596,12.3540355 C166.728783,12.6870495 166.287552,13.0694786 165.781751,13.5056196 L163.784375,15.224402 L169.294378,20.7245055 Z" id="Shape"></path>
                        <g id="Group" transform="translate(11.565604, 12.794166) rotate(-90.000000) translate(-11.565604, -12.794166) translate(-0.434396, 1.294166)">
                            <path d="M23.9322881,22.2304579 C23.6651766,22.2805938 23.267934,22.3466819 22.7451261,22.4310013 C22.2223183,22.5175996 21.6926614,22.5586199 21.1561556,22.5586199 C20.6196497,22.5586199 20.1402189,22.5221574 19.7132972,22.4492325 C19.2863755,22.3763077 18.9279439,22.2304579 18.6357195,22.0116833 C18.343495,21.7929087 18.1174776,21.4966514 17.9599503,21.1183537 C17.8024231,20.7423348 17.722518,20.2500919 17.722518,19.641625 L17.722518,0.432758326 C17.9896294,0.384901379 18.386872,0.316534313 18.9096799,0.232214932 C19.4324877,0.14789555 19.9621446,0.104596408 20.4986505,0.104596408 C21.0351564,0.104596408 21.5145871,0.141058843 21.9415088,0.213983714 C22.3684305,0.286908584 22.7268621,0.432758326 23.0190866,0.651532938 C23.3113111,0.870307549 23.5373284,1.16884374 23.6948557,1.5448626 C23.8523829,1.92088147 23.9322881,2.41312434 23.9322881,3.02159123 L23.9322881,22.2304579 Z M19.0907344,4.53569989 C19.0907344,4.99653707 19.2457632,5.38568846 19.5558207,5.70087834 C19.8658783,6.01606821 20.2762486,6.17423208 20.7869316,6.17423208 C21.2976147,6.17423208 21.707985,6.01606821 22.0180425,5.70087834 C22.3281001,5.38568846 22.4831288,4.99653707 22.4831288,4.53569989 C22.4831288,4.07486271 22.3281001,3.68571132 22.0180425,3.37052144 C21.707985,3.05533157 21.2976147,2.8971677 20.7869316,2.8971677 C20.2762486,2.8971677 19.8658783,3.05533157 19.5558207,3.37052144 C19.2457632,3.68571132 19.0907344,4.07486271 19.0907344,4.53569989 Z" id="Combined-Shape"></path>
                            <path d="M15.1778808,22.2304579 C14.9107694,22.2805938 14.5135267,22.3466819 13.9907189,22.4310013 C13.467911,22.5175996 12.9382542,22.5586199 12.4017483,22.5586199 C11.8652424,22.5586199 11.3858116,22.5221574 10.9588899,22.4492325 C10.5319682,22.3763077 10.1735367,22.2304579 9.88131219,22.0116833 C9.58908771,21.7929087 9.36307034,21.4966514 9.20554309,21.1183537 C9.04801583,20.7423348 8.9681107,20.2500919 8.9681107,19.641625 L8.9681107,0.432758326 C9.23522214,0.384901379 9.63246478,0.316534313 10.1552726,0.232214932 C10.6780805,0.14789555 11.2077373,0.104596408 11.7442432,0.104596408 C12.2807491,0.104596408 12.7601799,0.141058843 13.1871016,0.213983714 C13.6140233,0.286908584 13.9724549,0.432758326 14.2646793,0.651532938 C14.5569038,0.870307549 14.7829212,1.16884374 14.9404484,1.5448626 C15.0979757,1.92088147 15.1778808,2.41312434 15.1778808,3.02159123 L15.1778808,22.2304579 Z M10.3359936,4.53569989 C10.3359936,4.99653707 10.4910224,5.38568846 10.8010799,5.70087834 C11.1111375,6.01606821 11.5215078,6.17423208 12.0321908,6.17423208 C12.5428738,6.17423208 12.9532441,6.01606821 13.2633017,5.70087834 C13.5733593,5.38568846 13.728388,4.99653707 13.728388,4.53569989 C13.728388,4.07486271 13.5733593,3.68571132 13.2633017,3.37052144 C12.9532441,3.05533157 12.5428738,2.8971677 12.0321908,2.8971677 C11.5215078,2.8971677 11.1111375,3.05533157 10.8010799,3.37052144 C10.4910224,3.68571132 10.3359936,4.07486271 10.3359936,4.53569989 Z" id="Combined-Shape"></path>
                            <path d="M6.5045267,22.2304579 C6.23741527,22.2805938 5.84017262,22.3466819 5.31736477,22.4310013 C4.79455692,22.5175996 4.26490006,22.5586199 3.72839418,22.5586199 C3.19188831,22.5586199 2.71245753,22.5221574 2.28553583,22.4492325 C1.85861414,22.3763077 1.50018255,22.2304579 1.20795808,22.0116833 C0.915733601,21.7929087 0.689716233,21.4966514 0.532188976,21.1183537 C0.37466172,20.7423348 0.29475659,20.2500919 0.29475659,19.641625 L0.29475659,0.432758326 C0.561868025,0.384901379 0.959110672,0.316534313 1.48191852,0.232214932 C2.00472637,0.14789555 2.53438324,0.104596408 3.07088911,0.104596408 C3.60739498,0.104596408 4.08682577,0.141058843 4.51374746,0.213983714 C4.94066916,0.286908584 5.29910074,0.432758326 5.59132522,0.651532938 C5.88354969,0.870307549 6.10956706,1.16884374 6.26709432,1.5448626 C6.42462157,1.92088147 6.5045267,2.41312434 6.5045267,3.02159123 L6.5045267,22.2304579 Z M1.66297303,4.53569989 C1.66297303,4.99653707 1.81800181,5.38568846 2.12805937,5.70087834 C2.43811693,6.01606821 2.84848722,6.17423208 3.35917025,6.17423208 C3.86985329,6.17423208 4.28022358,6.01606821 4.59028114,5.70087834 C4.9003387,5.38568846 5.05536748,4.99653707 5.05536748,4.53569989 C5.05536748,4.07486271 4.9003387,3.68571132 4.59028114,3.37052144 C4.28022358,3.05533157 3.86985329,2.8971677 3.35917025,2.8971677 C2.84848722,2.8971677 2.43811693,3.05533157 2.12805937,3.37052144 C1.81800181,3.68571132 1.66297303,4.07486271 1.66297303,4.53569989 Z" id="Combined-Shape"></path>
                        </g>
                    </g>
                </g>
            </g>
        </g>
    </g>
</svg>