<?xml version="1.0" encoding="utf-8"?>
<!-- Generator: Adobe Illustrator 25.0.0, SVG Export Plug-In . SVG Version: 6.00 Build 0)  -->
<svg version="1.1" id="Layer_1" width="135px" xmlns="http://www.w3.org/2000/svg" xmlns:xlink="http://www.w3.org/1999/xlink" x="0px" y="0px"
	 viewBox="0 0 158.2 74.8" style="enable-background:new 0 0 158.2 74.8;" xml:space="preserve">
<polygon points="61.8,0 61.8,52.4 71.1,52.4 70.6,0 "/>
<path d="M97.1,14.3c-12.7,0-18.8,8.2-18.8,19.5s6,19.5,18.8,19.5s18.8-8.1,18.8-19.5S109.8,14.3,97.1,14.3z M97.1,45.8
	c-6,0-9.2-3.9-9.2-12s3.2-12,9.2-12s9.1,3.9,9.1,12S103.1,45.8,97.1,45.8z"/>
<path d="M158.2,20.5v-6.2h-20.1c-8.7,0-15.8,7-15.8,15.7c0,4.6,2,9,5.5,12l-0.6,0.3c-0.7,0.4-1.4,0.8-2,1.4
	c-0.7,0.6-1.2,1.2-1.7,1.9c-0.4,0.6-0.8,1.3-1,2c-0.2,0.6-0.3,1.3-0.3,2c-0.1,1.4,0.2,2.7,0.9,3.9c0.5,0.8,1.3,1.5,2.1,2.1
	c-1.7,0.6-3.3,1.7-4.5,3c-1.2,1.4-1.9,3.2-1.8,5.1c0,1.5,0.4,3,1.2,4.3c0.9,1.5,2.1,2.7,3.5,3.6c1.8,1.1,3.8,2,5.9,2.5
	c2.7,0.7,5.5,1,8.3,0.9c2.7,0,5.4-0.4,8-1.3c2.3-0.7,4.4-1.9,6.4-3.3c1.7-1.3,3-2.9,4-4.7c0.9-1.7,1.4-3.6,1.4-5.5
	c0.1-1.7-0.3-3.5-1.2-5c-0.8-1.2-1.8-2.3-3.1-3c-1.4-0.8-2.8-1.3-4.4-1.6c-1.4-0.3-2.9-0.5-4.4-0.6c-1.7-0.1-3.3-0.2-4.9-0.2
	c-1.4,0-2.8-0.1-4.2-0.2c-1-0.1-2-0.4-2.9-0.8c-0.6-0.3-1-0.9-1-1.6c0.1-0.8,0.5-1.6,1.2-2c1.8,0.7,3.7,1.1,5.6,1.1
	c8.8,0,15.9-7,16.1-15.8c0-3.1-0.9-6.1-2.7-8.7c1.9-0.7,3.8-1,5.8-0.9L158.2,20.5z M131.6,57.4c1.3,0.3,2.5,0.4,3.8,0.4h3.9
	c1.2,0,2.4,0.1,3.5,0.2c1,0.1,1.9,0.3,2.9,0.6c0.7,0.2,1.4,0.6,1.9,1.2c0.5,0.5,0.7,1.2,0.7,1.8c0,0.8-0.2,1.5-0.6,2.2
	c-0.5,0.7-1.1,1.3-1.8,1.7c-1,0.6-2.1,0.9-3.3,1.2c-1.6,0.3-3.2,0.5-4.8,0.4c-1.5,0-3.1-0.1-4.6-0.4c-1-0.2-2.1-0.5-3-1
	c-0.7-0.4-1.2-0.9-1.6-1.5c-0.3-0.6-0.5-1.2-0.5-1.9c0-1,0.4-2,1-2.8C129.7,58.7,130.6,57.9,131.6,57.4z M145.6,30.1
	c0,4.2-2.2,7.9-7.6,7.9s-7.6-3.7-7.6-7.9l0,0c0-4.2,2.2-7.9,7.6-7.9S145.6,25.9,145.6,30.1z"/>
<path d="M39.5,14.3c-4.4,0-8.7,1.5-12.2,4.4V0h-9.2v52.4h9.2v-3.3c3.2,2.8,7.3,4.3,11.6,4.2c2,0,15.5-0.9,15.5-20.7
	C54.3,20.1,47.8,14.3,39.5,14.3z M28.9,42.6c-0.6-0.3-1.1-0.6-1.6-0.9l0,0V26.3l0.4-0.3c3.2-2.8,6.6-4.1,9.3-4.1
	c5.2,0,7.8,3.4,7.8,11.4C44.8,50.3,30.8,43.5,28.9,42.6z"/>
<rect y="43" width="9.3" height="9.5"/>
</svg>
