<svg width="187" height="26" viewBox="0 0 187 26" fill="none" xmlns="http://www.w3.org/2000/svg">
<path fill-rule="evenodd" clip-rule="evenodd" d="M35.6504 25.1374C35.3734 25.187 34.9615 25.2579 34.4194 25.3453C33.8772 25.4328 33.328 25.4777 32.7716 25.4777C32.2152 25.4777 31.7181 25.4399 31.2754 25.3642C30.8326 25.2886 30.461 25.1374 30.1579 24.9105C29.8549 24.6836 29.6205 24.3741 29.4572 23.9841C29.2938 23.5942 29.2109 23.0837 29.2109 22.4528V0.522187C29.4879 0.472559 29.8999 0.401663 30.442 0.314224C30.9842 0.226786 31.5334 0.181885 32.0898 0.181885C32.6461 0.181885 33.1433 0.219696 33.586 0.295319C34.0287 0.370941 34.4004 0.522187 34.7034 0.749055C35.0065 0.975923 35.2409 1.2855 35.4042 1.67543C35.5676 2.06536 35.6504 2.57582 35.6504 3.20679V25.1374Z" fill="#2176FF"/>
<path fill-rule="evenodd" clip-rule="evenodd" d="M48.3371 25.7802C46.848 25.7802 45.4654 25.5722 44.1893 25.1563C42.9133 24.7403 41.8029 24.1165 40.8559 23.2846C39.9089 22.4528 39.1632 21.4059 38.621 20.1463C38.0789 18.8867 37.8066 17.412 37.8066 15.7223C37.8066 14.0586 38.0789 12.6289 38.621 11.4307C39.1632 10.2326 39.8782 9.24951 40.7612 8.48146C41.6443 7.71342 42.6552 7.14625 43.7916 6.77995C44.928 6.41366 46.0904 6.23169 47.2765 6.23169C48.6141 6.23169 49.8333 6.43256 50.9319 6.83667C52.0304 7.24078 52.9773 7.79377 53.7728 8.50037C54.5683 9.20697 55.1862 10.0506 55.6289 11.0337C56.0716 12.0168 56.2918 13.0874 56.2918 14.2477C56.2918 15.1055 56.0527 15.7601 55.5721 16.2139C55.0915 16.6676 54.4239 16.9583 53.5645 17.0835L44.2083 18.4826C44.4853 19.3144 45.0534 19.9383 45.9128 20.3542C46.7722 20.7702 47.7571 20.9781 48.8674 20.9781C49.902 20.9781 50.8821 20.8458 51.8031 20.5811C52.724 20.3164 53.4769 20.0068 54.0569 19.6547C54.4617 19.9076 54.8027 20.2597 55.0796 20.7134C55.3566 21.1672 55.4963 21.6469 55.4963 22.1503C55.4963 23.2846 54.966 24.1283 53.9054 24.6836C53.0981 25.1114 52.189 25.402 51.1781 25.5533C50.1672 25.7045 49.2202 25.7802 48.3371 25.7802ZM47.2757 10.9205C46.6696 10.9205 46.1464 11.0221 45.7037 11.223C45.261 11.4239 44.9011 11.6838 44.6241 11.9981C44.3471 12.3124 44.1388 12.6669 43.9991 13.0568C43.8595 13.4468 43.779 13.8438 43.7529 14.2479L50.2303 13.1892C50.1545 12.6858 49.8775 12.1801 49.3969 11.6767C48.9164 11.1734 48.2108 10.9205 47.2757 10.9205Z" fill="#2176FF"/>
<path fill-rule="evenodd" clip-rule="evenodd" d="M66.9097 21.0917C67.3382 21.0917 67.8117 21.0468 68.3302 20.9593C68.8487 20.8719 69.2322 20.7514 69.4855 20.6001V17.5752L66.7582 17.8021C66.0503 17.8517 65.4703 18.003 65.0158 18.2558C64.5612 18.5087 64.3339 18.8868 64.3339 19.3902C64.3339 19.8935 64.5304 20.3047 64.9211 20.619C65.3117 20.9334 65.9746 21.0917 66.9097 21.0917ZM66.6061 6.23169C67.9697 6.23169 69.2127 6.37112 70.3372 6.64761C71.4617 6.92411 72.4206 7.34712 73.216 7.91429C74.0115 8.48146 74.6247 9.19988 75.0532 10.0695C75.4817 10.9392 75.6971 11.9672 75.6971 13.1512V21.6209C75.6971 22.2755 75.5148 22.812 75.1479 23.2279C74.7809 23.6438 74.3453 24.003 73.841 24.3055C72.2004 25.2886 69.8897 25.7802 66.9091 25.7802C65.5715 25.7802 64.3641 25.6549 63.2916 25.402C62.2192 25.1492 61.2959 24.7711 60.5264 24.2677C59.757 23.7643 59.1628 23.1215 58.7461 22.3393C58.3294 21.5571 58.1211 20.6496 58.1211 19.6169C58.1211 17.8776 58.6396 16.5424 59.6741 15.6089C60.7087 14.6754 62.3139 14.0964 64.4848 13.8696L69.447 13.3402V13.0755C69.447 12.3453 69.1251 11.8207 68.4811 11.5064C67.8372 11.1921 66.9091 11.0337 65.697 11.0337C64.7382 11.0337 63.803 11.1353 62.8939 11.3362C61.9848 11.5371 61.1633 11.79 60.4317 12.0924C60.1027 11.8656 59.8257 11.5182 59.5984 11.0526C59.3711 10.5871 59.2575 10.1003 59.2575 9.5969C59.2575 8.94229 59.4161 8.41766 59.731 8.02773C60.0458 7.6378 60.5335 7.30222 61.1893 7.02573C61.9209 6.74923 62.7874 6.546 63.7841 6.42075C64.7808 6.2955 65.723 6.23169 66.6061 6.23169Z" fill="#2176FF"/>
<path fill-rule="evenodd" clip-rule="evenodd" d="M89.4696 13.5293C89.4696 12.7471 89.2494 12.1752 88.8067 11.8089C88.364 11.4426 87.765 11.2606 87.0074 11.2606C86.5032 11.2606 86.0036 11.3244 85.5112 11.4497C85.0188 11.5749 84.595 11.764 84.2422 12.0168V25.1374C83.9889 25.213 83.5912 25.2886 83.049 25.3642C82.5069 25.4399 81.9434 25.4777 81.3634 25.4777C80.807 25.4777 80.3099 25.4399 79.8672 25.3642C79.4244 25.2886 79.0528 25.1374 78.7497 24.9105C78.4467 24.6836 78.2123 24.374 78.049 23.9841C77.8856 23.5942 77.8027 23.0837 77.8027 22.4528V11.1094C77.8027 10.4287 77.9471 9.87339 78.2383 9.44565C78.5295 9.01791 78.9273 8.62562 79.4315 8.2735C80.2909 7.66852 81.3705 7.17697 82.6702 6.79886C83.97 6.42075 85.4165 6.23169 87.0074 6.23169C89.8602 6.23169 92.0572 6.85558 93.5984 8.10335C95.1397 9.35113 95.9091 11.0834 95.9091 13.3024V25.1374C95.6558 25.213 95.258 25.2886 94.7159 25.3642C94.1737 25.4399 93.6103 25.4777 93.0303 25.4777C92.4739 25.4777 91.9767 25.4399 91.534 25.3642C91.0913 25.2886 90.7196 25.1374 90.4166 24.9105C90.1135 24.6836 89.8792 24.374 89.7158 23.9841C89.5524 23.5942 89.4696 23.0837 89.4696 22.4528V13.5293Z" fill="#2176FF"/>
<path fill-rule="evenodd" clip-rule="evenodd" d="M113.95 19.6925C113.95 21.6091 113.23 23.1073 111.791 24.192C110.351 25.2768 108.23 25.8179 105.427 25.8179C104.366 25.8179 103.382 25.7423 102.472 25.5911C101.563 25.4398 100.787 25.2059 100.143 24.8916C99.499 24.5773 98.9947 24.1802 98.6277 23.7005C98.2608 23.2208 98.0785 22.6536 98.0785 21.999C98.0785 21.394 98.204 20.8836 98.4573 20.4676C98.7106 20.0517 99.0136 19.7043 99.3664 19.4278C100.098 19.8319 100.938 20.1911 101.885 20.5054C102.832 20.8197 103.924 20.9781 105.162 20.9781C105.946 20.9781 106.545 20.8646 106.961 20.6378C107.378 20.4109 107.586 20.1084 107.586 19.7303C107.586 19.3782 107.435 19.0993 107.132 18.8985C106.829 18.6976 106.324 18.5322 105.616 18.4069L104.48 18.18C102.283 17.7523 100.647 17.0764 99.5747 16.1571C98.5023 15.2378 97.9648 13.9192 97.9648 12.2059C97.9648 11.2724 98.1661 10.4287 98.5709 9.67249C98.9758 8.91626 99.5439 8.28529 100.275 7.78192C101.007 7.27856 101.885 6.88627 102.908 6.60977C103.931 6.33328 105.06 6.19385 106.298 6.19385C107.233 6.19385 108.109 6.26238 108.931 6.40181C109.752 6.54124 110.465 6.7492 111.071 7.0257C111.677 7.30219 112.158 7.6614 112.511 8.10332C112.863 8.54524 113.041 9.06751 113.041 9.67249C113.041 10.2515 112.934 10.7501 112.719 11.166C112.503 11.582 112.234 11.9294 111.904 12.2059C111.703 12.0806 111.4 11.9483 110.995 11.8088C110.591 11.6694 110.15 11.5442 109.67 11.4307C109.189 11.3173 108.704 11.2228 108.211 11.1471C107.719 11.0715 107.271 11.0337 106.867 11.0337C106.033 11.0337 105.389 11.1282 104.935 11.3173C104.48 11.5063 104.253 11.8017 104.253 12.2059C104.253 12.4823 104.378 12.7092 104.632 12.8865C104.885 13.0637 105.363 13.2268 106.071 13.378L107.245 13.6427C109.67 14.198 111.393 14.959 112.416 15.9303C113.439 16.9015 113.95 18.154 113.95 19.6925Z" fill="#2176FF"/>
<path fill-rule="evenodd" clip-rule="evenodd" d="M122.395 18.8608C122.395 19.5154 122.603 19.9833 123.02 20.2598C123.437 20.5363 124.024 20.6758 124.781 20.6758C125.16 20.6758 125.551 20.645 125.956 20.5812C126.36 20.5174 126.713 20.4371 127.016 20.3354C127.244 20.6119 127.44 20.9215 127.603 21.2618C127.767 21.6021 127.85 22.011 127.85 22.4907C127.85 23.4478 127.49 24.23 126.77 24.835C126.05 25.44 124.781 25.7425 122.963 25.7425C120.74 25.7425 119.031 25.2391 117.831 24.23C116.63 23.2209 116.031 21.5832 116.031 19.3145V3.13129C116.308 3.05566 116.706 2.97295 117.224 2.88551C117.743 2.79807 118.292 2.75317 118.872 2.75317C119.983 2.75317 120.849 2.94932 121.467 3.33925C122.085 3.72918 122.395 4.5563 122.395 5.81589V8.23582H127.357C127.509 8.51231 127.653 8.85971 127.793 9.27563C127.932 9.69156 128.001 10.1524 128.001 10.6557C128.001 11.5372 127.805 12.1753 127.414 12.5652C127.023 12.9551 126.498 13.1513 125.842 13.1513H122.395V18.8608Z" fill="#2176FF"/>
<path fill-rule="evenodd" clip-rule="evenodd" d="M138.986 21.0917C139.415 21.0917 139.888 21.0468 140.407 20.9593C140.925 20.8719 141.309 20.7514 141.562 20.6001V17.5752L138.835 17.8021C138.127 17.8517 137.547 18.003 137.092 18.2558C136.638 18.5087 136.41 18.8868 136.41 19.3902C136.41 19.8935 136.607 20.3047 136.998 20.619C137.388 20.9334 138.051 21.0917 138.986 21.0917ZM138.682 6.23169C140.046 6.23169 141.289 6.37112 142.413 6.64761C143.538 6.92411 144.497 7.34712 145.292 7.91429C146.088 8.48146 146.701 9.19988 147.129 10.0695C147.558 10.9392 147.773 11.9672 147.773 13.1512V21.6209C147.773 22.2755 147.591 22.812 147.224 23.2279C146.857 23.6438 146.421 24.003 145.917 24.3055C144.277 25.2886 141.966 25.7802 138.985 25.7802C137.648 25.7802 136.44 25.6549 135.368 25.402C134.295 25.1492 133.372 24.7711 132.603 24.2677C131.833 23.7643 131.239 23.1215 130.822 22.3393C130.406 21.5571 130.197 20.6496 130.197 19.6169C130.197 17.8776 130.716 16.5424 131.75 15.6089C132.785 14.6754 134.39 14.0964 136.561 13.8696L141.523 13.3402V13.0755C141.523 12.3453 141.201 11.8207 140.557 11.5064C139.913 11.1921 138.985 11.0337 137.773 11.0337C136.814 11.0337 135.879 11.1353 134.97 11.3362C134.061 11.5371 133.239 11.79 132.508 12.0924C132.179 11.8656 131.902 11.5182 131.675 11.0526C131.447 10.5871 131.334 10.1003 131.334 9.5969C131.334 8.94229 131.492 8.41766 131.807 8.02773C132.122 7.6378 132.61 7.30222 133.265 7.02573C133.997 6.74923 134.864 6.546 135.86 6.42075C136.857 6.2955 137.799 6.23169 138.682 6.23169Z" fill="#2176FF"/>
<path fill-rule="evenodd" clip-rule="evenodd" d="M160.991 11.2984C160.359 11.2984 159.76 11.4 159.192 11.6009C158.623 11.8018 158.131 12.0995 157.714 12.4895C157.298 12.8794 156.964 13.3662 156.71 13.9452C156.457 14.5242 156.332 15.2048 156.332 15.987C156.332 17.5491 156.779 18.7212 157.676 19.5035C158.574 20.2857 159.665 20.6756 160.953 20.6756C161.711 20.6756 162.366 20.5882 162.923 20.4109C163.479 20.2337 163.971 20.0446 164.4 19.8438C164.904 20.1959 165.283 20.5811 165.536 20.997C165.79 21.4129 165.915 21.9116 165.915 22.4906C165.915 23.5233 165.423 24.3244 164.438 24.8916C163.453 25.4588 162.089 25.7423 160.347 25.7423C158.756 25.7423 157.317 25.5084 156.029 25.0428C154.741 24.5773 153.635 23.9203 152.714 23.0766C151.793 22.233 151.078 21.2168 150.574 20.0328C150.07 18.8489 149.816 17.5373 149.816 16.1005C149.816 14.4368 150.089 12.981 150.631 11.7332C151.173 10.4855 151.912 9.45747 152.847 8.65162C153.782 7.84576 154.861 7.24078 156.085 6.83667C157.309 6.43256 158.604 6.23169 159.968 6.23169C161.786 6.23169 163.188 6.56018 164.173 7.21478C165.158 7.86939 165.65 8.71542 165.65 9.74814C165.65 10.2279 165.536 10.6745 165.309 11.0904C165.082 11.5064 164.817 11.8656 164.514 12.1681C164.085 11.9672 163.567 11.7711 162.961 11.582C162.354 11.3929 161.699 11.2984 160.991 11.2984Z" fill="#2176FF"/>
<path fill-rule="evenodd" clip-rule="evenodd" d="M186.028 21.8478C185.903 23.0318 185.555 23.9392 184.987 24.5702C184.418 25.2012 183.592 25.5155 182.505 25.5155C181.698 25.5155 180.978 25.3193 180.346 24.9294C179.714 24.5395 179.032 23.8778 178.301 22.9443L174.551 18.2557V25.1374C174.274 25.187 173.862 25.2579 173.32 25.3453C172.778 25.4328 172.228 25.4777 171.672 25.4777C171.116 25.4777 170.618 25.4399 170.176 25.3642C169.733 25.2886 169.361 25.1374 169.058 24.9105C168.755 24.6836 168.521 24.3741 168.358 23.9841C168.194 23.5942 168.111 23.0837 168.111 22.4528V0.559998C168.388 0.484376 168.8 0.401663 169.342 0.314224C169.885 0.226786 170.434 0.181885 170.99 0.181885C171.547 0.181885 172.044 0.219696 172.486 0.295319C172.929 0.370941 173.301 0.522187 173.604 0.749055C173.907 0.975923 174.141 1.2855 174.305 1.67543C174.468 2.06536 174.551 2.57582 174.551 3.20679V13.189L181.066 6.53419C182.38 6.53419 183.434 6.82487 184.229 7.40385C185.024 7.98284 185.422 8.71543 185.422 9.59691C185.422 9.97502 185.358 10.3224 185.233 10.6367C185.107 10.951 184.911 11.2724 184.646 11.6009C184.381 11.9294 184.04 12.2744 183.623 12.6407C183.206 13.007 182.721 13.4277 182.165 13.9074L179.968 15.798L186.028 21.8478Z" fill="#2176FF"/>
<path fill-rule="evenodd" clip-rule="evenodd" d="M24.5578 1.30573C24.4651 0.730666 24.3924 0.293721 24.3372 -8.7738e-05L3.20854 -8.7738e-05C2.53926 -8.7738e-05 1.99781 0.0878038 1.58421 0.261075C1.17061 0.434347 0.842241 0.682954 0.6016 1.00438C0.36096 1.32582 0.200533 1.72007 0.12032 2.18966C0.0401067 2.65925 0 3.1866 0 3.77673C0 4.36685 0.0476267 4.94945 0.140373 5.52451C0.23312 6.09957 0.30832 6.53651 0.36096 6.83032L21.4897 6.83032C22.159 6.83032 22.7004 6.74243 23.114 6.56916C23.5301 6.39589 23.856 6.14728 24.0966 5.82585C24.3372 5.50442 24.4977 5.11016 24.5779 4.64057C24.6581 4.17098 24.6982 3.64363 24.6982 3.05351C24.6982 2.46338 24.6531 1.88079 24.5578 1.30573ZM3.59278 4.81388C3.93947 5.15492 4.36751 5.32544 4.87441 5.32544C5.38131 5.32544 5.80935 5.15492 6.15604 4.81388C6.50274 4.47283 6.67671 4.02144 6.67671 3.45972C6.67671 2.898 6.50274 2.44661 6.15604 2.10557C5.80935 1.76452 5.38131 1.594 4.87441 1.594C4.36751 1.594 3.93947 1.76452 3.59278 2.10557C3.24609 2.44661 3.07211 2.898 3.07211 3.45972C3.07211 4.02144 3.24609 4.47283 3.59278 4.81388Z" fill="#2176FF"/>
<path fill-rule="evenodd" clip-rule="evenodd" d="M24.5578 10.9351C24.4651 10.3601 24.3924 9.92312 24.3372 9.62931L3.20854 9.62931C2.53926 9.62931 1.99781 9.7172 1.58421 9.89047C1.17061 10.0637 0.842241 10.3123 0.6016 10.6338C0.36096 10.9552 0.200533 11.3495 0.12032 11.8191C0.0401067 12.2886 0 12.816 0 13.4061C0 13.9962 0.0476267 14.5788 0.140373 15.1539C0.23312 15.729 0.30832 16.1659 0.36096 16.4597H21.4897C22.159 16.4597 22.7004 16.3718 23.114 16.1986C23.5301 16.0253 23.856 15.7767 24.0966 15.4552C24.3372 15.1338 24.4977 14.7396 24.5779 14.27C24.6581 13.8004 24.6982 13.273 24.6982 12.6829C24.6982 12.0928 24.6531 11.5102 24.5578 10.9351ZM3.59278 14.4435C3.93947 14.7845 4.36751 14.9551 4.87441 14.9551C5.38131 14.9551 5.80935 14.7845 6.15604 14.4435C6.50274 14.1025 6.67671 13.6511 6.67671 13.0893C6.67671 12.5276 6.50274 12.0762 6.15604 11.7352C5.80935 11.3941 5.38131 11.2236 4.87441 11.2236C4.36751 11.2236 3.93947 11.3941 3.59278 11.7352C3.24609 12.0762 3.07211 12.5276 3.07211 13.0893C3.07211 13.6511 3.24609 14.1025 3.59278 14.4435Z" fill="#2176FF"/>
<path fill-rule="evenodd" clip-rule="evenodd" d="M24.5578 20.4754C24.4651 19.9003 24.3924 19.4634 24.3372 19.1696H3.20854C2.53926 19.1696 1.99781 19.2575 1.58421 19.4308C1.17061 19.604 0.842241 19.8526 0.6016 20.1741C0.36096 20.4955 0.200533 20.8897 0.12032 21.3593C0.0401067 21.8289 0 22.3563 0 22.9464C0 23.5365 0.0476267 24.1191 0.140373 24.6942C0.23312 25.2692 0.30832 25.7062 0.36096 26H21.4897C22.159 26 22.7004 25.9121 23.114 25.7388C23.5301 25.5656 23.856 25.317 24.0966 24.9955C24.3372 24.6741 24.4977 24.2798 24.5779 23.8103C24.6581 23.3407 24.6982 22.8133 24.6982 22.2232C24.6982 21.6331 24.6531 21.0505 24.5578 20.4754ZM3.59278 23.9834C3.93947 24.3245 4.36751 24.495 4.87441 24.495C5.38131 24.495 5.80935 24.3245 6.15604 23.9834C6.50274 23.6424 6.67671 23.191 6.67671 22.6293C6.67671 22.0676 6.50274 21.6162 6.15604 21.2751C5.80935 20.9341 5.38131 20.7636 4.87441 20.7636C4.36751 20.7636 3.93947 20.9341 3.59278 21.2751C3.24609 21.6162 3.07211 22.0676 3.07211 22.6293C3.07211 23.191 3.24609 23.6424 3.59278 23.9834Z" fill="#2176FF"/>
</svg>
