<svg id="Layer_1" width="111px" data-name="Layer 1" xmlns="http://www.w3.org/2000/svg" viewBox="0 0 240.1 215.65"><defs><style>.cls-1{fill:#ff6e00;}.cls-2{fill:#fff;}</style></defs><path class="cls-1" d="M457.68,199.35H301.2A12.68,12.68,0,0,0,288.51,212V402.31A12.68,12.68,0,0,0,301.2,415H491.47a12.69,12.69,0,0,0,12.69-12.69V243a6,6,0,0,0-2.1-5.13c-7.34-7.35-31.66-31.67-34.48-34.48-3.31-3.32-4.8-4-9.9-4" transform="translate(-288.51 -199.35)"/><path class="cls-2" d="M450.19,320.29a40,40,0,1,0,40.05,40,40,40,0,0,0-40.05-40m0,60.77a20.73,20.73,0,1,1,20.74-20.72,20.72,20.72,0,0,1-20.74,20.72" transform="translate(-288.51 -199.35)"/><path class="cls-2" d="M386.47,368.84a15,15,0,0,0-3.27,3.23,20.73,20.73,0,1,1,0-23.46,15,15,0,0,0,3.27,3.23c4.92,3.31,12.59,3.24,19.15,2.66a40,40,0,1,0,0,11.67c-6.56-.58-14.23-.66-19.15,2.67" transform="translate(-288.51 -199.35)"/><path class="cls-2" d="M320.91,386.81a9.25,9.25,0,1,1-9.25-9.24,9.25,9.25,0,0,1,9.25,9.24" transform="translate(-288.51 -199.35)"/><path class="cls-1" d="M514.34,414.82v-7.44h-2.66v-1.52h7.13v1.52h-2.66v7.44Z" transform="translate(-288.51 -199.35)"/><path class="cls-1" d="M520,414.82v-9h2.71l1.62,6.11,1.61-6.11h2.71v9h-1.68v-7.05l-1.78,7.05H523.4l-1.77-7.05v7.05Z" transform="translate(-288.51 -199.35)"/></svg>