<?xml version="1.0" encoding="UTF-8"?>
<svg width="40px" height="40px" viewBox="0 0 40 40" version="1.1" xmlns="http://www.w3.org/2000/svg" xmlns:xlink="http://www.w3.org/1999/xlink">
    <!-- Generator: Sketch 52.6 (67491) - http://www.bohemiancoding.com/sketch -->
    <title>domain</title>
    <desc>Created with Sketch.</desc>
    <g id="New-Designs" stroke="none" stroke-width="1" fill="none" fill-rule="evenodd">
        <g id="Domain-Search" transform="translate(-946.000000, -691.000000)" fill="#031B4E">
            <g id="Group-5-Copy-2" transform="translate(930.000000, 671.000000)">
                <g id="domain" transform="translate(16.000000, 20.000000)">
                    <path d="M36.09375,0 L3.90625,0 C1.75234375,0 0,1.75234375 0,3.90625 L0,36.09375 C0,38.2476562 1.75234375,40 3.90625,40 L26.4666406,40 C26.8980469,40 27.2478906,39.6502344 27.2478906,39.21875 C27.2478906,38.7872656 26.8980469,38.4375 26.4666406,38.4375 L3.90625,38.4375 C2.88796875,38.4375 2.0196875,37.7845313 1.69703125,36.8754687 L9.4140625,36.8754687 C9.84546875,36.8754687 10.1953125,36.5257031 10.1953125,36.0942187 C10.1953125,35.6627344 9.84546875,35.3129687 9.4140625,35.3129687 L1.5625,35.3129687 L1.5625,7.18351563 C1.58828125,7.18609375 1.61445312,7.1875 1.6409375,7.1875 L38.4375,7.1875 L38.4375,36.09375 C38.4375,37.3860938 37.3860938,38.4375 36.09375,38.4375 L32.890625,38.4375 C32.4592187,38.4375 32.109375,38.7872656 32.109375,39.21875 C32.109375,39.6502344 32.4592187,40 32.890625,40 L36.09375,40 C38.2476562,40 40,38.2476562 40,36.09375 L40,3.90625 C40,1.75234375 38.2476562,0 36.09375,0 Z M38.4375,5.625 L1.6409375,5.625 C1.61445313,5.625 1.58828125,5.62640625 1.5625,5.62898437 L1.5625,3.90625 C1.5625,2.61390625 2.61390625,1.5625 3.90625,1.5625 L36.09375,1.5625 C37.3860938,1.5625 38.4375,2.61390625 38.4375,3.90625 L38.4375,5.625 Z" id="Shape" fill-rule="nonzero"></path>
                    <path d="M12.753125,35.540625 C12.6078125,35.3953125 12.40625,35.3117187 12.2007813,35.3117187 C11.9945313,35.3117187 11.79375,35.3953125 11.6484375,35.540625 C11.5023438,35.6859375 11.4195313,35.8875 11.4195313,36.0929687 C11.4195313,36.2992187 11.5023438,36.5 11.6484375,36.6453125 C11.79375,36.7914062 11.9953125,36.8742187 12.2007813,36.8742187 C12.40625,36.8742187 12.6078125,36.7914062 12.753125,36.6453125 C12.8983594,36.5 12.9820313,36.2984375 12.9820313,36.0929687 C12.9820313,35.8875 12.8984375,35.6867187 12.753125,35.540625 Z" id="Path"></path>
                    <path d="M30.3178906,38.6664063 C30.1726562,38.5210937 29.9710937,38.4375 29.765625,38.4375 C29.5601562,38.4375 29.3585938,38.5210937 29.2132813,38.6664063 C29.0679687,38.8117188 28.984375,39.0132812 28.984375,39.21875 C28.984375,39.4242188 29.0678906,39.6257812 29.2132813,39.7710937 C29.3586719,39.9164063 29.5601562,40 29.765625,40 C29.9710937,40 30.1726562,39.9164063 30.3178906,39.7710937 C30.4632031,39.6257812 30.546875,39.4242188 30.546875,39.21875 C30.546875,39.0132812 30.4632813,38.8117188 30.3178906,38.6664063 Z" id="Path"></path>
                    <path d="M35,2.8125 L17.3488281,2.8125 C16.9174219,2.8125 16.5675781,3.16226563 16.5675781,3.59375 C16.5675781,4.02523438 16.9174219,4.375 17.3488281,4.375 L35,4.375 C35.4314062,4.375 35.78125,4.02523438 35.78125,3.59375 C35.78125,3.16226563 35.4314062,2.8125 35,2.8125 Z" id="Path"></path>
                    <path d="M8.67726563,3.04140625 C8.53203125,2.89609375 8.33046875,2.8125 8.125,2.8125 C7.91953125,2.8125 7.71796875,2.89609375 7.57265625,3.04140625 C7.42726563,3.18671875 7.34375,3.38828125 7.34375,3.59375 C7.34375,3.79921875 7.42726563,4.00078125 7.57265625,4.14609375 C7.71804687,4.29140625 7.91953125,4.375 8.125,4.375 C8.33046875,4.375 8.53203125,4.29140625 8.67726563,4.14609375 C8.82265625,4.00078125 8.90625,3.79921875 8.90625,3.59375 C8.90625,3.38828125 8.82265625,3.18671875 8.67726563,3.04140625 Z" id="Path"></path>
                    <path d="M5.55226563,3.04140625 C5.40703125,2.89609375 5.20546875,2.8125 5,2.8125 C4.79453125,2.8125 4.59296875,2.89609375 4.44765625,3.04140625 C4.30226563,3.18671875 4.21875,3.38828125 4.21875,3.59375 C4.21875,3.79921875 4.30226563,4.00078125 4.44765625,4.14609375 C4.59304687,4.29140625 4.79453125,4.375 5,4.375 C5.20546875,4.375 5.40703125,4.29140625 5.55226563,4.14609375 C5.69765625,4.00078125 5.78125,3.79921875 5.78125,3.59375 C5.78125,3.38828125 5.69765625,3.18671875 5.55226563,3.04140625 Z" id="Path"></path>
                    <path d="M11.8022656,3.04140625 C11.6570313,2.89609375 11.4554687,2.8125 11.25,2.8125 C11.0445313,2.8125 10.8429687,2.89609375 10.6976563,3.04140625 C10.5523438,3.18671875 10.46875,3.38828125 10.46875,3.59375 C10.46875,3.79921875 10.5522656,4.00078125 10.6976563,4.14609375 C10.8430469,4.29140625 11.0445313,4.375 11.25,4.375 C11.4554687,4.375 11.6570313,4.29140625 11.8022656,4.14609375 C11.9476563,4.00078125 12.03125,3.79921875 12.03125,3.59375 C12.03125,3.38828125 11.9476563,3.18671875 11.8022656,3.04140625 Z" id="Path"></path>
                    <path d="M9.4140625,10 L5.0390625,10 C4.60765625,10 4.2578125,10.3497656 4.2578125,10.78125 L4.2578125,15.15625 C4.2578125,15.5877344 4.60765625,15.9375 5.0390625,15.9375 L9.4140625,15.9375 C9.84546875,15.9375 10.1953125,15.5877344 10.1953125,15.15625 L10.1953125,10.78125 C10.1953125,10.3497656 9.84546875,10 9.4140625,10 Z M8.6328125,14.375 L5.8203125,14.375 L5.8203125,11.5625 L8.6328125,11.5625 L8.6328125,14.375 Z" id="Shape" fill-rule="nonzero"></path>
                    <path d="M9.4140625,18.75 L5.0390625,18.75 C4.60765625,18.75 4.2578125,19.0997656 4.2578125,19.53125 L4.2578125,23.90625 C4.2578125,24.3377344 4.60765625,24.6875 5.0390625,24.6875 L9.4140625,24.6875 C9.84546875,24.6875 10.1953125,24.3377344 10.1953125,23.90625 L10.1953125,19.53125 C10.1953125,19.0997656 9.84546875,18.75 9.4140625,18.75 Z M8.6328125,23.125 L5.8203125,23.125 L5.8203125,20.3125 L8.6328125,20.3125 L8.6328125,23.125 Z" id="Shape" fill-rule="nonzero"></path>
                    <path d="M9.4140625,27.5 L5.0390625,27.5 C4.60765625,27.5 4.2578125,27.8497656 4.2578125,28.28125 L4.2578125,32.65625 C4.2578125,33.0877344 4.60765625,33.4375 5.0390625,33.4375 L9.4140625,33.4375 C9.84546875,33.4375 10.1953125,33.0877344 10.1953125,32.65625 L10.1953125,28.28125 C10.1953125,27.8497656 9.84546875,27.5 9.4140625,27.5 Z M8.6328125,31.875 L5.8203125,31.875 L5.8203125,29.0625 L8.6328125,29.0625 L8.6328125,31.875 Z" id="Shape" fill-rule="nonzero"></path>
                    <path d="M14.3294531,14.375 L14.296875,14.375 C13.8654688,14.375 13.515625,14.7247656 13.515625,15.15625 C13.515625,15.5877344 13.8654688,15.9375 14.296875,15.9375 L14.3294531,15.9375 C14.7608594,15.9375 15.1107031,15.5877344 15.1107031,15.15625 C15.1107031,14.7247656 14.7608594,14.375 14.3294531,14.375 Z" id="Path"></path>
                    <path d="M14.3294531,23.125 L14.296875,23.125 C13.8654688,23.125 13.515625,23.4747656 13.515625,23.90625 C13.515625,24.3377344 13.8654688,24.6875 14.296875,24.6875 L14.3294531,24.6875 C14.7608594,24.6875 15.1107031,24.3377344 15.1107031,23.90625 C15.1107031,23.4747656 14.7608594,23.125 14.3294531,23.125 Z" id="Path"></path>
                    <path d="M14.8491406,32.0328125 C14.7039062,31.8867187 14.5023437,31.8039062 14.296875,31.8039062 C14.0905469,31.8039062 13.8898437,31.8867187 13.7445313,32.0328125 C13.5992187,32.178125 13.515625,32.3789062 13.515625,32.5851562 C13.515625,32.790625 13.5991406,32.9921875 13.7445313,33.1375 C13.8898438,33.2828125 14.0914063,33.3664062 14.296875,33.3664062 C14.5023437,33.3664062 14.7039063,33.2828125 14.8491406,33.1375 C14.9944531,32.9921875 15.078125,32.790625 15.078125,32.5851562 C15.078125,32.3789062 14.9945313,32.178125 14.8491406,32.0328125 Z" id="Path"></path>
                    <path d="M27.7372656,14.375 L26.3447656,14.375 L26.3447656,13.7857031 L27.1664062,13.7857031 C27.5978125,13.7857031 27.9476562,13.4359375 27.9476562,13.0044531 C27.9476562,12.5729687 27.5978125,12.2232031 27.1664062,12.2232031 L26.3447656,12.2232031 L26.3447656,11.6339062 L27.7372656,11.6339062 C28.1686719,11.6339062 28.5185156,11.2841406 28.5185156,10.8526562 C28.5185156,10.4211719 28.1686719,10.0714062 27.7372656,10.0714062 L25.5635156,10.0714062 C25.1321094,10.0714062 24.7822656,10.4211719 24.7822656,10.8526562 L24.7822656,15.15625 C24.7822656,15.5877344 25.1321094,15.9375 25.5635156,15.9375 L27.7372656,15.9375 C28.1686719,15.9375 28.5185156,15.5877344 28.5185156,15.15625 C28.5185156,14.7247656 28.1686719,14.375 27.7372656,14.375 Z" id="Path"></path>
                    <path d="M34.4175,10.0714062 L30.9020313,10.0714062 C30.470625,10.0714062 30.1207813,10.4211719 30.1207813,10.8526562 C30.1207813,11.2841406 30.470625,11.6339062 30.9020313,11.6339062 L31.8785156,11.6339062 L31.8785156,15.15625 C31.8785156,15.5877344 32.2282813,15.9375 32.6597656,15.9375 C33.0911719,15.9375 33.4410156,15.5877344 33.4410156,15.15625 L33.4410156,11.6339062 L34.4175,11.6339062 C34.8489063,11.6339062 35.19875,11.2841406 35.19875,10.8526562 C35.19875,10.4211719 34.8489062,10.0714062 34.4175,10.0714062 Z" id="Path"></path>
                    <path d="M22.1260156,10.0713281 C21.6946094,10.0713281 21.3447656,10.4210938 21.3447656,10.8525781 L21.3447656,13.2700781 L18.3748438,10.3001562 C18.1514844,10.0767187 17.8153906,10.0099219 17.5234375,10.1308594 C17.2315625,10.2517969 17.0411719,10.5366406 17.0411719,10.8526562 L17.0411719,15.15625 C17.0411719,15.5877344 17.3910156,15.9375 17.8224219,15.9375 C18.2538281,15.9375 18.6036719,15.5877344 18.6036719,15.15625 L18.6036719,12.73875 L21.5735938,15.7086719 C21.7230469,15.858125 21.9228906,15.9375 22.1261719,15.9375 C22.2267969,15.9375 22.3283594,15.9179688 22.425,15.8779688 C22.716875,15.7570313 22.9072656,15.4721875 22.9072656,15.1561719 L22.9072656,10.8525781 C22.9072656,10.4210937 22.5574219,10.0713281 22.1260156,10.0713281 Z" id="Path"></path>
                    <path d="M35.2989844,27.5594531 C35.0071094,27.4385156 34.6710156,27.5054688 34.4475781,27.72875 L32.8482031,29.328125 L31.2488281,27.72875 C31.0253906,27.5053125 30.689375,27.4385938 30.3974219,27.5594531 C30.1055469,27.6803906 29.9151562,27.9652344 29.9151562,28.28125 L29.9151562,32.5848438 C29.9151562,33.0163281 30.265,33.3660938 30.6964062,33.3660938 C31.1278125,33.3660938 31.4776562,33.0163281 31.4776562,32.5848438 L31.4776562,30.1673438 L32.2957812,30.9854688 C32.6009375,31.290625 33.0954687,31.290625 33.400625,30.9854688 L34.21875,30.1673438 L34.21875,32.5848438 C34.21875,33.0163281 34.5685937,33.3660938 35,33.3660938 C35.4314063,33.3660938 35.78125,33.0163281 35.78125,32.5848438 L35.78125,28.28125 C35.78125,27.9653125 35.5908594,27.6803906 35.2989844,27.5594531 Z" id="Path"></path>
                    <path d="M26.0546875,27.5 C24.4177344,27.5 23.0859375,28.8317969 23.0859375,30.46875 C23.0859375,32.1057031 24.4177344,33.4375 26.0546875,33.4375 C27.6916406,33.4375 29.0234375,32.1057031 29.0234375,30.46875 C29.0234375,28.8317969 27.6916406,27.5 26.0546875,27.5 Z M26.0546875,31.875 C25.2792969,31.875 24.6484375,31.2441406 24.6484375,30.46875 C24.6484375,29.6933594 25.2792969,29.0625 26.0546875,29.0625 C26.8300781,29.0625 27.4609375,29.6933594 27.4609375,30.46875 C27.4609375,31.2441406 26.8300781,31.875 26.0546875,31.875 Z" id="Shape" fill-rule="nonzero"></path>
                    <path d="M21.0042969,31.463125 C20.73875,31.72875 20.3855469,31.875 20.0099219,31.875 C19.6342969,31.875 19.2811719,31.72875 19.0155469,31.463125 C18.4671875,30.9148438 18.4671875,30.0227344 19.0155469,29.474375 C19.2811719,29.20875 19.6342969,29.0625 20.0099219,29.0625 C20.3855469,29.0625 20.7386719,29.20875 21.0042969,29.474375 C21.3094531,29.7795312 21.8039844,29.7795312 22.1092188,29.474375 C22.4142969,29.1692969 22.4142969,28.6746094 22.1092188,28.3695313 C21.5484375,27.80875 20.8029688,27.5 20.01,27.5 C19.2170313,27.5 18.4715625,27.8088281 17.9107813,28.3695313 C16.7533594,29.5270312 16.7533594,31.4104687 17.9107813,32.5679687 C18.4715625,33.12875 19.2170313,33.4375 20.01,33.4375 C20.8029688,33.4375 21.5484375,33.1286719 22.1092188,32.5679687 C22.4142969,32.2628906 22.4142969,31.7682031 22.1092188,31.463125 C21.8040625,31.1580469 21.3095312,31.1580469 21.0042969,31.463125 Z" id="Path"></path>
                    <path d="M20.0099219,18.75 C18.3729687,18.75 17.0411719,20.0817969 17.0411719,21.71875 C17.0411719,23.3557031 18.3729687,24.6875 20.0099219,24.6875 C21.646875,24.6875 22.9786719,23.3557031 22.9786719,21.71875 C22.9786719,20.0817969 21.646875,18.75 20.0099219,18.75 Z M20.0099219,23.125 C19.2345312,23.125 18.6036719,22.4941406 18.6036719,21.71875 C18.6036719,20.9433594 19.2345312,20.3125 20.0099219,20.3125 C20.7853125,20.3125 21.4161719,20.9433594 21.4161719,21.71875 C21.4161719,22.4941406 20.7853125,23.125 20.0099219,23.125 Z" id="Shape" fill-rule="nonzero"></path>
                    <path d="M28.3975781,23.20125 L27.5053125,22.6642969 C28.2495313,22.3625781 28.7760156,21.6325 28.7760156,20.7813281 C28.7760156,19.6613281 27.8648437,18.7500781 26.7447656,18.7500781 L24.9385156,18.7500781 C24.5070312,18.75 24.1572656,19.0997656 24.1572656,19.53125 L24.1572656,23.8705469 C24.1572656,24.3020313 24.5071094,24.6517969 24.9385156,24.6517969 C25.3699219,24.6517969 25.7197656,24.3020313 25.7197656,23.8705469 L25.7197656,23.4132031 L27.5919531,24.5399219 C27.7179687,24.6157813 27.8569531,24.6519531 27.9939844,24.6519531 C28.2590625,24.6519531 28.5175,24.5170313 28.6641406,24.2734375 C28.8866406,23.90375 28.7672656,23.42375 28.3975781,23.20125 Z M26.7447656,21.25 L25.7197656,21.25 L25.7197656,21.015625 L25.7197656,20.3125 L26.7447656,20.3125 C27.0032813,20.3125 27.2135156,20.5227344 27.2135156,20.78125 C27.2135156,21.0397656 27.0032813,21.25 26.7447656,21.25 Z" id="Shape" fill-rule="nonzero"></path>
                    <path d="M35.0357031,20.9375 L33.828125,20.9375 C33.3967187,20.9375 33.046875,21.2872656 33.046875,21.71875 C33.046875,22.1502344 33.3967187,22.5 33.828125,22.5 L34.0169531,22.5 C33.7644531,22.8766406 33.3348437,23.125 32.8482031,23.125 C32.0728125,23.125 31.4419531,22.4941406 31.4419531,21.71875 C31.4419531,20.9433594 32.0728125,20.3125 32.8482031,20.3125 C33.2796094,20.3125 33.6294531,19.9627344 33.6294531,19.53125 C33.6294531,19.0997656 33.2796094,18.75 32.8482031,18.75 C31.21125,18.75 29.8794531,20.0817969 29.8794531,21.71875 C29.8794531,23.3557031 31.21125,24.6875 32.8482031,24.6875 C34.4851562,24.6875 35.8169531,23.3557031 35.8169531,21.71875 C35.8169531,21.2872656 35.4671094,20.9375 35.0357031,20.9375 Z" id="Path"></path>
                </g>
            </g>
        </g>
    </g>
</svg>