<svg width="60" height="60" viewBox="0 0 60 60" fill="none" xmlns="http://www.w3.org/2000/svg">
<path d="M51.25 47.4988H31.25C30.56 47.4988 30 48.0588 30 48.7488C30 49.4388 30.56 49.9989 31.25 49.9989H51.2501C51.9401 49.9989 52.5001 49.4388 52.5001 48.7488C52.5001 48.0588 51.94 47.4988 51.25 47.4988Z" fill="#031B4E"/>
<path d="M51.25 52.4987H31.25C30.56 52.4987 30 53.0588 30 53.7488C30 54.4388 30.56 54.9988 31.25 54.9988H51.2501C51.9401 54.9988 52.5001 54.4388 52.5001 53.7488C52.5 53.0588 51.94 52.4987 51.25 52.4987Z" fill="#031B4E"/>
<path d="M8.75 47.4988C6.68246 47.4988 5 49.1812 5 51.2488C5 53.3163 6.68246 54.9988 8.75 54.9988C10.8175 54.9988 12.5 53.3163 12.5 51.2488C12.5 49.1812 10.8174 47.4988 8.75 47.4988ZM8.75 52.4987C8.06 52.4987 7.49996 51.9387 7.49996 51.2487C7.49996 50.5587 8.06 49.9986 8.75 49.9986C9.44 49.9986 10 50.5587 10 51.2487C9.99992 51.9388 9.44 52.4987 8.75 52.4987Z" fill="#031B4E"/>
<path d="M8.75 32.4988C6.68246 32.4988 5 34.1812 5 36.2488C5 38.3163 6.68246 39.9988 8.75 39.9988C10.8175 39.9988 12.5 38.3163 12.5 36.2488C12.5 34.1812 10.8174 32.4988 8.75 32.4988ZM8.75 37.4987C8.06 37.4987 7.49996 36.9387 7.49996 36.2487C7.49996 35.5587 8.06 34.9986 8.75 34.9986C9.44 34.9986 10 35.5587 10 36.2487C10 36.9387 9.44 37.4987 8.75 37.4987Z" fill="#031B4E"/>
<path d="M51.25 22.4987H31.25C30.56 22.4987 30 23.0587 30 23.7487C30 24.4387 30.56 24.9987 31.25 24.9987H51.2501C51.9401 24.9987 52.5001 24.4387 52.5001 23.7487C52.5001 23.0587 51.94 22.4987 51.25 22.4987Z" fill="#031B4E"/>
<path d="M60 23.7487V18.7487C60 17.5487 59.6425 16.4362 59.0525 15.4812C59.0351 15.4461 59.0325 15.4062 59.0126 15.3737L51.2825 2.94878C50.135 1.10378 48.15 0.00128174 45.975 0.00128174H14.0325C11.855 0.00128174 9.87246 1.10378 8.72496 2.94878L0.995039 15.3737C0.9825 15.3937 0.9825 15.4162 0.970078 15.4387C0.365039 16.4012 0 17.5312 0 18.7487V23.7487C0 25.7987 1.00746 27.6088 2.54004 28.7488C1.00746 29.8912 0 31.6987 0 33.7487V38.7487C0 40.7987 1.00746 42.6088 2.54004 43.7488C1.00746 44.8912 0 46.6987 0 48.7487V53.7487C0 57.1937 2.805 59.9987 6.24996 59.9987H53.7499C57.1949 59.9987 59.9999 57.1937 59.9999 53.7487V48.7487C59.9999 46.6987 58.9924 44.8887 57.4598 43.7487C58.9925 42.6088 60 40.7987 60 38.7487V33.7487C60 31.6987 58.9925 29.8887 57.46 28.7487C58.9925 27.6088 60 25.8013 60 23.7487ZM10.8475 4.26878C11.535 3.16124 12.7249 2.49878 14.0299 2.49878H45.9724C47.2774 2.49878 48.4675 3.16124 49.1549 4.26878L54.3124 12.5563C54.1249 12.5388 53.9425 12.4987 53.7499 12.4987H6.24996C6.05742 12.4987 5.87742 12.5387 5.68992 12.5563L10.8475 4.26878ZM57.5 48.7487V53.7487C57.5 55.8163 55.8176 57.4987 53.75 57.4987H6.24996C4.18242 57.4987 2.49996 55.8163 2.49996 53.7487V48.7487C2.49996 46.6812 4.18242 44.9987 6.24996 44.9987H53.7499C55.8175 44.9987 57.5 46.6813 57.5 48.7487ZM57.5 33.7487V38.7487C57.5 40.8163 55.8176 42.4987 53.75 42.4987H6.24996C4.18242 42.4987 2.49996 40.8163 2.49996 38.7487V33.7487C2.49996 31.6812 4.18242 29.9987 6.24996 29.9987H53.7499C55.8175 29.9987 57.5 31.6813 57.5 33.7487ZM57.5 23.7487C57.5 25.8163 55.8176 27.4987 53.75 27.4987H6.24996C4.18242 27.4987 2.49996 25.8163 2.49996 23.7487V18.7487C2.49996 16.6812 4.18242 14.9987 6.24996 14.9987H53.7499C55.8175 14.9987 57.4999 16.6812 57.4999 18.7487V23.7487H57.5Z" fill="#031B4E"/>
<path d="M51.25 17.4988H31.25C30.56 17.4988 30 18.0588 30 18.7488C30 19.4388 30.56 19.9989 31.25 19.9989H51.2501C51.9401 19.9989 52.5001 19.4388 52.5001 18.7488C52.5001 18.0588 51.94 17.4988 51.25 17.4988Z" fill="#031B4E"/>
<path d="M51.25 37.4987H31.25C30.56 37.4987 30 38.0588 30 38.7488C30 39.4388 30.56 39.9988 31.25 39.9988H51.2501C51.9401 39.9988 52.5001 39.4388 52.5001 38.7488C52.5001 38.0588 51.94 37.4987 51.25 37.4987Z" fill="#031B4E"/>
<path d="M51.25 32.4988H31.25C30.56 32.4988 30 33.0588 30 33.7488C30 34.4388 30.56 34.9989 31.25 34.9989H51.2501C51.9401 34.9989 52.5001 34.4388 52.5001 33.7488C52.5001 33.0588 51.94 32.4988 51.25 32.4988Z" fill="#031B4E"/>
<path d="M8.75 17.4988C6.68246 17.4988 5 19.1812 5 21.2488C5 23.3163 6.68246 24.9988 8.75 24.9988C10.8175 24.9988 12.5 23.3163 12.5 21.2488C12.5 19.1812 10.8174 17.4988 8.75 17.4988ZM8.75 22.4987C8.06 22.4987 7.49996 21.9387 7.49996 21.2487C7.49996 20.5587 8.06 19.9986 8.75 19.9986C9.44 19.9986 10 20.5587 10 21.2487C10 21.9387 9.44 22.4987 8.75 22.4987Z" fill="#031B4E"/>
</svg>
