<svg width="50" height="50" viewBox="0 0 50 50" fill="none" xmlns="http://www.w3.org/2000/svg">
<path d="M13.2812 20.5078C10.858 20.5078 8.88672 22.4791 8.88672 24.9023V36.8164C8.88672 39.2396 10.858 41.2109 13.2812 41.2109C15.7045 41.2109 17.6758 39.2396 17.6758 36.8164V24.9023C17.6758 22.4791 15.7045 20.5078 13.2812 20.5078Z" fill="#031B4E"/>
<path d="M5.95703 24.9022C5.95703 24.4797 6.01279 24.0715 6.08184 23.6685C4.31641 24.2391 3.02734 25.8789 3.02734 27.8319V33.8866C3.02734 35.8397 4.31641 37.4795 6.08184 38.0501C6.01279 37.6471 5.95703 37.2389 5.95703 36.8163V24.9022Z" fill="#031B4E"/>
<path d="M36.7188 20.5078C34.2955 20.5078 32.3242 22.4791 32.3242 24.9023V36.8164C32.3242 39.2396 34.2955 41.2109 36.7188 41.2109C37.1592 41.2109 37.5764 41.1262 37.9777 41.0051C37.4324 42.8126 35.772 44.1406 33.7891 44.1406H29.1247C28.518 42.4393 26.9072 41.2109 25 41.2109C22.5768 41.2109 20.6055 43.1822 20.6055 45.6055C20.6055 48.0287 22.5768 50 25 50C26.9072 50 28.518 48.7717 29.1247 47.0703H33.7891C37.8274 47.0703 41.1133 43.7845 41.1133 39.7461V36.8164V24.9023C41.1133 22.4791 39.142 20.5078 36.7188 20.5078Z" fill="#031B4E"/>
<path d="M43.918 23.6685C43.987 24.0715 44.0428 24.4797 44.0428 24.9022V36.8163C44.0428 37.2389 43.987 37.6471 43.918 38.0501C45.6834 37.4795 46.9725 35.8397 46.9725 33.8866V27.8319C46.9725 25.8789 45.6834 24.2391 43.918 23.6685Z" fill="#031B4E"/>
<path d="M25 0C12.8836 0 3.02734 9.85625 3.02734 21.9727V22.0101C3.9001 21.3493 4.90986 20.8658 6.02412 20.6493C6.70879 10.7667 14.9467 2.92969 25 2.92969C35.0533 2.92969 43.2912 10.7667 43.9759 20.6492C45.09 20.8657 46.0998 21.3493 46.9727 22.01V21.9727C46.9727 9.85625 37.1164 0 25 0Z" fill="#031B4E"/>
</svg>
