<svg width="46" height="46" viewBox="0 0 46 46" fill="none" xmlns="http://www.w3.org/2000/svg">
<circle cx="23.331" cy="23.4737" r="22.5263" fill="#FFA200" fill-opacity="0.17"/>
<path fill-rule="evenodd" clip-rule="evenodd" d="M33.1847 23.0338H29.9284V12.6506C29.9284 12.4726 29.8212 12.3122 29.6568 12.2441C29.4923 12.1759 29.3031 12.2137 29.1773 12.3394L27.9309 13.5858L26.6846 12.3395C26.5128 12.1677 26.2342 12.1677 26.0624 12.3395L24.8161 13.5858L23.5698 12.3395C23.398 12.1677 23.1195 12.1677 22.9476 12.3395L21.7013 13.5858L20.4549 12.3395C20.2831 12.1677 20.0045 12.1677 19.8327 12.3395L18.5863 13.5858L17.3401 12.3395C17.1683 12.1677 16.8897 12.1677 16.7178 12.3395L15.4715 13.5858L14.2252 12.3395C14.0545 12.1687 13.7783 12.1678 13.606 12.3371C13.5156 12.426 13.4717 12.5445 13.4748 12.6621V32.4491C13.4748 33.7106 14.501 34.7369 15.7625 34.7369H31.3363H31.3365H31.3369C32.5984 34.7369 33.6246 33.7106 33.6246 32.4491V23.4737C33.6246 23.2307 33.4277 23.0338 33.1847 23.0338ZM15.7631 33.857C14.9867 33.857 14.3552 33.2255 14.3552 32.4492V13.7134L15.161 14.5191C15.3328 14.691 15.6114 14.691 15.7832 14.5191L17.0296 13.2728L18.2759 14.5191C18.4477 14.691 18.7263 14.691 18.8981 14.5191L20.1445 13.2728L21.3909 14.5191C21.5627 14.691 21.8413 14.691 22.0131 14.5191L23.2594 13.2728L24.5057 14.5191C24.6775 14.691 24.9561 14.691 25.128 14.5191L26.3743 13.2728L27.6207 14.5191C27.7925 14.691 28.0711 14.691 28.2429 14.5191L29.0493 13.7128V23.4738C29.0493 23.4778 29.0498 23.4817 29.0499 23.4857V32.4492C29.0499 32.9799 29.232 33.4685 29.5364 33.857H15.7631ZM31.3379 33.8569C32.1142 33.8569 32.7458 33.2253 32.7458 32.4491V23.9137H29.93V32.4491C29.93 33.2253 30.5616 33.8569 31.3379 33.8569Z" fill="#F79D08"/>
<path fill-rule="evenodd" clip-rule="evenodd" d="M21.7031 19.1997C21.2664 19.1997 20.9112 18.8955 20.9112 18.5217C20.9112 18.1478 21.2665 17.8436 21.7031 17.8436C22.1397 17.8436 22.495 18.1478 22.495 18.5217C22.495 18.7647 22.692 18.9616 22.9349 18.9616C23.1779 18.9616 23.3749 18.7647 23.3749 18.5217C23.3749 17.8045 22.8521 17.1994 22.143 17.0189V16.7209C22.143 16.4779 21.9461 16.2809 21.7031 16.2809C21.4601 16.2809 21.2631 16.4779 21.2631 16.7209V17.0189C20.5541 17.1994 20.0312 17.8045 20.0312 18.5217C20.0312 19.3807 20.7813 20.0796 21.7031 20.0796C22.1397 20.0796 22.495 20.3838 22.495 20.7577C22.495 21.1316 22.1397 21.4357 21.7031 21.4357C21.2664 21.4357 20.9112 21.1315 20.9112 20.7577C20.9112 20.5147 20.7142 20.3177 20.4712 20.3177C20.2282 20.3177 20.0312 20.5147 20.0312 20.7577C20.0312 21.4749 20.5541 22.08 21.2631 22.2605V22.6195C21.2631 22.8625 21.4601 23.0595 21.7031 23.0595C21.9461 23.0595 22.143 22.8625 22.143 22.6195V22.2605C22.8521 22.08 23.3749 21.4749 23.3749 20.7577C23.3749 19.8986 22.6249 19.1997 21.7031 19.1997Z" fill="#F79D08"/>
<path fill-rule="evenodd" clip-rule="evenodd" d="M26.1217 19.1995H25.2642C25.0212 19.1995 24.8242 19.3964 24.8242 19.6394C24.8242 19.8824 25.0212 20.0794 25.2642 20.0794H26.1217C26.3647 20.0794 26.5616 19.8824 26.5616 19.6394C26.5616 19.3964 26.3647 19.1995 26.1217 19.1995Z" fill="#F79D08"/>
<path fill-rule="evenodd" clip-rule="evenodd" d="M18.1393 19.1995H17.2818C17.0388 19.1995 16.8418 19.3964 16.8418 19.6394C16.8418 19.8824 17.0388 20.0794 17.2818 20.0794H18.1393C18.3823 20.0794 18.5792 19.8824 18.5792 19.6394C18.5792 19.3964 18.3823 19.1995 18.1393 19.1995Z" fill="#F79D08"/>
<path fill-rule="evenodd" clip-rule="evenodd" d="M26.3437 24.09H19.3736C19.1306 24.09 18.9336 24.2869 18.9336 24.5299C18.9336 24.7729 19.1306 24.9699 19.3736 24.9699H26.3437C26.5866 24.9699 26.7836 24.7729 26.7836 24.5299C26.7836 24.2869 26.5866 24.09 26.3437 24.09Z" fill="#F79D08"/>
<path fill-rule="evenodd" clip-rule="evenodd" d="M17.3721 24.2189C17.2903 24.137 17.1768 24.09 17.0611 24.09C16.9453 24.09 16.8318 24.137 16.75 24.2189C16.6682 24.3007 16.6211 24.4142 16.6211 24.5299C16.6211 24.6456 16.6682 24.7592 16.75 24.841C16.8318 24.9228 16.9453 24.9699 17.0611 24.9699C17.1768 24.9699 17.2903 24.9228 17.3721 24.841C17.454 24.7592 17.501 24.6456 17.501 24.5299C17.501 24.4142 17.454 24.3007 17.3721 24.2189Z" fill="#F79D08"/>
<path fill-rule="evenodd" clip-rule="evenodd" d="M26.3437 26.9937H19.3736C19.1306 26.9937 18.9336 27.1906 18.9336 27.4336C18.9336 27.6766 19.1306 27.8736 19.3736 27.8736H26.3437C26.5866 27.8736 26.7836 27.6766 26.7836 27.4336C26.7836 27.1906 26.5866 26.9937 26.3437 26.9937Z" fill="#F79D08"/>
<path fill-rule="evenodd" clip-rule="evenodd" d="M17.3721 27.1226C17.2903 27.0407 17.1768 26.9937 17.0611 26.9937C16.9453 26.9937 16.8318 27.0407 16.75 27.1226C16.6682 27.2044 16.6211 27.3179 16.6211 27.4336C16.6211 27.5493 16.6682 27.6628 16.75 27.7447C16.8318 27.8265 16.9453 27.8736 17.0611 27.8736C17.1768 27.8736 17.2903 27.8265 17.3721 27.7447C17.454 27.6628 17.501 27.5493 17.501 27.4336C17.501 27.3179 17.454 27.2044 17.3721 27.1226Z" fill="#F79D08"/>
<path fill-rule="evenodd" clip-rule="evenodd" d="M26.3437 29.8973H19.3736C19.1306 29.8973 18.9336 30.0943 18.9336 30.3373C18.9336 30.5803 19.1306 30.7773 19.3736 30.7773H26.3437C26.5866 30.7773 26.7836 30.5803 26.7836 30.3373C26.7836 30.0943 26.5866 29.8973 26.3437 29.8973Z" fill="#F79D08"/>
<path fill-rule="evenodd" clip-rule="evenodd" d="M17.3721 30.0262C17.2903 29.9444 17.1768 29.8973 17.0611 29.8973C16.9453 29.8973 16.8318 29.9444 16.75 30.0262C16.6682 30.1081 16.6211 30.2216 16.6211 30.3373C16.6211 30.453 16.6682 30.5665 16.75 30.6484C16.8318 30.7302 16.9453 30.7773 17.0611 30.7773C17.1768 30.7773 17.2903 30.7302 17.3721 30.6484C17.454 30.5665 17.501 30.453 17.501 30.3373C17.501 30.2216 17.454 30.1081 17.3721 30.0262Z" fill="#F79D08"/>
</svg>
