<svg width="46" height="46" viewBox="0 0 46 46" fill="none" xmlns="http://www.w3.org/2000/svg">
<circle cx="22.5283" cy="22.5263" r="22.5263" fill="#2176FF" fill-opacity="0.08"/>
<path fill-rule="evenodd" clip-rule="evenodd" d="M12.3272 11.2631H32.7304C33.3157 11.2631 33.7919 11.7461 33.7919 12.3397V15.5928C33.7919 16.1864 33.3157 16.6694 32.7304 16.6694H12.3272C11.7418 16.6694 11.2656 16.1864 11.2656 15.5928V12.3397C11.2656 11.7461 11.7418 11.2631 12.3272 11.2631ZM32.731 15.9402C32.92 15.9402 33.0737 15.7844 33.0737 15.5928V12.3397C33.0737 12.1481 32.92 11.9922 32.731 11.9922H12.3278C12.1389 11.9922 11.9852 12.1481 11.9852 12.3397V15.5928C11.9852 15.7844 12.1389 15.9402 12.3278 15.9402H32.731Z" fill="#2176FF"/>
<path fill-rule="evenodd" clip-rule="evenodd" d="M24.8719 19.3726H13.877C13.6785 19.3726 13.5176 19.4734 13.5176 19.5978C13.5176 19.7223 13.6785 19.8231 13.877 19.8231H24.8719C25.0704 19.8231 25.2313 19.7223 25.2313 19.5978C25.2313 19.4734 25.0704 19.3726 24.8719 19.3726Z" fill="#2176FF"/>
<path fill-rule="evenodd" clip-rule="evenodd" d="M29.7344 20.0484C29.7344 19.4274 30.2396 18.9221 30.8607 18.9221C31.4818 18.9221 31.987 19.4274 31.987 20.0484C31.987 20.6695 31.4818 21.1748 30.8607 21.1748C30.2396 21.1748 29.7344 20.6695 29.7344 20.0484ZM30.4851 20.0484C30.4851 20.2555 30.6535 20.4239 30.8605 20.4239C31.0675 20.4239 31.2359 20.2555 31.2359 20.0484C31.2359 19.8414 31.0675 19.673 30.8605 19.673C30.6535 19.673 30.4851 19.8414 30.4851 20.0484Z" fill="#2176FF"/>
<path fill-rule="evenodd" clip-rule="evenodd" d="M26.584 20.0484C26.584 19.4274 27.0892 18.9221 27.7103 18.9221C28.3314 18.9221 28.8366 19.4274 28.8366 20.0484C28.8366 20.6695 28.3314 21.1748 27.7103 21.1748C27.0892 21.1748 26.584 20.6695 26.584 20.0484ZM27.3318 20.0484C27.3318 20.2554 27.5002 20.4238 27.7072 20.4238C27.9143 20.4238 28.0827 20.2554 28.0827 20.0484C28.0827 19.8413 27.9143 19.6729 27.7072 19.6729C27.5002 19.6729 27.3318 19.8413 27.3318 20.0484Z" fill="#2176FF"/>
<path fill-rule="evenodd" clip-rule="evenodd" d="M12.3272 17.1198H32.7304C33.3157 17.1198 33.7919 17.6027 33.7919 18.1964V21.4494C33.7919 22.0431 33.3157 22.5261 32.7304 22.5261H12.3272C11.7418 22.5261 11.2656 22.0431 11.2656 21.4494V18.1964C11.2656 17.6027 11.7418 17.1198 12.3272 17.1198ZM32.731 21.797C32.92 21.797 33.0737 21.6411 33.0737 21.4495V18.1965C33.0737 18.0049 32.92 17.849 32.731 17.849H12.3278C12.1389 17.849 11.9852 18.0049 11.9852 18.1965V21.4495C11.9852 21.6411 12.1389 21.797 12.3278 21.797H32.731Z" fill="#2176FF"/>
<path fill-rule="evenodd" clip-rule="evenodd" d="M24.8719 25.6799H13.877C13.6785 25.6799 13.5176 25.7808 13.5176 25.9052C13.5176 26.0296 13.6785 26.1305 13.877 26.1305H24.8719C25.0704 26.1305 25.2313 26.0296 25.2313 25.9052C25.2313 25.7808 25.0704 25.6799 24.8719 25.6799Z" fill="#2176FF"/>
<path fill-rule="evenodd" clip-rule="evenodd" d="M29.7344 25.9052C29.7344 25.2842 30.2396 24.7789 30.8607 24.7789C31.4818 24.7789 31.987 25.2842 31.987 25.9052C31.987 26.5263 31.4818 27.0316 30.8607 27.0316C30.2396 27.0316 29.7344 26.5263 29.7344 25.9052ZM30.4851 25.9054C30.4851 26.1124 30.6535 26.2808 30.8605 26.2808C31.0675 26.2808 31.2359 26.1124 31.2359 25.9054C31.2359 25.6984 31.0675 25.53 30.8605 25.53C30.6535 25.53 30.4851 25.6984 30.4851 25.9054Z" fill="#2176FF"/>
<path fill-rule="evenodd" clip-rule="evenodd" d="M26.584 25.905C26.584 25.284 27.0892 24.7787 27.7103 24.7787C28.3314 24.7787 28.8366 25.284 28.8366 25.905C28.8366 26.526 28.3314 27.0313 27.7103 27.0313C27.0892 27.0313 26.584 26.526 26.584 25.905ZM27.3318 25.905C27.3318 26.1121 27.5002 26.2805 27.7072 26.2805C27.9143 26.2805 28.0827 26.1121 28.0827 25.905C28.0827 25.698 27.9143 25.5296 27.7072 25.5296C27.5002 25.5296 27.3318 25.698 27.3318 25.905Z" fill="#2176FF"/>
<path fill-rule="evenodd" clip-rule="evenodd" d="M12.3272 23.4271H32.7304C33.3157 23.4271 33.7919 23.9101 33.7919 24.5038V27.7568C33.7919 28.3504 33.3157 28.8334 32.7304 28.8334H12.3272C11.7418 28.8334 11.2656 28.3505 11.2656 27.7568V24.5038C11.2656 23.9101 11.7418 23.4271 12.3272 23.4271ZM32.731 28.1045C32.92 28.1045 33.0737 27.9486 33.0737 27.757V24.504C33.0737 24.3124 32.92 24.1565 32.731 24.1565H12.3278C12.1389 24.1565 11.9852 24.3124 11.9852 24.504V27.757C11.9852 27.9486 12.1389 28.1045 12.3278 28.1045H32.731Z" fill="#2176FF"/>
<path fill-rule="evenodd" clip-rule="evenodd" d="M33.4325 31.8165C33.631 31.8165 33.7919 31.6509 33.7919 31.4466C33.7919 31.2422 33.631 31.0767 33.4325 31.0767H25.2969C25.2702 30.8995 25.1218 30.7637 24.9421 30.7637H23.9989V29.654C23.9989 29.4496 23.8379 29.2841 23.6394 29.2841C23.4409 29.2841 23.28 29.4496 23.28 29.654V31.1336C23.28 31.3379 23.4409 31.5035 23.6394 31.5035H24.5827V33.0495H20.475V31.5035H22.2016C22.4001 31.5035 22.561 31.3379 22.561 31.1336C22.561 30.9293 22.4001 30.7637 22.2016 30.7637H21.7776V29.654C21.7776 29.4496 21.6167 29.2841 21.4181 29.2841C21.2196 29.2841 21.0587 29.4496 21.0587 29.654V30.7637H20.1155C19.9358 30.7637 19.7874 30.8995 19.7607 31.0767H11.6251C11.4266 31.0767 11.2656 31.2422 11.2656 31.4466C11.2656 31.6509 11.4266 31.8165 11.6251 31.8165H19.756V32.5563H11.6251C11.4266 32.5563 11.2656 32.7219 11.2656 32.9262C11.2656 33.1305 11.4266 33.2961 11.6251 33.2961H19.756V33.4194C19.756 33.6238 19.9169 33.7893 20.1154 33.7893H24.9421C25.1406 33.7893 25.3015 33.6238 25.3015 33.4194V33.2961H33.4325C33.631 33.2961 33.7919 33.1305 33.7919 32.9262C33.7919 32.7219 33.631 32.5563 33.4325 32.5563H25.3016V31.8165H33.4325Z" fill="#2176FF"/>
<path fill-rule="evenodd" clip-rule="evenodd" d="M24.8719 13.9661H13.877C13.6785 13.9661 13.5176 14.0669 13.5176 14.1913C13.5176 14.3158 13.6785 14.4166 13.877 14.4166H24.8719C25.0704 14.4166 25.2313 14.3158 25.2313 14.1913C25.2313 14.0669 25.0704 13.9661 24.8719 13.9661Z" fill="#2176FF"/>
<path fill-rule="evenodd" clip-rule="evenodd" d="M29.7344 14.1917C29.7344 13.5707 30.2396 13.0654 30.8607 13.0654C31.4818 13.0654 31.987 13.5707 31.987 14.1917C31.987 14.8128 31.4818 15.3181 30.8607 15.3181C30.2396 15.3181 29.7344 14.8128 29.7344 14.1917ZM30.4851 14.1919C30.4851 14.3989 30.6535 14.5673 30.8605 14.5673C31.0675 14.5673 31.2359 14.3989 31.2359 14.1919C31.2359 13.9849 31.0675 13.8165 30.8605 13.8165C30.6535 13.8165 30.4851 13.9849 30.4851 14.1919Z" fill="#2176FF"/>
<path fill-rule="evenodd" clip-rule="evenodd" d="M26.584 14.1917C26.584 13.5707 27.0892 13.0654 27.7103 13.0654C28.3314 13.0654 28.8366 13.5707 28.8366 14.1917C28.8366 14.8128 28.3314 15.3181 27.7103 15.3181C27.0892 15.3181 26.584 14.8128 26.584 14.1917ZM27.3318 14.1918C27.3318 14.3988 27.5002 14.5672 27.7072 14.5672C27.9143 14.5672 28.0827 14.3988 28.0827 14.1918C28.0827 13.9847 27.9143 13.8163 27.7072 13.8163C27.5002 13.8163 27.3318 13.9847 27.3318 14.1918Z" fill="#2176FF"/>
</svg>
