<svg id="Layer_1" width="135px" data-name="Layer 1" xmlns="http://www.w3.org/2000/svg" viewBox="0 0 134.27 53.94"><defs><style>.cls-1{fill:#fdcc0e;}.cls-2{fill:#231f20;}</style></defs><path class="cls-1" d="M18.72,45.76a8.95,8.95,0,1,1-8.94-8.95A8.95,8.95,0,0,1,18.72,45.76Z" transform="translate(-0.83 -1)"/><path class="cls-2" d="M61.24,49.9c0,2.61-1.26,3.87-3.87,3.87H51.66c-2.61,0-3.87-1.26-3.87-3.87V26.71c0-3.11-1.09-5.21-4.7-5.21a14.63,14.63,0,0,0-7.48,2.18V49.9c0,2.61-1.26,3.87-3.87,3.87H26c-2.61,0-3.87-1.26-3.87-3.87V15.62c0-2.61,1.26-3.87,3.87-3.87h2.1c1.85,0,2.6.93,3.78,3a28.77,28.77,0,0,1,14.62-4.2c11.43,0,14.71,6,14.71,14.11Z" transform="translate(-0.83 -1)"/><path class="cls-2" d="M99.22,37.22H78.3c-.34,5.46,2.52,7.05,9.07,7.05a31.7,31.7,0,0,0,9.41-1.17c3.36-.76,5.3,1.26,5.3,3.78v1.59c0,2.27-.84,3.7-3,4.46a45.24,45.24,0,0,1-13.44,2c-13.87,0-20.59-7-20.59-22.18s6.64-22.18,19.66-22.18c16.22,0,18.74,10.92,18.4,22.77C103.08,35.87,101.83,37.22,99.22,37.22ZM78.3,29H90.23c.75-4.62-.25-8.32-5.38-8.32C80.31,20.66,78.3,23.68,78.3,29Z" transform="translate(-0.83 -1)"/><path class="cls-2" d="M111.24,6.63c0-2.44,1-3.36,4-4.2l4.37-1.18c3.53-.93,5,.84,5,3.44v7.06h6.56c2.6,0,3.86,1.26,3.86,3.87v3.44c0,2.61-1.26,3.87-3.86,3.87h-6.56V39c0,3.28,1.26,5.12,5.55,5.12h.84a3.47,3.47,0,0,1,3.61,3.53v2.78a4.15,4.15,0,0,1-3.44,4.2,20.2,20.2,0,0,1-3.79.33c-11.93,0-16.21-4.95-16.21-14.87V22.93H108c-2.61,0-3.87-1.26-3.87-3.87V17.13c0-2.18.93-3.28,3.36-3.95l3.79-1Z" transform="translate(-0.83 -1)"/></svg>