<?xml version="1.0" encoding="UTF-8"?>
<svg width="64px" height="59px" viewBox="0 0 64 59" version="1.1" xmlns="http://www.w3.org/2000/svg" xmlns:xlink="http://www.w3.org/1999/xlink">
    <!-- Generator: Sketch 52.6 (67491) - http://www.bohemiancoding.com/sketch -->
    <title>networking</title>
    <desc>Created with Sketch.</desc>
    <g id="New-Designs" stroke="none" stroke-width="1" fill="none" fill-rule="evenodd">
        <g id="Landing-Page" transform="translate(-178.000000, -967.000000)" fill="#031B4E">
            <g id="Group-7" transform="translate(0.000000, 688.000000)">
                <g id="pricetable" transform="translate(151.000000, 248.000000)">
                    <g id="networking" transform="translate(27.000000, 30.954167)">
                        <path d="M41.7466103,21.9892824 C43.6885843,21.9892824 45.2631579,20.4459504 45.2631579,18.5425076 L45.2631579,3.49502045 C45.2631579,1.59157763 43.6885843,0.048245614 41.7466103,0.048245614 L20.3586529,0.048245614 C18.4166788,0.048245614 16.8421053,1.59157763 16.8421053,3.49502045 L16.8421053,18.5425076 C16.8421053,20.4459504 18.4166788,21.9892824 20.3586529,21.9892824 L29.7536084,21.9892824 L29.7536084,24.8701688 L26.7487972,24.8701688 C26.0271177,24.8701688 25.449774,25.4360572 25.449774,26.1434178 C25.449774,26.8507783 26.0271177,27.4166667 26.7487972,27.4166667 L35.356466,27.4166667 C36.0781455,27.4166667 36.6554891,26.8507783 36.6554891,26.1434178 C36.6554891,25.4360572 36.0781455,24.8701688 35.356466,24.8701688 L32.3516548,24.8701688 L32.3516548,21.9892824 L41.7466103,21.9892824 Z M20.3586529,19.4427846 C19.8469165,19.4427846 19.4401516,19.0440905 19.4401516,18.5425076 L19.4401516,3.49502045 C19.4401516,2.99343754 19.8469165,2.59474344 20.3586529,2.59474344 L41.7334888,2.59474344 C42.2452253,2.59474344 42.6519901,2.99343754 42.6519901,3.49502045 L42.6519901,18.5425076 C42.6519901,19.0440905 42.2452253,19.4427846 41.7334888,19.4427846 L20.3586529,19.4427846 Z" id="Shape" fill-rule="nonzero"></path>
                        <path d="M24.904505,31.627193 L3.5165476,31.627193 C1.57457355,31.627193 0,33.170525 0,35.0739678 L0,50.121455 C0,52.0248978 1.57457355,53.5682298 3.5165476,53.5682298 L12.9115031,53.5682298 L12.9115031,56.4491162 L9.90669194,56.4491162 C9.18501239,56.4491162 8.60766876,57.0150046 8.60766876,57.7223651 C8.60766876,58.4297256 9.18501239,58.995614 9.90669194,58.995614 L18.5143607,58.995614 C19.2360402,58.995614 19.8133839,58.4297256 19.8133839,57.7223651 C19.8133839,57.0150046 19.2360402,56.4491162 18.5143607,56.4491162 L15.5095495,56.4491162 L15.5095495,53.5682298 L24.904505,53.5682298 C26.8464791,53.5682298 28.4210526,52.0248978 28.4210526,50.121455 L28.4210526,35.0739678 C28.4210526,33.1833861 26.8333576,31.627193 24.904505,31.627193 Z M25.8230063,50.1343161 C25.8230063,50.635899 25.4162414,51.0345931 24.904505,51.0345931 L3.5165476,51.0345931 C3.0048112,51.0345931 2.59804636,50.635899 2.59804636,50.1343161 L2.59804636,35.0868289 C2.59804636,34.585246 3.0048112,34.1865519 3.5165476,34.1865519 L24.8913836,34.1865519 C25.40312,34.1865519 25.8098848,34.585246 25.8098848,35.0868289 L25.8098848,50.1343161 L25.8230063,50.1343161 Z" id="Shape" fill-rule="nonzero"></path>
                        <path d="M59.6413471,31.627193 L38.2533897,31.627193 C36.3114157,31.627193 34.7368421,33.170525 34.7368421,35.0739678 L34.7368421,50.121455 C34.7368421,52.0248978 36.3114157,53.5682298 38.2533897,53.5682298 L47.6483452,53.5682298 L47.6483452,56.4491162 L44.643534,56.4491162 C43.9218545,56.4491162 43.3445109,57.0150046 43.3445109,57.7223651 C43.3445109,58.4297256 43.9218545,58.995614 44.643534,58.995614 L53.2512028,58.995614 C53.9728823,58.995614 54.550226,58.4297256 54.550226,57.7223651 C54.550226,57.0150046 53.9728823,56.4491162 53.2512028,56.4491162 L50.2463916,56.4491162 L50.2463916,53.5682298 L59.6413471,53.5682298 C61.5833212,53.5682298 63.1578947,52.0248978 63.1578947,50.121455 L63.1578947,35.0739678 C63.1578947,33.1833861 61.5701997,31.627193 59.6413471,31.627193 Z M60.5598484,50.1343161 C60.5598484,50.635899 60.1530835,51.0345931 59.6413471,51.0345931 L38.2533897,51.0345931 C37.7416533,51.0345931 37.3348885,50.635899 37.3348885,50.1343161 L37.3348885,35.0868289 C37.3348885,34.585246 37.7416533,34.1865519 38.2533897,34.1865519 L59.6282257,34.1865519 C60.1399621,34.1865519 60.5467269,34.585246 60.5467269,35.0868289 L60.5467269,50.1343161 L60.5598484,50.1343161 Z" id="Shape" fill-rule="nonzero"></path>
                        <path d="M4.21052632,8.70993904 L4.21052632,26.1233943 C4.21052632,26.8418789 4.76787637,27.4166667 5.46456394,27.4166667 C6.1612515,27.4166667 6.71860156,26.8418789 6.71860156,26.1233943 L6.71860156,10.0032114 L13.4828045,10.0032114 C14.1794921,10.0032114 14.7368421,9.42842369 14.7368421,8.70993904 C14.7368421,7.99145439 14.1794921,7.41666667 13.4828045,7.41666667 L5.46456394,7.41666667 C4.78054342,7.41666667 4.21052632,8.00451774 4.21052632,8.70993904 Z" id="Path"></path>
                        <path d="M57.6933308,27.4166667 C58.3900184,27.4166667 58.9473684,26.8422541 58.9473684,26.1242385 L58.9473684,8.70909487 C58.9473684,7.9910792 58.3900184,7.41666667 57.6933308,7.41666667 L49.6750903,7.41666667 C48.9784027,7.41666667 48.4210526,7.9910792 48.4210526,8.70909487 C48.4210526,9.42711053 48.9784027,10.0015231 49.6750903,10.0015231 L56.4392932,10.0015231 L56.4392932,26.1111836 C56.4392932,26.8291993 56.9966432,27.4166667 57.6933308,27.4166667 Z" id="Path"></path>
                    </g>
                </g>
            </g>
        </g>
    </g>
</svg>