<?xml version="1.0" encoding="utf-8"?>
<!-- Generator: Adobe Illustrator 23.0.3, SVG Export Plug-In . SVG Version: 6.00 Build 0)  -->
<svg version="1.1" width="117px" id="Layer_1" xmlns="http://www.w3.org/2000/svg" xmlns:xlink="http://www.w3.org/1999/xlink" x="0px" y="0px"
	 viewBox="0 0 246.6 216.5" style="enable-background:new 0 0 246.6 216.5;" xml:space="preserve">
<style type="text/css">
	.st0{fill:#233F95;}
</style>
<title>ORG_PMS</title>
<g>
	<g id="Layer_1-2">
		<path class="st0" d="M216.4,183h-4.2c-11.2-0.3-20.2-3.7-26.8-10.3c-4.5-4.6-7.2-8.6-8.1-12.1l22.5-13.1c0.6,8.2,7.7,14.4,16,13.9
			c5.7-0.4,10.6-4,12.8-9.2l0.1-0.3l0.2-0.4c0.1-0.4,0.2-0.7,0.3-1c0.2-0.6,0.3-1.2,0.4-1.8v-0.2l0.1-0.2l0.1-0.3v-0.5h0.1v-7.8
			l-0.6,0.3l-0.6,0.2c-4.9,2-10.2,3.1-15.5,3c-7.1,0.1-14.1-1.9-20.2-5.4c-13-7.3-20.9-21-20.8-35.8c0-5.6,1.1-11.1,3.4-16.2
			c6.5-15,21.3-24.7,37.6-24.7c9.2,0,16,1.2,20.4,3.6c5.3,2.2,9.9,5.7,13.4,10.2c-18.3-57-79.3-88.3-136.2-70
			c-32,10.3-57.3,34.8-68.7,66.3c3.8-3.1,8-5.6,12.5-7.3c10.6-4,22.2-4,32.7,0c5.2,1.9,9.9,4.7,14,8.4c4,3.7,7.3,8.1,9.5,13.1
			c4.6,10.2,4.6,21.9,0.1,32.2c-2.3,5-5.6,9.4-9.6,13.1c-4.1,3.7-8.8,6.6-14,8.5c-12.3,4.7-26.1,3.9-37.7-2.3
			c-4.6-2.4-8.7-5.7-12.2-9.5c10.7,58.8,67,97.9,125.8,87.2c22.8-4.2,43.6-15.5,59.5-32.3C220.4,182.8,218.4,182.9,216.4,183
			 M164.2,84.1c-1.5-0.9-3.1-1.4-4.8-1.4h-1.3c-6,0.3-9,4.5-9,12.6V140h-23.6V95.3c0-21.5,10.9-32.8,32.6-33.9h1.3
			c1.6,0.1,3.2,0.2,4.8,0.5V84.1L164.2,84.1z M70.6,120.9c-5.2,0.1-10.2-2-13.8-5.7c-3.8-3.5-6-8.4-5.9-13.6c0-3.4,1-6.7,2.8-9.5
			c1.8-3,4.3-5.4,7.3-7c6-3.5,13.4-3.5,19.4,0c3,1.7,5.5,4.1,7.3,7s2.8,6.2,2.8,9.5c0.1,5.2-2.1,10.1-5.9,13.6
			C80.8,118.9,75.8,121.1,70.6,120.9 M231,92.4c4.5,7.5,3.2,17-3.1,23c-7.3,7.5-19.2,7.6-26.6,0.4c-0.1-0.1-0.3-0.3-0.4-0.4
			c-6.3-6-7.6-15.5-3.1-23c1.8-2.9,4.2-5.3,7.2-7c2.9-1.7,6.1-2.5,9.4-2.5C221.2,83.1,227.6,86.6,231,92.4 M27.4,129.1
			c0,7.6-6.1,13.7-13.7,13.7c-7.6,0-13.7-6.1-13.7-13.7c-0.1-7.6,6.1-13.7,13.7-13.7l0,0C21.2,115.4,27.4,121.6,27.4,129.1"/>
	</g>
</g>
</svg>
