<svg width="73" height="73" viewBox="0 0 73 73" fill="none" xmlns="http://www.w3.org/2000/svg">
<g filter="url(#filter0_d)">
<circle cx="36.5" cy="32.5" r="32.5" fill="#031B4E"/>
</g>
<path fill-rule="evenodd" clip-rule="evenodd" d="M49.3306 45.8384H50.6565C50.9904 45.8384 51.261 46.1091 51.261 46.443C51.261 46.7769 50.9904 47.0475 50.6565 47.0475H22.5577C22.2238 47.0475 21.9531 46.7769 21.9531 46.443C21.9531 46.1091 22.2238 45.8384 22.5577 45.8384H23.9551V40.3853C23.9551 39.4892 24.6841 38.7601 25.5802 38.7601H28.544C29.44 38.7601 30.1691 39.4891 30.1691 40.3853V45.8384H33.5359V35.3089C33.5359 34.4128 34.2649 33.6838 35.161 33.6838H38.1247C39.0208 33.6838 39.7498 34.4128 39.7498 35.3089V45.8384H43.1166V26.5861C43.1166 25.69 43.8456 24.9609 44.7417 24.9609H47.7054C48.6015 24.9609 49.3306 25.69 49.3306 26.5861V45.8384ZM25.1613 45.8387H28.9571V40.3855C28.9571 40.1561 28.7704 39.9695 28.541 39.9695H25.5773C25.3479 39.9695 25.1613 40.1561 25.1613 40.3855V45.8387ZM38.5402 45.8387H34.7444V35.3091C34.7444 35.0797 34.931 34.8931 35.1605 34.8931H38.1241C38.3535 34.8931 38.5402 35.0797 38.5402 35.3091V45.8387ZM44.3252 45.8386H48.1209V26.5862C48.1209 26.3568 47.9343 26.1702 47.7049 26.1702H44.7412C44.5118 26.1702 44.3252 26.3568 44.3252 26.5862V45.8386Z" fill="white"/>
<path fill-rule="evenodd" clip-rule="evenodd" d="M49.3291 16.7309C49.3375 16.566 49.2795 16.3982 49.1535 16.2722C49.0275 16.1462 48.8598 16.0881 48.6948 16.0967C48.6851 16.0962 48.6754 16.0952 48.6655 16.0952H45.0081C44.6742 16.0952 44.4035 16.3659 44.4035 16.6998C44.4035 17.0336 44.6742 17.3043 45.0081 17.3043H47.2664L41.2902 23.2806L39.0364 21.0269C38.9231 20.9136 38.7693 20.8499 38.609 20.8499C38.4486 20.8499 38.2949 20.9136 38.1815 21.0269L27.3138 31.8947C27.0777 32.1308 27.0777 32.5136 27.3138 32.7497C27.4318 32.8677 27.5865 32.9267 27.7412 32.9267C27.8959 32.9267 28.0507 32.8677 28.1687 32.7496L38.609 22.3093L40.8627 24.563C41.0988 24.7991 41.4816 24.7991 41.7177 24.563L48.1214 18.1593V20.2032C48.1214 20.5371 48.3921 20.8078 48.726 20.8078C49.0599 20.8078 49.3305 20.5371 49.3305 20.2032V16.7602C49.3305 16.7504 49.3295 16.7407 49.3291 16.7309Z" fill="white"/>
<path fill-rule="evenodd" clip-rule="evenodd" d="M25.7022 35.036C26.0361 35.036 26.3067 34.7653 26.3067 34.4314C26.3067 34.0976 26.0361 33.8269 25.7022 33.8269C25.3683 33.8269 25.0977 34.0976 25.0977 34.4314C25.0977 34.7653 25.3683 35.036 25.7022 35.036Z" fill="white"/>
<defs>
<filter id="filter0_d" x="0" y="0" width="73" height="73" filterUnits="userSpaceOnUse" color-interpolation-filters="sRGB">
<feFlood flood-opacity="0" result="BackgroundImageFix"/>
<feColorMatrix in="SourceAlpha" type="matrix" values="0 0 0 0 0 0 0 0 0 0 0 0 0 0 0 0 0 0 127 0"/>
<feOffset dy="4"/>
<feGaussianBlur stdDeviation="2"/>
<feColorMatrix type="matrix" values="0 0 0 0 0 0 0 0 0 0 0 0 0 0 0 0 0 0 0.15 0"/>
<feBlend mode="normal" in2="BackgroundImageFix" result="effect1_dropShadow"/>
<feBlend mode="normal" in="SourceGraphic" in2="effect1_dropShadow" result="shape"/>
</filter>
</defs>
</svg>
