<?xml version="1.0" encoding="UTF-8"?>
<svg width="51px" height="46px" viewBox="0 0 51 46" version="1.1" xmlns="http://www.w3.org/2000/svg" xmlns:xlink="http://www.w3.org/1999/xlink">
    <!-- Generator: Sketch 52.6 (67491) - http://www.bohemiancoding.com/sketch -->
    <title>www</title>
    <desc>Created with Sketch.</desc>
    <g id="New-Designs" stroke="none" stroke-width="1" fill="none" fill-rule="evenodd" opacity="0.0952845982">
        <g id="Dashbiard" transform="translate(-977.000000, -512.000000)" fill="#000000">
            <g id="Group-2-Copy" transform="translate(729.000000, 454.000000)">
                <g id="www" transform="translate(248.000000, 58.000000)">
                    <path d="M30.5102041,16.8979592 C25.5925923,16.8979592 21.5918367,20.8987147 21.5918367,25.8163265 C21.5918367,30.7339384 25.5925923,34.7346939 30.5102041,34.7346939 C35.427816,34.7346939 39.4285714,30.7339384 39.4285714,25.8163265 C39.4285714,20.8987147 35.427816,16.8979592 30.5102041,16.8979592 Z M30.5102041,32.7077922 C26.7101593,32.7077922 23.6187384,29.6163713 23.6187384,25.8163265 C23.6187384,22.0162818 26.7101593,18.9248609 30.5102041,18.9248609 C34.3102489,18.9248609 37.4016698,22.0162818 37.4016698,25.8163265 C37.4016698,29.6163713 34.3102489,32.7077922 30.5102041,32.7077922 Z" id="Shape" fill-rule="nonzero"></path>
                    <path d="M31.0650078,20.6530612 C30.4993021,20.6530612 30.0408163,21.111547 30.0408163,21.6772527 C30.0408163,22.2429585 30.4993021,22.7014442 31.0650078,22.7014442 C32.4764717,22.7014442 33.6250864,23.8500589 33.6250864,25.2615228 C33.6250864,25.8272286 34.0835721,26.2857143 34.6492779,26.2857143 C35.2149837,26.2857143 35.6734694,25.8272286 35.6734694,25.2615228 C35.6734694,22.7202477 33.6062829,20.6530612 31.0650078,20.6530612 Z" id="Path"></path>
                    <path d="M5.61674944,8.07403566 C5.3664288,7.56270525 4.7718209,7.36265486 4.28812432,7.62707997 C3.80442774,7.89191238 3.61533932,8.52139876 3.86565995,9.03313657 L6.51944433,14.4569055 C6.69120288,14.8081141 7.03857092,15.0228322 7.40981575,15.0203875 C7.78337128,15.014276 8.12188189,14.7852978 8.28362747,14.4287925 L9.89030125,10.889816 L11.6352289,14.4569055 C11.8050618,14.8032249 12.1428023,15.0203875 12.5109662,15.0203875 L12.5256003,15.0203875 C12.8995409,15.014276 13.2376664,14.7852978 13.3997972,14.4287925 L15.8617974,9.00502361 C16.0974839,8.48595192 15.8906806,7.86257709 15.400052,7.61322714 C14.9090384,7.36387719 14.3202071,7.58266952 14.0845205,8.10214862 L12.4778468,11.6411252 L10.732534,8.07403566 C10.5607755,7.72282701 10.2141777,7.50729415 9.84254766,7.51055363 C9.46860715,7.51666518 9.13009654,7.74564335 8.96835086,8.10214862 L7.36206227,11.6411252 L5.61674944,8.07403566 Z" id="Path"></path>
                    <path d="M13.1428571,1.87755102 C13.3900192,1.87755102 13.6320472,1.77707275 13.8066008,1.60251909 C13.9815211,1.42796561 14.0816327,1.18557077 14.0816327,0.93877551 C14.0816327,0.691980253 13.9815211,0.449585412 13.8066008,0.275031935 C13.6320472,0.100478269 13.3900192,0 13.1428571,0 C12.8960619,0 12.6540338,0.100478269 12.4794803,0.275031935 C12.30456,0.449585412 12.2040816,0.691980253 12.2040816,0.93877551 C12.2040816,1.18557077 12.30456,1.42796561 12.4794803,1.60251909 C12.6540338,1.77707275 12.8960619,1.87755102 13.1428571,1.87755102 Z" id="Path"></path>
                    <path d="M50.6938776,17.2756985 L50.6938776,4.01760431 C50.6938776,1.80242907 48.9170857,0 46.7334184,0 L16.6327683,0 C16.0862713,0 15.6426535,0.44962637 15.6426535,1.00440108 C15.6426535,1.55917579 16.0862713,2.00880216 16.6327683,2.00880216 L46.7334184,2.00880216 C47.825252,2.00880216 48.713648,2.91001669 48.713648,4.01760431 L48.713648,17.2756985 C48.713648,18.3832862 47.825252,19.2845007 46.7334184,19.2845007 L41.9808673,19.2845007 C41.9522469,19.2845007 41.9243999,19.2864624 41.8965529,19.2888165 C40.36845,16.5573163 37.8981909,14.4370884 34.9367421,13.3852137 L36.4045099,10.2853025 L38.1573224,13.7198833 C38.3274984,14.0537682 38.6666902,14.2624953 39.0364361,14.2624953 L39.0515199,14.2624953 C39.4266806,14.2566101 39.7666458,14.0361127 39.9290865,13.6928116 L42.4016661,8.46992597 C42.6383655,7.97007944 42.4306734,7.37018523 41.9379366,7.1300706 C41.4451998,6.88956365 40.8534515,7.10025244 40.6167521,7.60049128 L39.0035613,11.0083927 L37.2507486,7.57341956 C37.0782521,7.23521883 36.7305516,7.02766879 36.3565511,7.03119987 C35.9810038,7.03669273 35.6414253,7.25719011 35.4789846,7.60049128 L33.8654069,11.0083927 L32.1129811,7.57341956 C31.8615847,7.0810276 31.264035,6.88838659 30.7782599,7.14341035 C30.2924849,7.39843401 30.1029706,8.00421341 30.3539802,8.49699769 L32.5453828,12.7912046 C31.9408712,12.7025349 31.3228231,12.6554536 30.6943322,12.6554536 C29.4771872,12.6554536 28.2987185,12.828085 27.1817453,13.1498072 L29.3975139,8.46992597 C29.6342132,7.97007944 29.4265211,7.37018523 28.9333975,7.1300706 C28.4406608,6.88956365 27.8489124,7.10025244 27.6125998,7.60049128 L25.9990222,11.0083927 L24.2462095,7.57341956 C24.073713,7.23521883 23.7275596,7.02766879 23.3520121,7.03119987 C22.9768515,7.03669273 22.6368863,7.25719011 22.4744456,7.60049128 L20.8612546,11.0083927 L19.1084421,7.57341956 C18.8570457,7.0810276 18.2598827,6.88838659 17.7741076,7.14341035 C17.2883326,7.39843401 17.0984316,8.00421341 17.349828,8.49699769 L20.0150159,13.7198833 C20.1875125,14.058084 20.5348262,14.2648494 20.9092134,14.2624953 C21.284374,14.2566101 21.6243392,14.0361127 21.7867799,13.6928116 L23.4003576,10.2853025 L25.1527834,13.7198833 C25.1821775,13.7775579 25.2181465,13.8297397 25.2572096,13.8795674 C22.8291077,15.0322745 20.8117488,16.9312203 19.4940454,19.2845007 L3.96045918,19.2845007 C2.86862554,19.2845007 1.98022959,18.3832862 1.98022959,17.2756985 L1.98022959,4.01760431 C1.98022959,2.91001669 2.86862554,2.00880216 3.96045918,2.00880216 L8.01915637,2.00880216 C8.56604004,2.00880216 9.00927117,1.55917579 9.00927117,1.00440108 C9.00927117,0.44962637 8.56604004,0 8.01915637,0 L3.96045918,0 C1.77679189,0 0,1.80242907 0,4.01760431 L0,17.2756985 C0,19.4912661 1.77679189,21.2933029 3.96045918,21.2933029 L18.5820568,21.2933029 C18.090867,22.6743543 17.8224531,24.1621234 17.8224531,25.7126676 C17.8224531,32.9125755 23.5964467,38.7698816 30.6939454,38.7698816 C33.0261299,38.7698816 35.2155986,38.1374228 37.1041652,37.0325816 L44.9624279,45.0042304 C45.6168319,45.6680769 46.4766073,46 47.3363828,46 C48.1961583,46 49.0559337,45.6680769 49.7103377,45.0042304 C51.0195324,43.6761454 51.0195324,41.5155062 49.7103377,40.1874211 L46.6228039,37.0553376 C46.2360403,36.6633858 45.6090966,36.6629935 45.2227198,37.0553376 C44.8359562,37.4476818 44.8359562,38.0832793 45.2227198,38.4756234 L48.3102535,41.6080993 C48.8470814,42.1526731 48.8470814,43.0389785 48.3102535,43.5839446 C47.7734256,44.1285183 46.8997268,44.1285183 46.3628988,43.5839446 L38.7649281,35.875951 C41.6904079,33.4806899 43.5654378,29.8150183 43.5654378,25.7126676 C43.5654378,24.1621234 43.2970239,22.6743543 42.8058341,21.2933029 L46.7334184,21.2933029 C48.9174724,21.2933029 50.6938776,19.4908738 50.6938776,17.2756985 Z M30.6939454,36.7610795 C24.6886671,36.7610795 19.8026827,31.8045956 19.8026827,25.7126676 C19.8026827,19.6207396 24.6886671,14.6642557 30.6939454,14.6642557 C36.6992237,14.6642557 41.5852082,19.6207396 41.5852082,25.7126676 C41.5852082,31.8045956 36.6996105,36.7610795 30.6939454,36.7610795 Z" id="Shape" fill-rule="nonzero"></path>
                    <path d="M42.5199298,35.0097258 C42.3453762,35.1842793 42.244898,35.4263074 42.244898,35.6734694 C42.244898,35.9202646 42.3453762,36.1622927 42.5199298,36.337213 C42.6955835,36.5117666 42.9368782,36.6122449 43.1836735,36.6122449 C43.4304687,36.6122449 43.6728635,36.5117666 43.847417,36.337213 C44.0230708,36.1622927 44.122449,35.9202646 44.122449,35.6734694 C44.122449,35.4263074 44.0230708,35.1842793 43.847417,35.0097258 C43.6728635,34.8351721 43.4315689,34.7346939 43.1836735,34.7346939 C42.9368782,34.7346939 42.6944834,34.8351721 42.5199298,35.0097258 Z" id="Path"></path>
                </g>
            </g>
        </g>
    </g>
</svg>