<svg width="55" height="55" viewBox="0 0 55 55" fill="none" xmlns="http://www.w3.org/2000/svg">
<g opacity="0.119489">
<path fill-rule="evenodd" clip-rule="evenodd" d="M2.5919 0H52.4081C53.8373 0 55 1.16991 55 2.60781V10.4874C55 11.9253 53.8373 13.0952 52.4081 13.0952H2.5919C1.16272 13.0952 0 11.9254 0 10.4874V2.60781C0 1.16991 1.16272 0 2.5919 0ZM52.4081 11.3291C52.8694 11.3291 53.2447 10.9515 53.2447 10.4874V2.60781C53.2447 2.14378 52.8694 1.76617 52.4081 1.76617H2.5919C2.13061 1.76617 1.75532 2.14378 1.75532 2.60781V10.4874C1.75532 10.9515 2.13061 11.3291 2.5919 11.3291H52.4081Z" fill="#031B4E"/>
<path fill-rule="evenodd" clip-rule="evenodd" d="M34.037 20.0793H6.99522C6.50708 20.0793 6.11133 20.2747 6.11133 20.5159C6.11133 20.757 6.50708 20.9524 6.99522 20.9524H34.037C34.5251 20.9524 34.9209 20.757 34.9209 20.5159C34.9209 20.2747 34.5251 20.0793 34.037 20.0793Z" fill="#031B4E"/>
<path fill-rule="evenodd" clip-rule="evenodd" d="M45.3965 20.5159C45.3965 18.8311 46.7671 17.4603 48.452 17.4603C50.1369 17.4603 51.5076 18.8311 51.5076 20.5159C51.5076 22.2006 50.1369 23.5714 48.452 23.5714C46.7671 23.5714 45.3965 22.2006 45.3965 20.5159ZM47.4335 20.5159C47.4335 21.0776 47.8904 21.5344 48.452 21.5344C49.0137 21.5344 49.4706 21.0776 49.4706 20.5159C49.4706 19.9542 49.0137 19.4974 48.452 19.4974C47.8904 19.4974 47.4335 19.9542 47.4335 20.5159Z" fill="#031B4E"/>
<path fill-rule="evenodd" clip-rule="evenodd" d="M36.666 20.5159C36.666 18.8311 38.0367 17.4603 39.7216 17.4603C41.4065 17.4603 42.7771 18.8311 42.7771 20.5159C42.7771 22.2006 41.4065 23.5714 39.7216 23.5714C38.0367 23.5714 36.666 22.2006 36.666 20.5159ZM38.7031 20.5159C38.7031 21.0776 39.1599 21.5344 39.7216 21.5344C40.2833 21.5344 40.7401 21.0776 40.7401 20.5159C40.7401 19.9542 40.2833 19.4974 39.7216 19.4974C39.1599 19.4974 38.7031 19.9542 38.7031 20.5159Z" fill="#031B4E"/>
<path fill-rule="evenodd" clip-rule="evenodd" d="M2.5919 13.9683H52.4081C53.8373 13.9683 55 15.1382 55 16.5762V24.4557C55 25.8936 53.8373 27.0635 52.4081 27.0635H2.5919C1.16272 27.0635 0 25.8937 0 24.4557V16.5762C0 15.1382 1.16272 13.9683 2.5919 13.9683ZM52.4081 25.2973C52.8694 25.2973 53.2447 24.9197 53.2447 24.4557V16.5762C53.2447 16.112 52.8694 15.7344 52.4081 15.7344H2.5919C2.13061 15.7344 1.75532 16.112 1.75532 16.5762V24.4557C1.75532 24.9197 2.13061 25.2973 2.5919 25.2973H52.4081Z" fill="#031B4E"/>
<path fill-rule="evenodd" clip-rule="evenodd" d="M34.037 34.9207H6.99522C6.50708 34.9207 6.11133 35.116 6.11133 35.3572C6.11133 35.5983 6.50708 35.7937 6.99522 35.7937H34.037C34.5251 35.7937 34.9209 35.5983 34.9209 35.3572C34.9209 35.116 34.5251 34.9207 34.037 34.9207Z" fill="#031B4E"/>
<path fill-rule="evenodd" clip-rule="evenodd" d="M45.3965 35.3572C45.3965 33.6724 46.7671 32.3016 48.452 32.3016C50.1369 32.3016 51.5076 33.6724 51.5076 35.3572C51.5076 37.042 50.1369 38.4127 48.452 38.4127C46.7671 38.4127 45.3965 37.042 45.3965 35.3572ZM47.4335 35.3572C47.4335 35.9189 47.8904 36.3757 48.452 36.3757C49.0137 36.3757 49.4706 35.9189 49.4706 35.3572C49.4706 34.7955 49.0137 34.3387 48.452 34.3387C47.8904 34.3387 47.4335 34.7955 47.4335 35.3572Z" fill="#031B4E"/>
<path fill-rule="evenodd" clip-rule="evenodd" d="M36.666 35.3572C36.666 33.6724 38.0367 32.3016 39.7216 32.3016C41.4065 32.3016 42.7771 33.6724 42.7771 35.3572C42.7771 37.042 41.4065 38.4127 39.7216 38.4127C38.0367 38.4127 36.666 37.042 36.666 35.3572ZM38.7031 35.3572C38.7031 35.9189 39.1599 36.3757 39.7216 36.3757C40.2833 36.3757 40.7401 35.9189 40.7401 35.3572C40.7401 34.7955 40.2833 34.3387 39.7216 34.3387C39.1599 34.3387 38.7031 34.7955 38.7031 35.3572Z" fill="#031B4E"/>
<path fill-rule="evenodd" clip-rule="evenodd" d="M2.5919 29.6825H52.4081C53.8373 29.6825 55 30.8524 55 32.2904V40.1698C55 41.6077 53.8373 42.7777 52.4081 42.7777H2.5919C1.16272 42.7777 0 41.6078 0 40.1698V32.2904C0 30.8524 1.16272 29.6825 2.5919 29.6825ZM52.4081 41.0116C52.8694 41.0116 53.2447 40.634 53.2447 40.1698V32.2904C53.2447 31.8263 52.8694 31.4487 52.4081 31.4487H2.5919C2.13061 31.4487 1.75532 31.8263 1.75532 32.2904V40.1698C1.75532 40.634 2.13061 41.0116 2.5919 41.0116H52.4081Z" fill="#031B4E"/>
<path fill-rule="evenodd" clip-rule="evenodd" d="M54.1223 50.4125C54.607 50.4125 55 50.0275 55 49.5524C55 49.0772 54.607 48.6922 54.1223 48.6922H34.2586C34.1935 48.2801 33.831 47.9644 33.3924 47.9644H31.0894V45.384C31.0894 44.9088 30.6964 44.5238 30.2117 44.5238C29.727 44.5238 29.3341 44.9088 29.3341 45.384V48.8246C29.3341 49.2997 29.727 49.6847 30.2117 49.6847H32.5147V53.2797H22.4854V49.6847H26.7011C27.1858 49.6847 27.5788 49.2997 27.5788 48.8246C27.5788 48.3494 27.1858 47.9644 26.7011 47.9644H25.6659V45.384C25.6659 44.9088 25.273 44.5238 24.7883 44.5238C24.3036 44.5238 23.9106 44.9088 23.9106 45.384V47.9644H21.6077C21.169 47.9644 20.8066 48.2801 20.7416 48.6922H0.87766C0.392957 48.6922 0 49.0772 0 49.5524C0 50.0275 0.392957 50.4125 0.87766 50.4125H20.73V52.1328H0.87766C0.392957 52.1328 0 52.5178 0 52.993C0 53.4681 0.392957 53.8531 0.87766 53.8531H20.73V54.1398C20.73 54.615 21.1229 55 21.6076 55H33.3923C33.877 55 34.2699 54.615 34.2699 54.1398V53.8531H54.1223C54.607 53.8531 55 53.4681 55 52.993C55 52.5178 54.607 52.1328 54.1223 52.1328H34.27V50.4125H54.1223Z" fill="#031B4E"/>
<path fill-rule="evenodd" clip-rule="evenodd" d="M34.037 6.11108H6.99522C6.50708 6.11108 6.11133 6.30646 6.11133 6.54759C6.11133 6.78872 6.50708 6.9841 6.99522 6.9841H34.037C34.5251 6.9841 34.9209 6.78872 34.9209 6.54759C34.9209 6.30646 34.5251 6.11108 34.037 6.11108Z" fill="#031B4E"/>
<path fill-rule="evenodd" clip-rule="evenodd" d="M45.3965 6.54762C45.3965 4.86286 46.7671 3.49207 48.452 3.49207C50.1369 3.49207 51.5076 4.86286 51.5076 6.54762C51.5076 8.23239 50.1369 9.60318 48.452 9.60318C46.7671 9.60318 45.3965 8.23239 45.3965 6.54762ZM47.4335 6.54762C47.4335 7.1093 47.8904 7.56614 48.452 7.56614C49.0137 7.56614 49.4706 7.1093 49.4706 6.54762C49.4706 5.98594 49.0137 5.5291 48.452 5.5291C47.8904 5.5291 47.4335 5.98594 47.4335 6.54762Z" fill="#031B4E"/>
<path fill-rule="evenodd" clip-rule="evenodd" d="M36.666 6.54762C36.666 4.86286 38.0367 3.49207 39.7216 3.49207C41.4065 3.49207 42.7771 4.86286 42.7771 6.54762C42.7771 8.23239 41.4065 9.60318 39.7216 9.60318C38.0367 9.60318 36.666 8.23239 36.666 6.54762ZM38.7031 6.54762C38.7031 7.1093 39.1599 7.56614 39.7216 7.56614C40.2833 7.56614 40.7401 7.1093 40.7401 6.54762C40.7401 5.98594 40.2833 5.5291 39.7216 5.5291C39.1599 5.5291 38.7031 5.98594 38.7031 6.54762Z" fill="#031B4E"/>
</g>
</svg>
