<svg width="45" height="45" viewBox="0 0 45 45" fill="none" xmlns="http://www.w3.org/2000/svg">
<path d="M36 45H9C7.34392 44.9981 6.00186 43.6561 6 42V3C6.00186 1.34392 7.34392 0.00185995 9 0H36C37.6561 0.00185995 38.9981 1.34392 39 3V42C38.9981 43.6561 37.6561 44.9981 36 45ZM9 1.5C8.17192 1.50083 7.50083 2.17192 7.5 3V42C7.50083 42.8281 8.17192 43.4992 9 43.5H36C36.8281 43.4992 37.4992 42.8281 37.5 42V3C37.4992 2.17192 36.8281 1.50083 36 1.5H9Z" fill="#031B4E"/>
<path d="M27.75 6H14.25C13.4219 5.99917 12.7508 5.32808 12.75 4.5V0.75C12.75 0.335786 13.0858 0 13.5 0H28.5C28.9142 0 29.25 0.335786 29.25 0.75V4.5C29.2492 5.32808 28.5781 5.99917 27.75 6ZM14.25 1.5V4.5H27.75V1.5H14.25Z" fill="#031B4E"/>
<path d="M9.75 4.5C10.1642 4.5 10.5 4.16421 10.5 3.75C10.5 3.33579 10.1642 3 9.75 3C9.33579 3 9 3.33579 9 3.75C9 4.16421 9.33579 4.5 9.75 4.5Z" fill="#031B4E"/>
<path d="M35.25 4.5C35.6642 4.5 36 4.16421 36 3.75C36 3.33579 35.6642 3 35.25 3C34.8358 3 34.5 3.33579 34.5 3.75C34.5 4.16421 34.8358 4.5 35.25 4.5Z" fill="#031B4E"/>
<path d="M9.75 42C10.1642 42 10.5 41.6642 10.5 41.25C10.5 40.8358 10.1642 40.5 9.75 40.5C9.33579 40.5 9 40.8358 9 41.25C9 41.6642 9.33579 42 9.75 42Z" fill="#031B4E"/>
<path d="M35.25 42C35.6642 42 36 41.6642 36 41.25C36 40.8358 35.6642 40.5 35.25 40.5C34.8358 40.5 34.5 40.8358 34.5 41.25C34.5 41.6642 34.8358 42 35.25 42Z" fill="#031B4E"/>
<path d="M23.25 6C22.8358 6 22.5 5.66421 22.5 5.25V0.75C22.5 0.335786 22.8358 0 23.25 0C23.6642 0 24 0.335786 24 0.75V5.25C24 5.66421 23.6642 6 23.25 6Z" fill="#031B4E"/>
<path d="M32.25 39.75H12.75C10.6799 39.7476 9.00244 38.0701 9 36V15C9.00244 12.9299 10.6799 11.2524 12.75 11.25H32.25C34.3201 11.2524 35.9976 12.9299 36 15V36C35.9976 38.0701 34.3201 39.7476 32.25 39.75ZM12.75 12.75C11.5079 12.7514 10.5014 13.7579 10.5 15V36C10.5014 37.2421 11.5079 38.2486 12.75 38.25H32.25C33.4921 38.2486 34.4986 37.2421 34.5 36V15C34.4986 13.7579 33.4921 12.7514 32.25 12.75H12.75Z" fill="#031B4E"/>
<path d="M15.0001 26.25C13.7867 26.2506 12.6925 25.5198 12.2282 24.3987C11.764 23.2776 12.0212 21.9872 12.8798 21.1297C14.0657 19.9953 15.9345 19.9953 17.1204 21.1297C17.6851 21.6906 18.0019 22.4541 18.0001 23.2501C18.0001 23.6643 17.6643 24.0001 17.2501 24.0001C16.8359 24.0001 16.5001 23.6643 16.5001 23.2501C16.5008 22.8522 16.3423 22.4705 16.0599 22.1902C15.4674 21.6226 14.5328 21.6226 13.9403 22.1902C13.5108 22.6188 13.382 23.264 13.6141 23.8246C13.8462 24.3852 14.3934 24.7505 15.0001 24.75C15.4143 24.75 15.7501 25.0858 15.7501 25.5C15.7501 25.9143 15.4143 26.25 15.0001 26.25Z" fill="#2176FF"/>
<path d="M15 30.75C13.3439 30.7481 12.0019 29.4061 12 27.75C12 27.3358 12.3358 27 12.75 27C13.1642 27 13.5 27.3358 13.5 27.75C13.5007 28.5775 14.1717 29.2478 14.9992 29.2476C15.8267 29.2474 16.4974 28.5767 16.4976 27.7492C16.4978 26.9217 15.8275 26.2507 15 26.25C14.5858 26.25 14.25 25.9142 14.25 25.5C14.25 25.0858 14.5858 24.75 15 24.75C16.6569 24.75 18 26.0931 18 27.75C18 29.4069 16.6569 30.75 15 30.75Z" fill="#2176FF"/>
<path d="M22.5001 26.25C21.2867 26.2506 20.1925 25.5198 19.7282 24.3987C19.264 23.2776 19.5212 21.9872 20.3798 21.1297C21.5657 19.9953 23.4345 19.9953 24.6204 21.1297C25.1851 21.6906 25.5019 22.4541 25.5001 23.2501C25.5001 23.6643 25.1643 24.0001 24.7501 24.0001C24.3359 24.0001 24.0001 23.6643 24.0001 23.2501C24.0008 22.8522 23.8423 22.4705 23.5599 22.1902C22.9674 21.6226 22.0328 21.6226 21.4403 22.1902C21.0108 22.6188 20.882 23.264 21.1141 23.8246C21.3462 24.3852 21.8934 24.7505 22.5001 24.75C22.9143 24.75 23.2501 25.0858 23.2501 25.5C23.2501 25.9143 22.9143 26.25 22.5001 26.25Z" fill="#2176FF"/>
<path d="M22.5 30.75C20.8439 30.7481 19.5019 29.4061 19.5 27.75C19.5 27.3358 19.8358 27 20.25 27C20.6642 27 21 27.3358 21 27.75C21.0007 28.5775 21.6717 29.2478 22.4992 29.2476C23.3267 29.2474 23.9974 28.5767 23.9976 27.7492C23.9978 26.9217 23.3275 26.2507 22.5 26.25C22.0858 26.25 21.75 25.9142 21.75 25.5C21.75 25.0858 22.0858 24.75 22.5 24.75C24.1569 24.75 25.5 26.0931 25.5 27.75C25.5 29.4069 24.1569 30.75 22.5 30.75Z" fill="#2176FF"/>
<path d="M30 30.75H27.75C27.3358 30.75 27 30.4142 27 30V21C27 20.5858 27.3358 20.25 27.75 20.25H30C31.6561 20.2519 32.9981 21.5939 33 23.25V27.75C32.9981 29.4061 31.6561 30.7481 30 30.75ZM28.5 29.25H30C30.8281 29.2492 31.4992 28.5781 31.5 27.75V23.25C31.4992 22.4219 30.8281 21.7508 30 21.75H28.5V29.25Z" fill="#2176FF"/>
</svg>
