<?xml version="1.0" encoding="UTF-8"?>
<svg width="60px" height="60px" viewBox="0 0 60 60" version="1.1" xmlns="http://www.w3.org/2000/svg" xmlns:xlink="http://www.w3.org/1999/xlink">
    <!-- Generator: Sketch 52.6 (67491) - http://www.bohemiancoding.com/sketch -->
    <title>server-big</title>
    <desc>Created with Sketch.</desc>
    <g id="New-Designs" stroke="none" stroke-width="1" fill="none" fill-rule="evenodd">
        <g id="Landing-Page" transform="translate(-576.000000, -966.000000)" fill="#031B4E">
            <g id="Group-7" transform="translate(0.000000, 688.000000)">
                <g id="pricetable-copy" transform="translate(549.000000, 248.000000)">
                    <g id="server-big" transform="translate(27.000000, 30.000000)">
                        <path d="M57.1724681,0 L2.82753191,0 C1.26842553,0 0,1.28647958 0,2.86764793 L0,11.5323521 C0,13.1136499 1.26842553,14.4 2.82753191,14.4 L57.1724681,14.4 C58.7315745,14.4 60,13.1135204 60,11.5323521 L60,2.86764793 C60,1.28647958 58.7315745,0 57.1724681,0 Z M58.0851064,11.5323521 C58.0851064,12.0426194 57.6757021,12.4578509 57.1724681,12.4578509 L2.82753191,12.4578509 C2.32429787,12.4578509 1.91489362,12.0426194 1.91489362,11.5323521 L1.91489362,2.86764793 C1.91489362,2.35738062 2.32429787,1.94214913 2.82753191,1.94214913 L57.1724681,1.94214913 C57.6757021,1.94214913 58.0851064,2.35738062 58.0851064,2.86764793 L58.0851064,11.5323521 Z" id="Shape" fill-rule="nonzero"></path>
                        <path d="M36.2427686,21.6 L6.95723139,21.6 C6.4285844,21.6 6,21.86856 6,22.2 C6,22.53144 6.4285844,22.8 6.95723139,22.8 L36.2427686,22.8 C36.7714156,22.8 37.2,22.53144 37.2,22.2 C37.2,21.86856 36.7714156,21.6 36.2427686,21.6 Z" id="Path"></path>
                        <path d="M52.2,20.4 C50.5457333,20.4 49.2,21.7458667 49.2,23.4 C49.2,25.0541333 50.5457333,26.4 52.2,26.4 C53.8542667,26.4 55.2,25.0541333 55.2,23.4 C55.2,21.7458667 53.8542667,20.4 52.2,20.4 Z M52.2,24.4 C51.6485333,24.4 51.2,23.9514667 51.2,23.4 C51.2,22.8485333 51.6485333,22.4 52.2,22.4 C52.7514667,22.4 53.2,22.8485333 53.2,23.4 C53.2,23.9514667 52.7514667,24.4 52.2,24.4 Z" id="Shape" fill-rule="nonzero"></path>
                        <path d="M43.8,20.4 C42.1457333,20.4 40.8,21.7458667 40.8,23.4 C40.8,25.0541333 42.1457333,26.4 43.8,26.4 C45.4542667,26.4 46.8,25.0541333 46.8,23.4 C46.8,21.7458667 45.4542667,20.4 43.8,20.4 Z M43.8,24.4 C43.2485333,24.4 42.8,23.9514667 42.8,23.4 C42.8,22.8485333 43.2485333,22.4 43.8,22.4 C44.3514667,22.4 44.8,22.8485333 44.8,23.4 C44.8,23.9514667 44.3514667,24.4 43.8,24.4 Z" id="Shape" fill-rule="nonzero"></path>
                        <path d="M57.1724681,15.6 L2.82753191,15.6 C1.26842553,15.6 0,16.8864796 0,18.4677774 L0,27.1323521 C0,28.7136499 1.26842553,30 2.82753191,30 L57.1724681,30 C58.7315745,30 60,28.7135204 60,27.1323521 L60,18.4677774 C60,16.8864796 58.7315745,15.6 57.1724681,15.6 Z M58.0851064,27.1323521 C58.0851064,27.6426194 57.6757021,28.0578509 57.1724681,28.0578509 L2.82753191,28.0578509 C2.32429787,28.0578509 1.91489362,27.6426194 1.91489362,27.1323521 L1.91489362,18.4677774 C1.91489362,17.9573806 2.32429787,17.5421491 2.82753191,17.5421491 L57.1724681,17.5421491 C57.6757021,17.5421491 58.0851064,17.9573806 58.0851064,18.4677774 L58.0851064,27.1323521 Z" id="Shape" fill-rule="nonzero"></path>
                        <path d="M36.2427686,38.4 L6.95723139,38.4 C6.4285844,38.4 6,38.66856 6,39 C6,39.33144 6.4285844,39.6 6.95723139,39.6 L36.2427686,39.6 C36.7714156,39.6 37.2,39.33144 37.2,39 C37.2,38.66856 36.7714156,38.4 36.2427686,38.4 Z" id="Path"></path>
                        <path d="M52.2,36 C50.5457333,36 49.2,37.3458667 49.2,39 C49.2,40.6541333 50.5457333,42 52.2,42 C53.8542667,42 55.2,40.6541333 55.2,39 C55.2,37.3458667 53.8542667,36 52.2,36 Z M52.2,40 C51.6485333,40 51.2,39.5514667 51.2,39 C51.2,38.4485333 51.6485333,38 52.2,38 C52.7514667,38 53.2,38.4485333 53.2,39 C53.2,39.5514667 52.7514667,40 52.2,40 Z" id="Shape" fill-rule="nonzero"></path>
                        <path d="M43.8,36 C42.1457333,36 40.8,37.3458667 40.8,39 C40.8,40.6541333 42.1457333,42 43.8,42 C45.4542667,42 46.8,40.6541333 46.8,39 C46.8,37.3458667 45.4542667,36 43.8,36 Z M43.8,40 C43.2485333,40 42.8,39.5514667 42.8,39 C42.8,38.4485333 43.2485333,38 43.8,38 C44.3514667,38 44.8,38.4485333 44.8,39 C44.8,39.5514667 44.3514667,40 43.8,40 Z" id="Shape" fill-rule="nonzero"></path>
                        <path d="M57.1724681,32.4 L2.82753191,32.4 C1.26842553,32.4 0,33.686468 0,35.2677516 L0,43.9322484 C0,45.513532 1.26842553,46.8 2.82753191,46.8 L57.1724681,46.8 C58.7315745,46.8 60,45.5134025 60,43.9322484 L60,35.2677516 C60,33.686468 58.7315745,32.4 57.1724681,32.4 Z M58.0851064,43.9322484 C58.0851064,44.4426406 57.6757021,44.8578683 57.1724681,44.8578683 L2.82753191,44.8578683 C2.32429787,44.8578683 1.91489362,44.4426406 1.91489362,43.9322484 L1.91489362,35.2677516 C1.91489362,34.7573594 2.32429787,34.3421317 2.82753191,34.3421317 L57.1724681,34.3421317 C57.6757021,34.3421317 58.0851064,34.7573594 58.0851064,35.2677516 L58.0851064,43.9322484 Z" id="Shape" fill-rule="nonzero"></path>
                        <path d="M59.0425532,54.7452543 C59.5713191,54.7452543 60,54.3042498 60,53.7599895 C60,53.2157292 59.5713191,52.7747247 59.0425532,52.7747247 L37.3729787,52.7747247 C37.302,52.3027171 36.9065106,51.9410593 36.4280426,51.9410593 L33.9157021,51.9410593 L33.9157021,48.9852648 C33.9157021,48.4410045 33.4870213,48 32.9582553,48 C32.4294894,48 32.0008085,48.4410045 32.0008085,48.9852648 L32.0008085,52.9263241 C32.0008085,53.4705844 32.4294894,53.9115889 32.9582553,53.9115889 L35.4705957,53.9115889 L35.4705957,58.0294704 L24.5295319,58.0294704 L24.5295319,53.9115889 L29.1284681,53.9115889 C29.657234,53.9115889 30.0859149,53.4705844 30.0859149,52.9263241 C30.0859149,52.3820638 29.657234,51.9410593 29.1284681,51.9410593 L27.9991915,51.9410593 L27.9991915,48.9852648 C27.9991915,48.4410045 27.5705106,48 27.0417447,48 C26.5129787,48 26.0842979,48.4410045 26.0842979,48.9852648 L26.0842979,51.9410593 L23.5720851,51.9410593 C23.0934894,51.9410593 22.6981277,52.3027171 22.6271489,52.7747247 L0.957446809,52.7747247 C0.428680851,52.7747247 0,53.2157292 0,53.7599895 C0,54.3042498 0.428680851,54.7452543 0.957446809,54.7452543 L22.6145106,54.7452543 L22.6145106,56.7157839 L0.957446809,56.7157839 C0.428680851,56.7157839 0,57.1567885 0,57.7010488 C0,58.245309 0.428680851,58.6863136 0.957446809,58.6863136 L22.6145106,58.6863136 L22.6145106,59.0147352 C22.6145106,59.5589955 23.0431915,60 23.5719574,60 L36.4279149,60 C36.9566809,60 37.3853617,59.5589955 37.3853617,59.0147352 L37.3853617,58.6863136 L59.0425532,58.6863136 C59.5713191,58.6863136 60,58.245309 60,57.7010488 C60,57.1567885 59.5713191,56.7157839 59.0425532,56.7157839 L37.3854894,56.7157839 L37.3854894,54.7452543 L59.0425532,54.7452543 Z" id="Path"></path>
                        <path d="M36.2427686,7.2 L6.95723139,7.2 C6.4285844,7.2 6,7.46856 6,7.8 C6,8.13144 6.4285844,8.4 6.95723139,8.4 L36.2427686,8.4 C36.7714156,8.4 37.2,8.13144 37.2,7.8 C37.2,7.46856 36.7714156,7.2 36.2427686,7.2 Z" id="Path"></path>
                        <path d="M52.2,4.8 C50.5457333,4.8 49.2,6.14586667 49.2,7.8 C49.2,9.45413333 50.5457333,10.8 52.2,10.8 C53.8542667,10.8 55.2,9.45413333 55.2,7.8 C55.2,6.14586667 53.8542667,4.8 52.2,4.8 Z M52.2,8.8 C51.6485333,8.8 51.2,8.35146667 51.2,7.8 C51.2,7.24853333 51.6485333,6.8 52.2,6.8 C52.7514667,6.8 53.2,7.24853333 53.2,7.8 C53.2,8.35146667 52.7514667,8.8 52.2,8.8 Z" id="Shape" fill-rule="nonzero"></path>
                        <path d="M43.8,4.8 C42.1457333,4.8 40.8,6.14586667 40.8,7.8 C40.8,9.45413333 42.1457333,10.8 43.8,10.8 C45.4542667,10.8 46.8,9.45413333 46.8,7.8 C46.8,6.14586667 45.4542667,4.8 43.8,4.8 Z M43.8,8.8 C43.2485333,8.8 42.8,8.35146667 42.8,7.8 C42.8,7.24853333 43.2485333,6.8 43.8,6.8 C44.3514667,6.8 44.8,7.24853333 44.8,7.8 C44.8,8.35146667 44.3514667,8.8 43.8,8.8 Z" id="Shape" fill-rule="nonzero"></path>
                    </g>
                </g>
            </g>
        </g>
    </g>
</svg>