<?xml version="1.0" encoding="UTF-8"?>
<svg width="40px" height="40px" viewBox="0 0 40 40" version="1.1" xmlns="http://www.w3.org/2000/svg" xmlns:xlink="http://www.w3.org/1999/xlink">
    <!-- Generator: Sketch 52.6 (67491) - http://www.bohemiancoding.com/sketch -->
    <title>server-2</title>
    <desc>Created with Sketch.</desc>
    <g id="New-Designs" stroke="none" stroke-width="1" fill="none" fill-rule="evenodd">
        <g id="Domain-Search" transform="translate(-557.000000, -694.000000)" fill="#031B4E">
            <g id="Group-5-Copy" transform="translate(541.000000, 671.000000)">
                <g id="Group-2" transform="translate(16.000000, 20.000000)">
                    <g id="server-2" transform="translate(0.000000, 3.000000)">
                        <path d="M38.1149787,0 L1.88502128,0 C0.845617021,0 0,0.857653057 0,1.91176529 L0,7.68823471 C0,8.74243326 0.845617021,9.6 1.88502128,9.6 L38.1149787,9.6 C39.154383,9.6 40,8.74234694 40,7.68823471 L40,1.91176529 C40,0.857653057 39.154383,0 38.1149787,0 Z M38.7234043,7.68823471 C38.7234043,8.02841292 38.4504681,8.30523391 38.1149787,8.30523391 L1.88502128,8.30523391 C1.54953191,8.30523391 1.27659574,8.02841292 1.27659574,7.68823471 L1.27659574,1.91176529 C1.27659574,1.57158708 1.54953191,1.29476609 1.88502128,1.29476609 L38.1149787,1.29476609 C38.4504681,1.29476609 38.7234043,1.57158708 38.7234043,1.91176529 L38.7234043,7.68823471 Z" id="Shape" fill-rule="nonzero"></path>
                        <path d="M24.1618457,14.4 L4.63815426,14.4 C4.28572293,14.4 4,14.57904 4,14.8 C4,15.02096 4.28572293,15.2 4.63815426,15.2 L24.1618457,15.2 C24.5142771,15.2 24.8,15.02096 24.8,14.8 C24.8,14.57904 24.5142771,14.4 24.1618457,14.4 Z" id="Path"></path>
                        <path d="M34.8,13.6 C33.6971556,13.6 32.8,14.4972444 32.8,15.6 C32.8,16.7027556 33.6971556,17.6 34.8,17.6 C35.9028444,17.6 36.8,16.7027556 36.8,15.6 C36.8,14.4972444 35.9028444,13.6 34.8,13.6 Z M34.8,16.2666667 C34.4323556,16.2666667 34.1333333,15.9676444 34.1333333,15.6 C34.1333333,15.2323556 34.4323556,14.9333333 34.8,14.9333333 C35.1676444,14.9333333 35.4666667,15.2323556 35.4666667,15.6 C35.4666667,15.9676444 35.1676444,16.2666667 34.8,16.2666667 Z" id="Shape" fill-rule="nonzero"></path>
                        <path d="M29.2,13.6 C28.0971556,13.6 27.2,14.4972444 27.2,15.6 C27.2,16.7027556 28.0971556,17.6 29.2,17.6 C30.3028444,17.6 31.2,16.7027556 31.2,15.6 C31.2,14.4972444 30.3028444,13.6 29.2,13.6 Z M29.2,16.2666667 C28.8323556,16.2666667 28.5333333,15.9676444 28.5333333,15.6 C28.5333333,15.2323556 28.8323556,14.9333333 29.2,14.9333333 C29.5676444,14.9333333 29.8666667,15.2323556 29.8666667,15.6 C29.8666667,15.9676444 29.5676444,16.2666667 29.2,16.2666667 Z" id="Shape" fill-rule="nonzero"></path>
                        <path d="M38.1149787,10.4 L1.88502128,10.4 C0.845617021,10.4 0,11.2576531 0,12.3118516 L0,18.0882347 C0,19.1424333 0.845617021,20 1.88502128,20 L38.1149787,20 C39.154383,20 40,19.1423469 40,18.0882347 L40,12.3118516 C40,11.2576531 39.154383,10.4 38.1149787,10.4 Z M38.7234043,18.0882347 C38.7234043,18.4284129 38.4504681,18.7052339 38.1149787,18.7052339 L1.88502128,18.7052339 C1.54953191,18.7052339 1.27659574,18.4284129 1.27659574,18.0882347 L1.27659574,12.3118516 C1.27659574,11.9715871 1.54953191,11.6947661 1.88502128,11.6947661 L38.1149787,11.6947661 C38.4504681,11.6947661 38.7234043,11.9715871 38.7234043,12.3118516 L38.7234043,18.0882347 Z" id="Shape" fill-rule="nonzero"></path>
                        <path d="M24.1618457,25.6 L4.63815426,25.6 C4.28572293,25.6 4,25.77904 4,26 C4,26.22096 4.28572293,26.4 4.63815426,26.4 L24.1618457,26.4 C24.5142771,26.4 24.8,26.22096 24.8,26 C24.8,25.77904 24.5142771,25.6 24.1618457,25.6 Z" id="Path"></path>
                        <path d="M34.8,24 C33.6971556,24 32.8,24.8972444 32.8,26 C32.8,27.1027556 33.6971556,28 34.8,28 C35.9028444,28 36.8,27.1027556 36.8,26 C36.8,24.8972444 35.9028444,24 34.8,24 Z M34.8,26.6666667 C34.4323556,26.6666667 34.1333333,26.3676444 34.1333333,26 C34.1333333,25.6323556 34.4323556,25.3333333 34.8,25.3333333 C35.1676444,25.3333333 35.4666667,25.6323556 35.4666667,26 C35.4666667,26.3676444 35.1676444,26.6666667 34.8,26.6666667 Z" id="Shape" fill-rule="nonzero"></path>
                        <path d="M29.2,24 C28.0971556,24 27.2,24.8972444 27.2,26 C27.2,27.1027556 28.0971556,28 29.2,28 C30.3028444,28 31.2,27.1027556 31.2,26 C31.2,24.8972444 30.3028444,24 29.2,24 Z M29.2,26.6666667 C28.8323556,26.6666667 28.5333333,26.3676444 28.5333333,26 C28.5333333,25.6323556 28.8323556,25.3333333 29.2,25.3333333 C29.5676444,25.3333333 29.8666667,25.6323556 29.8666667,26 C29.8666667,26.3676444 29.5676444,26.6666667 29.2,26.6666667 Z" id="Shape" fill-rule="nonzero"></path>
                        <path d="M38.1149787,21.6 L1.88502128,21.6 C0.845617021,21.6 0,22.4576453 0,23.5118344 L0,29.2881656 C0,30.3423547 0.845617021,31.2 1.88502128,31.2 L38.1149787,31.2 C39.154383,31.2 40,30.3422683 40,29.2881656 L40,23.5118344 C40,22.4576453 39.154383,21.6 38.1149787,21.6 Z M38.7234043,29.2881656 C38.7234043,29.6284271 38.4504681,29.9052456 38.1149787,29.9052456 L1.88502128,29.9052456 C1.54953191,29.9052456 1.27659574,29.6284271 1.27659574,29.2881656 L1.27659574,23.5118344 C1.27659574,23.1715729 1.54953191,22.8947544 1.88502128,22.8947544 L38.1149787,22.8947544 C38.4504681,22.8947544 38.7234043,23.1715729 38.7234043,23.5118344 L38.7234043,29.2881656 Z" id="Shape" fill-rule="nonzero"></path>
                        <path d="M39.3617021,36.4968362 C39.7142128,36.4968362 40,36.2028332 40,35.839993 C40,35.4771528 39.7142128,35.1831498 39.3617021,35.1831498 L24.9153191,35.1831498 C24.868,34.8684781 24.6043404,34.6273728 24.2853617,34.6273728 L22.6104681,34.6273728 L22.6104681,32.6568432 C22.6104681,32.294003 22.3246809,32 21.9721702,32 C21.6196596,32 21.3338723,32.294003 21.3338723,32.6568432 L21.3338723,35.2842161 C21.3338723,35.6470562 21.6196596,35.9410593 21.9721702,35.9410593 L23.6470638,35.9410593 L23.6470638,38.6863136 L16.3530213,38.6863136 L16.3530213,35.9410593 L19.4189787,35.9410593 C19.7714894,35.9410593 20.0572766,35.6470562 20.0572766,35.2842161 C20.0572766,34.9213759 19.7714894,34.6273728 19.4189787,34.6273728 L18.6661277,34.6273728 L18.6661277,32.6568432 C18.6661277,32.294003 18.3803404,32 18.0278298,32 C17.6753191,32 17.3895319,32.294003 17.3895319,32.6568432 L17.3895319,34.6273728 L15.7147234,34.6273728 C15.3956596,34.6273728 15.1320851,34.8684781 15.084766,35.1831498 L0.638297872,35.1831498 C0.285787234,35.1831498 0,35.4771528 0,35.839993 C0,36.2028332 0.285787234,36.4968362 0.638297872,36.4968362 L15.0763404,36.4968362 L15.0763404,37.8105226 L0.638297872,37.8105226 C0.285787234,37.8105226 0,38.1045256 0,38.4673658 C0,38.830206 0.285787234,39.1242091 0.638297872,39.1242091 L15.0763404,39.1242091 L15.0763404,39.3431568 C15.0763404,39.705997 15.3621277,40 15.7146383,40 L24.2852766,40 C24.6377872,40 24.9235745,39.705997 24.9235745,39.3431568 L24.9235745,39.1242091 L39.3617021,39.1242091 C39.7142128,39.1242091 40,38.830206 40,38.4673658 C40,38.1045256 39.7142128,37.8105226 39.3617021,37.8105226 L24.9236596,37.8105226 L24.9236596,36.4968362 L39.3617021,36.4968362 Z" id="Path"></path>
                        <path d="M24.1618457,4.8 L4.63815426,4.8 C4.28572293,4.8 4,4.97904 4,5.2 C4,5.42096 4.28572293,5.6 4.63815426,5.6 L24.1618457,5.6 C24.5142771,5.6 24.8,5.42096 24.8,5.2 C24.8,4.97904 24.5142771,4.8 24.1618457,4.8 Z" id="Path"></path>
                        <path d="M34.8,3.2 C33.6971556,3.2 32.8,4.09724444 32.8,5.2 C32.8,6.30275556 33.6971556,7.2 34.8,7.2 C35.9028444,7.2 36.8,6.30275556 36.8,5.2 C36.8,4.09724444 35.9028444,3.2 34.8,3.2 Z M34.8,5.86666667 C34.4323556,5.86666667 34.1333333,5.56764444 34.1333333,5.2 C34.1333333,4.83235556 34.4323556,4.53333333 34.8,4.53333333 C35.1676444,4.53333333 35.4666667,4.83235556 35.4666667,5.2 C35.4666667,5.56764444 35.1676444,5.86666667 34.8,5.86666667 Z" id="Shape" fill-rule="nonzero"></path>
                        <path d="M29.2,3.2 C28.0971556,3.2 27.2,4.09724444 27.2,5.2 C27.2,6.30275556 28.0971556,7.2 29.2,7.2 C30.3028444,7.2 31.2,6.30275556 31.2,5.2 C31.2,4.09724444 30.3028444,3.2 29.2,3.2 Z M29.2,5.86666667 C28.8323556,5.86666667 28.5333333,5.56764444 28.5333333,5.2 C28.5333333,4.83235556 28.8323556,4.53333333 29.2,4.53333333 C29.5676444,4.53333333 29.8666667,4.83235556 29.8666667,5.2 C29.8666667,5.56764444 29.5676444,5.86666667 29.2,5.86666667 Z" id="Shape" fill-rule="nonzero"></path>
                    </g>
                </g>
            </g>
        </g>
    </g>
</svg>