<svg width="45" height="45" viewBox="0 0 45 45" fill="none" xmlns="http://www.w3.org/2000/svg">
<g clip-path="url(#clip0)">
<path d="M6.56253 14.9999C7.08073 14.9999 7.50006 14.5806 7.50006 14.0624V8.43741C7.50006 7.9192 7.08073 7.49988 6.56253 7.49988C6.04433 7.49988 5.625 7.9192 5.625 8.43741V14.0624C5.625 14.5806 6.04433 14.9999 6.56253 14.9999Z" fill="#031B4E"/>
<path d="M10.3125 14.9999C10.8307 14.9999 11.2501 14.5806 11.2501 14.0624V8.43741C11.2501 7.9192 10.8307 7.49988 10.3125 7.49988C9.79433 7.49988 9.375 7.9192 9.375 8.43741V14.0624C9.37509 14.5806 9.79441 14.9999 10.3125 14.9999Z" fill="#031B4E"/>
<path d="M14.0625 14.9999C14.5807 14.9999 15.0001 14.5806 15.0001 14.0624V8.43741C15.0001 7.9192 14.5807 7.49988 14.0625 7.49988C13.5443 7.49988 13.125 7.9192 13.125 8.43741V14.0624C13.125 14.5806 13.5443 14.9999 14.0625 14.9999Z" fill="#031B4E"/>
<path d="M33.75 13.1251C34.7855 13.1251 35.6249 12.2856 35.6249 11.2501C35.6249 10.2146 34.7855 9.37512 33.75 9.37512C32.7145 9.37512 31.875 10.2146 31.875 11.2501C31.875 12.2856 32.7145 13.1251 33.75 13.1251Z" fill="#031B4E"/>
<path d="M28.125 13.1251C29.1605 13.1251 29.9999 12.2856 29.9999 11.2501C29.9999 10.2146 29.1605 9.37512 28.125 9.37512C27.0895 9.37512 26.25 10.2146 26.25 11.2501C26.25 12.2856 27.0895 13.1251 28.125 13.1251Z" fill="#031B4E"/>
<path d="M6.56253 20.6251C6.04433 20.6251 5.625 21.0444 5.625 21.5627V27.1877C5.625 27.7058 6.04433 28.1251 6.56253 28.1251C7.08073 28.1251 7.50006 27.7058 7.50006 27.1876V21.5626C7.49997 21.0444 7.08073 20.6251 6.56253 20.6251Z" fill="#031B4E"/>
<path d="M10.3125 20.6251C9.79433 20.6251 9.375 21.0444 9.375 21.5627V27.1877C9.375 27.7059 9.79433 28.1252 10.3125 28.1252C10.8307 28.1252 11.2501 27.7059 11.2501 27.1877V21.5627C11.2501 21.0444 10.8307 20.6251 10.3125 20.6251Z" fill="#031B4E"/>
<path d="M14.0625 20.6251C13.5443 20.6251 13.125 21.0444 13.125 21.5627V27.1877C13.125 27.7059 13.5443 28.1252 14.0625 28.1252C14.5807 28.1252 15.0001 27.7059 15.0001 27.1877V21.5627C15.0001 21.0444 14.5807 20.6251 14.0625 20.6251Z" fill="#031B4E"/>
<path d="M41.25 22.9888V20.625C41.25 19.4996 40.7416 18.5003 39.9544 17.8125C40.7416 17.1247 41.25 16.1254 41.25 15V7.50003C41.25 5.43188 39.5682 3.75 37.4999 3.75H3.74994C1.68179 3.75009 0 5.43188 0 7.50003V15C0 16.1254 0.508359 17.1247 1.2956 17.8125C0.508359 18.5003 0 19.4997 0 20.6251V28.1251C0 30.1932 1.68179 31.8751 3.75003 31.8751H24.4225C24.8984 37.1231 29.3176 41.2501 34.6875 41.2501C40.3739 41.25 45 36.6239 45 30.9376C45 27.7421 43.5389 24.8819 41.25 22.9888ZM1.87497 7.50003C1.87497 6.46644 2.71635 5.62506 3.75003 5.62506H37.5C38.5336 5.62506 39.375 6.46644 39.375 7.50003V15C39.375 16.0336 38.5336 16.875 37.5 16.875H3.75003C2.71644 16.875 1.87506 16.0336 1.87506 15V7.50003H1.87497ZM3.75003 30C2.71644 30 1.87506 29.1587 1.87506 28.1251V20.6251C1.87506 19.5915 2.71644 18.7501 3.75003 18.7501H37.5C38.5336 18.7501 39.375 19.5915 39.375 20.6251V21.7635C37.9667 21.0411 36.3761 20.6251 34.6875 20.6251C29.3176 20.6251 24.8984 24.7521 24.4225 30.0001H3.75003V30ZM34.6875 39.3751C30.0348 39.3751 26.25 35.5902 26.25 30.9376C26.25 26.2849 30.0349 22.5001 34.6875 22.5001C39.3402 22.5001 43.125 26.2849 43.125 30.9376C43.125 35.5902 39.3402 39.3751 34.6875 39.3751Z" fill="#031B4E"/>
<path d="M32.395 29.8425C32.8262 29.555 32.9425 28.9737 32.655 28.5424C32.3675 28.1103 31.7852 27.9949 31.3549 28.2824L30.4842 28.8629C31.2514 27.3156 32.8472 26.25 34.6874 26.25C36.2475 26.25 37.7004 27.0227 38.5757 28.3172C38.8641 28.7457 39.4492 28.8601 39.8767 28.5691C40.306 28.2797 40.4187 27.6966 40.1285 27.2681C38.9053 25.4562 36.871 24.375 34.6875 24.375C31.0693 24.3749 28.125 27.3192 28.125 30.9374C28.125 31.2836 28.3155 31.6012 28.6203 31.7641C28.7585 31.8383 28.9105 31.8749 29.0624 31.8749C29.2446 31.8749 29.4259 31.8218 29.5825 31.7174L32.395 29.8425Z" fill="#2176FF"/>
<path d="M40.7552 30.1108C40.4503 29.9478 40.0786 29.9661 39.793 30.1574L36.9805 32.0324C36.5493 32.3199 36.433 32.9012 36.7205 33.3325C37.0062 33.7628 37.5876 33.8772 38.0206 33.5925L38.8912 33.012C38.124 34.5593 36.5283 35.6249 34.6881 35.6249C33.128 35.6249 31.6751 34.8522 30.7998 33.5577C30.5104 33.1283 29.9254 33.0156 29.4988 33.3058C29.0695 33.5952 28.9568 34.1783 29.247 34.6068C30.4702 36.4187 32.5045 37.4999 34.688 37.4999C38.3062 37.4999 41.2505 34.5556 41.2505 30.9374C41.2505 30.5914 41.0601 30.2737 40.7552 30.1108Z" fill="#2176FF"/>
</g>
<defs>
<clipPath id="clip0">
<rect width="45" height="45" fill="white"/>
</clipPath>
</defs>
</svg>
