<svg width="50" height="50" viewBox="0 0 50 50" fill="none" xmlns="http://www.w3.org/2000/svg">
<g clip-path="url(#clip0)">
<path d="M46.239 13.5663L46.2374 13.5274C46.2157 13.0471 46.2012 12.539 46.1924 11.9736C46.1516 9.21676 43.9601 6.93634 41.2028 6.78223C35.4541 6.46141 31.0069 4.58687 27.2071 0.883195L27.1747 0.852296C25.9353 -0.284099 24.0657 -0.284099 22.8259 0.852296L22.7935 0.883195C18.9937 4.58687 14.5465 6.46141 8.7978 6.78261C6.04093 6.93634 3.84901 9.21676 3.80819 11.974C3.7998 12.5355 3.78492 13.0437 3.76318 13.5274L3.76089 13.6178C3.64912 19.4798 3.51027 26.7754 5.9509 33.3973C7.29291 37.0388 9.32538 40.2042 11.9915 42.8062C15.028 45.7695 19.0051 48.122 23.8124 49.7982C23.9688 49.8527 24.1313 49.897 24.2969 49.9301C24.5303 49.9767 24.7653 50 25.0003 50C25.2353 50 25.4707 49.9767 25.7037 49.9301C25.8693 49.897 26.0329 49.8523 26.1901 49.7974C30.9917 48.1182 34.9646 45.7645 37.9985 42.8016C40.6634 40.1989 42.6959 37.0327 44.039 33.3904C46.4888 26.7487 46.3503 19.4394 46.239 13.5663ZM41.2863 32.3753C38.7122 39.3547 33.4575 44.1478 25.2219 47.0279C25.1926 47.0378 25.1613 47.0466 25.1289 47.0531C25.0438 47.0699 24.9572 47.0699 24.871 47.0527C24.8389 47.0462 24.8077 47.0378 24.7787 47.0279C16.5344 44.1532 11.2762 39.3627 8.70396 32.383C6.45444 26.2791 6.58185 19.582 6.69439 13.6738L6.69515 13.641C6.71804 13.1333 6.7333 12.6015 6.74169 12.0171C6.76 10.793 7.73503 9.78019 8.96145 9.7119C12.2146 9.53033 15.0726 8.90167 17.6986 7.79007C20.3212 6.67999 22.6505 5.11521 24.8187 3.00645C24.929 2.91337 25.072 2.91299 25.1819 3.00645C27.3505 5.11521 29.6798 6.67999 32.302 7.79007C34.928 8.90167 37.786 9.53033 41.0395 9.7119C42.266 9.78019 43.241 10.793 43.2589 12.0175C43.2677 12.605 43.283 13.1367 43.3058 13.641C43.418 19.5561 43.5424 26.2585 41.2863 32.3753Z" fill="#031B4E"/>
<path d="M24.9998 12.5403C18.1287 12.5403 12.5391 18.1303 12.5391 25.001C12.5391 31.872 18.1287 37.4621 24.9998 37.4621C31.8704 37.4621 37.4605 31.872 37.4605 25.001C37.4605 18.1303 31.8704 12.5403 24.9998 12.5403ZM24.9998 34.5278C19.7466 34.5278 15.4729 30.2542 15.4729 25.001C15.4729 19.7478 19.7466 15.4742 24.9998 15.4742C30.2526 15.4742 34.5262 19.7478 34.5262 25.001C34.5262 30.2542 30.2526 34.5278 24.9998 34.5278Z" fill="#031B4E"/>
<path d="M28.5816 21.1324L22.7939 26.9201L21.223 25.3492C20.65 24.7762 19.7212 24.7762 19.1482 25.3492C18.5756 25.9221 18.5756 26.851 19.1482 27.4236L21.7567 30.0321C22.0432 30.3186 22.4185 30.4616 22.7939 30.4616C23.1693 30.4616 23.5446 30.3186 23.8311 30.0321L30.6564 23.2068C31.229 22.6339 31.229 21.705 30.6564 21.1324C30.0834 20.5591 29.1545 20.5591 28.5816 21.1324Z" fill="#031B4E"/>
</g>
<defs>
<clipPath id="clip0">
<rect width="50" height="50" fill="white"/>
</clipPath>
</defs>
</svg>
