<svg width="81" height="81" viewBox="0 0 81 81" fill="none" xmlns="http://www.w3.org/2000/svg">
<path d="M74.1826 33.951C72.3754 33.951 70.9106 35.416 70.9106 37.223V40.5185C70.9057 49.115 67.5534 57.195 61.4713 63.27C55.3936 69.3406 47.3173 72.6831 38.7278 72.6831C38.7215 72.6831 38.7152 72.6831 38.7088 72.6831C20.9629 72.673 6.5338 58.2276 6.54392 40.4815C6.54882 31.8852 9.90115 23.8051 15.9834 17.7298C22.0611 11.6593 30.1375 8.31674 38.7269 8.31674C38.7332 8.31674 38.7395 8.31674 38.7459 8.31674C43.2819 8.31927 47.6827 9.25678 51.8261 11.1029C53.4771 11.8385 55.4108 11.0964 56.1465 9.44584C56.8818 7.7953 56.1401 5.86111 54.4894 5.12547C49.5035 2.90382 44.208 1.77583 38.7495 1.77283C38.7413 1.77283 38.7349 1.77283 38.7267 1.77283C28.3915 1.77283 18.6718 5.79562 11.3587 13.1002C4.03988 20.4104 0.0060181 30.1334 6.37954e-06 40.478C-0.00584714 50.8223 4.01663 60.5499 11.3272 67.8687C18.6378 75.1875 28.3606 79.2213 38.705 79.2273C38.7131 79.2273 38.7196 79.2273 38.7278 79.2273C49.0631 79.2273 58.7827 75.2047 66.0958 67.9C73.4146 60.5896 77.4485 50.8666 77.4545 40.5204V37.2231C77.4545 35.416 75.9897 33.951 74.1826 33.951Z" fill="#3DDC97"/>
<path d="M80.0412 6.29695C78.7634 5.0193 76.6917 5.0193 75.4139 6.29695L38.7267 42.9839L30.4038 34.661C29.1262 33.3832 27.0544 33.3832 25.7767 34.661C24.4989 35.9388 24.4989 38.0105 25.7767 39.2883L36.4133 49.9249C37.0522 50.5639 37.8897 50.8833 38.7271 50.8833C39.5644 50.8833 40.4018 50.5639 41.0408 49.9249L80.0412 10.9242C81.319 9.64643 81.319 7.57476 80.0412 6.29695Z" fill="#3DDC97"/>
</svg>
