<?xml version="1.0" encoding="UTF-8"?>
<svg width="57px" height="60px" viewBox="0 0 57 60" version="1.1" xmlns="http://www.w3.org/2000/svg" xmlns:xlink="http://www.w3.org/1999/xlink">
    <!-- Generator: Sketch 52.6 (67491) - http://www.bohemiancoding.com/sketch -->
    <title>headphones</title>
    <desc>Created with Sketch.</desc>
    <g id="New-Designs" stroke="none" stroke-width="1" fill="none" fill-rule="evenodd">
        <g id="Landing-Page" transform="translate(-699.000000, -2320.000000)" fill="#FFFFFF" fill-rule="nonzero">
            <g id="support-to-love" transform="translate(0.000000, 2121.000000)">
                <g id="Group-11" transform="translate(245.000000, 199.000000)">
                    <g id="Group-9-Copy" transform="translate(342.000000, 0.000000)">
                        <g id="headphones" transform="translate(112.000000, 0.000000)">
                            <path d="M48.7763301,22.8151261 L48.7763301,20.5084034 C48.7763301,14.987395 46.8212405,9.85714286 43.2768524,6.05042017 C39.64417,2.14285714 34.6492316,0 29.2002079,0 L27.2955723,0 C21.8465487,0 16.8516103,2.14285714 13.2189278,6.05042017 C9.67453973,9.85714286 7.71945022,14.987395 7.71945022,20.5084034 L7.71945022,22.8151261 C3.41825328,23.105042 0,26.6848739 0,31.0588235 L0,34.6638655 C0,39.2142857 3.70836334,42.9201681 8.26182989,42.9201681 L12.9162043,42.9201681 C13.748694,42.9201681 14.429822,42.2394958 14.429822,41.407563 L14.429822,24.302521 C14.429822,23.4705882 13.748694,22.789916 12.9162043,22.789916 L10.7466856,22.789916 L10.7466856,20.5084034 C10.7466856,10.5378151 17.8606887,3.02521008 27.2829589,3.02521008 L29.1875945,3.02521008 C38.6224781,3.02521008 45.7238677,10.5378151 45.7238677,20.5084034 L45.7238677,22.789916 L43.554349,22.789916 C42.7218593,22.789916 42.0407313,23.4705882 42.0407313,24.302521 L42.0407313,41.394958 C42.0407313,42.2268908 42.7218593,42.907563 43.554349,42.907563 L45.6734138,42.907563 C45.0553532,50.7983193 39.618943,52.6260504 37.0962469,53.0420168 C36.4025054,50.9117647 34.396962,49.3739496 32.0382411,49.3739496 L28.2541969,49.3739496 C25.3278693,49.3739496 22.9439215,51.7563025 22.9439215,54.6806723 C22.9439215,57.605042 25.3278693,60 28.2541969,60 L32.0508546,60 C34.4978698,60 36.5538672,58.3361345 37.1719278,56.092437 C38.4080489,55.9159664 40.3631384,55.4747899 42.3056144,54.3403361 C45.0427398,52.7394958 48.2844043,49.4747899 48.7132627,42.894958 C53.0396865,42.6302521 56.4705533,39.0378151 56.4705533,34.6512605 L56.4705533,31.0462185 C56.4831668,26.6848739 53.077527,23.092437 48.7763301,22.8151261 Z M11.4278136,39.8823529 L8.28705685,39.8823529 C5.39856976,39.8823529 3.05246234,37.5378151 3.05246234,34.6512605 L3.05246234,31.0462185 C3.05246234,28.1596639 5.39856976,25.8151261 8.28705685,25.8151261 L11.4278136,25.8151261 L11.4278136,39.8823529 Z M32.0508546,56.9747899 L28.2541969,56.9747899 C26.9928488,56.9747899 25.9711569,55.9537815 25.9711569,54.6932773 C25.9711569,53.4327731 26.9928488,52.4117647 28.2541969,52.4117647 L32.0508546,52.4117647 C33.3122027,52.4117647 34.3338946,53.4327731 34.3338946,54.6932773 C34.3338946,55.9537815 33.3122027,56.9747899 32.0508546,56.9747899 Z M53.4559314,34.6512605 C53.4559314,37.5378151 51.109824,39.8823529 48.2213369,39.8823529 L45.0805802,39.8823529 L45.0805802,25.8151261 L48.2213369,25.8151261 C51.109824,25.8151261 53.4559314,28.1596639 53.4559314,31.0462185 L53.4559314,34.6512605 Z" id="Shape"></path>
                        </g>
                    </g>
                </g>
            </g>
        </g>
    </g>
</svg>