<svg width="45" height="45" viewBox="0 0 45 45" fill="none" xmlns="http://www.w3.org/2000/svg">
<g clip-path="url(#clip0)">
<path d="M20.3214 14.2796C20.3214 15.2083 19.5674 15.9531 18.6479 15.9531H2.5016C1.57291 15.9531 0.828125 15.1991 0.828125 14.2796V2.68483C0.828125 1.75614 1.58211 1.01135 2.5016 1.01135H18.6387C19.5674 1.01135 20.3122 1.76534 20.3122 2.68483V14.2796H20.3214V14.2796Z" fill="#2176FF"/>
<path d="M0 2.6849V14.2797C0 15.659 1.12178 16.7899 2.51022 16.7899H9.74663V19.3001H7.32836C6.86861 19.3001 6.49162 19.6771 6.49162 20.1369C6.49162 20.5966 6.86861 20.9736 7.32836 20.9736H13.82C14.2797 20.9736 14.6567 20.5966 14.6567 20.1369C14.6567 19.6771 14.2797 19.3001 13.82 19.3001H11.4017V16.7899H18.6381C20.0174 16.7899 21.1483 15.6681 21.1483 14.2797V2.6849C21.1483 1.30566 20.0266 0.174683 18.6381 0.174683H2.50102C1.12178 0.174683 0 1.30566 0 2.6849ZM19.4841 2.6849V14.2797C19.4841 14.7395 19.1071 15.1164 18.6473 15.1164H2.50102C2.04128 15.1164 1.66428 14.7395 1.66428 14.2797V2.6849C1.66428 2.22515 2.04128 1.84816 2.50102 1.84816H18.6381C19.1071 1.84816 19.4841 2.22515 19.4841 2.6849Z" fill="#031B4E"/>
<path d="M42.5003 24.0354H26.354C24.9747 24.0354 23.8438 25.1572 23.8438 26.5456V38.1312C23.8438 39.5105 24.9655 40.6414 26.354 40.6414H33.5904V43.1517H31.1721C30.7124 43.1517 30.3354 43.5287 30.3354 43.9884C30.3354 44.4482 30.7124 44.8251 31.1721 44.8251H37.6729C38.1327 44.8251 38.5097 44.4482 38.5097 43.9884C38.5097 43.5287 38.1327 43.1517 37.6729 43.1517H35.2547V40.6414H42.4911C43.8703 40.6414 45.0013 39.5197 45.0013 38.1312V26.5364C45.0013 25.1572 43.8795 24.0354 42.5003 24.0354ZM43.337 38.1312C43.337 38.591 42.96 38.968 42.5003 38.968H26.354C25.8942 38.968 25.5172 38.591 25.5172 38.1312V26.5364C25.5172 26.0767 25.8942 25.6997 26.354 25.6997H42.4911C42.9508 25.6997 43.3278 26.0767 43.3278 26.5364V38.1312H43.337V38.1312Z" fill="#031B4E"/>
<path d="M25.5906 9.31431H33.5902V18.0771C33.5902 18.1782 33.6086 18.2794 33.6454 18.3713L32.1099 16.8358C31.788 16.5139 31.2547 16.5139 30.9329 16.8358C30.6111 17.1576 30.6111 17.6909 30.9329 18.0127L33.8385 20.9183C34.004 21.0838 34.2155 21.1666 34.427 21.1666C34.6385 21.1666 34.8499 21.0838 35.0154 20.9183L37.921 18.0127C38.2429 17.6909 38.2429 17.1576 37.921 16.8358C37.5992 16.5139 37.0659 16.5139 36.7441 16.8358L35.2085 18.3713C35.2453 18.2794 35.2637 18.1782 35.2637 18.0771V8.48676C35.2637 8.02702 34.8867 7.65002 34.427 7.65002H25.5906C25.1309 7.65002 24.7539 8.02702 24.7539 8.48676C24.7631 8.94651 25.1309 9.31431 25.5906 9.31431Z" fill="#031B4E"/>
<path d="M9.73855 37.0003C9.73855 37.4601 10.1155 37.8371 10.5753 37.8371H19.4116C19.8714 37.8371 20.2484 37.4601 20.2484 37.0003C20.2484 36.5406 19.8714 36.1636 19.4116 36.1636H11.412V27.4008C11.412 27.2997 11.3936 27.1985 11.3569 27.1066L12.8924 28.6422C13.0579 28.8077 13.2694 28.8904 13.4809 28.8904C13.6924 28.8904 13.9039 28.8077 14.0694 28.6422C14.3912 28.3203 14.3912 27.787 14.0694 27.4652L11.1638 24.5596C10.8419 24.2378 10.3086 24.2378 9.98681 24.5596L7.08121 27.4652C6.75939 27.787 6.75939 28.3203 7.08121 28.6422C7.40303 28.964 7.93634 28.964 8.25816 28.6422L9.79372 27.1066C9.75694 27.1985 9.73855 27.2997 9.73855 27.4008V37.0003Z" fill="#031B4E"/>
</g>
<defs>
<clipPath id="clip0">
<rect width="45" height="45" fill="white"/>
</clipPath>
</defs>
</svg>
