<?xml version="1.0" encoding="UTF-8"?>
<svg width="66px" height="60px" viewBox="0 0 66 60" version="1.1" xmlns="http://www.w3.org/2000/svg" xmlns:xlink="http://www.w3.org/1999/xlink">
    <!-- Generator: Sketch 52.6 (67491) - http://www.bohemiancoding.com/sketch -->
    <title>website</title>
    <desc>Created with Sketch.</desc>
    <g id="New-Designs" stroke="none" stroke-width="1" fill="none" fill-rule="evenodd">
        <g id="Landing-Page" transform="translate(-974.000000, -963.000000)" fill="#031B4E">
            <g id="Group-7" transform="translate(0.000000, 688.000000)">
                <g id="pricetable-copy-2" transform="translate(947.000000, 248.000000)">
                    <g id="website" transform="translate(27.000000, 27.000000)">
                        <path d="M52.3235593,4.62419492 L25.9878814,4.62419492 C25.2872034,4.62419492 24.7191102,5.19241525 24.7191102,5.8929661 C24.7191102,6.59364407 25.2873305,7.16173729 25.9878814,7.16173729 L52.3235593,7.16173729 C53.0242373,7.16173729 53.5923305,6.59351695 53.5923305,5.8929661 C53.5923305,5.19241525 53.0241102,4.62419492 52.3235593,4.62419492 Z" id="Path"></path>
                        <path d="M13.1229661,4.99601695 C12.8869068,4.75995763 12.5597034,4.62432203 12.2258898,4.62432203 C11.8922034,4.62432203 11.5648729,4.75995763 11.3289407,4.99601695 C11.0928814,5.23207627 10.9571186,5.55813559 10.9571186,5.89309322 C10.9571186,6.22677966 11.0928814,6.55411017 11.3289407,6.79004237 C11.5647458,7.02610169 11.8922034,7.16186441 12.2258898,7.16186441 C12.5597034,7.16186441 12.8869068,7.02610169 13.1229661,6.79004237 C13.3590254,6.55423729 13.494661,6.22677966 13.494661,5.89309322 C13.494661,5.55927966 13.3590254,5.23194915 13.1229661,4.99601695 Z" id="Path"></path>
                        <path d="M8.46012712,4.99601695 C8.2240678,4.75995763 7.89686441,4.62432203 7.56305085,4.62432203 C7.22936441,4.62432203 6.9020339,4.75995763 6.66610169,4.99601695 C6.43004237,5.23207627 6.29427966,5.55940678 6.29427966,5.89309322 C6.29427966,6.22677966 6.43004237,6.55411017 6.66610169,6.79004237 C6.90190678,7.02610169 7.22936441,7.16186441 7.56305085,7.16186441 C7.89686441,7.16186441 8.2240678,7.02610169 8.46012712,6.79004237 C8.69618644,6.55423729 8.83182203,6.22677966 8.83182203,5.89309322 C8.83194915,5.55927966 8.69631356,5.23194915 8.46012712,4.99601695 Z" id="Path"></path>
                        <path d="M17.7858051,4.99601695 C17.5486017,4.75995763 17.2225424,4.62432203 16.8874576,4.62432203 C16.5537712,4.62432203 16.2277119,4.75995763 15.9905085,4.99601695 C15.7545763,5.23207627 15.6186864,5.55940678 15.6186864,5.89309322 C15.6186864,6.22677966 15.7544492,6.55411017 15.9905085,6.79004237 C16.2275847,7.02610169 16.5537712,7.16186441 16.8874576,7.16186441 C17.2225424,7.16186441 17.5484746,7.02610169 17.7858051,6.79004237 C18.0218644,6.55423729 18.1562288,6.22677966 18.1562288,5.89309322 C18.1563559,5.55927966 18.0218644,5.23194915 17.7858051,4.99601695 Z" id="Path"></path>
                        <path d="M64.713178,52.901822 L54.7248305,42.9136017 L56.291822,41.3466102 C56.2922034,41.3462288 56.2927119,41.3458475 56.2930932,41.3454661 C56.2934746,41.3450847 56.2938559,41.3445763 56.2942373,41.3441949 L57.8608475,39.7775847 L62.7952119,44.7120763 C63.2908475,45.2074576 64.0939831,45.2074576 64.5896186,44.7120763 C65.0851271,44.2165678 65.0851271,43.413178 64.5896186,42.9176695 L58.758178,37.0862288 C58.2627966,36.5909746 57.459661,36.5907203 56.9637712,37.0862288 L55.3958898,38.6539831 L54.6363559,37.8944492 C56.8179661,35.3079661 58.1347881,31.9694492 58.1347881,28.3287712 C58.1347881,20.1358475 51.469322,13.4703814 43.2763983,13.4703814 C39.0555508,13.4703814 35.2400847,15.2396186 32.5327119,18.0752542 C32.5207627,18.0748729 32.5091949,18.0734746 32.4972458,18.0734746 L8.12021186,18.0734746 C7.4195339,18.0734746 6.85144068,18.6416949 6.85144068,19.3422458 L6.85144068,37.1052966 C6.85144068,37.8059746 7.41966102,38.3740678 8.12021186,38.3740678 L32.3382203,38.3740678 C35.0560169,41.3309746 38.9532203,43.1872881 43.2762712,43.1872881 C46.9169492,43.1872881 50.2552119,41.870339 52.8419492,39.6888559 L53.6014831,40.4483898 L52.0332203,42.0166525 C51.7953814,42.2544915 51.6616525,42.5773729 51.6616525,42.9138559 C51.6616525,43.250339 51.7953814,43.5729661 52.0332203,43.8110593 L57.3491949,49.1270339 L57.3491949,54.6146186 C57.3491949,56.1537712 56.0970763,57.4058898 54.5579237,57.4058898 L5.32894068,57.4058898 C3.78978814,57.4058898 2.53766949,56.1537712 2.53766949,54.6146186 L2.53766949,11.7287288 C2.54237288,11.7287288 2.54694915,11.7294915 2.55152542,11.7294915 L57.349322,11.7294915 L57.349322,17.4483051 C57.349322,18.1489831 57.9175424,18.7170763 58.6180932,18.7170763 C59.3186441,18.7170763 59.8868644,18.1488559 59.8868644,17.4483051 L59.8868644,5.38550847 C59.8868644,2.44716102 57.4963983,0.0565677966 54.5579237,0.0565677966 L5.32894068,0.0565677966 C2.3904661,0.0565677966 0,2.44716102 0,5.38550847 L0,54.6144915 C0,57.552839 2.3904661,59.9434322 5.32894068,59.9434322 L54.5579237,59.9434322 C57.4962712,59.9434322 59.8868644,57.5529661 59.8868644,54.6144915 L59.8868644,51.664322 L62.9187712,54.6962288 C63.1665254,54.9438559 63.4911864,55.0677966 63.8159746,55.0677966 C64.1407627,55.0677966 64.4652966,54.9438559 64.713178,54.6962288 C65.2085593,54.2007203 65.2085593,53.3973305 64.713178,52.901822 Z M28.4227119,28.7149576 L26.8238136,25.6263559 C26.5016949,25.0039831 25.7358051,24.7608051 25.1135593,25.0829237 C24.4913136,25.4050424 24.2480085,26.170678 24.5701271,26.793178 L27.5495339,32.5484746 C27.7751695,32.9843644 28.2183051,33.2341525 28.6773305,33.2341525 C28.8560593,33.2341525 29.0369492,33.1942373 29.2085593,33.114661 C29.5341102,34.0691949 29.955,34.9798729 30.4586441,35.8363983 L9.38898305,35.8363983 L9.38898305,20.6108898 L30.5838559,20.6108898 C29.2100847,22.8617797 28.4177542,25.504322 28.4177542,28.3286441 C28.4177542,28.4579237 28.4194068,28.5866949 28.4227119,28.7149576 Z M43.2762712,40.6493644 C36.4826695,40.6493644 30.9554237,35.1223729 30.9554237,28.3286441 C30.9554237,28.2319068 30.956822,28.1355508 30.9591102,28.039322 L33.2931356,32.5482203 C33.5113983,32.9698729 33.9461441,33.2337712 34.4197881,33.2337712 C34.4261441,33.2337712 34.4326271,33.2337712 34.4388559,33.2336441 C34.9198729,33.2263983 35.3553814,32.9478814 35.5636017,32.5142797 L38.3277966,26.7589831 C38.6311017,26.1272034 38.3649153,25.3694492 37.7332627,25.0658898 C37.1021186,24.7627119 36.3437288,25.0287712 36.0401695,25.6604237 L34.3773305,29.1230085 L32.5672881,25.6264831 C32.3398729,25.1872881 31.8915254,24.9380085 31.4288136,24.941822 C32.9038983,19.7897034 37.6566102,16.0077966 43.2762712,16.0077966 C50.07,16.0077966 55.5971186,21.5350424 55.5971186,28.3286441 C55.5971186,35.1222458 50.0698729,40.6493644 43.2762712,40.6493644 Z M2.53754237,5.38550847 C2.53754237,3.84635593 3.78966102,2.59423729 5.32881356,2.59423729 L54.5577966,2.59423729 C56.0969492,2.59423729 57.3490678,3.84635593 57.3490678,5.38550847 L57.3490678,9.19182203 L2.55139831,9.19182203 C2.54669492,9.19182203 2.54211864,9.19245763 2.53754237,9.19258475 L2.53754237,5.38550847 Z" id="Shape" fill-rule="nonzero"></path>
                        <path d="M23.1961017,25.0658898 C22.5649576,24.762839 21.8065678,25.0287712 21.5030085,25.6604237 L19.8401695,29.1228814 L18.0301271,25.6263559 C17.8090678,25.1989831 17.3672034,24.9322881 16.8844068,24.9409322 C16.4033898,24.948178 15.9678814,25.2266949 15.759661,25.6602966 L14.096822,29.1227542 L12.2867797,25.6262288 C11.964661,25.0037288 11.1985169,24.7605508 10.5766525,25.0826695 C9.95427966,25.4047881 9.71097458,26.1704237 10.0330932,26.7927966 L13.0123729,32.5480932 C13.2335593,32.9754661 13.6787288,33.2408898 14.1580932,33.2335169 C14.6391102,33.2262712 15.0746186,32.9477542 15.282839,32.5141525 L16.945678,29.0515678 L18.7557203,32.5480932 C18.9739831,32.9697458 19.4087288,33.2336441 19.8823729,33.2336441 C19.8887288,33.2336441 19.8952119,33.2336441 19.9014407,33.2335169 C20.3824576,33.2262712 20.8179661,32.9477542 21.0261864,32.5141525 L23.7903814,26.7588559 C24.0939407,26.1273305 23.8278814,25.3694492 23.1961017,25.0658898 Z" id="Path"></path>
                        <path d="M52.2708051,25.0658898 C51.6390254,24.762839 50.8812712,25.0287712 50.5777119,25.6604237 L48.9148729,29.1228814 L47.1048305,25.6262288 C46.8837712,25.1991102 46.4364407,24.9350847 45.9591102,24.9409322 C45.4780932,24.948178 45.0425847,25.2266949 44.8343644,25.6602966 L43.1715254,29.1228814 L41.3614831,25.6262288 C41.0393644,25.0041102 40.2739831,24.760678 39.6512288,25.0827966 C39.0289831,25.4049153 38.785678,26.1705508 39.1077966,26.7930508 L42.0872034,32.5483475 C42.3054661,32.9697458 42.7402119,33.2337712 43.2138559,33.2337712 C43.220339,33.2337712 43.2266949,33.2337712 43.2329237,33.2336441 C43.7139407,33.2263983 44.1494492,32.9478814 44.3576695,32.5142797 L46.0205085,29.051822 L47.8305508,32.5484746 C48.0488136,32.9698729 48.4835593,33.2338983 48.9572034,33.2338983 C48.9636864,33.2338983 48.9700424,33.2338983 48.9762712,33.2337712 C49.4572881,33.2265254 49.8927966,32.9480085 50.1010169,32.5144068 L52.8650847,26.7591102 C53.1685169,26.1273305 52.9023305,25.3694492 52.2708051,25.0658898 Z" id="Path"></path>
                        <path d="M9.01716102,48.3884746 C8.78135593,48.1512712 8.45389831,48.0167797 8.12021186,48.0167797 C7.78652542,48.0167797 7.45919492,48.1512712 7.22313559,48.3884746 C6.98707627,48.6245339 6.85144068,48.9518644 6.85144068,49.2855508 C6.85144068,49.6192373 6.98707627,49.9465678 7.22313559,50.1825 C7.45919492,50.4185593 7.78652542,50.554322 8.12021186,50.554322 C8.45389831,50.554322 8.78122881,50.4185593 9.01716102,50.1825 C9.25322034,49.9466949 9.38898305,49.6192373 9.38898305,49.2855508 C9.38898305,48.9518644 9.25322034,48.6245339 9.01716102,48.3884746 Z" id="Path"></path>
                        <path d="M37.1841102,48.0180508 L12.4763136,48.0180508 C11.7756356,48.0180508 11.2075424,48.5861441 11.2075424,49.286822 C11.2075424,49.9875 11.7757627,50.5555932 12.4763136,50.5555932 L37.1839831,50.5555932 C37.884661,50.5555932 38.4527542,49.9873729 38.4527542,49.286822 C38.4528814,48.5861441 37.8847881,48.0180508 37.1841102,48.0180508 Z" id="Path"></path>
                        <path d="M32.4809746,41.927161 L24.9950847,41.927161 C24.2944068,41.927161 23.7263136,42.4953814 23.7263136,43.1959322 C23.7263136,43.8966102 24.2945339,44.4647034 24.9950847,44.4647034 L32.4809746,44.4647034 C33.1816525,44.4647034 33.7497458,43.8964831 33.7497458,43.1959322 C33.7497458,42.4953814 33.1816525,41.927161 32.4809746,41.927161 Z" id="Path"></path>
                        <path d="M19.2971186,41.927161 L8.12021186,41.927161 C7.4195339,41.927161 6.85144068,42.4953814 6.85144068,43.1959322 C6.85144068,43.8966102 7.41966102,44.4647034 8.12021186,44.4647034 L19.2971186,44.4647034 C19.9977966,44.4647034 20.5658898,43.8964831 20.5658898,43.1959322 C20.5658898,42.4953814 19.9977966,41.927161 19.2971186,41.927161 Z" id="Path"></path>
                    </g>
                </g>
            </g>
        </g>
    </g>
</svg>