<svg width="179" height="26" viewBox="0 0 179 26" fill="none" xmlns="http://www.w3.org/2000/svg">
<path fill-rule="evenodd" clip-rule="evenodd" d="M34.27 25.1619C34.0036 25.2096 33.6075 25.2777 33.0862 25.3618C32.5649 25.4459 32.0368 25.4891 31.5018 25.4891C30.9669 25.4891 30.4888 25.4527 30.0632 25.38C29.6375 25.3073 29.2801 25.1618 28.9887 24.9437C28.6973 24.7256 28.4719 24.4279 28.3149 24.053C28.1578 23.678 28.0781 23.1872 28.0781 22.5805V1.49335C28.3445 1.44563 28.7406 1.37746 29.2619 1.29339C29.7832 1.20931 30.3113 1.16614 30.8462 1.16614C31.3812 1.16614 31.8592 1.20249 32.2849 1.27521C32.7106 1.34792 33.068 1.49335 33.3594 1.71149C33.6508 1.92964 33.8761 2.22731 34.0332 2.60224C34.1903 2.97718 34.27 3.468 34.27 4.07471V25.1619Z" fill="white"/>
<path fill-rule="evenodd" clip-rule="evenodd" d="M46.477 25.7798C45.0452 25.7798 43.7158 25.5798 42.4888 25.1799C41.2618 24.78 40.1941 24.1801 39.2836 23.3802C38.373 22.5804 37.6559 21.5737 37.1346 20.3626C36.6133 19.1514 36.3516 17.7335 36.3516 16.1088C36.3516 14.5091 36.6133 13.1343 37.1346 11.9823C37.6559 10.8302 38.3434 9.88491 39.1925 9.1464C40.0416 8.4079 41.0137 7.86254 42.1063 7.51033C43.199 7.15812 44.3167 6.98315 45.4572 6.98315C46.7434 6.98315 47.9157 7.1763 48.972 7.56487C50.0282 7.95344 50.9388 8.48516 51.7037 9.16458C52.4686 9.84401 53.0627 10.6552 53.4884 11.6005C53.9141 12.5458 54.1258 13.5752 54.1258 14.6909C54.1258 15.5157 53.8959 16.1452 53.4338 16.5814C52.9716 17.0177 52.3297 17.2972 51.5034 17.4177L42.507 18.7629C42.7733 19.5627 43.3197 20.1626 44.146 20.5625C44.9723 20.9625 45.9193 21.1624 46.987 21.1624C47.9817 21.1624 48.9242 21.0352 49.8097 20.7807C50.6952 20.5262 51.4191 20.2285 51.9768 19.8899C52.3661 20.1331 52.6939 20.4717 52.9603 20.9079C53.2266 21.3442 53.3609 21.8055 53.3609 22.2895C53.3609 23.3802 52.851 24.1914 51.8312 24.7254C51.0549 25.1367 50.1808 25.4162 49.2087 25.5617C48.2367 25.7071 47.3261 25.7798 46.477 25.7798ZM45.454 11.4914C44.8712 11.4914 44.3682 11.5891 43.9425 11.7823C43.5168 11.9754 43.1708 12.2254 42.9044 12.5276C42.6381 12.8298 42.4378 13.1707 42.3035 13.5456C42.1691 13.9205 42.0917 14.3023 42.0667 14.6909L48.295 13.6729C48.2221 13.1889 47.9558 12.7026 47.4937 12.2186C47.0316 11.7346 46.3532 11.4914 45.454 11.4914Z" fill="white"/>
<path fill-rule="evenodd" clip-rule="evenodd" d="M64.3322 21.2717C64.7442 21.2717 65.1995 21.2285 65.698 21.1445C66.1966 21.0604 66.5654 20.9445 66.8089 20.7991V17.8905L64.1865 18.1086C63.5059 18.1563 62.9481 18.3018 62.5111 18.5449C62.074 18.7881 61.8555 19.1516 61.8555 19.6356C61.8555 20.1196 62.0444 20.515 62.42 20.8172C62.7956 21.1195 63.433 21.2717 64.3322 21.2717ZM64.0415 6.98315C65.3527 6.98315 66.5478 7.11722 67.6291 7.38308C68.7104 7.64894 69.6323 8.05569 70.3972 8.60105C71.1621 9.1464 71.7517 9.83719 72.1637 10.6734C72.5757 11.5096 72.7829 12.4981 72.7829 13.6365V21.7805C72.7829 22.4099 72.6076 22.9258 72.2548 23.3257C71.9019 23.7256 71.4831 24.071 70.9982 24.3619C69.4206 25.3072 67.1989 25.7798 64.3329 25.7798C63.0467 25.7798 61.8857 25.6594 60.8545 25.4162C59.8233 25.1731 58.9355 24.8095 58.1956 24.3255C57.4558 23.8415 56.8844 23.2234 56.4838 22.4713C56.0831 21.7192 55.8828 20.8466 55.8828 19.8536C55.8828 18.1812 56.3813 16.8973 57.3761 15.9997C58.3709 15.1022 59.9143 14.5454 62.0018 14.3273L66.7732 13.8183V13.5638C66.7732 12.8617 66.4636 12.3572 65.8444 12.055C65.2252 11.7528 64.3329 11.6005 63.1673 11.6005C62.2454 11.6005 61.3462 11.6982 60.4721 11.8914C59.5979 12.0845 58.808 12.3277 58.1046 12.6185C57.7882 12.4004 57.5218 12.0663 57.3033 11.6187C57.0848 11.171 56.9755 10.7029 56.9755 10.2189C56.9755 9.58951 57.128 9.08505 57.4308 8.71012C57.7335 8.33519 58.2025 8.01252 58.833 7.74665C59.5365 7.48079 60.3696 7.28537 61.328 7.16494C62.2864 7.04451 63.1924 6.98315 64.0415 6.98315Z" fill="white"/>
<path fill-rule="evenodd" clip-rule="evenodd" d="M86.0307 14.0003C86.0307 13.2482 85.819 12.6983 85.3933 12.3461C84.9676 11.9939 84.3916 11.8189 83.6632 11.8189C83.1783 11.8189 82.698 11.8803 82.2245 12.0007C81.751 12.1211 81.3435 12.3029 81.0043 12.546V25.162C80.7608 25.2347 80.3783 25.3074 79.857 25.3801C79.3357 25.4528 78.7939 25.4892 78.2362 25.4892C77.7013 25.4892 77.2232 25.4528 76.7975 25.3801C76.3718 25.3074 76.0144 25.162 75.7231 24.9438C75.4317 24.7257 75.2063 24.428 75.0492 24.0531C74.8922 23.6781 74.8125 23.1873 74.8125 22.5806V11.6735C74.8125 11.019 74.9514 10.485 75.2314 10.0738C75.5114 9.66247 75.8938 9.28526 76.3787 8.94668C77.205 8.36497 78.2431 7.89233 79.4928 7.52876C80.7426 7.16518 82.1334 6.9834 83.6632 6.9834C86.4063 6.9834 88.5188 7.58329 90.0007 8.78308C91.4827 9.98286 92.2225 11.6485 92.2225 13.7822V25.162C91.9789 25.2347 91.5965 25.3074 91.0752 25.3801C90.5539 25.4528 90.0121 25.4892 89.4544 25.4892C88.9194 25.4892 88.4414 25.4528 88.0157 25.3801C87.59 25.3074 87.2326 25.162 86.9412 24.9438C86.6498 24.7257 86.4245 24.428 86.2674 24.0531C86.1103 23.6781 86.0307 23.1873 86.0307 22.5806V14.0003Z" fill="white"/>
<path fill-rule="evenodd" clip-rule="evenodd" d="M109.566 19.9263C109.566 21.7691 108.874 23.2098 107.49 24.2528C106.105 25.2958 104.066 25.8161 101.371 25.8161C100.351 25.8161 99.4037 25.7434 98.5296 25.598C97.6555 25.4526 96.9088 25.2276 96.2896 24.9254C95.6704 24.6232 95.1856 24.2414 94.8327 23.7801C94.4799 23.3189 94.3046 22.7735 94.3046 22.1441C94.3046 21.5624 94.4252 21.0715 94.6688 20.6716C94.9124 20.2717 95.2038 19.9376 95.5429 19.6718C96.2464 20.0603 97.0545 20.4057 97.9651 20.708C98.8756 21.0102 99.925 21.1624 101.116 21.1624C101.869 21.1624 102.445 21.0534 102.846 20.8352C103.246 20.6171 103.447 20.3262 103.447 19.9626C103.447 19.6241 103.301 19.3559 103.01 19.1628C102.718 18.9696 102.233 18.8106 101.553 18.6901L100.46 18.472C98.3475 18.0607 96.7745 17.4108 95.7433 16.5269C94.7121 15.643 94.1953 14.375 94.1953 12.7276C94.1953 11.83 94.3888 11.0188 94.7781 10.2916C95.1673 9.56449 95.7137 8.95778 96.4171 8.47378C97.1205 7.98977 97.9651 7.61257 98.9485 7.34671C99.9319 7.08084 101.018 6.94678 102.208 6.94678C103.107 6.94678 103.95 7.01267 104.74 7.14674C105.53 7.28081 106.215 7.48077 106.798 7.74663C107.38 8.0125 107.842 8.35789 108.182 8.78281C108.521 9.20774 108.692 9.70992 108.692 10.2916C108.692 10.8484 108.589 11.3278 108.382 11.7277C108.175 12.1277 107.915 12.4617 107.599 12.7276C107.405 12.6071 107.114 12.4799 106.725 12.3458C106.335 12.2117 105.912 12.0913 105.45 11.9822C104.988 11.8732 104.521 11.7823 104.048 11.7096C103.574 11.6368 103.144 11.6005 102.755 11.6005C101.953 11.6005 101.334 11.6914 100.897 11.8732C100.46 12.055 100.241 12.339 100.241 12.7276C100.241 12.9934 100.362 13.2116 100.606 13.382C100.849 13.5524 101.309 13.7092 101.99 13.8546L103.119 14.1091C105.45 14.6431 107.107 15.3748 108.091 16.3087C109.074 17.2427 109.566 18.447 109.566 19.9263Z" fill="white"/>
<path fill-rule="evenodd" clip-rule="evenodd" d="M117.689 19.1267C117.689 19.7561 117.89 20.206 118.29 20.4719C118.691 20.7378 119.255 20.8718 119.984 20.8718C120.348 20.8718 120.724 20.8423 121.113 20.7809C121.502 20.7196 121.841 20.6423 122.133 20.5446C122.351 20.8105 122.54 21.1082 122.697 21.4354C122.854 21.7626 122.934 22.1557 122.934 22.617C122.934 23.5373 122.588 24.2894 121.896 24.8711C121.204 25.4528 119.984 25.7437 118.236 25.7437C116.098 25.7437 114.455 25.2597 113.3 24.2894C112.146 23.3191 111.57 21.7444 111.57 19.563V4.00212C111.837 3.92941 112.219 3.84988 112.718 3.7658C113.216 3.68172 113.744 3.63855 114.302 3.63855C115.37 3.63855 116.203 3.82715 116.797 4.20209C117.391 4.57702 117.689 5.37233 117.689 6.58348V8.91034H122.461C122.606 9.1762 122.745 9.51023 122.88 9.91016C123.014 10.3101 123.08 10.7532 123.08 11.2372C123.08 12.0848 122.891 12.6983 122.515 13.0732C122.14 13.4482 121.634 13.6368 121.004 13.6368H117.689V19.1267Z" fill="white"/>
<path fill-rule="evenodd" clip-rule="evenodd" d="M133.634 21.2714C134.046 21.2714 134.501 21.2283 134.999 21.1442C135.498 21.0601 135.867 20.9442 136.11 20.7988V17.8902L133.488 18.1084C132.807 18.1561 132.25 18.3015 131.813 18.5447C131.375 18.7878 131.157 19.1514 131.157 19.6354C131.157 20.1194 131.346 20.5148 131.721 20.817C132.097 21.1192 132.734 21.2714 133.634 21.2714ZM133.342 6.9834C134.653 6.9834 135.849 7.11747 136.93 7.38333C138.011 7.64919 138.933 8.05593 139.698 8.60129C140.463 9.14665 141.052 9.83743 141.464 10.6736C141.877 11.5099 142.084 12.4983 142.084 13.6368V21.7808C142.084 22.4102 141.908 22.926 141.556 23.3259C141.203 23.7259 140.784 24.0713 140.299 24.3621C138.721 25.3074 136.5 25.78 133.634 25.78C132.347 25.78 131.186 25.6596 130.155 25.4165C129.124 25.1733 128.236 24.8098 127.496 24.3258C126.757 23.8418 126.185 23.2237 125.785 22.4715C125.384 21.7194 125.184 20.8468 125.184 19.8538C125.184 18.1814 125.682 16.8975 126.677 16C127.672 15.1024 129.215 14.5457 131.303 14.3275L136.074 13.8185V13.564C136.074 12.8619 135.764 12.3574 135.145 12.0552C134.526 11.753 133.634 11.6008 132.468 11.6008C131.546 11.6008 130.647 11.6985 129.773 11.8916C128.899 12.0848 128.109 12.3279 127.405 12.6188C127.089 12.4006 126.823 12.0666 126.604 11.6189C126.386 11.1713 126.276 10.7032 126.276 10.2192C126.276 9.58975 126.429 9.0853 126.732 8.71036C127.034 8.33543 127.503 8.01276 128.134 7.7469C128.837 7.48104 129.67 7.28562 130.629 7.16518C131.587 7.04475 132.493 6.9834 133.342 6.9834Z" fill="white"/>
<path fill-rule="evenodd" clip-rule="evenodd" d="M154.799 11.8553C154.192 11.8553 153.616 11.953 153.069 12.1461C152.523 12.3393 152.049 12.6256 151.649 13.0005C151.248 13.3754 150.927 13.8435 150.684 14.4003C150.44 14.957 150.319 15.6114 150.319 16.3635C150.319 17.8655 150.75 18.9926 151.612 19.7448C152.475 20.4969 153.525 20.8718 154.763 20.8718C155.491 20.8718 156.122 20.7878 156.657 20.6173C157.192 20.4469 157.665 20.2651 158.077 20.072C158.562 20.4105 158.926 20.7809 159.17 21.1809C159.414 21.5808 159.534 22.0603 159.534 22.617C159.534 23.61 159.061 24.3803 158.114 24.9256C157.167 25.471 155.856 25.7437 154.18 25.7437C152.65 25.7437 151.266 25.5187 150.028 25.0711C148.79 24.6234 147.727 23.9917 146.841 23.1805C145.955 22.3693 145.268 21.3922 144.783 20.2538C144.298 19.1153 144.055 17.8542 144.055 16.4726C144.055 14.8729 144.316 13.4731 144.838 12.2734C145.359 11.0736 146.069 10.0851 146.968 9.31026C147.868 8.53539 148.906 7.95368 150.083 7.56511C151.26 7.17655 152.505 6.9834 153.816 6.9834C155.564 6.9834 156.912 7.29925 157.859 7.92868C158.806 8.55812 159.279 9.37161 159.279 10.3646C159.279 10.8259 159.17 11.2554 158.952 11.6553C158.733 12.0552 158.478 12.4006 158.187 12.6915C157.775 12.4983 157.276 12.3097 156.693 12.1279C156.111 11.9461 155.48 11.8553 154.799 11.8553Z" fill="white"/>
<path fill-rule="evenodd" clip-rule="evenodd" d="M178.876 21.9988C178.756 23.1372 178.421 24.0098 177.875 24.6165C177.328 25.2232 176.534 25.5254 175.489 25.5254C174.713 25.5254 174.021 25.3368 173.413 24.9619C172.805 24.587 172.15 23.9507 171.446 23.0531L167.84 18.5449V25.1619C167.574 25.2096 167.178 25.2777 166.657 25.3618C166.135 25.4459 165.607 25.4891 165.072 25.4891C164.537 25.4891 164.059 25.4527 163.633 25.38C163.208 25.3073 162.85 25.1619 162.559 24.9437C162.268 24.7256 162.042 24.4279 161.885 24.053C161.728 23.678 161.648 23.1872 161.648 22.5805V1.52971C161.915 1.45699 162.311 1.37746 162.832 1.29339C163.353 1.20931 163.882 1.16614 164.417 1.16614C164.952 1.16614 165.43 1.20249 165.855 1.27521C166.281 1.34792 166.638 1.49335 166.93 1.71149C167.221 1.92964 167.446 2.22731 167.604 2.60224C167.761 2.97718 167.84 3.468 167.84 4.07471V13.673L174.105 7.27414C175.368 7.27414 176.381 7.55363 177.146 8.11035C177.911 8.66707 178.294 9.37149 178.294 10.2191C178.294 10.5826 178.232 10.9167 178.111 11.2189C177.991 11.5211 177.802 11.8301 177.547 12.146C177.292 12.4618 176.964 12.7936 176.563 13.1458C176.163 13.498 175.696 13.9025 175.161 14.3638L173.049 16.1816L178.876 21.9988Z" fill="white"/>
<path fill-rule="evenodd" clip-rule="evenodd" d="M23.6134 2.24671C23.5242 1.69377 23.4543 1.27363 23.4013 0.99112L3.08514 0.99112C2.4416 0.99112 1.92098 1.07563 1.52329 1.24224C1.12559 1.40885 0.809849 1.64789 0.578463 1.95696C0.347078 2.26603 0.192821 2.64512 0.115693 3.09665C0.0385642 3.54818 0 4.05525 0 4.62268C0 5.19011 0.045795 5.7503 0.134975 6.30324C0.224155 6.85619 0.296462 7.27633 0.347078 7.55884L20.6632 7.55884C21.3067 7.55884 21.8274 7.47433 22.225 7.30772C22.6251 7.14111 22.9385 6.90207 23.1699 6.593C23.4013 6.28393 23.5555 5.90484 23.6326 5.45331C23.7098 5.00177 23.7483 4.49471 23.7483 3.92728C23.7483 3.35985 23.7049 2.79966 23.6134 2.24671ZM3.45803 5.61988C3.79139 5.94781 4.20297 6.11178 4.69037 6.11178C5.17777 6.11178 5.58935 5.94781 5.92271 5.61988C6.25607 5.29195 6.42335 4.85792 6.42335 4.3178C6.42335 3.77768 6.25607 3.34366 5.92271 3.01573C5.58935 2.6878 5.17777 2.52383 4.69037 2.52383C4.20297 2.52383 3.79139 2.6878 3.45803 3.01573C3.12467 3.34366 2.95739 3.77768 2.95739 4.3178C2.95739 4.85792 3.12467 5.29195 3.45803 5.61988Z" fill="white"/>
<path fill-rule="evenodd" clip-rule="evenodd" d="M23.6134 11.5056C23.5242 10.9527 23.4543 10.5325 23.4013 10.25L3.08514 10.25C2.4416 10.25 1.92098 10.3345 1.52329 10.5012C1.12559 10.6678 0.809849 10.9068 0.578463 11.2159C0.347078 11.5249 0.192821 11.904 0.115693 12.3556C0.0385642 12.8071 0 13.3142 0 13.8816C0 14.449 0.045795 15.0092 0.134975 15.5622C0.224155 16.1151 0.296462 16.5352 0.347078 16.8177H20.6632C21.3067 16.8177 21.8274 16.7332 22.225 16.5666C22.6251 16.4 22.9385 16.161 23.1699 15.8519C23.4013 15.5428 23.5555 15.1637 23.6326 14.7122C23.7098 14.2607 23.7483 13.7536 23.7483 13.1862C23.7483 12.6188 23.7049 12.0586 23.6134 11.5056ZM3.45803 14.8792C3.79139 15.2071 4.20297 15.371 4.69037 15.371C5.17777 15.371 5.58935 15.2071 5.92271 14.8792C6.25607 14.5512 6.42335 14.1172 6.42335 13.5771C6.42335 13.037 6.25607 12.6029 5.92271 12.275C5.58935 11.9471 5.17777 11.7831 4.69037 11.7831C4.20297 11.7831 3.79139 11.9471 3.45803 12.275C3.12467 12.6029 2.95739 13.037 2.95739 13.5771C2.95739 14.1172 3.12467 14.5512 3.45803 14.8792Z" fill="white"/>
<path fill-rule="evenodd" clip-rule="evenodd" d="M23.6134 20.6791C23.5242 20.1261 23.4543 19.706 23.4013 19.4235H3.08514C2.4416 19.4235 1.92098 19.508 1.52329 19.6746C1.12559 19.8412 0.809849 20.0803 0.578463 20.3893C0.347078 20.6984 0.192821 21.0775 0.115693 21.529C0.0385642 21.9806 0 22.4876 0 23.0551C0 23.6225 0.045795 24.1827 0.134975 24.7356C0.224155 25.2886 0.296462 25.7087 0.347078 25.9912H20.6632C21.3067 25.9912 21.8274 25.9067 22.225 25.7401C22.6251 25.5735 22.9385 25.3344 23.1699 25.0254C23.4013 24.7163 23.5555 24.3372 23.6326 23.8857C23.7098 23.4341 23.7483 22.9271 23.7483 22.3596C23.7483 21.7922 23.7049 21.232 23.6134 20.6791ZM3.45803 24.0521C3.79139 24.38 4.20297 24.544 4.69037 24.544C5.17777 24.544 5.58935 24.38 5.92271 24.0521C6.25607 23.7242 6.42335 23.2902 6.42335 22.75C6.42335 22.2099 6.25607 21.7759 5.92271 21.448C5.58935 21.12 5.17777 20.9561 4.69037 20.9561C4.20297 20.9561 3.79139 21.12 3.45803 21.448C3.12467 21.7759 2.95739 22.2099 2.95739 22.75C2.95739 23.2902 3.12467 23.7242 3.45803 24.0521Z" fill="white"/>
</svg>
