<?xml version="1.0" encoding="UTF-8"?>
<svg width="40px" height="48px" viewBox="0 0 40 48" version="1.1" xmlns="http://www.w3.org/2000/svg" xmlns:xlink="http://www.w3.org/1999/xlink">
    <!-- Generator: Sketch 52.6 (67491) - http://www.bohemiancoding.com/sketch -->
    <title>shield</title>
    <desc>Created with Sketch.</desc>
    <g id="New-Designs" stroke="none" stroke-width="1" fill="none" fill-rule="evenodd">
        <g id="Domain-Search" transform="translate(-167.000000, -691.000000)" fill="#031B4E">
            <g id="Group-5" transform="translate(151.000000, 671.000000)">
                <g id="Group-2" transform="translate(16.000000, 20.000000)">
                    <g id="shield">
                        <path d="M39.0000609,8.35817969 C35.878931,8.35817969 33.5102398,6.56199844 31.0020484,4.66063125 C28.1206377,2.47606406 24.8548513,0 20.0000937,0 C15.1453362,0 11.8795498,2.47606406 8.99795156,4.66063125 C6.48994764,6.56199844 4.12116269,8.35817969 1.00003281,8.35817969 C0.4479382,8.35817969 0,8.79846719 0,9.34154375 C0,20.8230359 1.45415852,28.4681453 4.71506987,34.1302094 C7.95301242,39.7525406 12.7729887,43.2491203 19.5000305,47.0682641 C19.6547182,47.1561187 19.8273122,47.2 20,47.2 C20.1726878,47.2 20.3452818,47.1560266 20.4999695,47.0682641 C27.227105,43.2491203 32.0469876,39.7526328 35.2851176,34.1302094 C38.5458415,28.4681453 40,20.8230359 40,9.34154375 C40.0000937,8.79846719 39.5521555,8.35817969 39.0000609,8.35817969 Z M20.0000937,45.0796875 C7.9376374,38.1631359 2.16122213,32.2045969 2.00344063,10.2754953 C5.29819578,9.94905937 7.79626218,8.05506719 10.2193285,6.21804687 C12.9760515,4.12806406 15.826806,1.96663594 20.0000937,1.96663594 C24.1732878,1.96663594 27.0239485,4.12787969 29.780859,6.21804687 C32.2037378,8.05515937 34.7019917,9.94896719 37.9967469,10.2754953 C37.8389654,32.2045969 32.0625501,38.1631359 20.0000937,45.0796875 Z" id="Shape" fill-rule="nonzero"></path>
                        <path d="M7.88472687,11.5877334 C7.6274292,11.2330614 7.02307013,11.0969893 6.53461683,11.2837483 C6.41046555,11.3312374 6.28453398,11.3778422 6.15822762,11.4230861 C5.66302798,11.600116 5.45923248,12.0351386 5.70294379,12.3947772 C5.87684928,12.6513412 6.231594,12.8 6.60039358,12.8 C6.74853183,12.8 6.89919995,12.7760513 7.04115405,12.7252964 C7.18385775,12.6742694 7.32581186,12.6216775 7.46589199,12.5681331 C7.95443899,12.381238 8.14183715,11.9424054 7.88472687,11.5877334 Z" id="Path"></path>
                        <path d="M34.31591,19.1958366 C34.3400341,19.1985807 34.3641582,19.2 34.3879871,19.2 C34.7903498,19.2 35.1337671,18.8061785 35.1707278,18.2819662 C35.1799495,18.1530895 35.1886549,18.023645 35.1971389,17.8947683 C35.2338782,17.3392358 34.9125193,16.8508858 34.4793929,16.8037634 C34.0469305,16.7559788 33.6655197,17.1688195 33.6289278,17.724352 C33.6206651,17.8490653 33.6121811,17.9742518 33.6032545,18.0991543 C33.5640806,18.6544029 33.8830788,19.1454024 34.31591,19.1958366 Z" id="Path"></path>
                        <path d="M9.81457151,11.2 C10.0200007,11.2 10.2275204,11.1374112 10.4069147,11.0071769 C10.9940318,10.5815541 11.5659461,10.1444821 12.1188567,9.7215308 C14.7059159,7.74368706 16.9400777,6.03547122 19.7864414,6.03547122 C20.3461933,6.03547122 20.8,5.57979434 20.8,5.01773561 C20.8,4.4558677 20.3461933,4 19.7864414,4 C16.256137,4 13.6499792,5.99244143 10.8908421,8.10214142 C10.3479084,8.51736457 9.78654115,8.94651754 9.22032799,9.35697021 C8.76633127,9.68613379 8.66428177,10.3221351 8.99190436,10.7778119 C9.1900172,11.0535461 9.50006143,11.2 9.81457151,11.2 Z" id="Path"></path>
                        <path d="M20.0202421,40.233509 C17.4900924,38.6599446 14.4341335,36.5469311 12.1427435,33.8220122 C11.7896089,33.4018589 11.1656449,33.3503448 10.7492982,33.7063625 C10.3327661,34.0625672 10.2815106,34.6919556 10.6346453,35.1121088 C13.2671207,38.2430636 16.7593539,40.574194 19.5075017,42.2553678 C19.5125068,42.2582661 19.5178826,42.2604164 19.5228876,42.2633146 C19.5466153,42.2771515 19.5708991,42.2892119 19.5956463,42.3010854 C19.6114957,42.3086583 19.6272524,42.3170726 19.6432871,42.3237105 C19.6655318,42.3328727 19.6880546,42.3400716 19.7109481,42.3476445 C19.7300414,42.3540019 19.7488567,42.3612943 19.7681355,42.3664364 C19.7888045,42.3719524 19.8098443,42.3752246 19.8306987,42.3793383 C19.8517385,42.3836389 19.8727783,42.3888744 19.8940961,42.3915857 C19.9240338,42.3955124 19.9540641,42.3964473 19.9844652,42.3976627 C19.996051,42.3980367 20.0076368,42.4 20.0192226,42.4 C20.0195933,42.4 20.0199641,42.4 20.0202421,42.4 C20.0206129,42.4 20.0210763,42.4 20.0212617,42.4 C20.0328475,42.4 20.0444333,42.3980367 20.056019,42.3976627 C20.0863275,42.3964473 20.1166359,42.3956059 20.1465735,42.3915857 C20.1676133,42.3888744 20.1882823,42.3836389 20.2091368,42.3795252 C20.2303619,42.3754116 20.2516798,42.3721394 20.2725342,42.3664364 C20.2916275,42.3613878 20.3104428,42.3541889 20.3292582,42.3479249 C20.3519663,42.3403521 20.3748598,42.3331532 20.3972899,42.323804 C20.4133246,42.3172595 20.4288959,42.3088453 20.4447452,42.3011789 C20.4694925,42.2893054 20.4939617,42.277245 20.517504,42.2634081 C20.5227871,42.2605099 20.5278848,42.2583596 20.5328899,42.2554613 C23.2810377,40.574381 26.7731783,38.2433441 29.4057463,35.1120153 C32.4076692,31.540526 34.2998593,26.7074552 35.1902036,20.3364403 C35.2663917,19.7910078 34.8899001,19.2868052 34.3492611,19.2098613 C33.8079733,19.1331043 33.308487,19.5127755 33.2322062,20.0581145 C32.3955273,26.0445031 30.6507083,30.5468926 27.8976481,33.8222926 C25.6065362,36.5469311 22.5508553,38.6599446 20.0202421,40.233509 Z" id="Path"></path>
                        <path d="M26.4529089,12.14811 L16.0218963,22.5658046 L13.546763,20.0935284 C12.9345415,19.4822703 12.1184337,19.1456056 11.2486124,19.1456056 C10.3786037,19.1456056 9.56249585,19.4822703 8.94999317,20.0937156 C7.68327312,21.3595787 7.68327312,23.4188882 8.95036813,24.6843768 L13.73087,29.4581627 L13.7723035,29.4988882 C13.7783966,29.5047864 13.7845835,29.510591 13.7906767,29.5164892 L13.8326726,29.5555295 C13.8400781,29.562364 13.8474836,29.5691984 13.8551704,29.5757519 L13.8981974,29.6133879 C13.9047593,29.6192861 13.9115086,29.6249035 13.918258,29.6305208 L13.9618475,29.6665652 C13.966722,29.6708719 13.9718777,29.6747104 13.976846,29.6788297 L14.0211854,29.7143125 C14.0293409,29.7207724 14.0375901,29.7272323 14.0460267,29.7334114 L14.0914911,29.7675834 C14.0978654,29.7722645 14.1041461,29.7769456 14.1106142,29.7814394 L14.156266,29.8140199 C14.1631091,29.8188882 14.1699521,29.8235693 14.1767952,29.8281568 L14.2232907,29.8596138 C14.2306962,29.8644822 14.2381017,29.8694441 14.245601,29.8742188 L14.2926589,29.9042715 C14.2990333,29.9082036 14.3053139,29.9122294 14.311782,29.9159743 L14.3594961,29.9448098 C14.3658705,29.948742 14.3721511,29.9525805 14.3786193,29.9563253 L14.4266146,29.9837566 C14.4359887,29.9892803 14.4454565,29.9945231 14.4549243,29.9995787 L14.5037633,30.025512 C14.5088253,30.028227 14.513981,30.0310357 14.5191368,30.0334699 L14.5683507,30.0586542 C14.5769749,30.063148 14.5857865,30.0674547 14.5945044,30.0717613 L14.6442808,30.095354 C14.6513114,30.0986308 14.6583419,30.1017203 14.6653725,30.1051843 L14.6907763,30.1165126 C14.708587,30.1251258 14.726679,30.1330837 14.7452397,30.1406671 L14.7960473,30.1613575 C14.8007343,30.1633236 14.8052339,30.1650088 14.8099209,30.1668812 L14.8609159,30.1867291 C14.8685089,30.1898186 14.8762894,30.1928145 14.8840699,30.1957168 L14.9359086,30.2145348 C14.944064,30.2174371 14.9525007,30.220433 14.9609374,30.223148 L14.9859662,30.231574 C15.0029333,30.2378467 15.0201816,30.243464 15.0378049,30.2487068 L15.0898311,30.264529 C15.0972366,30.2665886 15.1046421,30.2690228 15.1121414,30.2708953 L15.1646363,30.2855939 C15.1718543,30.28756 15.1791661,30.289526 15.1865716,30.2914921 L15.2394415,30.3049737 C15.246472,30.3067525 15.2537838,30.3084377 15.2609081,30.3103101 L15.3137779,30.3223874 C15.3211835,30.3241662 15.3287765,30.3258514 15.3364632,30.3274429 L15.3893331,30.3383031 C15.3995508,30.3404564 15.4096748,30.3422352 15.4197988,30.3442013 L15.4459525,30.3486951 C15.4615135,30.3517847 15.4773557,30.3547806 15.4934791,30.3571211 L15.5468177,30.3652662 C15.5547857,30.3666706 15.5628474,30.3676068 15.5708153,30.3687303 L15.6245288,30.3755647 C15.6321219,30.3765945 15.6399023,30.3775307 15.6474954,30.3782797 L15.6728991,30.3809947 C15.6896787,30.383148 15.7064583,30.3851141 15.7235192,30.3865184 L15.7776076,30.3910123 C15.7878254,30.3918549 15.7979494,30.3926039 15.8080734,30.3929783 L15.8334772,30.3943827 C15.8500693,30.395787 15.8668489,30.3967232 15.8836285,30.3970977 L15.937717,30.3988765 C15.9432477,30.3990638 15.9484035,30.3990638 15.9539342,30.399251 L16.0076477,30.4 C16.0125222,30.4 16.0172092,30.4 16.0221775,30.4 C16.027052,30.4 16.0317391,30.4 16.0367073,30.4 L16.0907958,30.399251 C16.0963265,30.3990638 16.1014823,30.3990638 16.107013,30.3988765 L16.1612889,30.3970977 C16.1780685,30.3967232 16.1948481,30.3956934 16.2114403,30.3943827 L16.236844,30.3929783 C16.2472493,30.3924166 16.2575608,30.3917613 16.267966,30.3909187 L16.3216795,30.3864248 C16.3384591,30.3850205 16.3550513,30.3833353 16.3716434,30.3810884 L16.3970472,30.3783733 C16.4044527,30.3776243 16.4118582,30.3767817 16.41917,30.3758455 L16.4732585,30.3688239 C16.4816951,30.367794 16.4900381,30.3666706 16.4982873,30.3653599 L16.5516258,30.3572147 C16.5680305,30.354687 16.5844351,30.351691 16.6004648,30.3484143 L16.626056,30.3439204 C16.6360863,30.3423288 16.6459291,30.3404564 16.6557719,30.3382095 L16.7084542,30.3273493 C16.7152973,30.325945 16.7221404,30.3246343 16.7289835,30.3230427 L16.782322,30.3107782 C16.7907587,30.3088122 16.7991016,30.3068461 16.8075383,30.3046928 L16.8600332,30.2912112 C16.8670637,30.2894324 16.8739068,30.28756 16.8807499,30.2855003 L16.9330573,30.2708953 C16.9402753,30.2689292 16.9476809,30.2667759 16.9547114,30.2646226 L17.0068313,30.2488005 C17.023236,30.2437449 17.0396406,30.2384084 17.0556703,30.2326039 L17.0814491,30.2241779 C17.0906357,30.2210884 17.0998223,30.2179052 17.1089151,30.2146284 L17.1607538,30.1958104 C17.1685343,30.1929081 17.1763148,30.1899122 17.1839078,30.1868227 L17.2349028,30.1669748 C17.240621,30.1648215 17.2462455,30.162481 17.2518699,30.1601404 L17.3023025,30.13945 C17.3185197,30.1328964 17.3344556,30.1255939 17.3502041,30.1181978 L17.3761703,30.1066823 C17.384607,30.103031 17.3929499,30.0990989 17.4013866,30.0951668 L17.4509755,30.071574 C17.4575373,30.0684845 17.4642867,30.0651141 17.4708485,30.0617437 L17.5200625,30.0369339 C17.5359047,30.028976 17.5516531,30.02055 17.5669329,30.0117496 L17.5925242,29.9980807 C17.5997422,29.9941486 17.607054,29.9901229 17.6139908,29.9860035 L17.6623611,29.9585723 C17.6701416,29.9540784 17.6777346,29.9495846 17.6853276,29.9449035 L17.7330417,29.9160679 C17.7404472,29.911574 17.7478527,29.9068929 17.755352,29.9022118 L17.8022224,29.8721592 C17.8075657,29.8688824 17.8127214,29.8653248 17.8177834,29.8617671 L17.8646538,29.8304974 C17.8726218,29.8249737 17.8806835,29.8196372 17.888464,29.8139263 L17.9341158,29.7813458 C17.9418963,29.7758221 17.9496768,29.7702984 17.9572698,29.7644002 L18.0023591,29.7302282 C18.0078898,29.7259216 18.0132331,29.7218022 18.0187638,29.7175892 L18.0631032,29.682481 C18.0748208,29.673306 18.0862572,29.663663 18.0976936,29.6540199 L18.1229099,29.6331422 C18.1317215,29.6259333 18.1405331,29.6185372 18.1488761,29.6110474 L18.1917156,29.5732241 C18.1974338,29.5683558 18.2027771,29.5633938 18.2083078,29.5584318 L18.2504911,29.5193915 C18.2567718,29.5136805 18.2627712,29.507876 18.2688644,29.5019778 L18.3102978,29.4618139 C18.3194844,29.4530135 18.328296,29.4440257 18.3369202,29.435038 L31.0500537,16.7382095 C32.3169612,15.4723464 32.3165862,13.4130369 31.0493037,12.1479228 C30.4372698,11.5366647 29.621162,11.2 28.7513406,11.2 C27.8813319,11.2000936 27.0651303,11.5367583 26.4529089,12.14811 Z M29.6354106,15.3262025 L16.9059662,28.039134 C16.9039039,28.0414745 16.9014666,28.0436279 16.8994043,28.0456875 L16.8064134,28.1283558 C16.8053823,28.1291984 16.8043511,28.130041 16.8031325,28.1310708 L16.6842691,28.2151434 L16.5153481,28.3026799 C16.5149731,28.3028672 16.5143169,28.3030544 16.513942,28.3032417 L16.4020154,28.3441545 C16.4007968,28.344529 16.3996719,28.3449971 16.398547,28.3453716 L16.2258764,28.3857226 C16.2239078,28.3860971 16.2217518,28.3864716 16.2195957,28.3869397 L16.1330729,28.3972382 C16.1310106,28.3976126 16.1287609,28.3977999 16.1267923,28.3980807 L16.0777658,28.400983 C16.0757035,28.400983 16.0736412,28.4011703 16.0714852,28.4013575 L16.0218963,28.4023874 L15.9904931,28.4018256 L15.9726823,28.4014511 C15.97062,28.4012639 15.9683703,28.4010767 15.966308,28.4010767 L15.9163441,28.3981744 C15.914563,28.3979871 15.9126882,28.3977999 15.9106259,28.3973318 L15.8245718,28.3870334 C15.8220408,28.3866589 15.8196973,28.3860035 15.8171663,28.385629 L15.6450581,28.3454652 C15.6448706,28.3454652 15.6444956,28.3452779 15.6442144,28.3452779 L15.5460678,28.3097952 L15.3582111,28.2142071 L15.185353,28.0842598 L10.3642613,23.2719017 C9.87699639,22.7850673 9.87699639,21.9925571 10.3642613,21.5057226 C10.5986134,21.2716676 10.9126452,21.1427501 11.2486124,21.1427501 C11.5842984,21.1427501 11.8983302,21.2716676 12.1327761,21.5055354 L15.3149028,24.6840023 C15.5023845,24.8714336 15.7567034,24.9765711 16.0218025,24.9765711 C16.2869017,24.9765711 16.5412206,24.8714336 16.7289835,24.6841896 L27.8672707,13.5603043 C28.1016229,13.3262493 28.4156547,13.1973318 28.7511532,13.1973318 C29.0868391,13.1973318 29.4006835,13.3262493 29.6353168,13.5604915 C30.122488,14.0472323 30.1226755,14.8393681 29.6354106,15.3262025 Z" id="Shape" fill-rule="nonzero"></path>
                    </g>
                </g>
            </g>
        </g>
    </g>
</svg>