<svg width="50" height="50" viewBox="0 0 50 50" fill="none" xmlns="http://www.w3.org/2000/svg">
<path d="M45.8333 25.5434V22.9166C45.8333 21.6661 45.2683 20.5559 44.3933 19.7916C45.2683 19.0273 45.8333 17.9171 45.8333 16.6666V8.3332C45.8333 6.03525 43.9636 4.1665 41.6666 4.1665H4.1666C1.86973 4.1666 0 6.03525 0 8.3332V16.6665C0 17.917 0.565039 19.0272 1.44004 19.7915C0.565039 20.5558 0 21.6661 0 22.9166V31.2499C0 33.5479 1.86973 35.4166 4.1667 35.4166H27.1361C27.6649 41.2478 32.5762 45.8333 38.5417 45.8333C44.8588 45.8332 50 40.6931 50 34.3749C50 30.8247 48.3764 27.6467 45.8333 25.5434ZM2.0833 8.3332C2.0833 7.18477 3.01719 6.2499 4.1667 6.2499H41.6667C42.8162 6.2499 43.75 7.18477 43.75 8.3332V16.6665C43.75 17.8149 42.8161 18.7498 41.6667 18.7498H4.1667C3.01719 18.7498 2.0834 17.8149 2.0834 16.6665V8.3332H2.0833ZM4.1667 33.3332C3.01719 33.3332 2.0834 32.3983 2.0834 31.2499V22.9166C2.0834 21.7682 3.01729 20.8333 4.1667 20.8333H41.6667C42.8162 20.8333 43.75 21.7682 43.75 22.9166V24.1816C42.1853 23.3786 40.4179 22.9166 38.5417 22.9166C32.5762 22.9166 27.6649 27.5022 27.1361 33.3333H4.1667V33.3332ZM38.5417 43.7499C33.372 43.7499 29.1667 39.5445 29.1667 34.3749C29.1667 29.2053 33.3721 24.9999 38.5417 24.9999C43.7113 24.9999 47.9167 29.2053 47.9167 34.3749C47.9167 39.5445 43.7113 43.7499 38.5417 43.7499Z" fill="#8F8F8F"/>
<path d="M38.5417 27.083C37.9659 27.083 37.5 27.5489 37.5 28.1247V36.458C37.5 37.0338 37.9659 37.4997 38.5417 37.4997C39.1175 37.4997 39.5834 37.0338 39.5834 36.458V28.1247C39.5833 27.5489 39.1175 27.083 38.5417 27.083Z" fill="#8F8F8F"/>
<path d="M38.5417 41.6664C39.117 41.6664 39.5834 41.2 39.5834 40.6247C39.5834 40.0494 39.117 39.583 38.5417 39.583C37.9664 39.583 37.5 40.0494 37.5 40.6247C37.5 41.2 37.9664 41.6664 38.5417 41.6664Z" fill="#8F8F8F"/>
<path d="M7.2917 16.6664C7.86748 16.6664 8.3334 16.2005 8.3334 15.6247V9.37471C8.3334 8.79893 7.86748 8.33301 7.2917 8.33301C6.71592 8.33301 6.25 8.79893 6.25 9.37471V15.6247C6.25 16.2005 6.71592 16.6664 7.2917 16.6664Z" fill="#8F8F8F"/>
<path d="M11.4597 16.6664C12.0354 16.6664 12.5014 16.2005 12.5014 15.6247V9.37471C12.5014 8.79893 12.0354 8.33301 11.4597 8.33301C10.8839 8.33301 10.418 8.79893 10.418 9.37471V15.6247C10.4181 16.2005 10.884 16.6664 11.4597 16.6664Z" fill="#8F8F8F"/>
<path d="M15.6237 16.6664C16.1995 16.6664 16.6654 16.2005 16.6654 15.6247V9.37471C16.6654 8.79893 16.1995 8.33301 15.6237 8.33301C15.048 8.33301 14.582 8.79893 14.582 9.37471V15.6247C14.582 16.2005 15.048 16.6664 15.6237 16.6664Z" fill="#8F8F8F"/>
<path d="M37.5013 14.5831C38.6518 14.5831 39.5846 13.6504 39.5846 12.4998C39.5846 11.3492 38.6518 10.4165 37.5013 10.4165C36.3507 10.4165 35.418 11.3492 35.418 12.4998C35.418 13.6504 36.3507 14.5831 37.5013 14.5831Z" fill="#8F8F8F"/>
<path d="M31.2513 14.5831C32.4018 14.5831 33.3346 13.6504 33.3346 12.4998C33.3346 11.3492 32.4018 10.4165 31.2513 10.4165C30.1007 10.4165 29.168 11.3492 29.168 12.4998C29.168 13.6504 30.1007 14.5831 31.2513 14.5831Z" fill="#8F8F8F"/>
<path d="M7.2917 22.9165C6.71592 22.9165 6.25 23.3824 6.25 23.9582V30.2082C6.25 30.7839 6.71592 31.2498 7.2917 31.2498C7.86748 31.2498 8.3334 30.7839 8.3334 30.2081V23.9581C8.3333 23.3824 7.86748 22.9165 7.2917 22.9165Z" fill="#8F8F8F"/>
<path d="M11.4597 22.9165C10.8839 22.9165 10.418 23.3824 10.418 23.9582V30.2082C10.418 30.784 10.8839 31.2499 11.4597 31.2499C12.0354 31.2499 12.5014 30.784 12.5014 30.2082V23.9582C12.5014 23.3824 12.0354 22.9165 11.4597 22.9165Z" fill="#8F8F8F"/>
<path d="M15.6237 22.9165C15.048 22.9165 14.582 23.3824 14.582 23.9582V30.2082C14.582 30.784 15.048 31.2499 15.6237 31.2499C16.1995 31.2499 16.6654 30.784 16.6654 30.2082V23.9582C16.6654 23.3824 16.1995 22.9165 15.6237 22.9165Z" fill="#8F8F8F"/>
</svg>
