<svg width="528" height="362" viewBox="0 0 528 362" fill="none" xmlns="http://www.w3.org/2000/svg">
<g clip-path="url(#clip0)">
<path opacity="0.18" d="M470.496 72.8994C475.523 101.524 446.784 129.752 455.663 157.399C460.773 173.369 476.104 183.328 489.321 193.6C510.325 209.889 529.706 233.557 526.806 259.978C523.669 288.474 496.533 308.622 469.563 318.338C368.397 354.75 21.9706 418.712 1.43964 257.256C-2.4698 226.396 15.2568 195.817 35.149 171.9C50.972 152.883 139.107 67.4121 171.321 51.455C314.821 -19.6495 455.714 -11.3579 470.496 72.8994Z" fill="#0E4CD2"/>
<path opacity="0.05" d="M294.736 31.5756C294.736 31.5756 484.459 29.9212 452.634 107.529C427.983 167.576 456.154 171.977 464.963 201.017C473.772 230.056 463.519 263.14 442.299 278.816C421.078 294.492 336.15 291.719 336.15 314.927C336.15 338.134 312.514 329.664 312.514 329.664H163.738L190.913 247.719L294.736 31.5756Z" fill="#000405"/>
<path d="M323.444 320.587H163.738V329.69H323.444V320.587Z" fill="white" fill-opacity="0.22"/>
<path d="M299.05 247.738H190.914V320.587H299.05V247.738Z" fill="#031B4E"/>
<path d="M299.05 247.738H190.914V320.587H299.05V247.738Z" fill="#031B4E"/>
<path d="M299.05 247.738H190.914V320.587H299.05V247.738Z" fill="#0E3D8F"/>
<path d="M442.3 41.6368V232.42C442.3 237.888 441.222 243.303 439.129 248.355C437.036 253.406 433.967 257.996 430.099 261.862C426.232 265.727 421.64 268.793 416.587 270.883C411.534 272.973 406.119 274.047 400.65 274.044H83.7686C72.7292 274.044 62.1419 269.659 54.3359 261.853C46.5299 254.047 42.1445 243.459 42.1445 232.42V41.6368C42.1437 36.1699 43.2197 30.7562 45.311 25.7051C47.4024 20.6539 50.4681 16.0642 54.3333 12.1978C58.1984 8.33148 62.7873 5.2643 67.8378 3.1714C72.8883 1.0785 78.3016 0.00087019 83.7686 3.13741e-05H400.612C406.082 -0.00668334 411.5 1.06448 416.555 3.15232C421.611 5.24017 426.206 8.30376 430.078 12.1681C433.949 16.0324 437.021 20.6216 439.118 25.6736C441.215 30.7256 442.297 36.1413 442.3 41.6113V41.6368Z" fill="#031B4E"/>
<path d="M442.302 41.6368V222.416H42.1914V41.6368C42.1906 36.1698 43.2665 30.7562 45.3579 25.7051C47.4492 20.6539 50.515 16.0641 54.3802 12.1978C58.2453 8.33148 62.8341 5.2643 67.8847 3.1714C72.9352 1.0785 78.3484 0.00087019 83.8154 3.13741e-05H400.614C406.084 -0.00668334 411.502 1.06448 416.558 3.15232C421.613 5.24016 426.208 8.30376 430.08 12.1681C433.951 16.0324 437.023 20.6216 439.12 25.6736C441.218 30.7256 442.299 36.1413 442.302 41.6113V41.6368Z" fill="#0E3D8F"/>
<path d="M373.189 37.7209H90.4961V93.4688H373.189V37.7209Z" fill="url(#paint0_linear)"/>
<path d="M218.907 100.585H90.4961V212.866H218.907V100.585Z" fill="url(#paint1_linear)"/>
<path d="M370.911 100.585H227.98V138.082H370.911V100.585Z" fill="url(#paint2_linear)"/>
<path d="M370.911 145.199H227.98V182.696H370.911V145.199Z" fill="url(#paint3_linear)"/>
<path d="M370.911 189.812H227.98V212.866H370.911V189.812Z" fill="url(#paint4_linear)"/>
<path d="M309.419 347.103H315.52L296.72 110.601L291.565 111.988L292.734 127.44L274.209 128.609L272.784 110.601L267.629 111.988L285.464 347.103H291.565L289.437 320.274L307.324 319.175L307.055 314.927L289.099 316.032L287.572 296.868L305.931 295.706L305.669 291.47L287.24 292.608L285.72 273.405L303.721 272.262L309.419 347.103ZM274.547 132.825L293.072 131.643L294.529 150.846L276.087 152.034L274.547 132.825ZM276.406 156.244L294.835 155.062L296.292 174.347L277.952 175.497L276.406 156.244ZM278.278 179.707L296.611 178.531L298.17 199.03L279.868 200.142L278.278 179.707ZM280.232 204.364L298.489 203.272L299.843 221.158L281.657 222.302L280.232 204.364ZM281.989 226.543L300.163 225.387L301.619 244.615L283.516 245.758L281.989 226.543ZM285.381 269.196L283.848 249.968L301.945 248.812L303.402 268.052L285.381 269.196Z" fill="#031B4E"/>
<path d="M154.076 125.62V110.601H150.313V125.62H132.012V130.27H150.313V338.192H154.076V154.48L176.383 130.27H193.464V125.594L154.076 125.62ZM154.076 147.907V130.27H171.042L154.076 147.907Z" fill="#031B4E"/>
<path d="M339.916 125.62V110.601H336.153V125.62H300.004V130.27H315.699L336.141 152.436V338.192H339.916V130.27H361.469V125.594L339.916 125.62ZM336.153 145.978L321.033 130.27H336.141L336.153 145.978Z" fill="#031B4E"/>
<g opacity="0.72">
<path d="M309.419 347.103H315.52L296.72 110.601L291.565 111.988L292.734 127.44L274.209 128.609L272.784 110.601L267.629 111.988L285.464 347.103H291.565L289.437 320.274L307.324 319.175L307.055 314.927L289.099 316.032L287.572 296.868L305.931 295.706L305.669 291.47L287.24 292.608L285.72 273.405L303.721 272.262L309.419 347.103ZM274.547 132.825L293.072 131.643L294.529 150.846L276.087 152.034L274.547 132.825ZM276.406 156.244L294.835 155.062L296.292 174.347L277.952 175.497L276.406 156.244ZM278.278 179.707L296.611 178.531L298.17 199.03L279.868 200.142L278.278 179.707ZM280.232 204.364L298.489 203.272L299.843 221.158L281.657 222.302L280.232 204.364ZM281.989 226.543L300.163 225.387L301.619 244.615L283.516 245.758L281.989 226.543ZM285.381 269.196L283.848 249.968L301.945 248.812L303.402 268.052L285.381 269.196Z" fill="white"/>
<path d="M154.076 125.62V110.601H150.313V125.62H132.012V130.27H150.313V338.192H154.076V154.48L176.383 130.27H193.464V125.594L154.076 125.62ZM154.076 147.907V130.27H171.042L154.076 147.907Z" fill="white"/>
<path d="M339.916 125.62V110.601H336.153V125.62H300.004V130.27H315.699L336.141 152.436V338.192H339.916V130.27H361.469V125.594L339.916 125.62ZM336.153 145.978L321.033 130.27H336.141L336.153 145.978Z" fill="white"/>
</g>
<path d="M300.564 173.478L300.129 177.375H291.129C291.129 177.375 290.394 175.126 292.036 174.564C292.936 174.246 293.864 174.013 294.808 173.868L300.564 173.478Z" fill="#031B4E"/>
<path d="M288.013 92.7725C287.599 96.2599 287.815 99.7934 288.652 103.204C289.154 103.851 289.819 104.352 290.58 104.657C291.34 104.961 292.167 105.057 292.977 104.935V107.529H297.282L299.122 94.542C299.122 94.542 292.344 85.8927 288.013 92.7725Z" fill="url(#paint5_linear)"/>
<path d="M291.046 94.0694C291.724 95.4262 292.157 96.8926 292.323 98.4004C292.323 98.4004 293.186 96.6693 293.601 97.5316C294.016 98.394 292.739 100.132 292.739 100.132L294.016 102.291H298.392C298.392 102.291 300.558 92.8173 299.344 91.5142C298.13 90.211 297.312 90.2366 297.312 90.2366C297.312 90.2366 297.313 88.959 294.713 88.959C292.113 88.959 288.657 88.959 287.36 91.1245C286.063 93.29 285.629 92.4021 285.629 92.4021C285.629 92.4021 286.364 94.0055 287.488 93.6158C287.756 93.5519 290.612 92.7726 291.046 94.0694Z" fill="#181818"/>
<path d="M292.993 107.529H300.269C300.269 107.529 303.341 108.168 303.769 115.533C304.031 120.566 304.031 125.608 303.769 130.641V142.714L300.269 141.545L287.282 144.445L286.004 126.744C284.657 126.579 283.362 126.124 282.208 125.409C281.054 124.694 280.07 123.737 279.323 122.605C278.377 121.187 277.782 119.565 277.587 117.872C277.391 116.18 277.601 114.465 278.198 112.869L287.237 117.628L287.716 115.073C288.212 112.304 289.762 109.836 292.041 108.187L292.993 107.529Z" fill="#3DDC97"/>
<path d="M279.405 110.474L277.246 103.549L285.857 102.246L288.757 111.681L287.237 117.628L282.075 114.939L279.405 110.474Z" fill="#FCFDFF"/>
<path d="M277.668 114.345C277.815 112.896 278.421 111.533 279.399 110.454L279.834 110.882H282.587L283.021 112.575L282.025 114C281.425 114.505 280.683 114.809 279.902 114.871C279.12 114.933 278.339 114.749 277.668 114.345Z" fill="url(#paint6_linear)"/>
<path d="M282.07 114.939L284.121 120.381L287.232 117.628L282.07 114.939Z" fill="url(#paint7_linear)"/>
<path opacity="0.61" d="M285.855 126.437C285.855 126.437 292.812 123.837 292.812 119.513L294.55 139.386L287.184 141.13L285.855 126.437Z" fill="url(#paint8_linear)"/>
<path d="M287.152 141.11L285.855 162.663L287.587 173.913H292.78L293.642 155.349L296.67 147.556L294.511 173.913L300.567 174.347L303.55 139.379L300.133 138.083L287.152 141.11Z" fill="#031B4E"/>
<path d="M292.519 173.913V178.225L283.391 174.967C283.391 174.967 283.391 172.584 285.16 172.584C286.118 172.578 287.074 172.666 288.016 172.846L292.519 173.913Z" fill="#031B4E"/>
<path d="M173.355 344.855L173.803 348.739H182.81C182.81 348.739 183.544 346.49 181.896 345.928C180.999 345.609 180.072 345.378 179.13 345.238L173.355 344.855Z" fill="#031B4E"/>
<path d="M179.607 263.319C181.172 266.437 182.169 269.809 182.551 273.278C182.034 275.743 179 276.305 179 276.305L179.824 278.771L175.499 280.285L169.609 268.602C169.609 268.602 173.289 258.17 179.607 263.319Z" fill="url(#paint9_linear)"/>
<path d="M177.147 265.529C176.898 266.96 176.898 268.423 177.147 269.854C177.147 269.854 175.761 268.512 175.633 269.464C175.505 270.416 177.274 271.629 177.274 271.629L176.757 274.095L172.822 275.437C172.822 275.437 167.712 267.132 168.491 265.529C169.27 263.926 169.66 263.753 169.66 263.753C169.66 263.753 169.226 262.539 171.691 261.677C174.157 260.815 177.441 259.761 179.357 261.377C181.273 262.993 181.388 262.016 181.388 262.016C181.388 262.016 181.388 263.747 180.002 263.791C180.136 263.97 177.147 264.143 177.147 265.529Z" fill="#4C4A4A"/>
<path d="M181.172 278.816H173.903C173.903 278.816 170.83 279.455 170.396 286.82C170.134 291.85 170.134 296.891 170.396 301.921V313.994L173.903 312.825L186.883 315.726L188.161 298.031C189.504 297.81 190.783 297.301 191.911 296.539C193.039 295.777 193.989 294.78 194.696 293.617C195.638 292.197 196.231 290.574 196.427 288.881C196.622 287.188 196.414 285.473 195.82 283.875L186.774 288.634L186.295 286.079C185.798 283.312 184.248 280.846 181.971 279.199L181.172 278.816Z" fill="#FFA200"/>
<path d="M194.543 281.799L196.703 274.919L188.047 273.623L185.191 283.058L186.75 288.724L191.943 286.13L194.543 281.799Z" fill="#FCFDFF"/>
<path d="M196.27 285.74C196.129 284.289 195.522 282.922 194.539 281.844L194.111 282.278H191.384L190.949 283.965L191.946 285.389C192.542 285.888 193.278 286.189 194.052 286.252C194.827 286.315 195.602 286.136 196.27 285.74V285.74Z" fill="url(#paint10_linear)"/>
<path opacity="0.61" d="M188.053 297.941C188.053 297.941 181.129 295.348 181.129 291.017L181.691 314.473L186.757 315.598L188.053 297.941Z" fill="url(#paint11_linear)"/>
<path d="M186.749 312.481L188.046 334.034L186.36 345.283H181.166L180.304 326.719L177.27 318.926L179.435 345.283L173.379 345.717L170.352 310.749L173.807 309.453L186.749 312.481Z" fill="#2176FF"/>
<path d="M181.43 345.283V348.317L190.903 347.883C190.903 347.883 190.475 344.855 188.744 344.855C187.809 344.883 186.883 344.662 186.061 344.216L181.43 345.283Z" fill="#031B4E"/>
<path d="M334.492 93.2198H312.377C309.359 93.2181 306.465 92.018 304.332 89.8834C302.198 87.7488 301 84.8544 301 81.8364V76.9879C301 73.9706 302.199 71.0768 304.332 68.9432C306.466 66.8096 309.36 65.611 312.377 65.611H334.492C335.986 65.6101 337.466 65.9036 338.846 66.4745C340.227 67.0455 341.482 67.8828 342.539 68.9387C343.596 69.9945 344.435 71.2483 345.007 72.6283C345.58 74.0083 345.875 75.4875 345.876 76.9816V76.9816V81.83C345.876 83.3249 345.581 84.8052 345.009 86.1863C344.437 87.5673 343.598 88.8222 342.541 89.8793C341.484 90.9363 340.229 91.7748 338.848 92.3469C337.467 92.919 335.987 93.2134 334.492 93.2134V93.2198Z" fill="white"/>
<path d="M303.551 99.218C303.551 99.218 312.596 99.6524 314.762 93.1622H321.469C321.469 93.1622 316.972 101.384 303.551 99.218Z" fill="white"/>
<path d="M308.658 69.8782H339.039C339.246 69.8782 339.444 69.9603 339.591 70.1064C339.737 70.2526 339.819 70.4508 339.819 70.6575V71.2963C339.819 71.503 339.737 71.7012 339.591 71.8474C339.444 71.9935 339.246 72.0756 339.039 72.0756H308.658C308.556 72.0756 308.455 72.0555 308.36 72.0163C308.265 71.9772 308.18 71.9197 308.107 71.8474C308.035 71.775 307.977 71.6891 307.938 71.5945C307.899 71.5 307.879 71.3986 307.879 71.2963V70.6575C307.879 70.5552 307.899 70.4538 307.938 70.3593C307.977 70.2647 308.035 70.1788 308.107 70.1064C308.18 70.0341 308.265 69.9767 308.36 69.9375C308.455 69.8983 308.556 69.8782 308.658 69.8782V69.8782Z" fill="#FFA200" fill-opacity="0.5"/>
<path d="M308.658 75.0717H339.039C339.246 75.0717 339.444 75.1538 339.591 75.2999C339.737 75.4461 339.819 75.6443 339.819 75.851V76.4898C339.819 76.6965 339.737 76.8947 339.591 77.0409C339.444 77.187 339.246 77.2691 339.039 77.2691H308.658C308.556 77.2691 308.455 77.249 308.36 77.2098C308.265 77.1706 308.18 77.1132 308.107 77.0409C308.035 76.9685 307.977 76.8826 307.938 76.788C307.899 76.6935 307.879 76.5921 307.879 76.4898V76.4898V75.851C307.879 75.7486 307.899 75.6473 307.938 75.5528C307.977 75.4582 308.035 75.3723 308.107 75.2999C308.18 75.2275 308.265 75.1701 308.36 75.131C308.455 75.0918 308.556 75.0717 308.658 75.0717Z" fill="#FFA200" fill-opacity="0.5"/>
<path d="M308.658 80.2203H339.039C339.246 80.2203 339.444 80.3024 339.591 80.4486C339.737 80.5948 339.819 80.793 339.819 80.9997V81.6385C339.819 81.7408 339.799 81.8422 339.759 81.9367C339.72 82.0313 339.663 82.1172 339.591 82.1895C339.518 82.2619 339.432 82.3193 339.338 82.3585C339.243 82.3976 339.142 82.4178 339.039 82.4178H308.658C308.556 82.4178 308.455 82.3976 308.36 82.3585C308.265 82.3193 308.18 82.2619 308.107 82.1895C308.035 82.1172 307.977 82.0313 307.938 81.9367C307.899 81.8422 307.879 81.7408 307.879 81.6385V81.6385V80.9997C307.879 80.8973 307.899 80.796 307.938 80.7014C307.977 80.6069 308.035 80.521 308.107 80.4486C308.18 80.3762 308.265 80.3188 308.36 80.2797C308.455 80.2405 308.556 80.2203 308.658 80.2203V80.2203Z" fill="#FFA200" fill-opacity="0.5"/>
<path d="M308.658 85.4137H325.222C325.428 85.4154 325.624 85.4982 325.769 85.6442C325.914 85.7902 325.995 85.9874 325.995 86.193V86.8318C325.995 87.0374 325.914 87.2347 325.769 87.3806C325.624 87.5266 325.428 87.6095 325.222 87.6112H308.658C308.556 87.6112 308.455 87.591 308.36 87.5518C308.265 87.5127 308.18 87.4553 308.107 87.3829C308.035 87.3105 307.977 87.2246 307.938 87.1301C307.899 87.0355 307.879 86.9342 307.879 86.8318V86.193C307.879 86.0907 307.899 85.9893 307.938 85.8948C307.977 85.8002 308.035 85.7143 308.107 85.642C308.18 85.5696 308.265 85.5122 308.36 85.473C308.455 85.4339 308.556 85.4137 308.658 85.4137Z" fill="#FFA200" fill-opacity="0.5"/>
<path d="M132.876 265.829H154.991C157.966 265.821 160.819 264.648 162.939 262.56C165.059 260.473 166.276 257.638 166.329 254.663V249.604C166.329 246.586 165.131 243.693 162.997 241.559C160.864 239.425 157.97 238.227 154.952 238.227H132.876C129.857 238.227 126.961 239.426 124.826 241.561C122.692 243.696 121.492 246.591 121.492 249.61V254.669C121.551 257.65 122.776 260.488 124.904 262.575C127.033 264.661 129.895 265.83 132.876 265.829V265.829Z" fill="white"/>
<path d="M163.728 271.975C163.728 271.975 154.683 272.409 152.517 265.919H145.887C145.887 265.919 150.192 274.044 163.728 271.975Z" fill="white"/>
<path d="M158.625 244.66H128.244C128.037 244.66 127.839 244.577 127.693 244.431C127.547 244.285 127.465 244.087 127.465 243.88V243.273C127.465 243.067 127.547 242.868 127.693 242.722C127.839 242.576 128.037 242.494 128.244 242.494H158.625C158.832 242.494 159.03 242.576 159.176 242.722C159.323 242.868 159.405 243.067 159.405 243.273V243.273V243.88C159.405 244.087 159.323 244.285 159.176 244.431C159.03 244.577 158.832 244.66 158.625 244.66V244.66Z" fill="#3DDC97"/>
<path d="M158.625 249.904H128.244C128.037 249.904 127.839 249.822 127.693 249.676C127.547 249.529 127.465 249.331 127.465 249.125V249.125V248.492C127.467 248.287 127.549 248.09 127.695 247.945C127.841 247.8 128.039 247.719 128.244 247.719H158.625C158.831 247.719 159.028 247.8 159.174 247.945C159.32 248.09 159.403 248.287 159.405 248.492V249.131C159.405 249.338 159.323 249.536 159.176 249.682C159.03 249.828 158.832 249.91 158.625 249.91V249.904Z" fill="#3DDC97"/>
<path d="M158.625 255.053H128.244C128.039 255.053 127.841 254.971 127.695 254.827C127.549 254.682 127.467 254.485 127.465 254.28V253.673C127.465 253.466 127.547 253.268 127.693 253.122C127.839 252.976 128.037 252.894 128.244 252.894H158.625C158.832 252.894 159.03 252.976 159.176 253.122C159.323 253.268 159.405 253.466 159.405 253.673V253.673V254.28C159.403 254.485 159.32 254.682 159.174 254.827C159.028 254.971 158.831 255.053 158.625 255.053V255.053Z" fill="#3DDC97"/>
<path d="M158.623 260.246H142.053C141.846 260.246 141.648 260.164 141.502 260.018C141.356 259.872 141.274 259.674 141.274 259.467V259.467V258.866C141.272 258.763 141.291 258.66 141.329 258.564C141.368 258.468 141.425 258.381 141.497 258.307C141.57 258.233 141.656 258.175 141.752 258.135C141.847 258.095 141.949 258.074 142.053 258.074H158.63C158.836 258.074 159.035 258.156 159.181 258.303C159.327 258.449 159.409 258.647 159.409 258.854V259.454C159.409 259.556 159.389 259.658 159.35 259.752C159.311 259.847 159.253 259.933 159.181 260.005C159.108 260.078 159.022 260.135 158.928 260.174C158.833 260.213 158.732 260.233 158.63 260.233L158.623 260.246Z" fill="#3DDC97"/>
<path d="M191.944 286.13C191.944 286.13 190.494 292.186 188.75 291.324C188.259 291.053 187.829 290.683 187.489 290.238C187.148 289.792 186.903 289.281 186.77 288.736L191.944 286.13Z" fill="url(#paint12_linear)"/>
</g>
<defs>
<linearGradient id="paint0_linear" x1="98855.1" y1="3999.85" x2="99054" y2="-39892.6" gradientUnits="userSpaceOnUse">
<stop offset="0.02" stop-color="white" stop-opacity="0"/>
<stop offset="1" stop-color="white"/>
</linearGradient>
<linearGradient id="paint1_linear" x1="29619.9" y1="17113.3" x2="31396.1" y2="-71256.4" gradientUnits="userSpaceOnUse">
<stop offset="0.02" stop-color="white" stop-opacity="0"/>
<stop offset="1" stop-color="white"/>
</linearGradient>
<linearGradient id="paint2_linear" x1="65348.7" y1="5220.01" x2="65526.8" y2="-24302.7" gradientUnits="userSpaceOnUse">
<stop offset="0.02" stop-color="white" stop-opacity="0"/>
<stop offset="1" stop-color="white"/>
</linearGradient>
<linearGradient id="paint3_linear" x1="65294.4" y1="8418.54" x2="65472.4" y2="-21104.2" gradientUnits="userSpaceOnUse">
<stop offset="0.02" stop-color="white" stop-opacity="0"/>
<stop offset="1" stop-color="white"/>
</linearGradient>
<linearGradient id="paint4_linear" x1="66133.4" y1="674.098" x2="66200.7" y2="-17477.3" gradientUnits="userSpaceOnUse">
<stop offset="0.02" stop-color="white" stop-opacity="0"/>
<stop offset="1" stop-color="white"/>
</linearGradient>
<linearGradient id="paint5_linear" x1="287.809" y1="98.822" x2="299.122" y2="98.822" gradientUnits="userSpaceOnUse">
<stop stop-color="#ECC4D7"/>
<stop offset="0.42" stop-color="#EFD4D1"/>
<stop offset="1" stop-color="#F2EAC9"/>
</linearGradient>
<linearGradient id="paint6_linear" x1="2598.57" y1="1764.57" x2="2643.21" y2="1764.57" gradientUnits="userSpaceOnUse">
<stop stop-color="#ECC4D7"/>
<stop offset="0.42" stop-color="#EFD4D1"/>
<stop offset="1" stop-color="#F2EAC9"/>
</linearGradient>
<linearGradient id="paint7_linear" x1="280.416" y1="116.638" x2="291.09" y2="120.714" gradientUnits="userSpaceOnUse">
<stop stop-opacity="0"/>
<stop offset="0.91" stop-opacity="0.8"/>
<stop offset="1"/>
</linearGradient>
<linearGradient id="paint8_linear" x1="269.726" y1="131.445" x2="302.662" y2="129.612" gradientUnits="userSpaceOnUse">
<stop offset="0.36" stop-color="#00272E"/>
<stop offset="1" stop-color="#69B9EB" stop-opacity="0"/>
</linearGradient>
<linearGradient id="paint9_linear" x1="3591.48" y1="2571.48" x2="3853.68" y2="2571.48" gradientUnits="userSpaceOnUse">
<stop stop-color="#ECC4D7"/>
<stop offset="0.42" stop-color="#EFD4D1"/>
<stop offset="1" stop-color="#F2EAC9"/>
</linearGradient>
<linearGradient id="paint10_linear" x1="1775.59" y1="747.191" x2="1819.92" y2="747.191" gradientUnits="userSpaceOnUse">
<stop stop-color="#ECC4D7"/>
<stop offset="0.42" stop-color="#EFD4D1"/>
<stop offset="1" stop-color="#F2EAC9"/>
</linearGradient>
<linearGradient id="paint11_linear" x1="2318.74" y1="2070.43" x2="2073.04" y2="2079.08" gradientUnits="userSpaceOnUse">
<stop offset="0.36" stop-color="#00272E"/>
<stop offset="1" stop-color="#69B9EB" stop-opacity="0"/>
</linearGradient>
<linearGradient id="paint12_linear" x1="1717.26" y1="2651.87" x2="1692.36" y2="2716.77" gradientUnits="userSpaceOnUse">
<stop stop-opacity="0"/>
<stop offset="0.91" stop-opacity="0.8"/>
<stop offset="1"/>
</linearGradient>
<clipPath id="clip0">
<rect width="526.203" height="362" fill="white" transform="translate(0.898438)"/>
</clipPath>
</defs>
</svg>
