<svg width="73" height="73" viewBox="0 0 73 73" fill="none" xmlns="http://www.w3.org/2000/svg">
<g filter="url(#filter0_d)">
<circle cx="36.5" cy="32.5" r="32.5" fill="#FFA200"/>
</g>
<path fill-rule="evenodd" clip-rule="evenodd" d="M49.6714 26.9337V28.3617C52.3341 28.5334 54.4423 30.7572 54.4345 33.4571V35.6888C54.4345 38.4043 52.3107 40.6282 49.6324 40.7921C49.3669 44.8653 47.3602 46.8863 45.6658 47.8773C44.4633 48.5796 43.253 48.8527 42.4878 48.9619C42.1051 50.3509 40.8324 51.3809 39.3176 51.3809H36.9673C35.1557 51.3809 33.6799 49.8983 33.6799 48.088C33.6799 46.2776 35.1557 44.8029 36.9673 44.8029H39.3098C40.7699 44.8029 42.0114 45.7548 42.4409 47.0736C44.0026 46.8161 47.368 45.6846 47.7506 40.7999H46.4388C45.9234 40.7999 45.5018 40.3785 45.5018 39.8635V29.2825C45.5018 28.7674 45.9234 28.3461 46.4388 28.3461H47.7818V26.9337C47.7818 20.7614 43.3857 16.1108 37.5451 16.1108H36.366C30.5332 16.1108 26.1293 20.7614 26.1293 26.9337V28.3461H27.4723C27.9877 28.3461 28.4093 28.7674 28.4093 29.2825V39.8713C28.4093 40.3863 27.9877 40.8077 27.4723 40.8077H24.591C21.7722 40.8077 19.4766 38.5135 19.4766 35.6966V33.4649C19.4766 30.7572 21.5926 28.5412 24.2553 28.3617V26.9337C24.2553 23.5159 25.4656 20.3401 27.6597 17.9835C29.9085 15.5646 33.0006 14.238 36.3738 14.238H37.5529C40.9261 14.238 44.0182 15.5646 46.267 17.9835C48.4611 20.3401 49.6714 23.5159 49.6714 26.9337ZM24.6052 38.9273H26.5495V30.219H24.6052C22.8171 30.219 21.3647 31.6704 21.3647 33.4573V35.689C21.3647 37.4759 22.8171 38.9273 24.6052 38.9273ZM39.3181 49.5083H36.9678C36.187 49.5083 35.5545 48.8763 35.5545 48.096C35.5545 47.3156 36.187 46.6836 36.9678 46.6836H39.3181C40.099 46.6836 40.7314 47.3156 40.7314 48.096C40.7314 48.8763 40.099 49.5083 39.3181 49.5083ZM49.3284 38.9273C51.1165 38.9273 52.5688 37.4759 52.5688 35.689V33.4573C52.5688 31.6704 51.1165 30.219 49.3284 30.219H47.3841V38.9273H49.3284Z" fill="black"/>
<defs>
<filter id="filter0_d" x="0" y="0" width="73" height="73" filterUnits="userSpaceOnUse" color-interpolation-filters="sRGB">
<feFlood flood-opacity="0" result="BackgroundImageFix"/>
<feColorMatrix in="SourceAlpha" type="matrix" values="0 0 0 0 0 0 0 0 0 0 0 0 0 0 0 0 0 0 127 0"/>
<feOffset dy="4"/>
<feGaussianBlur stdDeviation="2"/>
<feColorMatrix type="matrix" values="0 0 0 0 0 0 0 0 0 0 0 0 0 0 0 0 0 0 0.15 0"/>
<feBlend mode="normal" in2="BackgroundImageFix" result="effect1_dropShadow"/>
<feBlend mode="normal" in="SourceGraphic" in2="effect1_dropShadow" result="shape"/>
</filter>
</defs>
</svg>
