<svg width="45" height="45" viewBox="0 0 45 45" fill="none" xmlns="http://www.w3.org/2000/svg">
<path d="M16.832 16.875H5.31836C4.83303 16.875 4.43945 17.2686 4.43945 17.7539C4.43945 18.2392 4.83303 18.6328 5.31836 18.6328H16.832C17.3174 18.6328 17.7109 18.2392 17.7109 17.7539C17.7109 17.2686 17.3174 16.875 16.832 16.875Z" fill="#2176FF"/>
<path d="M24.2129 20.3906C25.6668 20.3906 26.8496 19.2078 26.8496 17.7539C26.8496 16.3 25.6668 15.1172 24.2129 15.1172C22.759 15.1172 21.5762 16.3 21.5762 17.7539C21.5762 19.2078 22.759 20.3906 24.2129 20.3906ZM24.2129 16.875C24.6975 16.875 25.0918 17.2693 25.0918 17.7539C25.0918 18.2385 24.6975 18.6328 24.2129 18.6328C23.7283 18.6328 23.334 18.2385 23.334 17.7539C23.334 17.2693 23.7283 16.875 24.2129 16.875Z" fill="#2176FF"/>
<path d="M31.9473 20.3906C33.4012 20.3906 34.584 19.2078 34.584 17.7539C34.584 16.3 33.4012 15.1172 31.9473 15.1172C30.4934 15.1172 29.3105 16.3 29.3105 17.7539C29.3105 19.2078 30.4934 20.3906 31.9473 20.3906ZM31.9473 16.875C32.4319 16.875 32.8262 17.2693 32.8262 17.7539C32.8262 18.2385 32.4319 18.6328 31.9473 18.6328C31.4626 18.6328 31.0684 18.2385 31.0684 17.7539C31.0684 17.2693 31.4626 16.875 31.9473 16.875Z" fill="#2176FF"/>
<path d="M5.31836 7.38281H16.832C17.3174 7.38281 17.7109 6.98924 17.7109 6.50391C17.7109 6.01857 17.3174 5.625 16.832 5.625H5.31836C4.83303 5.625 4.43945 6.01857 4.43945 6.50391C4.43945 6.98924 4.83303 7.38281 5.31836 7.38281Z" fill="#2176FF"/>
<path d="M24.2129 9.14062C25.6668 9.14062 26.8496 7.95779 26.8496 6.50391C26.8496 5.05002 25.6668 3.86719 24.2129 3.86719C22.759 3.86719 21.5762 5.05002 21.5762 6.50391C21.5762 7.95779 22.759 9.14062 24.2129 9.14062ZM24.2129 5.625C24.6975 5.625 25.0918 6.01928 25.0918 6.50391C25.0918 6.98854 24.6975 7.38281 24.2129 7.38281C23.7283 7.38281 23.334 6.98854 23.334 6.50391C23.334 6.01928 23.7283 5.625 24.2129 5.625Z" fill="#2176FF"/>
<path d="M31.9473 9.14062C33.4012 9.14062 34.584 7.95779 34.584 6.50391C34.584 5.05002 33.4012 3.86719 31.9473 3.86719C30.4934 3.86719 29.3105 5.05002 29.3105 6.50391C29.3105 7.95779 30.4934 9.14062 31.9473 9.14062ZM31.9473 5.625C32.4319 5.625 32.8262 6.01928 32.8262 6.50391C32.8262 6.98854 32.4319 7.38281 31.9473 7.38281C31.4626 7.38281 31.0684 6.98854 31.0684 6.50391C31.0684 6.01928 31.4626 5.625 31.9473 5.625Z" fill="#2176FF"/>
<path d="M16.832 28.125H5.31836C4.83303 28.125 4.43945 28.5186 4.43945 29.0039C4.43945 29.4892 4.83303 29.8828 5.31836 29.8828H16.832C17.3174 29.8828 17.7109 29.4892 17.7109 29.0039C17.7109 28.5186 17.3174 28.125 16.832 28.125Z" fill="#2176FF"/>
<path d="M38.4903 23.549C38.4457 23.4902 38.3997 23.4327 38.3505 23.3781C38.7686 22.9114 39.0234 22.2956 39.0234 21.6211V13.8867C39.0234 13.2119 38.7684 12.5958 38.3498 12.1289C38.7683 11.662 39.0234 11.0459 39.0234 10.3711V2.63672C39.0234 1.18283 37.8406 0 36.3867 0H2.63672C1.18283 0 0 1.18283 0 2.63672V10.3711C0 11.0459 0.255059 11.662 0.673594 12.1289C0.255059 12.5958 0 13.2119 0 13.8867V21.6211C0 22.2959 0.255059 22.912 0.673594 23.3789C0.255059 23.8458 0 24.4619 0 25.1367V32.8711C0 34.325 1.18283 35.5078 2.63672 35.5078H22.6376C23.4841 40.8791 28.1446 45 33.75 45C39.9532 45 45 39.9532 45 33.75C45 29.2395 42.3313 25.3411 38.4903 23.549V23.549ZM43.2422 33.75C43.2422 35.9605 42.4825 37.997 41.2108 39.6121C40.6384 38.4767 39.8082 37.4694 38.7898 36.6971C38.14 36.2044 37.4341 35.8157 36.6891 35.5353C37.4316 34.7865 37.8911 33.7568 37.8911 32.6214C37.8911 30.3381 36.0334 28.4805 33.7501 28.4805C31.4668 28.4805 29.6091 30.3382 29.6091 32.6215C29.6091 33.7568 30.0686 34.7865 30.8111 35.5353C30.0633 35.8168 29.3548 36.2073 28.7031 36.7028C27.6878 37.4745 26.8603 38.4794 26.2894 39.6121C25.0175 37.997 24.2578 35.9605 24.2578 33.75C24.2578 28.5159 28.5159 24.2578 33.75 24.2578C38.9841 24.2578 43.2422 28.5159 43.2422 33.75V33.75ZM31.3668 32.6214C31.3668 31.3073 32.4359 30.2383 33.75 30.2383C35.0641 30.2383 36.1332 31.3073 36.1332 32.6214V32.6215C36.1332 33.9355 35.0641 35.0045 33.75 35.0045C32.4359 35.0045 31.3668 33.9354 31.3668 32.6214V32.6214ZM1.75781 2.63672C1.75781 2.15209 2.15209 1.75781 2.63672 1.75781H36.3867C36.8713 1.75781 37.2656 2.15209 37.2656 2.63672V10.3711C37.2656 10.8557 36.8713 11.25 36.3867 11.25H23.3447C22.8594 11.25 22.4658 11.6436 22.4658 12.1289C22.4658 12.6142 22.8594 13.0078 23.3447 13.0078H36.3867C36.8713 13.0078 37.2656 13.4021 37.2656 13.8867V21.6211C37.2656 22.1057 36.8713 22.5 36.3867 22.5H2.63672C2.15209 22.5 1.75781 22.1057 1.75781 21.6211V13.8867C1.75781 13.4021 2.15209 13.0078 2.63672 13.0078H15.4346C15.92 13.0078 16.3136 12.6142 16.3136 12.1289C16.3136 11.6436 15.92 11.25 15.4346 11.25H2.63672C2.15209 11.25 1.75781 10.8557 1.75781 10.3711V2.63672ZM2.63672 33.75C2.15209 33.75 1.75781 33.3557 1.75781 32.8711V25.1367C1.75781 24.6521 2.15209 24.2578 2.63672 24.2578H27.718C24.5834 26.2568 22.5 29.7646 22.5 33.75H2.63672ZM27.6018 40.9757C28.573 38.4697 31.0272 36.7624 33.75 36.7624C36.4708 36.7624 38.9268 38.4704 39.8981 40.9758C38.2406 42.3882 36.0933 43.2422 33.75 43.2422C31.4067 43.2422 29.2593 42.3882 27.6018 40.9757Z" fill="#031B4E"/>
<path d="M19.3906 13.0078C19.6219 13.0078 19.8485 12.9138 20.012 12.7502C20.1755 12.5868 20.2695 12.3601 20.2695 12.1289C20.2695 11.8978 20.1756 11.671 20.012 11.5075C19.8484 11.344 19.6219 11.25 19.3906 11.25C19.1595 11.25 18.9327 11.344 18.7693 11.5075C18.6058 11.671 18.5117 11.8978 18.5117 12.1289C18.5117 12.3601 18.6058 12.5868 18.7693 12.7502C18.9327 12.9138 19.1595 13.0078 19.3906 13.0078Z" fill="#2176FF"/>
</svg>
