<svg width="50" height="50" viewBox="0 0 50 50" fill="none" xmlns="http://www.w3.org/2000/svg">
<g clip-path="url(#clip0)">
<path d="M48.5345 47.0701H46.972V18.1643C46.972 17.3553 46.3162 16.6995 45.5072 16.6995H39.6479C38.8389 16.6995 38.1831 17.3553 38.1831 18.1643V47.0701H35.2534V27.9298C35.2534 27.1208 34.5976 26.465 33.7886 26.465H27.9293C27.1203 26.465 26.4645 27.1208 26.4645 27.9298V47.0701H23.5348V33.3008C23.5348 32.4918 22.879 31.836 22.07 31.836H16.2107C15.4017 31.836 14.7459 32.4918 14.7459 33.3008V47.0701H11.8162V36.8164C11.8162 36.0074 11.1604 35.3516 10.3514 35.3516H4.49213C3.68315 35.3516 3.0273 36.0074 3.0273 36.8164V47.0701H1.46482C0.65585 47.0701 0 47.726 0 48.535C0 49.3439 0.65585 49.9998 1.46482 49.9998H48.5345C49.3435 49.9998 49.9993 49.3439 49.9993 48.535C49.9993 47.726 49.3435 47.0701 48.5345 47.0701Z" fill="#031B4E"/>
<path d="M1.46482 31.4754C10.6071 31.4754 20.5212 28.192 29.381 22.2301C36.3199 17.5607 42.1041 11.5957 45.697 5.48763L47.1197 10.7968C47.2951 11.4513 48.1418 12.0167 48.9137 11.8326C49.7006 11.6449 50.1588 10.82 49.9494 10.0385L47.5507 1.08652C47.3412 0.305182 46.5384 -0.158678 45.7567 0.0507914L36.8047 2.44949C36.0232 2.65886 35.5596 3.46207 35.7689 4.24351C35.9784 5.02494 36.7812 5.4888 37.563 5.27924L43.33 3.73394C39.978 9.55867 34.4382 15.2957 27.7454 19.7994C19.3639 25.4396 10.0306 28.5457 1.46482 28.5457C0.65585 28.5457 0 29.2016 0 30.0105C0 30.8195 0.65585 31.4754 1.46482 31.4754V31.4754Z" fill="#031B4E"/>
</g>
<defs>
<clipPath id="clip0">
<rect width="50" height="50" fill="white"/>
</clipPath>
</defs>
</svg>
