<svg width="45" height="45" viewBox="0 0 45 45" fill="none" xmlns="http://www.w3.org/2000/svg">
<g clip-path="url(#clip0)">
<path d="M37.5004 22.4944C37.5004 22.1756 37.4816 21.8569 37.4629 21.5569H38.4379V23.4319H37.4629C37.4816 23.1319 37.5004 22.8131 37.5004 22.4944Z" fill="#031B4E"/>
<path d="M37.4629 21.5569C37.4816 21.8569 37.5004 22.1756 37.5004 22.4944C37.5004 22.8131 37.4816 23.1319 37.4629 23.4319H31.8379C31.8754 23.1319 31.8754 22.8131 31.8754 22.4944C31.8754 22.1756 31.8754 21.8569 31.8379 21.5569H37.4629Z" fill="#031B4E"/>
<path d="M34.9691 32.3944L33.7691 33.8382C33.5066 33.6132 33.2441 33.4069 32.9629 33.2194C33.4129 32.7882 33.8254 32.3194 34.2191 31.8319C34.4816 31.9819 34.7254 32.1882 34.9691 32.3944V32.3944Z" fill="#031B4E"/>
<path d="M30.9363 29.882C32.1176 30.407 33.2238 31.0445 34.2176 31.832C33.8238 32.3195 33.4113 32.7882 32.9613 33.2195C32.1738 32.6382 31.3113 32.132 30.3926 31.7195C30.5988 31.1382 30.7863 30.5195 30.9363 29.882V29.882Z" fill="#031B4E"/>
<path d="M33.7691 11.1694L34.9691 12.6132C34.7254 12.8194 34.4816 13.0069 34.2379 13.1757C33.8441 12.6694 33.4316 12.2007 32.9629 11.7694C33.2441 11.6007 33.5066 11.3944 33.7691 11.1694Z" fill="#031B4E"/>
<path d="M32.9613 11.7694C33.4301 12.2007 33.8426 12.6694 34.2363 13.1757C33.2426 13.9444 32.1176 14.5819 30.9363 15.1069C30.7863 14.4694 30.5988 13.8694 30.3926 13.2882C31.3113 12.8757 32.1738 12.3694 32.9613 11.7694V11.7694Z" fill="#031B4E"/>
<path d="M31.8742 22.4944C31.8742 22.8131 31.8742 23.1319 31.8367 23.4319H29.9805C29.9992 23.1131 29.9992 22.8131 29.9992 22.4944C29.9992 22.1756 29.9992 21.8569 29.9805 21.5569H31.8367C31.8742 21.8569 31.8742 22.1756 31.8742 22.4944Z" fill="#031B4E"/>
<path d="M29.982 21.5569C29.9258 19.4944 29.6258 17.5257 29.1758 15.7819C29.7758 15.5944 30.3758 15.3694 30.9383 15.1069C31.482 17.0569 31.8008 19.2319 31.8383 21.5569H29.982Z" fill="#031B4E"/>
<path d="M29.1758 29.2069C29.6258 27.4444 29.9258 25.4944 29.982 23.4319H31.8383C31.8008 25.7569 31.482 27.9319 30.9383 29.8819C30.3758 29.6194 29.7758 29.3944 29.1758 29.2069Z" fill="#031B4E"/>
<path d="M30.3945 13.2882C30.6008 13.8695 30.7883 14.4695 30.9383 15.107C30.3758 15.3695 29.7758 15.5945 29.1758 15.782C29.007 15.1632 28.8195 14.5632 28.6133 14.0007C29.232 13.7945 29.832 13.5695 30.3945 13.2882Z" fill="#031B4E"/>
<path d="M30.9383 29.8819C30.7883 30.5194 30.6008 31.1382 30.3945 31.7194C29.832 31.4382 29.232 31.1944 28.6133 31.0069C28.8383 30.4444 29.007 29.8444 29.1758 29.2069C29.7758 29.3944 30.3758 29.6194 30.9383 29.8819V29.8819Z" fill="#031B4E"/>
<path d="M29.9813 21.5569C30 21.8569 30 22.1756 30 22.4944C30 22.8131 30 23.1131 29.9813 23.4319H23.4375V21.5569H29.9813Z" fill="#031B4E"/>
<path d="M28.6125 14.0006C28.8188 14.5631 29.0063 15.1631 29.175 15.7819C27.375 16.4006 25.425 16.7569 23.4375 16.8319V14.9569C25.2375 14.8819 26.9813 14.5631 28.6125 14.0006V14.0006Z" fill="#031B4E"/>
<path d="M29.175 29.2069C29.0063 29.8444 28.8375 30.4444 28.6125 31.0069C26.9813 30.4444 25.2375 30.1069 23.4375 30.0319V28.1569C25.425 28.2319 27.375 28.5881 29.175 29.2069Z" fill="#031B4E"/>
<path d="M23.4375 37.382C25.5562 36.8195 27.4312 34.4007 28.6125 31.007C29.2312 31.1945 29.8312 31.4382 30.3937 31.7195C29.7187 33.632 28.8187 35.2632 27.7687 36.5195V36.5382C26.4187 37.0445 24.9562 37.3632 23.4375 37.457V37.382Z" fill="#031B4E"/>
<path d="M39.3758 22.4944C39.3758 31.6444 32.082 39.0882 23.0258 39.3507C24.7883 39.1819 26.4008 38.1694 27.7695 36.5382V36.5194C29.7383 35.7882 31.5008 34.6632 32.9633 33.2194C33.2445 33.4069 33.507 33.6132 33.7695 33.8382L34.9695 32.3944C34.7258 32.1882 34.482 31.9819 34.2195 31.8319C36.0945 29.5069 37.2758 26.6007 37.4633 23.4319H38.4383V21.5569H37.4633C37.2758 18.3882 36.0945 15.5007 34.2383 13.1757C34.482 13.0069 34.7258 12.8194 34.9695 12.6132L33.7695 11.1694C33.507 11.3944 33.2445 11.6007 32.9633 11.7694C31.5008 10.3257 29.7383 9.20068 27.7695 8.46943V8.45068C26.4008 6.80068 24.7695 5.80693 22.9883 5.63818C32.0633 5.88193 39.3758 13.3632 39.3758 22.4944V22.4944Z" fill="#031B4E"/>
<path d="M28.6125 14.0006C27.4312 10.5881 25.5562 8.16936 23.4375 7.62561V7.53186C24.9562 7.62561 26.4187 7.94436 27.7687 8.45061V8.46936C28.8187 9.72561 29.7187 11.3756 30.3937 13.2881C29.8312 13.5694 29.2312 13.7944 28.6125 14.0006V14.0006Z" fill="#031B4E"/>
<path d="M23.4375 37.4569V38.4319H21.5625V37.4569C21.8625 37.4757 22.1812 37.4944 22.5 37.4944C22.8188 37.4944 23.1375 37.4757 23.4375 37.4569Z" fill="#031B4E"/>
<path d="M23.4375 37.382V37.457C23.1375 37.4757 22.8188 37.4945 22.5 37.4945C22.8188 37.4945 23.1375 37.457 23.4375 37.382Z" fill="#031B4E"/>
<path d="M23.4375 30.0319V37.3819C23.1375 37.4569 22.8188 37.4944 22.5 37.4944C22.1812 37.4944 21.8625 37.4569 21.5625 37.3819V30.0319C21.8813 29.9944 22.1812 29.9944 22.5 29.9944C22.8188 29.9944 23.1187 29.9944 23.4375 30.0319V30.0319Z" fill="#031B4E"/>
<path d="M23.4375 28.1569V30.0319C23.1187 29.9944 22.8188 29.9944 22.5 29.9944C22.1812 29.9944 21.8813 29.9944 21.5625 30.0319V28.1569C21.8813 28.1194 22.1812 28.1194 22.5 28.1194C22.8188 28.1194 23.1187 28.1194 23.4375 28.1569Z" fill="#031B4E"/>
<path d="M21.5625 21.5569H23.4375V23.4319H21.5625V21.5569Z" fill="#031B4E"/>
<path d="M23.4375 16.8319V21.5569H21.5625V16.8319C21.8813 16.8694 22.1812 16.8694 22.5 16.8694C22.8188 16.8694 23.1187 16.8694 23.4375 16.8319Z" fill="#031B4E"/>
<path d="M23.4375 14.9569V16.8319C23.1187 16.8694 22.8188 16.8694 22.5 16.8694C22.1812 16.8694 21.8813 16.8694 21.5625 16.8319V14.9569C21.8813 14.9944 22.1812 14.9944 22.5 14.9944C22.8188 14.9944 23.1187 14.9944 23.4375 14.9569Z" fill="#031B4E"/>
<path d="M23.4375 7.53193V7.62568C23.25 7.56943 23.0625 7.53193 22.875 7.51318C23.0625 7.51318 23.25 7.51318 23.4375 7.53193Z" fill="#031B4E"/>
<path d="M23.4375 7.62563V14.9569C23.1187 14.9944 22.8188 14.9944 22.5 14.9944C22.1812 14.9944 21.8813 14.9944 21.5625 14.9569V7.62563C21.75 7.56938 21.9375 7.53188 22.125 7.51313C22.2563 7.49438 22.3687 7.49438 22.5 7.49438C22.6313 7.49438 22.7437 7.49438 22.875 7.51313C23.0625 7.53188 23.25 7.56938 23.4375 7.62563Z" fill="#031B4E"/>
<path d="M21.5625 23.4319H23.4375V28.1569C23.1187 28.1194 22.8188 28.1194 22.5 28.1194C22.1812 28.1194 21.8813 28.1194 21.5625 28.1569V23.4319Z" fill="#031B4E"/>
<path d="M21.5625 6.55688H23.4375V7.53189C23.25 7.51314 23.0625 7.51313 22.875 7.51313C22.7437 7.49438 22.6313 7.49438 22.5 7.49438C22.3687 7.49438 22.2563 7.49438 22.125 7.51313C21.9375 7.51313 21.75 7.51314 21.5625 7.53189V6.55688Z" fill="#031B4E"/>
<path d="M21.5625 7.62568V7.53193C21.75 7.51318 21.9375 7.51318 22.125 7.51318C21.9375 7.53193 21.75 7.56943 21.5625 7.62568Z" fill="#031B4E"/>
<path d="M21.5625 37.382C21.8625 37.457 22.1813 37.4945 22.5 37.4945C22.1813 37.4945 21.8625 37.4757 21.5625 37.457V37.382Z" fill="#031B4E"/>
<path d="M27.768 36.5382C26.3992 38.1695 24.7867 39.182 23.0242 39.3507C22.8555 39.3695 22.668 39.3695 22.4992 39.3695C22.3305 39.3695 22.1805 39.3695 22.0117 39.3507C20.2305 39.182 18.5992 38.1882 17.2305 36.5382C18.5805 37.0445 20.043 37.3632 21.5617 37.457V38.432H23.4367V37.457C24.9555 37.3632 26.418 37.0445 27.768 36.5382V36.5382Z" fill="#031B4E"/>
<path d="M21.5617 28.1569V30.0319C19.7617 30.1069 18.018 30.4444 16.3867 31.0069C16.1617 30.4444 15.993 29.8444 15.8242 29.2069C17.6242 28.5881 19.5742 28.2319 21.5617 28.1569V28.1569Z" fill="#031B4E"/>
<path d="M21.5625 21.5569V23.4319H15.0188C15 23.1131 15 22.8131 15 22.4944C15 22.1756 15 21.8569 15.0188 21.5569H21.5625Z" fill="#031B4E"/>
<path d="M21.5617 14.9569V16.8319C19.5742 16.7569 17.6242 16.4006 15.8242 15.7819C15.993 15.1631 16.1805 14.5631 16.3867 14.0006C18.018 14.5631 19.7617 14.8819 21.5617 14.9569V14.9569Z" fill="#031B4E"/>
<path d="M17.2305 8.45064C18.5992 6.80064 20.2305 5.80688 22.0117 5.63813C22.1805 5.61938 22.3305 5.61938 22.4992 5.61938C22.668 5.61938 22.818 5.61938 22.9867 5.63813C24.768 5.80688 26.3992 6.80064 27.768 8.45064C26.418 7.94439 24.9555 7.62564 23.4367 7.53189V6.55689H21.5617V7.53189C20.043 7.62564 18.5805 7.94439 17.2305 8.45064V8.45064Z" fill="#031B4E"/>
<path d="M17.2324 8.45061C18.5824 7.94436 20.0449 7.62561 21.5637 7.53186V7.62561C19.4449 8.16936 17.5699 10.5881 16.3887 14.0006C15.7699 13.7944 15.1699 13.5694 14.6074 13.2881C15.2824 11.3756 16.1824 9.72561 17.2324 8.46936V8.45061Z" fill="#031B4E"/>
<path d="M16.3887 31.007C17.5699 34.4007 19.4449 36.8195 21.5637 37.382V37.457C20.0449 37.3632 18.5824 37.0445 17.2324 36.5382V36.5195C16.1824 35.2632 15.2824 33.632 14.6074 31.7195C15.1699 31.4382 15.7699 31.1945 16.3887 31.007V31.007Z" fill="#031B4E"/>
<path d="M16.3875 14.0007C16.1813 14.5632 15.9938 15.1632 15.825 15.782C15.225 15.5945 14.625 15.3695 14.0625 15.107C14.2125 14.4695 14.4 13.8695 14.6063 13.2882C15.1688 13.5695 15.7688 13.7945 16.3875 14.0007V14.0007Z" fill="#031B4E"/>
<path d="M15.825 29.2069C15.9938 29.8444 16.1625 30.4444 16.3875 31.0069C15.7688 31.1944 15.1688 31.4382 14.6063 31.7194C14.4 31.1382 14.2125 30.5194 14.0625 29.8819C14.625 29.6194 15.225 29.3944 15.825 29.2069V29.2069Z" fill="#031B4E"/>
<path d="M15.8246 15.7819C15.3746 17.5257 15.0746 19.4944 15.0184 21.5569H13.1621C13.1996 19.2319 13.5184 17.0569 14.0621 15.1069C14.6246 15.3694 15.2246 15.5944 15.8246 15.7819Z" fill="#031B4E"/>
<path d="M14.0621 29.8819C13.5184 27.9319 13.1996 25.7569 13.1621 23.4319H15.0184C15.0746 25.4944 15.3746 27.4444 15.8246 29.2069C15.2246 29.3944 14.6246 29.6194 14.0621 29.8819Z" fill="#031B4E"/>
<path d="M13.125 22.4944C13.125 22.1756 13.125 21.8569 13.1625 21.5569H15.0188C15 21.8569 15 22.1756 15 22.4944C15 22.8131 15 23.1131 15.0188 23.4319H13.1625C13.125 23.1319 13.125 22.8131 13.125 22.4944Z" fill="#031B4E"/>
<path d="M14.6055 13.2882C14.3992 13.8694 14.2117 14.4694 14.0617 15.1069C12.8805 14.5819 11.7555 13.9444 10.7617 13.1757C11.1555 12.6694 11.568 12.2007 12.0367 11.7694C12.8242 12.3694 13.6867 12.8757 14.6055 13.2882Z" fill="#031B4E"/>
<path d="M14.0625 29.882C14.2125 30.5195 14.4 31.1382 14.6063 31.7195C13.6875 32.132 12.825 32.6382 12.0375 33.2195C11.5875 32.7882 11.175 32.3195 10.7812 31.832C11.775 31.0445 12.8813 30.407 14.0625 29.882V29.882Z" fill="#031B4E"/>
<path d="M13.125 22.4944C13.125 22.8131 13.125 23.1319 13.1625 23.4319H7.5375C7.51875 23.1319 7.5 22.8131 7.5 22.4944C7.5 22.1756 7.51875 21.8569 7.5375 21.5569H13.1625C13.125 21.8569 13.125 22.1756 13.125 22.4944Z" fill="#031B4E"/>
<path d="M12.0375 11.7694C11.5687 12.2007 11.1562 12.6694 10.7625 13.1757C10.5187 13.0069 10.275 12.8194 10.0312 12.6132L11.2312 11.1694C11.4937 11.3944 11.7562 11.6007 12.0375 11.7694V11.7694Z" fill="#031B4E"/>
<path d="M12.0375 33.2194C11.7562 33.4069 11.4937 33.6132 11.2312 33.8382L10.0312 32.3944C10.275 32.1882 10.5187 31.9819 10.7812 31.8319C11.175 32.3194 11.5875 32.7882 12.0375 33.2194V33.2194Z" fill="#031B4E"/>
<path d="M6.5625 23.4319V21.5569H7.5375C7.51875 21.8569 7.5 22.1756 7.5 22.4944C7.5 22.8131 7.51875 23.1319 7.5375 23.4319H6.5625Z" fill="#031B4E"/>
<path d="M11.2312 33.8382C11.4937 33.6132 11.7563 33.4069 12.0375 33.2194C13.5 34.6632 15.2625 35.7882 17.2312 36.5194V36.5382C18.6 38.1882 20.2313 39.1819 22.0125 39.3507C12.9375 39.1069 5.625 31.6444 5.625 22.4944C5.625 13.3632 12.9375 5.88193 22.0125 5.63818C20.2313 5.80693 18.6 6.80068 17.2312 8.45068V8.46943C15.2625 9.20068 13.5 10.3257 12.0375 11.7694C11.7563 11.6007 11.4937 11.3944 11.2312 11.1694L10.0313 12.6132C10.275 12.8194 10.5187 13.0069 10.7625 13.1757C8.90625 15.5007 7.725 18.3882 7.5375 21.5569H6.5625V23.4319H7.5375C7.725 26.6007 8.90625 29.5069 10.7813 31.8319C10.5188 31.9819 10.275 32.1882 10.0313 32.3944L11.2312 33.8382Z" fill="#031B4E"/>
<path d="M45.0004 22.4944C45.0004 23.8444 44.8879 25.1944 44.6442 26.5069C44.5692 26.9757 44.1754 27.2944 43.7254 27.2944C43.6692 27.2944 43.6129 27.2757 43.5567 27.2757C43.0504 27.1819 42.7129 26.6944 42.8067 26.1882C43.0129 24.9694 43.1254 23.7319 43.1254 22.4944C43.1254 21.9882 43.5379 21.5194 44.0629 21.5194C44.5879 21.5194 45.0004 21.8944 45.0004 22.4194V22.4944Z" fill="#2176FF"/>
<path d="M42.3742 16.9445C42.0367 15.7632 41.5867 14.6007 41.0617 13.4757C40.8367 13.0257 41.0242 12.4632 41.4929 12.2382C41.9429 12.0132 42.5054 12.2007 42.7304 12.6695C43.3304 13.8695 43.8179 15.1445 44.1742 16.4382C44.3054 16.9257 44.0242 17.4507 43.5179 17.582C43.4429 17.6195 43.3492 17.6195 43.2742 17.6195C42.8617 17.6195 42.4867 17.357 42.3742 16.9445Z" fill="#2176FF"/>
<path d="M42.7875 32.2631C42.1875 33.4631 41.4938 34.6256 40.7063 35.7131C40.5188 35.9756 40.2375 36.1069 39.9563 36.1069C39.75 36.1069 39.5625 36.0506 39.3938 35.9194C38.9813 35.6194 38.8875 35.0381 39.1875 34.6069C39.9188 33.6131 40.5563 32.5631 41.1 31.4381C41.325 30.9694 41.8688 30.7819 42.3375 31.0069C42.8063 31.2319 43.0125 31.7944 42.7875 32.2631Z" fill="#2176FF"/>
<path d="M37.9871 8.88184C37.1621 7.96309 36.2621 7.10059 35.3058 6.33184C34.8933 6.01309 34.8371 5.41309 35.1558 5.01934C35.4746 4.60684 36.0558 4.55059 36.4683 4.86934C37.5183 5.69434 38.4933 6.63184 39.3933 7.64434C39.7308 8.01934 39.6933 8.61934 39.2996 8.95684C39.1308 9.12559 38.9058 9.20059 38.6808 9.20059C38.4371 9.20059 38.1746 9.08809 37.9871 8.88184Z" fill="#2176FF"/>
<path d="M31.9125 41.9381C31.6687 41.4693 31.8375 40.9068 32.2875 40.6631C33.375 40.0818 34.4062 39.3881 35.3625 38.6193C35.775 38.3006 36.3562 38.3568 36.6937 38.7693C37.0125 39.1631 36.9375 39.7631 36.5437 40.0818C35.4937 40.9256 34.35 41.6756 33.1687 42.3131C33.0375 42.3881 32.8875 42.4256 32.7375 42.4256C32.4 42.4256 32.0812 42.2381 31.9125 41.9381V41.9381Z" fill="#2176FF"/>
<path d="M27.0181 2.37571C26.5118 2.26321 26.2118 1.75696 26.3243 1.25071C26.4368 0.744459 26.9243 0.425709 27.4306 0.538209C28.7618 0.838209 30.0368 1.25071 31.2743 1.77571C31.7618 1.98196 31.9681 2.52571 31.7806 3.01321C31.6118 3.36946 31.2743 3.57571 30.9181 3.57571C30.7868 3.57571 30.6556 3.55696 30.5431 3.50071C29.4181 3.03196 28.2368 2.63821 27.0181 2.37571Z" fill="#2176FF"/>
<path d="M27.1114 42.6132C27.6176 42.4819 28.1051 42.8007 28.2364 43.307C28.3489 43.8132 28.0301 44.3195 27.5239 44.432C26.2114 44.732 24.8801 44.9195 23.5301 44.9757C23.5114 44.9757 23.4926 44.9757 23.4926 44.9757C22.9864 44.9757 22.5739 44.582 22.5551 44.0757C22.5176 43.5695 22.9301 43.1195 23.4364 43.1007C24.6739 43.0445 25.9114 42.8757 27.1114 42.6132Z" fill="#2176FF"/>
<path d="M22.407 0.913161C22.4257 1.43816 22.032 1.86941 21.507 1.90691C20.2882 1.96316 19.0507 2.13191 17.8507 2.39441C17.7757 2.41316 17.7195 2.43191 17.6445 2.43191C17.2132 2.43191 16.8382 2.13191 16.7257 1.70066C16.6132 1.19441 16.932 0.688161 17.4382 0.575661C18.732 0.275661 20.082 0.0881612 21.432 0.0319112C21.9195 -0.0055888 22.3882 0.406911 22.407 0.913161V0.913161Z" fill="#2176FF"/>
<path d="M18.6381 43.7381C18.5443 44.1694 18.1506 44.4694 17.7193 44.4694C17.6631 44.4694 17.5881 44.4694 17.5131 44.4506C16.2193 44.1506 14.9256 43.7381 13.6881 43.2131C13.2006 43.0069 12.9943 42.4444 13.1818 41.9756C13.3881 41.5069 13.9318 41.2819 14.4193 41.4881C15.5443 41.9569 16.7256 42.3506 17.9256 42.6131C18.4318 42.7256 18.7506 43.2319 18.6381 43.7381Z" fill="#2176FF"/>
<path d="M13.0512 3.08811C13.2949 3.53811 13.1449 4.11936 12.6762 4.36311C11.6074 4.94436 10.5574 5.63811 9.60115 6.40686C9.4324 6.53811 9.22615 6.61311 9.0199 6.61311C8.73865 6.61311 8.47615 6.50061 8.28865 6.25686C7.9699 5.86311 8.02615 5.26311 8.43865 4.94436C9.4699 4.10062 10.6137 3.35061 11.7949 2.71312C12.2262 2.46937 12.8074 2.63811 13.0512 3.08811V3.08811Z" fill="#2176FF"/>
<path d="M8.49439 40.1194C7.44439 39.2756 6.46939 38.3381 5.56939 37.3256C5.23189 36.9319 5.26939 36.3507 5.66314 36.0132C6.05689 35.6569 6.63814 35.6944 6.97564 36.0882C7.80064 37.0256 8.70064 37.8694 9.65689 38.6381C10.0694 38.9569 10.1256 39.5569 9.80689 39.9506C9.63814 40.1944 9.35689 40.3069 9.07564 40.3069C8.86939 40.3069 8.66314 40.2506 8.49439 40.1194Z" fill="#2176FF"/>
<path d="M5.77411 10.4193C5.06161 11.4131 4.42411 12.4818 3.89911 13.5881C3.73036 13.9256 3.39286 14.1319 3.03661 14.1319C2.90536 14.1319 2.77411 14.0943 2.64286 14.0381C2.17411 13.8131 1.96786 13.2506 2.19286 12.7818C2.79286 11.5631 3.48661 10.4006 4.27411 9.3131C4.57411 8.9006 5.15536 8.80685 5.56786 9.10685C5.99911 9.40685 6.09286 10.0068 5.77411 10.4193Z" fill="#2176FF"/>
<path d="M2.23217 32.3007C1.65092 31.1007 1.18217 29.8257 0.825923 28.5319C0.675923 28.0257 0.975923 27.5194 1.46342 27.3694C1.96967 27.2382 2.47592 27.5194 2.62592 28.0257C2.94467 29.2069 3.39467 30.3694 3.91967 31.4757C4.14467 31.9444 3.95717 32.5069 3.48842 32.7319C3.35717 32.8069 3.22592 32.8257 3.07592 32.8257C2.73842 32.8257 2.40092 32.6382 2.23217 32.3007V32.3007Z" fill="#2176FF"/>
<path d="M0 22.3819C0 21.1631 0.1125 19.8319 0.35625 18.5381C0.45 18.0131 0.91875 17.6756 1.44375 17.7694C1.95 17.8631 2.2875 18.3506 2.19375 18.8569C1.9875 20.0569 1.875 21.2756 1.875 22.4944C1.875 23.0194 1.44375 23.4506 0.9375 23.4506C0.4125 23.4506 0 23.0569 0 22.5506C0 22.4944 0 22.4194 0 22.3819H0Z" fill="#2176FF"/>
</g>
<defs>
<clipPath id="clip0">
<rect width="45" height="45" fill="white"/>
</clipPath>
</defs>
</svg>
