<svg width="70" height="70" viewBox="0 0 70 70" fill="none" xmlns="http://www.w3.org/2000/svg">
<path d="M60.8228 15.0106L46.2394 0.427246C45.9659 0.153809 45.5957 0 45.2082 0H14.5832C11.3676 0 8.75 2.61611 8.75 5.83338V64.1668C8.75 67.3839 11.3676 70 14.5834 70H55.4168C58.6324 70 61.25 67.3839 61.25 64.1666V16.0416C61.25 15.6543 61.0962 15.2841 60.8228 15.0106ZM46.6666 4.97889L56.2711 14.5834H49.5832C47.9739 14.5834 46.6666 13.2746 46.6666 11.6668V4.97889V4.97889ZM58.3334 64.1666C58.3334 65.7744 57.0259 67.0832 55.4168 67.0832H14.5834C12.9741 67.0832 11.6668 65.7744 11.6668 64.1666V5.83338C11.6668 4.22557 12.9742 2.91676 14.5834 2.91676H43.75V11.6668C43.75 14.8839 46.3676 17.5 49.5834 17.5H58.3334V64.1666Z" fill="black" fill-opacity="0.2"/>
<path d="M51.0416 40.8335H18.9584C18.1523 40.8335 17.5 41.4858 17.5 42.2919C17.5 43.098 18.1523 43.7503 18.9584 43.7503H51.0418C51.8479 43.7503 52.5001 43.098 52.5001 42.2919C52.5 41.4858 51.8477 40.8335 51.0416 40.8335Z" fill="black" fill-opacity="0.2"/>
<path d="M51.0416 32.0835H18.9584C18.1523 32.0835 17.5 32.7358 17.5 33.5419C17.5 34.348 18.1523 35.0003 18.9584 35.0003H51.0418C51.8479 35.0003 52.5001 34.348 52.5001 33.5419C52.5 32.7358 51.8477 32.0835 51.0416 32.0835Z" fill="black" fill-opacity="0.2"/>
<path d="M51.0416 49.5835H18.9584C18.1523 49.5835 17.5 50.2358 17.5 51.0419C17.5 51.848 18.1523 52.5003 18.9584 52.5003H51.0418C51.8479 52.5003 52.5001 51.848 52.5001 51.0419C52.5 50.2358 51.8477 49.5835 51.0416 49.5835Z" fill="black" fill-opacity="0.2"/>
<path d="M36.4584 58.3335H18.9584C18.1523 58.3335 17.5 58.9858 17.5 59.7919C17.5 60.598 18.1523 61.2503 18.9584 61.2503H36.4584C37.2645 61.2503 37.9168 60.598 37.9168 59.7919C37.9166 58.9858 37.2645 58.3335 36.4584 58.3335Z" fill="black" fill-opacity="0.2"/>
<path d="M32.082 24.7916C32.082 25.5977 32.7343 26.25 33.5404 26.25H51.0404C51.8465 26.25 52.4988 25.5977 52.4988 24.7916C52.4988 23.9855 51.8465 23.3333 51.0404 23.3333H33.5404C32.7343 23.3334 32.082 23.9857 32.082 24.7916Z" fill="black" fill-opacity="0.2"/>
<path d="M21.875 23.3333H18.9584C18.1523 23.3333 17.5 23.9856 17.5 24.7917C17.5 25.5978 18.1523 26.25 18.9584 26.25H20.4168C20.4168 27.0561 21.069 27.7084 21.8751 27.7084C22.6812 27.7084 23.3335 27.0561 23.3335 26.25V25.9814C25.0272 25.3772 26.25 23.7737 26.25 21.8749C26.25 19.4624 24.2875 17.4999 21.875 17.4999C21.0718 17.4999 20.4166 16.8462 20.4166 16.0415C20.4166 15.2369 21.0718 14.5831 21.875 14.5831H24.7916C25.5977 14.5831 26.25 13.9309 26.25 13.1248C26.25 12.3187 25.5977 11.6664 24.7916 11.6664H23.3332C23.3332 10.8603 22.681 10.208 21.8749 10.208C21.0688 10.208 20.4165 10.8603 20.4165 11.6664V11.935C18.7228 12.5392 17.5 14.1428 17.5 16.0415C17.5 18.4541 19.4625 20.4165 21.875 20.4165C22.6782 20.4165 23.3334 21.0702 23.3334 21.8749C23.3334 22.6796 22.6782 23.3333 21.875 23.3333Z" fill="black" fill-opacity="0.2"/>
</svg>
