<svg width="46" height="46" viewBox="0 0 46 46" fill="none" xmlns="http://www.w3.org/2000/svg">
<g clip-path="url(#clip0)">
<path d="M23.5263 45.0526C35.9672 45.0526 46.0526 34.9672 46.0526 22.5263C46.0526 10.0854 35.9672 0 23.5263 0C11.0854 0 1 10.0854 1 22.5263C1 34.9672 11.0854 45.0526 23.5263 45.0526Z" fill="#F54D61" fill-opacity="0.1"/>
<g clip-path="url(#clip1)">
<path d="M32.7336 15.0727C32.6096 13.4728 31.2691 12.2086 29.638 12.2086H15.106C13.3933 12.2086 12 13.602 12 15.3146V29.6853C12 31.398 13.3933 32.7913 15.106 32.7913H31.8941C33.6067 32.7913 35 31.398 35 29.6853V18.0625C35 16.6408 34.0395 15.44 32.7336 15.0727ZM15.106 13.6596H29.638C30.4276 13.6596 31.0894 14.2156 31.2535 14.9565H15.106C14.4979 14.9565 13.9305 15.1329 13.451 15.4361V15.3146C13.451 14.4021 14.1934 13.6596 15.106 13.6596V13.6596ZM31.894 31.3404H15.106C14.1934 31.3404 13.451 30.5979 13.451 29.6853V18.0625C13.451 17.1499 14.1934 16.4074 15.106 16.4074H31.8941C32.8066 16.4074 33.5491 17.1499 33.5491 18.0625V20.5943H28.9229C27.0897 20.5943 25.5983 22.0858 25.5983 23.919C25.5983 25.7522 27.0898 27.2437 28.9229 27.2437H33.549V29.6853C33.549 30.5979 32.8066 31.3404 31.894 31.3404V31.3404ZM33.549 25.7927H28.9229C27.8898 25.7927 27.0493 24.9522 27.0493 23.919C27.0493 22.8858 27.8898 22.0453 28.9229 22.0453H33.549V25.7927Z" fill="#F54D61"/>
<path d="M29.1923 24.7294C29.6095 24.7294 29.9477 24.3912 29.9477 23.9741C29.9477 23.5569 29.6095 23.2187 29.1923 23.2187C28.7752 23.2187 28.437 23.5569 28.437 23.9741C28.437 24.3912 28.7752 24.7294 29.1923 24.7294Z" fill="#F54D61"/>
</g>
</g>
<defs>
<clipPath id="clip0">
<rect width="46" height="46" fill="white"/>
</clipPath>
<clipPath id="clip1">
<rect width="23" height="23" fill="white" transform="translate(12 11)"/>
</clipPath>
</defs>
</svg>
