<svg width="32" height="32" viewBox="0 0 32 32" fill="none" xmlns="http://www.w3.org/2000/svg">
<circle cx="16" cy="16" r="16" fill="#FFA200" fill-opacity="0.17"/>
<path fill-rule="evenodd" clip-rule="evenodd" d="M22.9997 15.6875H20.6868V8.31252C20.6868 8.18615 20.6106 8.07218 20.4939 8.02381C20.3771 7.9754 20.2427 8.00221 20.1533 8.09152L19.268 8.97677L18.3828 8.09156C18.2608 7.96952 18.0629 7.96952 17.9409 8.09156L17.0556 8.97681L16.1705 8.09156C16.0484 7.96952 15.8505 7.96952 15.7285 8.09156L14.8432 8.97681L13.958 8.09156C13.8359 7.96952 13.638 7.96952 13.516 8.09156L12.6308 8.97681L11.7456 8.09156C11.6235 7.96952 11.4257 7.96952 11.3036 8.09156L10.4184 8.97681L9.53314 8.09156C9.41185 7.97027 9.2157 7.96965 9.09335 8.08984C9.0291 8.15299 8.99795 8.23715 9.0001 8.32074V22.3751C9.0001 23.2711 9.72904 24 10.625 24H21.6868H21.687H21.6872C22.5832 24 23.3122 23.2711 23.3122 22.3751V16C23.3122 15.8274 23.1723 15.6875 22.9997 15.6875ZM10.625 23.375C10.0736 23.375 9.625 22.9265 9.625 22.3751V9.06742L10.1973 9.63973C10.3193 9.76176 10.5172 9.76176 10.6393 9.63973L11.5245 8.75448L12.4098 9.63973C12.5318 9.76176 12.7297 9.76176 12.8518 9.63973L13.737 8.75448L14.6223 9.63973C14.7443 9.76176 14.9422 9.76176 15.0642 9.63973L15.9495 8.75448L16.8347 9.63973C16.9568 9.76176 17.1546 9.76176 17.2767 9.63973L18.1619 8.75448L19.0472 9.63973C19.1693 9.76176 19.3671 9.76176 19.4891 9.63973L20.0619 9.06698V16L20.0621 16.0049L20.0623 16.0085V22.3751C20.0623 22.752 20.1917 23.0991 20.4079 23.375H10.625ZM21.6875 23.375C22.2388 23.375 22.6874 22.9264 22.6874 22.375V16.3125H20.6875V22.375C20.6875 22.9264 21.1361 23.375 21.6875 23.375Z" fill="#F79D08"/>
<path fill-rule="evenodd" clip-rule="evenodd" d="M14.8437 12.9643C14.5336 12.9643 14.2813 12.7482 14.2813 12.4827C14.2813 12.2171 14.5336 12.0011 14.8437 12.0011C15.1539 12.0011 15.4062 12.2171 15.4062 12.4827C15.4062 12.6553 15.5461 12.7952 15.7187 12.7952C15.8913 12.7952 16.0312 12.6553 16.0312 12.4827C16.0312 11.9733 15.6598 11.5435 15.1562 11.4153V11.2036C15.1562 11.031 15.0163 10.8911 14.8437 10.8911C14.6711 10.8911 14.5312 11.031 14.5312 11.2036V11.4153C14.0276 11.5435 13.6562 11.9733 13.6562 12.4827C13.6562 13.0929 14.189 13.5893 14.8437 13.5893C15.1539 13.5893 15.4062 13.8053 15.4062 14.0709C15.4062 14.3365 15.1539 14.5525 14.8437 14.5525C14.5336 14.5525 14.2813 14.3364 14.2813 14.0709C14.2813 13.8983 14.1413 13.7584 13.9688 13.7584C13.7962 13.7584 13.6562 13.8983 13.6562 14.0709C13.6562 14.5803 14.0276 15.0101 14.5312 15.1383V15.3933C14.5312 15.5659 14.6711 15.7058 14.8437 15.7058C15.0163 15.7058 15.1562 15.5659 15.1562 15.3933V15.1383C15.6598 15.0101 16.0312 14.5803 16.0312 14.0709C16.0312 13.4607 15.4985 12.9643 14.8437 12.9643Z" fill="#F79D08"/>
<path fill-rule="evenodd" clip-rule="evenodd" d="M17.9821 12.9641H17.373C17.2005 12.9641 17.0605 13.104 17.0605 13.2766C17.0605 13.4492 17.2005 13.5891 17.373 13.5891H17.9821C18.1547 13.5891 18.2946 13.4492 18.2946 13.2766C18.2946 13.104 18.1547 12.9641 17.9821 12.9641Z" fill="#F79D08"/>
<path fill-rule="evenodd" clip-rule="evenodd" d="M12.3122 12.9641H11.7031C11.5305 12.9641 11.3906 13.104 11.3906 13.2766C11.3906 13.4492 11.5305 13.5891 11.7031 13.5891H12.3122C12.4848 13.5891 12.6247 13.4492 12.6247 13.2766C12.6247 13.104 12.4848 12.9641 12.3122 12.9641Z" fill="#F79D08"/>
<path fill-rule="evenodd" clip-rule="evenodd" d="M18.1402 16.4377H13.1895C13.0169 16.4377 12.877 16.5777 12.877 16.7502C12.877 16.9228 13.0169 17.0627 13.1895 17.0627H18.1402C18.3128 17.0627 18.4527 16.9228 18.4527 16.7502C18.4526 16.5777 18.3128 16.4377 18.1402 16.4377Z" fill="#F79D08"/>
<path fill-rule="evenodd" clip-rule="evenodd" d="M11.7678 16.5293C11.7097 16.4712 11.6291 16.4377 11.5469 16.4377C11.4647 16.4377 11.3841 16.4712 11.3259 16.5293C11.2678 16.5874 11.2344 16.6681 11.2344 16.7502C11.2344 16.8324 11.2678 16.9131 11.3259 16.9712C11.3841 17.0293 11.4647 17.0627 11.5469 17.0627C11.6291 17.0627 11.7097 17.0293 11.7678 16.9712C11.8259 16.9131 11.8594 16.8324 11.8594 16.7502C11.8594 16.6681 11.8259 16.5874 11.7678 16.5293Z" fill="#F79D08"/>
<path fill-rule="evenodd" clip-rule="evenodd" d="M18.1402 18.5001H13.1895C13.0169 18.5001 12.877 18.64 12.877 18.8126C12.877 18.9852 13.0169 19.1251 13.1895 19.1251H18.1402C18.3128 19.1251 18.4527 18.9852 18.4527 18.8126C18.4526 18.64 18.3128 18.5001 18.1402 18.5001Z" fill="#F79D08"/>
<path fill-rule="evenodd" clip-rule="evenodd" d="M11.7678 18.5917C11.7097 18.5336 11.6291 18.5001 11.5469 18.5001C11.4647 18.5001 11.3841 18.5336 11.3259 18.5917C11.2678 18.6498 11.2344 18.7304 11.2344 18.8126C11.2344 18.8948 11.2678 18.9754 11.3259 19.0336C11.3841 19.0917 11.4647 19.1251 11.5469 19.1251C11.6291 19.1251 11.7097 19.0917 11.7678 19.0336C11.8259 18.9754 11.8594 18.8948 11.8594 18.8126C11.8594 18.7304 11.8259 18.6498 11.7678 18.5917Z" fill="#F79D08"/>
<path fill-rule="evenodd" clip-rule="evenodd" d="M18.1402 20.5626H13.1895C13.0169 20.5626 12.877 20.7025 12.877 20.8751C12.877 21.0477 13.0169 21.1876 13.1895 21.1876H18.1402C18.3128 21.1876 18.4527 21.0477 18.4527 20.8751C18.4527 20.7025 18.3128 20.5626 18.1402 20.5626Z" fill="#F79D08"/>
<path fill-rule="evenodd" clip-rule="evenodd" d="M11.7678 20.6542C11.7097 20.5961 11.6291 20.5626 11.5469 20.5626C11.4647 20.5626 11.3841 20.5961 11.3259 20.6542C11.2678 20.7123 11.2344 20.7929 11.2344 20.8751C11.2344 20.9573 11.2678 21.0379 11.3259 21.0961C11.3841 21.1542 11.4647 21.1876 11.5469 21.1876C11.6291 21.1876 11.7097 21.1542 11.7678 21.0961C11.8259 21.0379 11.8594 20.9573 11.8594 20.8751C11.8594 20.7929 11.8259 20.7123 11.7678 20.6542Z" fill="#F79D08"/>
</svg>
