<svg width="46" height="46" viewBox="0 0 46 46" fill="none" xmlns="http://www.w3.org/2000/svg">
<circle cx="23.331" cy="22.5263" r="22.5263" fill="#F54D61" fill-opacity="0.1"/>
<path fill-rule="evenodd" clip-rule="evenodd" d="M28.5475 12.671H12.0454C11.2815 12.671 10.6602 13.2978 10.6602 14.0681V24.0536C10.6602 24.824 11.2815 25.4508 12.0454 25.4508H13.1154V29.1681C13.1154 29.4048 13.2568 29.6183 13.4737 29.7089C13.5455 29.7389 13.6209 29.7535 13.6957 29.7535C13.8467 29.7535 13.9951 29.694 14.1061 29.582L18.2022 25.4508H19.0239C19.3445 25.4508 19.6043 25.1888 19.6043 24.8655C19.6043 24.5422 19.3444 24.2802 19.0239 24.2802C19.0239 24.2802 17.9338 24.2809 17.9224 24.2821C17.7873 24.2914 17.6547 24.3475 17.5514 24.4516L14.2761 27.7551C14.2761 27.7551 14.275 24.8285 14.2732 24.8133C14.247 24.5145 13.9985 24.2802 13.6955 24.2802H12.0454C11.9215 24.2802 11.8208 24.1785 11.8208 24.0537V14.0681C11.8208 13.9432 11.9216 13.8416 12.0454 13.8416H28.5475C28.6713 13.8416 28.7721 13.9432 28.7721 14.0681V17.8991C28.7721 18.2224 29.0319 18.4844 29.3524 18.4844C29.6728 18.4844 29.9327 18.2224 29.9327 17.8991V14.0681C29.9327 13.2978 29.3113 12.671 28.5475 12.671Z" fill="#F54D61"/>
<path fill-rule="evenodd" clip-rule="evenodd" d="M22.5276 19.6792H33.8326C34.5801 19.6792 35.1883 20.3044 35.1882 21.073V27.8686C35.1882 28.6372 34.5801 29.2624 33.8325 29.2624H33.4422V31.7976C33.4422 32.0338 33.3038 32.2467 33.0916 32.3371C33.0213 32.367 32.9475 32.3815 32.8743 32.3815C32.7266 32.3815 32.5813 32.3222 32.4726 32.2105L29.6052 29.2625H22.5276C21.78 29.2625 21.1719 28.6372 21.1719 27.8687V21.073C21.1719 20.3044 21.7801 19.6792 22.5276 19.6792ZM33.8324 28.0947C33.9536 28.0947 34.0522 27.9933 34.0522 27.8687V21.073C34.0522 20.9484 33.9536 20.8471 33.8324 20.8471H22.5274C22.4062 20.8471 22.3076 20.9484 22.3076 21.073V27.8687C22.3076 27.9933 22.4062 28.0947 22.5274 28.0947H29.8406C29.9839 28.0947 30.1145 28.1497 30.2145 28.2398C30.2217 28.2462 30.2294 28.2532 30.2375 28.2613L30.244 28.2679L32.3062 30.388C32.3062 30.388 32.3071 28.6464 32.3086 28.6336C32.331 28.3322 32.5754 28.0947 32.8743 28.0947H33.8324Z" fill="#F54D61"/>
<path fill-rule="evenodd" clip-rule="evenodd" d="M27.9617 23.6215C27.599 23.6215 27.3047 23.9158 27.3047 24.2785C27.3047 24.6411 27.599 24.9355 27.9617 24.9355C28.3244 24.9355 28.6187 24.6411 28.6187 24.2785C28.6187 23.9158 28.3244 23.6215 27.9617 23.6215Z" fill="#F54D61"/>
<path fill-rule="evenodd" clip-rule="evenodd" d="M25.8444 16.6133H15.189C14.8657 16.6133 14.6035 16.9074 14.6035 17.2703C14.6035 17.6332 14.8657 17.9273 15.189 17.9273H25.8444C26.1677 17.9273 26.4298 17.6332 26.4298 17.2703C26.4298 16.9074 26.1677 16.6133 25.8444 16.6133Z" fill="#F54D61"/>
<path fill-rule="evenodd" clip-rule="evenodd" d="M18.8321 20.5552H14.7561C14.4302 20.5552 14.166 20.8493 14.166 21.2122C14.166 21.5751 14.4303 21.8692 14.7561 21.8692H18.8321C19.158 21.8692 19.4222 21.5751 19.4222 21.2122C19.4222 20.8493 19.1579 20.5552 18.8321 20.5552Z" fill="#F54D61"/>
<path fill-rule="evenodd" clip-rule="evenodd" d="M25.3348 23.6215C24.9721 23.6215 24.6777 23.9158 24.6777 24.2785C24.6777 24.6411 24.9721 24.9355 25.3348 24.9355C25.6975 24.9355 25.9918 24.6411 25.9918 24.2785C25.9918 23.9158 25.6975 23.6215 25.3348 23.6215Z" fill="#F54D61"/>
<path fill-rule="evenodd" clip-rule="evenodd" d="M30.5906 23.6215C30.2279 23.6215 29.9336 23.9158 29.9336 24.2785C29.9336 24.6411 30.2279 24.9355 30.5906 24.9355C30.9533 24.9355 31.2476 24.6411 31.2476 24.2785C31.2476 23.9158 30.9533 23.6215 30.5906 23.6215Z" fill="#F54D61"/>
</svg>
