<svg width="47" height="46" viewBox="0 0 47 46" fill="none" xmlns="http://www.w3.org/2000/svg">
<circle cx="23.5224" cy="23.4737" r="22.5263" fill="#DDF0E8"/>
<path fill-rule="evenodd" clip-rule="evenodd" d="M23.8947 11H23.9C31.0214 11 36.7947 16.7732 36.7947 23.8947C36.7947 31.0164 31.0214 36.7894 23.9 36.7894H23.8947C16.7732 36.7894 11 31.0164 11 23.8947C11 16.7732 16.7732 11 23.8947 11ZM29.2599 19.1666H34.9641C34.4203 17.9012 33.6639 16.7383 32.7279 15.728H27.8773C28.4636 16.8197 28.9273 17.973 29.2599 19.1666ZM23.8941 11.9997C24.8339 12.8478 25.6625 13.8118 26.3595 14.8683H21.4316C22.1278 13.8118 22.9551 12.8478 23.8941 11.9997ZM15.9522 14.8684H20.4039C21.0622 13.7968 21.8442 12.8062 22.7339 11.9174C20.2188 12.1615 17.8451 13.1945 15.9522 14.8684ZM25.0615 11.9167C27.5787 12.1599 29.9545 13.1931 31.8489 14.8686H27.393C26.7342 13.7965 25.9518 12.8057 25.0615 11.9167ZM28.3786 19.1666C28.0208 17.9661 27.523 16.812 26.8952 15.728H20.9027C20.276 16.812 19.7792 17.9663 19.4233 19.1666H28.3786ZM15.0709 15.728H19.9176C19.3322 16.8197 18.8697 17.973 18.5383 19.1666H12.8345C13.3783 17.9012 14.1347 16.7383 15.0709 15.728ZM35.295 20.0263H12.5074C11.6524 22.5345 11.6524 25.2551 12.5074 27.7631H35.295C36.15 25.2551 36.15 22.5345 35.295 20.0263ZM23.8945 35.7899L23.8943 35.7897C24.8341 34.9416 25.6626 33.9777 26.3595 32.9211H21.4316C22.1278 33.9777 22.9554 34.9416 23.8943 35.7897L23.8941 35.7899H23.8945ZM31.8504 32.9211H27.3945C26.7347 33.9934 25.9508 34.9842 25.0593 35.8732C27.5778 35.6306 29.955 34.5974 31.8504 32.9211ZM22.7339 35.8724C20.2188 35.6281 17.8451 34.5953 15.9522 32.9211H20.4039C21.0622 33.9929 21.8442 34.9833 22.7339 35.8724ZM19.4233 28.6225C19.7792 29.823 20.276 30.9771 20.9027 32.0611H26.8952C27.523 30.9771 28.0208 29.823 28.3786 28.6225H19.4233ZM12.8345 28.6225H18.5383C18.8697 29.8161 19.3322 30.9694 19.9176 32.0611H15.0709C14.1347 31.051 13.3783 29.8879 12.8345 28.6225ZM27.8773 32.0611H32.7279C33.6639 31.051 34.4203 29.8879 34.9641 28.6225H29.2599C28.9273 29.8163 28.4636 30.9696 27.8773 32.0611Z" fill="#25CA82"/>
<path fill-rule="evenodd" clip-rule="evenodd" d="M14.4588 26.157C14.5094 26.3421 14.6763 26.4714 14.8681 26.4737H14.8738C15.0635 26.4737 15.231 26.3492 15.2855 26.1673L16.1632 23.2414L17.0409 26.1673C17.0953 26.3492 17.2628 26.4737 17.4527 26.4737H17.4582C17.65 26.4714 17.8171 26.3421 17.8674 26.157L19.1569 21.4289L18.3273 21.2029L17.4328 24.4824L16.5731 21.6224C16.5188 21.4405 16.3513 21.3158 16.1613 21.3158C15.9716 21.3158 15.8041 21.4405 15.7496 21.6224L14.8899 24.4824L13.9957 21.2029L13.166 21.4289L14.4588 26.157Z" fill="#25CA82"/>
<path fill-rule="evenodd" clip-rule="evenodd" d="M22.6044 26.4737H22.6101C22.7998 26.4737 22.9673 26.3492 23.0219 26.1673L23.8996 23.2414L24.7773 26.1673C24.8316 26.3492 24.9991 26.4737 25.189 26.4737H25.1945C25.3863 26.4714 25.5534 26.3421 25.6038 26.157L26.8932 21.4289L26.0636 21.2029L25.1691 24.4824L24.3095 21.6224C24.2551 21.4405 24.0876 21.3158 23.8977 21.3158C23.708 21.3158 23.5405 21.4405 23.4859 21.6224L22.6263 24.4824L21.732 21.2029L20.9023 21.4289L22.1918 26.157C22.2426 26.3433 22.4113 26.4728 22.6044 26.4737Z" fill="#25CA82"/>
<path fill-rule="evenodd" clip-rule="evenodd" d="M30.3427 26.4737H30.3484C30.5381 26.4737 30.7056 26.3492 30.7602 26.1673L31.6378 23.2414L32.5155 26.1673C32.5699 26.3492 32.7374 26.4737 32.9273 26.4737H32.9328C33.1246 26.4714 33.2917 26.3421 33.342 26.157L34.6315 21.4289L33.8019 21.2029L32.9074 24.4824L32.0477 21.6224C31.9934 21.4405 31.8259 21.3158 31.636 21.3158C31.4462 21.3158 31.2788 21.4405 31.2242 21.6224L30.3645 24.4824L29.4703 21.2029L28.6406 21.4289L29.9301 26.157C29.9809 26.3433 30.1496 26.4728 30.3427 26.4737Z" fill="#25CA82"/>
</svg>
