<svg width="172" height="24" viewBox="0 0 172 24" fill="none" xmlns="http://www.w3.org/2000/svg">
<g id="logo-sidebar-white">
<path id="Shape" fill-rule="evenodd" clip-rule="evenodd" d="M32.909 23.2043C32.6533 23.2501 32.2731 23.3156 31.7726 23.3963C31.2722 23.477 30.7652 23.5184 30.2516 23.5184C29.7381 23.5184 29.2791 23.4835 28.8705 23.4137C28.4618 23.3439 28.1187 23.2043 27.839 22.9949C27.5593 22.7855 27.3429 22.4997 27.1921 22.1398C27.0413 21.7798 26.9648 21.3087 26.9648 20.7262V0.482582C27.2205 0.436772 27.6008 0.37133 28.1012 0.290617C28.6017 0.209904 29.1087 0.168457 29.6222 0.168457C30.1358 0.168457 30.5947 0.20336 31.0034 0.273165C31.412 0.342971 31.7551 0.482582 32.0349 0.691999C32.3146 0.901416 32.5309 1.18718 32.6817 1.54712C32.8325 1.90705 32.909 2.37824 32.909 2.96068V23.2043Z" fill="white"/>
<path id="Shape_2" fill-rule="evenodd" clip-rule="evenodd" d="M44.6189 23.7973C43.2443 23.7973 41.968 23.6053 40.7901 23.2214C39.6122 22.8375 38.5873 22.2616 37.7132 21.4937C36.839 20.7259 36.1506 19.7595 35.6502 18.5968C35.1498 17.4341 34.8984 16.0729 34.8984 14.5132C34.8984 12.9774 35.1498 11.6577 35.6502 10.5517C36.1506 9.44572 36.8106 8.53824 37.6258 7.82928C38.4409 7.12032 39.374 6.59677 40.423 6.25865C41.472 5.92053 42.545 5.75256 43.6398 5.75256C44.8746 5.75256 46 5.93798 47.014 6.31101C48.028 6.68403 48.9022 7.19449 49.6364 7.84673C50.3707 8.49898 50.9411 9.27775 51.3498 10.1852C51.7584 11.0927 51.9617 12.0809 51.9617 13.152C51.9617 13.9438 51.7409 14.5481 51.2973 14.9669C50.8537 15.3857 50.2374 15.6541 49.4441 15.7697L40.8076 17.0611C41.0633 17.8289 41.5878 18.4048 42.3811 18.7888C43.1744 19.1727 44.0835 19.3647 45.1084 19.3647C46.0634 19.3647 46.9681 19.2425 47.8182 18.9982C48.6683 18.7539 49.3633 18.4681 49.8987 18.1431C50.2724 18.3765 50.5871 18.7015 50.8428 19.1203C51.0984 19.5392 51.2274 19.982 51.2274 20.4466C51.2274 21.4937 50.7379 22.2725 49.7588 22.7851C49.0136 23.18 48.1744 23.4483 47.2413 23.5879C46.3082 23.7275 45.434 23.7973 44.6189 23.7973ZM43.6318 10.0805C43.0724 10.0805 42.5894 10.1743 42.1807 10.3597C41.7721 10.5451 41.4399 10.7851 41.1842 11.0752C40.9285 11.3653 40.7362 11.6925 40.6073 12.0525C40.4783 12.4124 40.404 12.7789 40.38 13.1519L46.3591 12.1746C46.2892 11.71 46.0335 11.2432 45.5899 10.7785C45.1463 10.3139 44.495 10.0805 43.6318 10.0805Z" fill="white"/>
<path id="Shape_3" fill-rule="evenodd" clip-rule="evenodd" d="M61.7566 19.4693C62.1521 19.4693 62.5892 19.4279 63.0678 19.3472C63.5464 19.2665 63.9004 19.1552 64.1342 19.0156V16.2234L61.6167 16.4328C60.9633 16.4786 60.4279 16.6182 60.0083 16.8516C59.5887 17.0851 59.3789 17.4341 59.3789 17.8987C59.3789 18.3634 59.5603 18.7429 59.9209 19.0331C60.2815 19.3232 60.8934 19.4693 61.7566 19.4693ZM61.4807 5.75256C62.7395 5.75256 63.8868 5.88127 64.9249 6.13649C65.9629 6.39172 66.848 6.7822 67.5822 7.30574C68.3165 7.82928 68.8825 8.49243 69.2781 9.2952C69.6736 10.098 69.8725 11.0469 69.8725 12.1398V19.958C69.8725 20.5623 69.7042 21.0574 69.3655 21.4414C69.0268 21.8253 68.6247 22.1569 68.1592 22.4361C66.6447 23.3436 64.5118 23.7973 61.7605 23.7973C60.5257 23.7973 59.4112 23.6817 58.4212 23.4483C57.4313 23.2149 56.579 22.8658 55.8688 22.4012C55.1585 21.9366 54.61 21.3432 54.2254 20.6212C53.8407 19.8991 53.6484 19.0614 53.6484 18.1082C53.6484 16.5026 54.127 15.2701 55.082 14.4085C56.037 13.5468 57.5187 13.0123 59.5227 12.8029L64.1032 12.3143V12.07C64.1032 11.3959 63.806 10.9116 63.2115 10.6215C62.6171 10.3314 61.7605 10.1852 60.6416 10.1852C59.7565 10.1852 58.8933 10.279 58.0541 10.4644C57.2149 10.6499 56.4566 10.8833 55.7813 11.1625C55.4776 10.9531 55.2219 10.6324 55.0121 10.2027C54.8023 9.77293 54.6974 9.32356 54.6974 8.85891C54.6974 8.25466 54.8438 7.77038 55.1345 7.41045C55.4251 7.05051 55.8753 6.74075 56.4807 6.48552C57.1559 6.2303 57.9558 6.04269 58.8758 5.92708C59.7958 5.81146 60.6656 5.75256 61.4807 5.75256Z" fill="white"/>
<path id="Shape_4" fill-rule="evenodd" clip-rule="evenodd" d="M82.5897 12.4888C82.5897 11.7668 82.3865 11.2388 81.9778 10.9007C81.5692 10.5626 81.0163 10.3946 80.317 10.3946C79.8515 10.3946 79.3904 10.4535 78.9358 10.5691C78.4813 10.6848 78.0901 10.8593 77.7645 11.0927V23.204C77.5306 23.2738 77.1635 23.3436 76.6631 23.4134C76.1626 23.4832 75.6425 23.5181 75.1071 23.5181C74.5935 23.5181 74.1346 23.4832 73.7259 23.4134C73.3173 23.3436 72.9742 23.204 72.6945 22.9945C72.4147 22.7851 72.1984 22.4994 72.0476 22.1394C71.8968 21.7795 71.8203 21.3083 71.8203 20.7259V10.255C71.8203 9.62677 71.9536 9.11414 72.2224 8.7193C72.4912 8.32446 72.8584 7.96235 73.3238 7.63731C74.1171 7.07887 75.1136 6.62513 76.3134 6.27611C77.5132 5.92708 78.8484 5.75256 80.317 5.75256C82.9503 5.75256 84.9783 6.32846 86.401 7.48025C87.8236 8.63204 88.5339 10.231 88.5339 12.2794V23.204C88.3 23.2738 87.9329 23.3436 87.4325 23.4134C86.932 23.4832 86.4119 23.5181 85.8765 23.5181C85.3629 23.5181 84.904 23.4832 84.4953 23.4134C84.0867 23.3436 83.7436 23.204 83.4639 22.9945C83.1841 22.7851 82.9678 22.4994 82.817 22.1394C82.6662 21.7795 82.5897 21.3083 82.5897 20.7259V12.4888Z" fill="white"/>
<path id="Shape_5" fill-rule="evenodd" clip-rule="evenodd" d="M105.185 18.1777C105.185 19.9468 104.521 21.3299 103.192 22.3311C101.863 23.3324 99.9054 23.832 97.3179 23.832C96.3389 23.832 95.4298 23.7622 94.5906 23.6225C93.7514 23.4829 93.0346 23.267 92.4402 22.9768C91.8458 22.6867 91.3803 22.3202 91.0416 21.8774C90.7029 21.4346 90.5346 20.911 90.5346 20.3068C90.5346 19.7483 90.6504 19.2771 90.8842 18.8932C91.1181 18.5093 91.3978 18.1886 91.7234 17.9334C92.3987 18.3064 93.1745 18.638 94.0486 18.9281C94.9228 19.2182 95.9302 19.3644 97.0732 19.3644C97.7965 19.3644 98.3494 19.2597 98.734 19.0503C99.1186 18.8409 99.311 18.5616 99.311 18.2126C99.311 17.8876 99.1711 17.6302 98.8914 17.4448C98.6116 17.2593 98.1462 17.1066 97.4927 16.991L96.4438 16.7816C94.4158 16.3868 92.9057 15.7629 91.9157 14.9143C90.9258 14.0657 90.4297 12.8485 90.4297 11.267C90.4297 10.4053 90.6154 9.62652 90.9891 8.92847C91.3628 8.23041 91.8873 7.64797 92.5626 7.18333C93.2379 6.71868 94.0486 6.35656 94.9927 6.10134C95.9368 5.84611 96.9792 5.71741 98.1221 5.71741C98.9853 5.71741 99.7939 5.78067 100.552 5.90937C101.311 6.03808 101.968 6.23004 102.528 6.48527C103.087 6.7405 103.531 7.07207 103.856 7.48C104.182 7.88793 104.346 8.37002 104.346 8.92847C104.346 9.46291 104.248 9.9232 104.049 10.3071C103.85 10.6911 103.601 11.0117 103.297 11.267C103.111 11.1513 102.832 11.0292 102.458 10.9005C102.084 10.7718 101.678 10.6562 101.234 10.5514C100.79 10.4467 100.342 10.3595 99.8879 10.2897C99.4333 10.2199 99.0203 10.185 98.6466 10.185C97.8774 10.185 97.283 10.2722 96.8634 10.4467C96.4438 10.6213 96.234 10.8939 96.234 11.267C96.234 11.5222 96.3498 11.7316 96.5836 11.8952C96.8175 12.0588 97.2589 12.2093 97.9123 12.3489L98.9963 12.5933C101.234 13.1059 102.825 13.8083 103.769 14.7049C104.713 15.6014 105.185 16.7576 105.185 18.1777Z" fill="white"/>
<path id="Shape_6" fill-rule="evenodd" clip-rule="evenodd" d="M112.98 17.4102C112.98 18.0145 113.172 18.4464 113.557 18.7016C113.941 18.9569 114.483 19.0856 115.183 19.0856C115.532 19.0856 115.893 19.0572 116.266 18.9983C116.64 18.9394 116.966 18.8652 117.245 18.7714C117.455 19.0267 117.637 19.3124 117.787 19.6266C117.938 19.9407 118.015 20.3181 118.015 20.7609C118.015 21.6444 117.683 22.3664 117.018 22.9249C116.354 23.4833 115.183 23.7625 113.504 23.7625C111.452 23.7625 109.874 23.2979 108.766 22.3664C107.658 21.435 107.105 19.9232 107.105 17.8291V2.89065C107.361 2.82085 107.728 2.7445 108.207 2.66379C108.685 2.58307 109.192 2.54163 109.728 2.54163C110.753 2.54163 111.553 2.72268 112.123 3.08262C112.693 3.44255 112.98 4.20605 112.98 5.36875V7.60253H117.56C117.7 7.85776 117.833 8.17843 117.962 8.56236C118.091 8.94629 118.155 9.37167 118.155 9.83631C118.155 10.65 117.973 11.239 117.613 11.5989C117.252 11.9588 116.767 12.1399 116.162 12.1399H112.98V17.4102Z" fill="white"/>
<path id="Shape_7" fill-rule="evenodd" clip-rule="evenodd" d="M128.295 19.4694C128.69 19.4694 129.127 19.4279 129.606 19.3472C130.085 19.2665 130.439 19.1553 130.672 19.0156V16.2234L128.155 16.4328C127.501 16.4786 126.966 16.6183 126.546 16.8517C126.127 17.0851 125.917 17.4341 125.917 17.8988C125.917 18.3634 126.098 18.743 126.459 19.0331C126.82 19.3232 127.432 19.4694 128.295 19.4694ZM128.012 5.75256C129.271 5.75256 130.418 5.88127 131.456 6.13649C132.494 6.39172 133.379 6.7822 134.113 7.30574C134.848 7.82928 135.414 8.49243 135.809 9.2952C136.205 10.098 136.404 11.0469 136.404 12.1398V19.958C136.404 20.5623 136.235 21.0574 135.897 21.4414C135.558 21.8253 135.156 22.1569 134.69 22.4361C133.176 23.3436 131.043 23.7973 128.292 23.7973C127.057 23.7973 125.942 23.6817 124.952 23.4483C123.963 23.2149 123.11 22.8658 122.4 22.4012C121.69 21.9366 121.141 21.3432 120.757 20.6212C120.372 19.8991 120.18 19.0614 120.18 18.1082C120.18 16.5026 120.658 15.2701 121.613 14.4085C122.568 13.5468 124.05 13.0123 126.054 12.8029L130.634 12.3143V12.07C130.634 11.3959 130.337 10.9116 129.743 10.6215C129.148 10.3314 128.292 10.1852 127.173 10.1852C126.288 10.1852 125.425 10.279 124.585 10.4644C123.746 10.6499 122.988 10.8833 122.313 11.1625C122.009 10.9531 121.753 10.6324 121.543 10.2027C121.334 9.77293 121.229 9.32356 121.229 8.85891C121.229 8.25466 121.375 7.77038 121.666 7.41045C121.956 7.05051 122.407 6.74075 123.012 6.48552C123.687 6.2303 124.487 6.04269 125.407 5.92708C126.327 5.81146 127.197 5.75256 128.012 5.75256Z" fill="white"/>
<path id="Shape_8" fill-rule="evenodd" clip-rule="evenodd" d="M148.608 10.4295C148.024 10.4295 147.471 10.5233 146.947 10.7088C146.422 10.8942 145.968 11.169 145.583 11.529C145.199 11.8889 144.891 12.3383 144.657 12.8727C144.423 13.4072 144.307 14.0354 144.307 14.7575C144.307 16.1994 144.72 17.2814 145.548 18.0034C146.377 18.7255 147.384 19.0854 148.573 19.0854C149.272 19.0854 149.878 19.0047 150.391 18.8411C150.905 18.6775 151.359 18.503 151.755 18.3176C152.22 18.6426 152.57 18.9982 152.804 19.3821C153.038 19.766 153.153 20.2263 153.153 20.7608C153.153 21.7141 152.699 22.4536 151.79 22.9771C150.881 23.5006 149.622 23.7624 148.013 23.7624C146.545 23.7624 145.216 23.5465 144.027 23.1167C142.838 22.687 141.818 22.0805 140.968 21.3018C140.118 20.523 139.458 19.585 138.992 18.4921C138.527 17.3992 138.293 16.1885 138.293 14.8622C138.293 13.3265 138.544 11.9827 139.045 10.8309C139.545 9.67913 140.227 8.73021 141.09 7.98634C141.953 7.24248 142.95 6.68403 144.08 6.31101C145.21 5.93798 146.405 5.75256 147.664 5.75256C149.342 5.75256 150.636 6.05578 151.545 6.66004C152.454 7.26429 152.909 8.04524 152.909 8.99852C152.909 9.44135 152.804 9.85364 152.594 10.2376C152.384 10.6215 152.139 10.9531 151.86 11.2323C151.464 11.0469 150.985 10.8658 150.426 10.6913C149.867 10.5168 149.261 10.4295 148.608 10.4295Z" fill="white"/>
<path id="Shape_9" fill-rule="evenodd" clip-rule="evenodd" d="M171.718 20.1678C171.603 21.2607 171.281 22.0983 170.757 22.6808C170.232 23.2632 169.47 23.5533 168.467 23.5533C167.721 23.5533 167.057 23.3723 166.474 23.0123C165.89 22.6524 165.261 22.0416 164.585 21.1799L161.124 16.852V23.2043C160.868 23.2501 160.488 23.3156 159.987 23.3963C159.487 23.477 158.98 23.5184 158.466 23.5184C157.953 23.5184 157.494 23.4835 157.085 23.4137C156.677 23.3439 156.334 23.2043 156.054 22.9949C155.774 22.7855 155.558 22.4997 155.407 22.1398C155.256 21.7798 155.18 21.3087 155.18 20.7262V0.517485C155.435 0.447679 155.816 0.37133 156.316 0.290617C156.817 0.209904 157.324 0.168457 157.837 0.168457C158.351 0.168457 158.81 0.20336 159.218 0.273165C159.627 0.342971 159.97 0.482582 160.25 0.691999C160.529 0.901416 160.746 1.18718 160.897 1.54712C161.047 1.90705 161.124 2.37824 161.124 2.96068V12.175L167.138 6.03213C168.351 6.03213 169.323 6.30044 170.058 6.83489C170.792 7.36934 171.159 8.04558 171.159 8.85926C171.159 9.20828 171.1 9.52895 170.984 9.81908C170.868 10.1092 170.687 10.4059 170.442 10.7091C170.197 11.0123 169.883 11.3308 169.498 11.6689C169.113 12.0071 168.665 12.3953 168.152 12.8382L166.124 14.5833L171.718 20.1678Z" fill="white"/>
<g id="Group">
<path id="Combined Shape" fill-rule="evenodd" clip-rule="evenodd" d="M22.6688 1.20567C22.5832 0.674841 22.5161 0.271507 22.4652 0.000299454L2.96173 0.000299454C2.34393 0.000299454 1.84414 0.0814295 1.46235 0.241373C1.08057 0.401316 0.777454 0.630799 0.555324 0.927505C0.333194 1.22421 0.185108 1.58814 0.111065 2.02161C0.0370216 2.45508 0 2.94186 0 3.48659C0 4.03133 0.0439631 4.56911 0.129576 5.09993C0.215188 5.63076 0.284604 6.03409 0.333194 6.3053L19.8366 6.3053C20.4544 6.3053 20.9542 6.22417 21.336 6.06422C21.7201 5.90428 22.0209 5.6748 22.243 5.37809C22.4652 5.08139 22.6133 4.71746 22.6873 4.28399C22.7613 3.85052 22.7984 3.36374 22.7984 2.819C22.7984 2.27427 22.7567 1.73649 22.6688 1.20567ZM3.31753 4.44369C3.63755 4.7585 4.03267 4.91591 4.50057 4.91591C4.96848 4.91591 5.3636 4.7585 5.68362 4.44369C6.00364 4.12888 6.16423 3.71222 6.16423 3.1937C6.16423 2.67519 6.00364 2.25852 5.68362 1.94371C5.3636 1.6289 4.96848 1.47149 4.50057 1.47149C4.03267 1.47149 3.63755 1.6289 3.31753 1.94371C2.9975 2.25852 2.83691 2.67519 2.83691 3.1937C2.83691 3.71222 2.9975 4.12888 3.31753 4.44369Z" fill="white"/>
<path id="Combined Shape_2" fill-rule="evenodd" clip-rule="evenodd" d="M22.6688 10.0942C22.5832 9.56339 22.5161 9.16006 22.4652 8.88885H2.96173C2.34393 8.88885 1.84414 8.96998 1.46235 9.12992C1.08057 9.28987 0.777454 9.51935 0.555324 9.81605C0.333194 10.1128 0.185108 10.4767 0.111065 10.9102C0.0370216 11.3436 0 11.8304 0 12.3751C0 12.9199 0.0439631 13.4577 0.129576 13.9885C0.215188 14.5193 0.284604 14.9226 0.333194 15.1938L19.8366 15.1938C20.4544 15.1938 20.9542 15.1127 21.336 14.9528C21.7201 14.7928 22.0209 14.5633 22.243 14.2666C22.4652 13.9699 22.6133 13.606 22.6873 13.1725C22.7613 12.7391 22.7984 12.2523 22.7984 11.7076C22.7984 11.1628 22.7567 10.625 22.6688 10.0942ZM3.31753 13.3325C3.63755 13.6473 4.03267 13.8047 4.50057 13.8047C4.96848 13.8047 5.3636 13.6473 5.68362 13.3325C6.00364 13.0177 6.16423 12.601 6.16423 12.0825C6.16423 11.564 6.00364 11.1473 5.68362 10.8325C5.3636 10.5177 4.96848 10.3603 4.50057 10.3603C4.03267 10.3603 3.63755 10.5177 3.31753 10.8325C2.9975 11.1473 2.83691 11.564 2.83691 12.0825C2.83691 12.601 2.9975 13.0177 3.31753 13.3325Z" fill="white"/>
<path id="Combined Shape_3" fill-rule="evenodd" clip-rule="evenodd" d="M22.6688 18.9006C22.5832 18.3698 22.5161 17.9665 22.4652 17.6952H2.96173C2.34393 17.6952 1.84414 17.7764 1.46235 17.9363C1.08057 18.0963 0.777454 18.3257 0.555324 18.6225C0.333194 18.9192 0.185108 19.2831 0.111065 19.7166C0.0370216 20.15 0 20.6368 0 21.1815C0 21.7263 0.0439631 22.2641 0.129576 22.7949C0.215188 23.3257 0.284604 23.729 0.333194 24.0002H19.8366C20.4544 24.0002 20.9542 23.9191 21.336 23.7592C21.7201 23.5992 22.0209 23.3697 22.243 23.073C22.4652 22.7763 22.6133 22.4124 22.6873 21.9789C22.7613 21.5455 22.7984 21.0587 22.7984 20.514C22.7984 19.9692 22.7567 19.4314 22.6688 18.9006ZM3.31753 22.1386C3.63755 22.4534 4.03267 22.6109 4.50057 22.6109C4.96848 22.6109 5.3636 22.4534 5.68362 22.1386C6.00364 21.8238 6.16423 21.4072 6.16423 20.8886C6.16423 20.3701 6.00364 19.9535 5.68362 19.6387C5.3636 19.3238 4.96848 19.1664 4.50057 19.1664C4.03267 19.1664 3.63755 19.3238 3.31753 19.6387C2.9975 19.9535 2.83691 20.3701 2.83691 20.8886C2.83691 21.4072 2.9975 21.8238 3.31753 22.1386Z" fill="white"/>
</g>
</g>
</svg>
