<svg xmlns="http://www.w3.org/2000/svg" xmlns:xlink="http://www.w3.org/1999/xlink" xmlns:fi="http://pattern.flaticon.com/" x="0" y="0" width="700" height="350" viewBox="0 0 700 350"><rect x="0px" y="0px" width="100%" height="100%" opacity="0" fill="#ffffff"/><defs><g transform="matrix(0.12765957415103912 0 0 0.12765957415103912 209 146)" id="L1_0"><path d="m462.5,22.5h-455c-4.142,0-7.5,3.357-7.5,7.5v410c0,4.143 3.358,7.5 7.5,7.5h455c4.142,0 7.5-3.357 7.5-7.5v-80c0-4.143-3.358-7.5-7.5-7.5s-7.5,3.357-7.5,7.5v72.5h-440v-335h440v232.5c0,4.143 3.358,7.5 7.5,7.5s7.5-3.357 7.5-7.5v-300c0-4.143-3.358-7.5-7.5-7.5zm-447.5,15h277.5v45h-277.5v-45zm292.5,45v-45h147.5v45h-147.5z"/><path d="m381.5,52c-4.411,0-8,3.589-8,8s3.589,8 8,8 8-3.589 8-8-3.589-8-8-8z"/><path d="m340.5,52c-4.411,0-8,3.589-8,8s3.589,8 8,8 8-3.589 8-8-3.589-8-8-8z"/><path d="m422.5,52c-4.411,0-8,3.589-8,8s3.589,8 8,8 8-3.589 8-8-3.589-8-8-8z"/><path d="m148.714,225.989c2.949-0.369 5.402-2.443 6.254-5.29l17.253-57.594c1.188-3.968-1.064-8.148-5.032-9.337-3.966-1.188-8.148,1.064-9.337,5.032l-12.374,41.306-11.928-19.908c-1.355-2.262-3.797-3.646-6.434-3.646s-5.079,1.384-6.434,3.646l-11.928,19.908-12.372-41.298c-1.188-3.968-5.369-6.221-9.337-5.032-3.968,1.188-6.221,5.369-5.032,9.337l17.251,57.586c0.853,2.847 3.306,4.921 6.254,5.29 0.312,0.039 0.623,0.058 0.932,0.058 2.612,0 5.066-1.366 6.432-3.646l14.233-23.756 14.233,23.756c1.53,2.549 4.42,3.959 7.366,3.588z"/><path d="m206.358,225.982c0.312,0.039 0.623,0.058 0.932,0.058 2.612,0 5.066-1.366 6.432-3.646l14.233-23.756 14.233,23.756c1.527,2.549 4.416,3.957 7.364,3.588 2.949-0.369 5.402-2.443 6.254-5.29l17.253-57.594c1.188-3.968-1.064-8.148-5.032-9.337-3.968-1.189-8.148,1.063-9.337,5.032l-12.374,41.307-11.928-19.908c-1.355-2.262-3.797-3.646-6.434-3.646s-5.079,1.384-6.434,3.646l-11.926,19.908-12.372-41.299c-1.188-3.968-5.367-6.222-9.337-5.032-3.968,1.188-6.221,5.369-5.032,9.337l17.251,57.587c0.853,2.846 3.306,4.92 6.254,5.289z"/><path d="m368.865,153.755c-3.967-1.188-8.148,1.064-9.337,5.032l-12.374,41.305-11.928-19.908c-1.355-2.262-3.797-3.646-6.434-3.646s-5.079,1.384-6.434,3.646l-11.928,19.908-12.372-41.298c-1.189-3.967-5.367-6.22-9.337-5.032-3.968,1.188-6.221,5.369-5.032,9.337l17.251,57.586c0.853,2.847 3.306,4.921 6.254,5.29 2.949,0.369 5.836-1.038 7.364-3.588l14.233-23.756 14.233,23.756c1.366,2.279 3.819,3.646 6.432,3.646 0.309,0 0.621-0.019 0.932-0.058 2.949-0.369 5.402-2.443 6.254-5.29l17.253-57.593c1.19-3.968-1.062-8.149-5.03-9.337z"/><path d="m136.7,268.547c0-4.143-3.358-7.5-7.5-7.5h-40c-4.142,0-7.5,3.357-7.5,7.5v40c0,4.143 3.358,7.5 7.5,7.5h40c4.142,0 7.5-3.357 7.5-7.5v-40zm-15,32.5h-25v-25h25v25z"/><path d="m129.2,331.047h-40c-4.142,0-7.5,3.357-7.5,7.5v40c0,4.143 3.358,7.5 7.5,7.5h40c4.142,0 7.5-3.357 7.5-7.5v-40c0-4.143-3.358-7.5-7.5-7.5zm-7.5,40h-25v-25h25v25z"/><path d="m366.712,281.047h-30c-4.142,0-7.5,3.357-7.5,7.5s3.358,7.5 7.5,7.5h30c4.142,0 7.5-3.357 7.5-7.5s-3.358-7.5-7.5-7.5z"/><path d="m306.712,281.047h-147.512c-4.142,0-7.5,3.357-7.5,7.5s3.358,7.5 7.5,7.5h147.513c4.142,0 7.5-3.357 7.5-7.5s-3.359-7.5-7.501-7.5z"/><path d="m366.712,351.047h-30c-4.142,0-7.5,3.357-7.5,7.5s3.358,7.5 7.5,7.5h30c4.142,0 7.5-3.357 7.5-7.5s-3.358-7.5-7.5-7.5z"/><path d="m306.712,351.047h-147.512c-4.142,0-7.5,3.357-7.5,7.5s3.358,7.5 7.5,7.5h147.513c4.142,0 7.5-3.357 7.5-7.5s-3.359-7.5-7.501-7.5z"/></g><g transform="matrix(0.12765957415103912 0 0 0.12765957415103912 21 10)" id="L1_1"><path d="m167.313,209.123c-2.12-3.559-6.723-4.726-10.281-2.605l-87.369,52.039c-2.271,1.352-3.663,3.8-3.663,6.443s1.392,5.091 3.662,6.443l87.369,52.039c1.203,0.717 2.525,1.058 3.831,1.058 2.556,0 5.048-1.308 6.45-3.663 2.12-3.559 0.953-8.162-2.605-10.281l-76.551-45.596 76.551-45.596c3.559-2.119 4.726-6.722 2.606-10.281z"/><path d="m302.688,320.877c1.403,2.356 3.894,3.663 6.45,3.663 1.306,0 2.628-0.341 3.831-1.058l87.369-52.039c2.271-1.353 3.662-3.8 3.662-6.443s-1.392-5.091-3.662-6.443l-87.369-52.039c-3.558-2.12-8.163-0.954-10.281,2.605-2.12,3.559-0.953,8.162 2.605,10.281l76.551,45.596-76.551,45.596c-3.559,2.119-4.726,6.722-2.605,10.281z"/><path d="m263.72,208.78l-69.893,104.078c-2.309,3.438-1.394,8.098 2.045,10.408 1.284,0.862 2.737,1.274 4.175,1.274 2.415,0 4.786-1.165 6.233-3.32l69.893-104.078c2.309-3.438 1.394-8.098-2.045-10.408-3.441-2.309-8.1-1.392-10.408,2.046z"/><path d="m462.5,22.5h-455c-4.143,0-7.5,3.358-7.5,7.5v410c0,4.142 3.357,7.5 7.5,7.5h455c4.143,0 7.5-3.358 7.5-7.5v-80c0-4.142-3.357-7.5-7.5-7.5s-7.5,3.358-7.5,7.5v72.5h-440v-335h440v232.5c0,4.142 3.357,7.5 7.5,7.5s7.5-3.358 7.5-7.5v-300c0-4.142-3.357-7.5-7.5-7.5zm-447.5,15h277.5v45h-277.5v-45zm292.5,45v-45h147.5v45h-147.5z"/><path d="m381.5,52c-4.411,0-8,3.589-8,8s3.589,8 8,8 8-3.589 8-8-3.589-8-8-8z"/><path d="m340.5,52c-4.411,0-8,3.589-8,8s3.589,8 8,8 8-3.589 8-8-3.589-8-8-8z"/><path d="m422.5,52c-4.411,0-8,3.589-8,8s3.589,8 8,8 8-3.589 8-8-3.589-8-8-8z"/></g><g transform="matrix(0.08366684511649086 -0.05020010712789591 0.05020010712789591 0.08366684511649086 -32.45728980899655 310.2585169413377)" id="L1_3"><path d="m493.40625 190.933594h-9.140625c-8.296875-46.148438-30.375-88.632813-64.234375-122.488282-43.8125-43.816406-102.070312-67.945312-164.03125-67.945312s-120.21875 24.128906-164.03125 67.945312c-34.101562 34.101563-56.261719 76.953126-64.417969 123.492188h-8.957031c-10.253906 0-18.59375 8.339844-18.59375 18.59375v67.570312c0 10.25 8.339844 18.59375 18.59375 18.59375h14.503906c12.386719 43.015626 37.085938 81.980469 71.8125 111.8125 3.144532 2.699219 7.882813 2.34375 10.585938-.800781 2.703125-3.148437 2.34375-7.886719-.800782-10.589843-8.984374-7.714844-17.246093-16.089844-24.75-25.011719 11.476563-4.835938 23.203126-8.824219 35.015626-12.09375 5.609374 9.898437 11.902343 19.449219 18.882812 28.570312 15.292969 19.988281 32.5625 37.574219 50.96875 52.070313-15.292969-4.480469-30.082031-10.636719-44.03125-18.390625-3.625-2.011719-8.195312-.707031-10.207031 2.917969-2.015625 3.625-.710938 8.195312 2.914062 10.210937 34.222657 19.011719 73.128907 29.0625 112.511719 29.0625 61.960938 0 120.214844-24.128906 164.03125-67.945313 28.144531-28.140624 48.140625-62.253906 58.859375-99.46875h14.515625c10.253906 0 18.59375-8.339843 18.59375-18.59375v-68.917968c0-10.25-8.339844-18.59375-18.59375-18.59375zm-24.425781 0h-52.226563c-.625-3.890625-1.316406-7.78125-2.121094-11.667969-4.460937-21.535156-11.433593-42.097656-20.804687-61.507813 1.382813-.378906 2.773437-.75 4.148437-1.140624 9.558594-2.734376 21.726563-6.453126 33.679688-11.566407 18.667969 25.628907 31.335938 54.839844 37.324219 85.882813zm-67.277344 1.003906h-77.578125c-.257812-3.765625-.539062-7.53125-.871094-11.289062-1.488281-16.796876-3.683594-33.058594-6.511718-48.609376 21.519531-2.234374 42.304687-5.730468 62.246093-10.472656 9.511719 19.097656 16.523438 39.417969 20.941407 60.746094.664062 3.203125 1.238281 6.414062 1.773437 9.625zm7.710937-112.878906c4.421876 4.421875 8.621094 9.007812 12.609376 13.730468-10 4.015626-20.0625 7.070313-28.175782 9.390626-2.351562.671874-4.71875 1.316406-7.09375 1.949218-4.746094-8.507812-9.960937-16.777344-15.671875-24.777344-14.964843-20.953124-32.710937-39.296874-52.972656-54.855468 34.136719 10.148437 65.417969 28.675781 91.304687 54.5625zm-130.261718-62.316406c31.882812 17.921874 58.703125 41.914062 79.710937 71.335937 4.578125 6.417969 8.816407 13.023437 12.738281 19.789063-18.542968 4.230468-37.835937 7.367187-57.792968 9.386718-8.691406-40.464844-21.855469-75.320312-38.34375-100.867187 1.230468.105469 2.460937.222656 3.6875.355469zm-23.152344-1.226563c.183594 0 .363281.003906.546875.003906 18.242187 24.074219 32.828125 60.035157 42.222656 103.039063-16.039062 1.15625-32.46875 1.628906-49.261719 1.382812-11.398437-.164062-23.597656-.519531-36.296874-1.292968 9.394531-43.042969 23.988281-79.039063 42.242187-103.128907.183594 0 .363281-.003906.546875-.003906zm-19.464844.871094c-16.53125 25.605469-29.714844 60.566406-38.40625 101.148437-18.847656-1.640625-38.527344-4.355468-58.214844-8.839844 4.054688-7.058593 8.453126-13.941406 13.222657-20.621093 21.007812-29.417969 47.828125-53.410157 79.710937-71.335938 1.226563-.128906 2.457032-.246093 3.6875-.351562zm-41.335937 115.96875c-2.800781 15.453125-4.976563 31.609375-6.453125 48.292969-.332032 3.757812-.613282 7.523437-.867188 11.289062h-77.589844c.53125-3.210938 1.117188-6.421875 1.78125-9.625 4.351563-21.015625 11.234376-41.046875 20.53125-59.902344 21.195313 5.085938 42.371094 8.121094 62.597657 9.945313zm-92.613281-53.296875c25.886718-25.886719 57.167968-44.414063 91.304687-54.5625-20.265625 15.558594-38.011719 33.902344-52.972656 54.855468-5.882813 8.238282-11.238281 16.769532-16.09375 25.550782-11.769531-3.261719-23.457031-7.242188-34.890625-12.0625 4-4.738282 8.214844-9.339844 12.652344-13.78125zm-22.25 26.007812c12.289062 5.394532 24.84375 9.816406 37.472656 13.445313-9.1875 19.191406-16.039063 39.496093-20.441406 60.753906-.871094 4.21875-1.625 8.445313-2.285157 12.671875h-52.257812c5.90625-31.414062 18.648437-60.972656 37.511719-86.871094zm-61.742188 176.613282c-1.972656 0-3.578125-1.605469-3.578125-3.582032v-67.570312c0-1.972656 1.605469-3.578125 3.578125-3.578125h216.71875c4.148438 0 7.507812-3.359375 7.507812-7.507813 0-4.144531-3.359374-7.507812-7.507812-7.507812h-32.390625c.234375-3.320313.488281-6.644532.78125-9.960938 1.488281-16.800781 3.691406-33.015625 6.535156-48.464844 13.695313.878907 26.820313 1.269532 39.054688 1.445313 2.960937.042969 5.914062.066406 8.859375.066406 14.8125 0 29.347656-.554687 43.589844-1.632812 2.851562 15.484375 5.0625 31.742187 6.554687 48.585937.292969 3.316406.550781 6.640625.785156 9.960938h-26.894531c-4.144531 0-7.507812 3.363281-7.507812 7.507812 0 4.148438 3.363281 7.507813 7.507812 7.507813h116.453125v74.726562h-380.046875zm378.246094 15.011718c-4.324219 16.140625-10.308594 31.789063-17.898438 46.679688-19.90625-4.730469-40.644531-8.234375-62.125-10.46875 2.15625-11.738282 3.925782-23.839844 5.292969-36.207032h74.730469zm-89.820313 0c-1.355469 11.925782-3.097656 23.582032-5.210937 34.878906-17.09375-1.296874-34.609375-1.835937-52.515625-1.574218-12.257813.175781-25.40625.566406-39.125 1.449218-2.101563-11.257812-3.835938-22.871093-5.1875-34.753906zm-226.636719 63.175782c-13.945312-19.21875-24.617187-40.5625-31.621093-63.175782h50.90625c4.3125 17.171875 10.367187 33.847656 18.136719 49.75-12.613282 3.625-25.152344 8.039063-37.421876 13.425782zm34.792969-63.175782h74.703125c1.355469 12.265625 3.113282 24.269532 5.246094 35.914063-20.195312 1.820312-41.335938 4.855469-62.492188 9.925781-7.386718-14.636719-13.214843-30.003906-17.457031-45.839844zm117.597657 151.472656c-28.089844-15.824218-54.703126-39.558593-77.003907-68.707031-5.710937-7.457031-10.917969-15.230469-15.652343-23.25 19.605468-4.453125 39.199218-7.152343 57.96875-8.789062 2.96875 13.636719 6.488281 26.691406 10.542968 38.960937 5.984375 18.082032 15.378906 42.203125 28.011719 62.175782-1.289063-.113282-2.578125-.25-3.867187-.390626zm23.226562 1.273438c-.183594 0-.363281-.007812-.546875-.007812-11.820313-15.660157-23.0625-39.035157-32.566406-67.765626-3.691407-11.160156-6.914063-23.003906-9.671875-35.363281 12.699218-.769531 24.894531-1.128906 36.292968-1.292969 16.792969-.238281 33.21875.234376 49.257813 1.390626-2.753906 12.324218-5.972656 24.136718-9.652344 35.265624-9.5 28.730469-20.746093 52.105469-32.566406 67.765626-.183594.003906-.363281.007812-.546875.007812zm19.34375-.859375c12.640625-19.976563 22.042969-44.109375 28.023438-62.199219 4.03125-12.183594 7.527343-25.136718 10.480468-38.671875 19.871094 2.011719 39.078125 5.125 57.542969 9.328125-4.601563 7.726563-9.648437 15.222656-15.160156 22.421875-22.324219 29.175781-48.964844 52.929688-77.082031 68.753907-1.265626.132812-2.535157.253906-3.804688.367187zm134.070312-62.6875c-26.15625 26.15625-57.820312 44.796875-92.367187 54.871094 18.457031-14.515625 35.777344-32.140625 51.109375-52.179688 6.800781-8.882812 12.941406-18.179687 18.4375-27.804687 2.429688.648437 4.851562 1.308594 7.253906 1.992187 8.105469 2.320313 18.160156 5.375 28.15625 9.386719-3.988281 4.722656-8.167968 9.316406-12.589844 13.734375zm22.21875-26c-11.945312-5.105469-24.105468-8.824219-33.65625-11.554687-1.375-.394532-2.765624-.761719-4.148437-1.140626 7.894531-16.019531 14.039063-32.839843 18.414063-50.15625h50.953124c-6.96875 22.472657-17.585937 43.664063-31.5625 62.851563zm65.351563-81.789063c0 1.972657-1.605469 3.578126-3.578125 3.578126h-79.753906v-74.730469h79.753906c1.972656 0 3.578125 1.609375 3.578125 3.582031zm0 0"/><path d="m56.816406 258.835938c0 1.109374-1.667968 2.273437-3.609375 2.273437-2.105469 0-3.550781-1.164063-3.550781-2.273437v-37.222657c0-1.332031 1.445312-2.222656 3.550781-2.222656 1.941407 0 3.609375.890625 3.609375 2.222656v17.027344c.996094-2.160156 3.492188-4.214844 6.988282-4.214844 5.101562 0 9.539062 5.105469 9.539062 11.261719v13.144531c0 1.5-1.828125 2.277344-3.605469 2.277344-1.664062 0-3.550781-.777344-3.550781-2.277344v-13.144531c0-2.496094-2.21875-4.992188-4.824219-4.992188-2.273437 0-4.550781 1.882813-4.550781 4.992188v13.148438zm0 0"/><path d="m89.101562 252.121094c0 2.164062.777344 2.941406 3.109376 2.941406h2.164062c2.050781 0 3.050781 1.5 3.050781 2.996094 0 1.554687-1 3.050781-3.050781 3.050781h-2.164062c-6.65625 0-10.261719-2.71875-10.261719-8.988281v-26.902344c0-1.332031 1.882812-2.21875 3.550781-2.21875 1.828125 0 3.605469.886719 3.605469 2.21875v9.539062h6.546875c1.164062 0 1.828125 1.332032 1.828125 2.609376 0 1.328124-.664063 2.605468-1.828125 2.605468h-6.546875v12.148438zm0 0"/><path d="m111.683594 252.121094c0 2.164062.773437 2.941406 3.105468 2.941406h2.164063c2.050781 0 3.050781 1.5 3.050781 2.996094 0 1.554687-1 3.050781-3.050781 3.050781h-2.164063c-6.65625 0-10.261718-2.71875-10.261718-8.988281v-26.902344c0-1.332031 1.886718-2.21875 3.550781-2.21875 1.832031 0 3.605469.886719 3.605469 2.21875v9.539062h6.546875c1.164062 0 1.828125 1.332032 1.828125 2.609376 0 1.328124-.664063 2.605468-1.828125 2.605468h-6.546875zm0 0"/><path d="m133.929688 236.976562v1.664063c1.273437-2.160156 3.9375-4.214844 7.488281-4.214844 5.546875 0 9.929687 5.105469 9.929687 11.261719v4.546875c0 5.9375-4.546875 11.375-9.707031 11.375-3.328125 0-6.214844-2.109375-7.265625-4.382813v13.867188c0 1.164062-1.664062 2.273438-3.664062 2.273438-2.050782 0-3.492188-1.109376-3.492188-2.273438v-34.117188c0-1.332031 1.496094-2.21875 3.382812-2.21875 1.941407 0 3.328126.886719 3.328126 2.21875zm10.261718 8.710938c0-2.496094-2.273437-4.992188-5.046875-4.992188-2.328125 0-4.769531 1.882813-4.769531 4.992188v5.546875c0 1.164063 2.050781 4.105469 4.878906 4.105469 2.609375 0 4.9375-2.550782 4.9375-5.105469zm0 0"/><path d="m171.710938 253.785156c0-4.878906-13.148438-1.828125-13.148438-11.09375 0-3.9375 2.496094-8.265625 9.929688-8.265625 4.496093 0 8.820312 1.554688 8.820312 3.605469 0 1-.941406 3.441406-2.605469 3.441406-1.332031 0-3.050781-1.609375-6.101562-1.609375-2.773438 0-3.882813 1.386719-3.882813 2.496094 0 4.050781 13.3125 1.277344 13.3125 11.148437 0 4.941407-3.660156 8.101563-10.207031 8.101563-5.65625 0-10.039063-2.332031-10.039063-4.773437 0-1.164063.996094-3.160157 2.382813-3.160157 1.609375 0 2.832031 2.496094 7.492187 2.496094 3.269532 0 4.046876-1.277344 4.046876-2.386719zm0 0"/><path d="m192.738281 241.472656c0 1.996094-1.71875 3.769532-3.714843 3.769532-2.164063 0-3.773438-1.773438-3.773438-3.769532 0-2.054687 1.609375-3.773437 3.773438-3.773437 1.996093 0 3.714843 1.71875 3.714843 3.773437zm0 16.195313c0 2-1.71875 3.773437-3.714843 3.773437-2.164063 0-3.773438-1.773437-3.773438-3.773437 0-2.050781 1.609375-3.769531 3.773438-3.769531 1.996093 0 3.714843 1.71875 3.714843 3.769531zm0 0"/><path d="m224.414062 220.835938c0 .332031-.054687.664062-.222656.996093l-19.914062 40.277344c-.390625.773437-1.277344 1.21875-2.164063 1.21875-1.609375 0-2.664062-1.273437-2.664062-2.441406 0-.332031.113281-.664063.277343-.941407l19.914063-40.441406c.390625-.777344 1.167969-1.164062 2-1.164062 1.332031 0 2.773437.996094 2.773437 2.496094zm0 0"/><path d="m241.171875 220.835938c0 .332031-.058594.664062-.222656.996093l-19.917969 40.277344c-.386719.773437-1.273438 1.21875-2.160156 1.21875-1.609375 0-2.664063-1.273437-2.664063-2.441406 0-.332031.109375-.664063.277344-.941407l19.914063-40.441406c.390624-.777344 1.164062-1.164062 2-1.164062 1.328124 0 2.773437.996094 2.773437 2.496094zm0 0"/><path d="m273.238281 260.441406c-.390625.945313-1.609375 1.277344-2.828125 1.277344-1.386718 0-2.609375-.445312-2.941406-1.277344l-4.273438-12.09375-4.214843 12.039063c-.332031.886719-1.664063 1.332031-3.050781 1.332031-1.164063 0-2.386719-.332031-2.773438-1.332031l-8.542969-21.910157c-.222656-.445312-.277343-.777343-.277343-1.054687 0-1.71875 2.773437-2.941406 4.660156-2.941406.941406 0 1.773437.386719 2.050781 1.164062l5.546875 15.753907 4.160156-13.703126c.390625-1.273437 1.332032-1.441406 2.441406-1.441406 1.054688 0 2.054688.167969 2.441407 1.441406l4.105469 13.757813 5.601562-15.808594c.277344-.722656 1.054688-1.164062 2.054688-1.164062 1.773437 0 4.605468 1.21875 4.605468 2.996093 0 .332032-.054687.71875-.222656 1zm0 0"/><path d="m315.011719 260.441406c-.386719.945313-1.605469 1.277344-2.828125 1.277344-1.386719 0-2.605469-.445312-2.941406-1.277344l-4.269532-12.09375-4.21875 12.039063c-.332031.886719-1.660156 1.332031-3.050781 1.332031-1.164063 0-2.382813-.332031-2.773437-1.332031l-8.542969-21.910157c-.222657-.445312-.277344-.777343-.277344-1.054687 0-1.71875 2.773437-2.941406 4.660156-2.941406.941407 0 1.773438.386719 2.054688 1.164062l5.546875 15.753907 4.160156-13.703126c.386719-1.273437 1.332031-1.441406 2.441406-1.441406 1.054688 0 2.050782.167969 2.4375 1.441406l4.105469 13.757813 5.605469-15.808594c.277344-.722656 1.054687-1.164062 2.050781-1.164062 1.777344 0 4.605469 1.21875 4.605469 2.996093 0 .332032-.054688.71875-.222656 1zm0 0"/><path d="m356.789062 260.441406c-.386718.945313-1.605468 1.277344-2.828124 1.277344-1.386719 0-2.605469-.445312-2.941407-1.277344l-4.269531-12.09375-4.21875 12.039063c-.332031.886719-1.664062 1.332031-3.050781 1.332031-1.164063 0-2.382813-.332031-2.773438-1.332031l-8.542969-21.910157c-.222656-.445312-.277343-.777343-.277343-1.054687 0-1.71875 2.773437-2.941406 4.660156-2.941406.941406 0 1.773437.386719 2.054687 1.164062l5.546876 15.753907 4.160156-13.703126c.386718-1.273437 1.328125-1.441406 2.4375-1.441406 1.054687 0 2.054687.167969 2.441406 1.441406l4.105469 13.757813 5.605469-15.808594c.273437-.722656 1.054687-1.164062 2.050781-1.164062 1.773437 0 4.605469 1.21875 4.605469 2.996093 0 .332032-.054688.71875-.222657 1zm0 0"/><path d="m477.140625 228.300781-8.097656-1.175781-3.621094-7.339844c-1.914063-3.875-5.78125-6.277344-10.101563-6.277344-4.320312 0-8.191406 2.40625-10.101562 6.277344l-3.621094 7.339844-8.097656 1.175781c-4.277344.621094-7.757812 3.558594-9.09375 7.664063-1.335938 4.109375-.242188 8.535156 2.851562 11.550781l5.859376 5.710937-1.382813 8.066407c-.734375 4.253906.984375 8.476562 4.480469 11.015625 3.492187 2.539062 8.035156 2.871094 11.863281.859375l7.242187-3.808594 7.242188 3.808594c1.664062.871093 3.460938 1.304687 5.253906 1.304687 2.324219 0 4.636719-.730468 6.609375-2.164062 3.492188-2.539063 5.210938-6.761719 4.480469-11.015625l-1.382812-8.066407 5.859374-5.710937c3.09375-3.015625 4.183594-7.441406 2.851563-11.550781-1.335937-4.105469-4.820313-7.042969-9.09375-7.664063zm-11.511719 15.550781c-2.652344 2.589844-3.863281 6.316407-3.238281 9.96875l.433594 2.519532-2.261719-1.1875c-3.28125-1.726563-7.199219-1.726563-10.484375 0l-2.261719 1.1875.429688-2.519532c.628906-3.652343-.582032-7.378906-3.238282-9.96875l-1.828124-1.785156 2.527343-.367187c3.667969-.53125 6.839844-2.835938 8.484375-6.160157l1.128906-2.292968 1.132813 2.292968c1.640625 3.324219 4.8125 5.628907 8.480469 6.160157l2.527344.367187zm0 0"/></g><g transform="matrix(0.08768681853275842 0.052612091180443264 -0.052612091180443264 0.08768681853275842 83.13767931985002 106.44185934242931)" id="L1_4"><path d="m126.199219 343.972656c0-5.035156 4.300781-8.078125 11.855469-8.078125 8.8125 0 11.226562 3.984375 14.476562 3.984375 3.777344 0 5.457031-4.824218 5.457031-7.238281 0-6.925781-13.746093-8.394531-19.933593-8.394531-12.066407 0-25.496094 5.351562-25.496094 20.984375 0 24.867187 33.679687 20.039062 33.679687 35.777343 0 6.296876-5.457031 9.128907-11.75 9.128907-10.703125 0-13.535156-8.078125-17.835937-8.078125-3.253906 0-5.980469 4.40625-5.980469 7.34375 0 6.085937 10.492187 13.007812 24.234375 13.007812 14.480469 0 24.972656-7.761718 24.972656-22.765625 0-27.171875-33.679687-22.664062-33.679687-35.671875zm0 0"/><path d="m187.679688 343.972656c0-5.035156 4.300781-8.078125 11.855468-8.078125 8.8125 0 11.226563 3.984375 14.476563 3.984375 3.777343 0 5.457031-4.824218 5.457031-7.238281 0-6.925781-13.746094-8.394531-19.933594-8.394531-12.066406 0-25.496094 5.351562-25.496094 20.984375 0 24.867187 33.679688 20.039062 33.679688 35.777343 0 6.296876-5.457031 9.128907-11.75 9.128907-10.703125 0-13.535156-8.078125-17.835938-8.078125-3.253906 0-5.980468 4.40625-5.980468 7.34375 0 6.085937 10.492187 13.007812 24.234375 13.007812 14.480469 0 24.972656-7.761718 24.972656-22.765625 0-27.171875-33.679687-22.664062-33.679687-35.671875zm0 0"/><path d="m276.648438 389.507812h-25.601563v-60.539062c0-2.9375-3.460937-4.195312-6.820313-4.195312-3.460937 0-6.820312 1.257812-6.820312 4.195312v68.195312c0 2.835938 2.9375 4.304688 5.980469 4.304688h33.261719c2.726562 0 4.089843-3.042969 4.089843-5.980469 0-3.042969-1.363281-5.980469-4.089843-5.980469zm0 0"/><path d="m360.226562 223.40625h-10.125v-65.46875c0-87.085938-70.847656-157.9375-157.9375-157.9375-87.085937 0-157.9375 70.851562-157.9375 157.9375v65.46875h-10.121093c-13.292969 0-24.105469 10.8125-24.105469 24.101562v240.390626c0 13.289062 10.8125 24.101562 24.105469 24.101562h336.121093c13.289063 0 24.105469-10.8125 24.105469-24.101562v-240.390626c0-13.289062-10.816406-24.101562-24.105469-24.101562zm9.105469 130.769531h-31.355469v-28.167969h31.355469zm-31.355469 15h31.355469v28.171875h-31.355469zm-288.75-211.238281c0-78.816406 64.121094-142.9375 142.9375-142.9375 78.816407 0 142.9375 64.121094 142.9375 142.9375v65.46875h-28.511718v-65.46875c0-63.09375-51.332032-114.421875-114.425782-114.421875-63.089843 0-114.421874 51.328125-114.421874 114.421875v65.46875h-28.515626zm242.363282 65.46875h-198.847656v-65.46875c0-54.820312 44.601562-99.421875 99.421874-99.421875 54.824219 0 99.425782 44.601563 99.425782 99.421875zm-276.589844 145.769531h31.351562v28.171875h-31.351562zm31.351562-15h-31.351562v-28.167969h31.351562zm313.875 142.824219h-336.121093c-5.019531 0-9.105469-4.085938-9.105469-9.105469v-75.550781h31.351562v11.792969c0 8.730469 7.105469 15.835937 15.835938 15.835937h189.0625c4.144531 0 7.5-3.355468 7.5-7.5 0-4.144531-3.355469-7.5-7.5-7.5h-189.0625c-.460938 0-.835938-.375-.835938-.835937v-120.085938c0-.460937.375-.835937.835938-.835937h35.976562c4.140626 0 7.5-3.355469 7.5-7.5 0-4.144532-3.359374-7.5-7.5-7.5h-35.976562c-8.730469 0-15.835938 7.105468-15.835938 15.835937v6.957031h-31.351562v-63.5c0-5.019531 4.085938-9.101562 9.105469-9.101562h336.121093c5.019532 0 9.105469 4.082031 9.105469 9.101562v63.5h-31.355469v-6.957031c0-8.730469-7.101562-15.835937-15.835937-15.835937h-189.0625c-4.140625 0-7.5 3.355468-7.5 7.5 0 4.144531 3.359375 7.5 7.5 7.5h189.0625c.460937 0 .835937.375.835937.835937v120.089844c0 .457031-.375.832031-.835937.832031h-35.023437c-4.140626 0-7.5 3.359375-7.5 7.5 0 4.144532 3.359374 7.5 7.5 7.5h35.023437c8.734375 0 15.835937-7.101562 15.835937-15.832031v-11.792969h31.355469v75.550782c0 5.015624-4.085937 9.101562-9.105469 9.101562zm0 0"/></g><g transform="matrix(0.08187280311674656 -0.08187280311674656 0.08187280311674656 0.08187280311674656 119.5197824606233 309.9999999254942)" id="L1_5"><path d="m202.5,405.883v-120.208c0-4.143-3.357-7.5-7.5-7.5h-50c-4.143,0-7.5,3.357-7.5,7.5s3.357,7.5 7.5,7.5h42.5v112.708c-14.315,3.396-25,16.278-25,31.617 0,17.921 14.579,32.5 32.5,32.5s32.5-14.579 32.5-32.5c0-15.339-10.685-28.221-25-31.617zm-7.5,49.117c-9.649,0-17.5-7.851-17.5-17.5s7.851-17.5 17.5-17.5 17.5,7.851 17.5,17.5-7.851,17.5-17.5,17.5z"/><path d="m282.5,405.883v-120.208c0-4.143-3.357-7.5-7.5-7.5h-49.999c-4.143,0-7.5,3.357-7.5,7.5s3.357,7.5 7.5,7.5h42.499v112.708c-14.315,3.396-25,16.278-25,31.617 0,17.921 14.579,32.5 32.5,32.5s32.5-14.579 32.5-32.5c0-15.339-10.685-28.221-25-31.617zm-7.5,49.117c-9.649,0-17.5-7.851-17.5-17.5s7.851-17.5 17.5-17.5 17.5,7.851 17.5,17.5-7.851,17.5-17.5,17.5z"/><path d="m410,355c-15.339,0-28.221,10.685-31.617,25h-15.883v-94.325c0-4.143-3.357-7.5-7.5-7.5h-50c-4.143,0-7.5,3.357-7.5,7.5s3.357,7.5 7.5,7.5h42.5v94.325c0,4.143 3.357,7.5 7.5,7.5h23.383c3.396,14.315 16.278,25 31.617,25 17.921,0 32.5-14.579 32.5-32.5s-14.579-32.5-32.5-32.5zm0,50c-9.649,0-17.5-7.851-17.5-17.5s7.851-17.5 17.5-17.5 17.5,7.851 17.5,17.5-7.851,17.5-17.5,17.5z"/><path d="M452.141,161.557c-10.108-12.55-23.837-21.848-39.113-26.592c-1.72-35.503-16.45-68.628-41.84-93.806   C344.422,14.617,308.922,0,271.226,0c-49.501,0-95.306,25.812-121.066,67.787c-6.264-1.975-12.775-2.972-19.434-2.972   c-30.637,0-56.983,21.626-63.336,51.105C28.044,126.127,0,161.988,0,203.101c0,49.667,40.406,90.074,90.073,90.074H107.5V380   H91.617C88.221,365.685,75.339,355,60,355c-17.921,0-32.5,14.579-32.5,32.5S42.079,420,60,420c15.339,0,28.221-10.685,31.617-25   H115c4.143,0,7.5-3.357,7.5-7.5V285.675c0-4.143-3.357-7.5-7.5-7.5H90.073C48.678,278.175,15,244.497,15,203.101   c0-35.723,25.395-66.688,60.383-73.627c3.155-0.625,5.561-3.193,5.978-6.383c3.229-24.671,24.451-43.275,49.365-43.275   c6.854,0,13.501,1.373,19.756,4.08c3.546,1.535,7.675,0.125,9.543-3.254C182.409,40.152,225.019,15,271.226,15   c69.384,0,126.34,56.438,126.966,125.812c0.031,3.466,2.433,6.458,5.809,7.239c30.028,6.949,51,33.351,51,64.203   c0,36.349-29.571,65.921-65.92,65.921H385c-4.143,0-7.5,3.357-7.5,7.5s3.357,7.5,7.5,7.5h4.08c44.619,0,80.92-36.301,80.92-80.921   C470,193.859,463.657,175.854,452.141,161.557z M60,405c-9.649,0-17.5-7.851-17.5-17.5S50.351,370,60,370s17.5,7.851,17.5,17.5   S69.649,405,60,405z"/><path d="m365.692,148.605h0.069c4.142-0.038 7.469-3.426 7.432-7.568-0.112-12.354-2.444-24.443-6.931-35.931-1.508-3.858-5.856-5.765-9.715-4.258s-5.765,5.856-4.258,9.715c3.822,9.784 5.808,20.083 5.903,30.61 0.039,4.12 3.389,7.432 7.5,7.432z"/><path d="m338.278,86.756c1.483,1.796 3.626,2.724 5.786,2.724 1.683,0 3.375-0.563 4.772-1.718 3.193-2.638 3.644-7.365 1.006-10.559-19.53-23.643-48.185-37.203-78.615-37.203-4.143,0-7.5,3.357-7.5,7.5s3.357,7.5 7.5,7.5c25.94,0 50.379,11.574 67.051,31.756z"/></g><g transform="matrix(0.6121965459059564 -0.6121965459059563 0.6121965459059563 0.6121965459059564 -31.731792754357443 217)" id="L1_7"><path d="M10.5,7C8.019,7,6,9.019,6,11.5S8.019,16,10.5,16s4.5-2.019,4.5-4.5S12.981,7,10.5,7z M10.5,14C9.122,14,8,12.879,8,11.5   S9.122,9,10.5,9s2.5,1.121,2.5,2.5S11.878,14,10.5,14z"/><circle cx="50" cy="10" r="1"/><circle cx="46" cy="10" r="1"/><circle cx="52" cy="13" r="1"/><circle cx="48" cy="13" r="1"/><circle cx="42" cy="10" r="1"/><circle cx="44" cy="13" r="1"/><circle cx="38" cy="10" r="1"/><circle cx="40" cy="13" r="1"/><circle cx="34" cy="10" r="1"/><circle cx="36" cy="13" r="1"/><path d="M60,17.392V5.608C60,3.067,57.933,1,55.392,1H4.608C2.067,1,0,3.067,0,5.608v11.783C0,18.86,0.703,20.156,1.777,21   C0.703,21.844,0,23.14,0,24.608v11.783C0,38.933,2.067,41,4.608,41H29v8.101C27.044,49.5,25.5,51.044,25.101,53H1   c-0.552,0-1,0.447-1,1s0.448,1,1,1h24.101c0.465,2.279,2.484,4,4.899,4s4.434-1.721,4.899-4H59c0.552,0,1-0.447,1-1s-0.448-1-1-1   H34.899C34.5,51.044,32.956,49.5,31,49.101V41h24.392C57.933,41,60,38.933,60,36.392V24.608c0-1.469-0.703-2.764-1.777-3.608   C59.297,20.156,60,18.86,60,17.392z M33,54c0,1.654-1.346,3-3,3s-3-1.346-3-3s1.346-3,3-3S33,52.346,33,54z M58,24.608v11.783   C58,37.83,56.83,39,55.392,39H4.608C3.17,39,2,37.83,2,36.392V24.608C2,23.17,3.17,22,4.608,22h50.783C56.83,22,58,23.17,58,24.608   z M4.608,20C3.17,20,2,18.83,2,17.392V5.608C2,4.17,3.17,3,4.608,3h50.783C56.83,3,58,4.17,58,5.608v11.783   C58,18.83,56.83,20,55.392,20H4.608z"/><path d="M10.5,35c2.481,0,4.5-2.019,4.5-4.5S12.981,26,10.5,26S6,28.019,6,30.5S8.019,35,10.5,35z M10.5,28   c1.378,0,2.5,1.121,2.5,2.5S11.878,33,10.5,33S8,31.879,8,30.5S9.122,28,10.5,28z"/><circle cx="50" cy="29" r="1"/><circle cx="46" cy="29" r="1"/><circle cx="52" cy="32" r="1"/><circle cx="48" cy="32" r="1"/><circle cx="42" cy="29" r="1"/><circle cx="44" cy="32" r="1"/><circle cx="38" cy="29" r="1"/><circle cx="40" cy="32" r="1"/><circle cx="34" cy="29" r="1"/><circle cx="36" cy="32" r="1"/></g><g transform="matrix(0.07703924421664285 0.026482239714564714 -0.026482239714564714 0.07703924421664285 82.61958905388968 206.67359147224553)" id="L1_8"><path d="M347.7,263.75h-66.5c-18.2,0-33,14.8-33,33v51c0,18.2,14.8,33,33,33h66.5c18.2,0,33-14.8,33-33v-51    C380.7,278.55,365.9,263.75,347.7,263.75z M356.7,347.75c0,5-4.1,9-9,9h-66.5c-5,0-9-4.1-9-9v-51c0-5,4.1-9,9-9h66.5    c5,0,9,4.1,9,9V347.75z"/><path d="M489.4,171.05c0-2.1-0.5-4.1-1.6-5.9l-72.8-128c-2.1-3.7-6.1-6.1-10.4-6.1H84.7c-4.3,0-8.3,2.3-10.4,6.1l-72.7,128    c-1,1.8-1.6,3.8-1.6,5.9c0,28.7,17.3,53.3,42,64.2v211.1c0,6.6,5.4,12,12,12h66.3c0.1,0,0.2,0,0.3,0h93c0.1,0,0.2,0,0.3,0h221.4    c6.6,0,12-5.4,12-12v-209.6c0-0.5,0-0.9-0.1-1.3C472,224.55,489.4,199.85,489.4,171.05z M91.7,55.15h305.9l56.9,100.1H34.9    L91.7,55.15z M348.3,179.15c-3.8,21.6-22.7,38-45.4,38c-22.7,0-41.6-16.4-45.4-38H348.3z M232,179.15c-3.8,21.6-22.7,38-45.4,38    s-41.6-16.4-45.5-38H232z M24.8,179.15h90.9c-3.8,21.6-22.8,38-45.5,38C47.5,217.25,28.6,200.75,24.8,179.15z M201.6,434.35h-69    v-129.5c0-9.4,7.6-17.1,17.1-17.1h34.9c9.4,0,17.1,7.6,17.1,17.1v129.5H201.6z M423.3,434.35H225.6v-129.5    c0-22.6-18.4-41.1-41.1-41.1h-34.9c-22.6,0-41.1,18.4-41.1,41.1v129.6H66v-193.3c1.4,0.1,2.8,0.1,4.2,0.1    c24.2,0,45.6-12.3,58.2-31c12.6,18.7,34,31,58.2,31s45.5-12.3,58.2-31c12.6,18.7,34,31,58.1,31c24.2,0,45.5-12.3,58.1-31    c12.6,18.7,34,31,58.2,31c1.4,0,2.7-0.1,4.1-0.1L423.3,434.35L423.3,434.35z M419.2,217.25c-22.7,0-41.6-16.4-45.4-38h90.9    C460.8,200.75,441.9,217.25,419.2,217.25z"/></g><g transform="matrix(0.7067142713420089 0.07067142820647342 -0.07067142820647342 0.7067142713420089 147.8836004054824 39.10488617041)" id="L1_11"><path d="m55 15h-1v-6a3 3 0 0 0 -3-3h-1v-1a3 3 0 0 0 -3-3h-38a3 3 0 0 0 -3 3v50a3 3 0 0 0 3 3h1v1a3 3 0 0 0 3 3h38a3 3 0 0 0 3-3v-18h1a3 3 0 0 0 3-3v-20a3 3 0 0 0 -3-3zm-4-7a1 1 0 0 1 1 1v6h-2v-7zm-37-4h2v2.7l-.168-.252a1.039 1.039 0 0 0 -1.664 0l-.168.252zm-6 51v-50a1 1 0 0 1 1-1h3v6a1 1 0 0 0 1.832.555l1.168-1.755 1.168 1.752a1 1 0 0 0 1.832-.552v-6h29a1 1 0 0 1 1 1v10h-31a3 3 0 0 0 -3 3v20a3 3 0 0 0 3 3h31v14a1 1 0 0 1 -1 1h-38a1 1 0 0 1 -1-1zm44 4a1 1 0 0 1 -1 1h-38a1 1 0 0 1 -1-1v-1h35a3 3 0 0 0 3-3v-14h2zm4-21a1 1 0 0 1 -1 1h-38a1 1 0 0 1 -1-1v-20a1 1 0 0 1 1-1h38a1 1 0 0 1 1 1z"/><path d="m27 22h-4a1 1 0 0 0 -1 1v11h2v-5h3a3 3 0 0 0 3-3v-1a3 3 0 0 0 -3-3zm1 4a1 1 0 0 1 -1 1h-3v-3h3a1 1 0 0 1 1 1z"/><path d="m47 22h-4a1 1 0 0 0 -1 1v11h2v-5h3a3 3 0 0 0 3-3v-1a3 3 0 0 0 -3-3zm1 4a1 1 0 0 1 -1 1h-3v-3h3a1 1 0 0 1 1 1z"/><path d="m38 27h-4v-5h-2v12h2v-5h4v5h2v-12h-2z"/></g><g transform="matrix(0.17453461123112982 -0.11919436086694804 0.11919436086694804 0.17453461123112982 241.28069647269876 55.19437529777545)" id="L1_12"><path d="M126.923,193.689c4.77-5.465,7.156-13.416,7.156-23.854V86.17H115.12v83.789c0,5.504-0.897,9.551-2.691,12.141     c-1.795,2.588-4.771,3.883-8.93,3.883c-2.691,0-5.666-0.408-8.929-1.223v15.779c3.18,0.896,6.911,1.346,11.192,1.346     C115.099,201.885,122.153,199.152,126.923,193.689z"/><path d="M283.149,52.723L232.625,2.197C231.218,0.79,229.311,0,227.321,0H40.342c-4.142,0-7.5,3.358-7.5,7.5v303.188     c0,4.142,3.358,7.5,7.5,7.5h237.504c4.143,0,7.5-3.358,7.5-7.5V58.025C285.346,56.036,284.556,54.129,283.149,52.723z      M234.821,25.606l24.918,24.919h-24.918V25.606z M47.842,15h171.98v10.263H47.842V15z M270.346,303.188H47.842V40.263h171.98     v17.763c0,4.143,3.357,7.5,7.5,7.5h43.024V303.188z"/><path d="M187.532,123.967c-6.32-3.017-10.326-5.107-12.018-6.27c-1.692-1.162-2.926-2.363-3.699-3.607     c-0.775-1.244-1.162-2.701-1.162-4.373c0-2.691,0.957-4.872,2.874-6.545c1.916-1.671,4.668-2.508,8.257-2.508     c3.017,0,6.085,0.389,9.204,1.162c3.119,0.775,7.063,2.141,11.835,4.098l6.115-14.738c-4.607-1.998-9.021-3.548-13.24-4.648     c-4.221-1.102-8.654-1.651-13.303-1.651c-9.46,0-16.871,2.263-22.232,6.788c-5.361,4.526-8.042,10.744-8.042,18.654     c0,4.199,0.815,7.869,2.446,11.009s3.812,5.892,6.545,8.257c2.73,2.365,6.828,4.831,12.293,7.4     c5.83,2.773,9.693,4.791,11.59,6.055c1.896,1.264,3.332,2.578,4.311,3.944c0.98,1.366,1.469,2.927,1.469,4.679     c0,3.141-1.111,5.504-3.334,7.095c-2.223,1.59-5.412,2.386-9.57,2.386c-3.467,0-7.289-0.551-11.469-1.652     c-4.18-1.101-9.286-2.996-15.32-5.688v17.614c7.34,3.589,15.779,5.382,25.32,5.382c10.356,0,18.439-2.324,24.25-6.973     c5.811-4.648,8.715-11.008,8.715-19.082c0-5.83-1.549-10.753-4.647-14.77C201.62,131.969,195.891,127.963,187.532,123.967z"/><path d="M132.57,277.794L132.57,277.794c-0.001,3.129-0.461,5.338-1.379,6.63c-0.919,1.29-2.451,1.936-4.594,1.936     c-0.919,0-1.772-0.082-2.56-0.246c-0.788-0.164-1.531-0.313-2.232-0.443v10.075c2.123,0.46,4.365,0.689,6.728,0.689     c5.688,0,9.955-1.669,12.799-5.005s4.266-8.254,4.266-14.752v-43.286H132.57V277.794z"/><path d="M176.317,252.755c-4.311-1.969-6.952-3.325-7.926-4.069c-0.974-0.743-1.46-1.586-1.46-2.526     c-0.001-0.877,0.381-1.61,1.147-2.201s1.99-0.887,3.676-0.887c3.26,0,7.132,1.029,11.617,3.086l3.971-10.01     c-5.163-2.297-10.229-3.445-15.194-3.445c-5.623,0-10.042,1.236-13.259,3.708c-3.216,2.473-4.823,5.919-4.823,10.337     c0,2.363,0.377,4.409,1.132,6.137c0.755,1.729,1.914,3.261,3.479,4.596c1.564,1.334,3.91,2.713,7.039,4.135     c3.457,1.553,5.584,2.582,6.384,3.084c0.798,0.504,1.378,1.002,1.739,1.494c0.36,0.492,0.541,1.066,0.541,1.723     c0,1.05-0.448,1.908-1.346,2.576c-0.897,0.668-2.309,1.001-4.233,1.001c-2.231,0-4.682-0.355-7.351-1.067     c-2.67-0.71-5.24-1.7-7.713-2.969v11.551c2.341,1.116,4.595,1.898,6.761,2.347c2.166,0.448,4.846,0.673,8.04,0.673     c3.829,0,7.165-0.64,10.01-1.92c2.844-1.279,5.022-3.073,6.53-5.382c1.51-2.308,2.265-4.95,2.265-7.925     c0-3.238-0.804-5.924-2.412-8.058C183.324,256.611,180.451,254.614,176.317,252.755z"/></g><g transform="matrix(0.07242020055026807 -0.009446113060355227 0.009446113060355227 0.07242020055026807 222.6695296013382 271.5839415963502)" id="L1_13"><path d="m32 400h-32v40c.0273438 22.082031 17.917969 39.972656 40 40h304c22.082031-.027344 39.972656-17.917969 40-40v-264h32v-144h-32v-24c0-4.417969-3.582031-8-8-8h-256c-2.125-.00390625-4.167969.84375-5.664062 2.351562l-80 80c-1.5 1.496094-2.339844 3.53125-2.335938 5.648438zm-16 40v-24h288v24c.03125 8.683594 2.914062 17.117188 8.207031 24h-272.207031c-13.253906 0-24-10.746094-24-24zm384-280h-240v-112h240zm-32-128h-224v144h224v264c0 13.253906-10.746094 24-24 24s-24-10.746094-24-24v-32c0-4.417969-3.582031-8-8-8h-264v-304h72c4.417969 0 8-3.582031 8-8v-72h240zm-308.6875 48 52.6875-52.6875v52.6875zm0 0"/><path d="m64 112h16v16h-16zm0 0"/><path d="m96 136h16v16h-16zm0 0"/><path d="m184 144h48c4.417969 0 8-3.582031 8-8v-32c0-4.417969-3.582031-8-8-8h-24v16h16v16h-32v-48h48v-16h-56c-4.417969 0-8 3.582031-8 8v64c0 4.417969 3.582031 8 8 8zm0 0"/><path d="m256 64h16v80h-16zm0 0"/><path d="m312 144h16v-64h24v-16h-64v16h24zm0 0"/><path d="m64 384h288v-192h-288zm16-176h256v160h-256zm0 0"/><path d="m293.65625 306.34375-28.082031-28.078125-37.148438 18.535156 7.148438 14.320313 18.328125-9.167969c-6.15625 20.199219-24.78125 34.015625-45.902344 34.046875-16.289062.082031-31.660156-7.546875-41.441406-20.574219l-13.117188 9.148438c12.816406 17.265625 33.054688 27.4375 54.558594 27.425781 28.78125-.054688 53.996094-19.292969 61.648438-47.039062l12.695312 12.695312zm0 0"/><path d="m180.425781 264.800781-18.328125 9.167969c6.1875-20.171875 24.804688-33.949219 45.902344-33.96875 16.34375-1.195312 32.0625 6.496094 41.152344 20.128906l13.695312-8.257812c-11.886718-18.535156-32.867187-29.199219-54.847656-27.871094-28.78125.054688-53.996094 19.292969-61.648438 47.039062l-12.695312-12.695312-11.3125 11.3125 28.082031 28.078125 37.148438-18.535156zm0 0"/><path d="m96 224h16v16h-16zm0 0"/><path d="m288 336h32v16h-32zm0 0"/></g></defs><g fi:class="KUsePattern" opacity="0.07"><pattern id="pattern_L1_0" width="350" height="350" patternUnits="userSpaceOnUse"><use xlink:href="#L1_0" x="-350" y="-350"/><use xlink:href="#L1_0" x="0" y="-350"/><use xlink:href="#L1_0" x="350" y="-350"/><use xlink:href="#L1_0" x="-350" y="0"/><use xlink:href="#L1_0" x="0" y="0"/><use xlink:href="#L1_0" x="350" y="0"/><use xlink:href="#L1_0" x="-350" y="350"/><use xlink:href="#L1_0" x="0" y="350"/><use xlink:href="#L1_0" x="350" y="350"/></pattern><rect x="0" y="0" width="100%" height="100%" fill="url(#pattern_L1_0)"/></g><g fi:class="KUsePattern" opacity="0.06"><pattern id="pattern_L1_1" width="350" height="350" patternUnits="userSpaceOnUse"><use xlink:href="#L1_1" x="-350" y="-350"/><use xlink:href="#L1_1" x="0" y="-350"/><use xlink:href="#L1_1" x="350" y="-350"/><use xlink:href="#L1_1" x="-350" y="0"/><use xlink:href="#L1_1" x="0" y="0"/><use xlink:href="#L1_1" x="350" y="0"/><use xlink:href="#L1_1" x="-350" y="350"/><use xlink:href="#L1_1" x="0" y="350"/><use xlink:href="#L1_1" x="350" y="350"/></pattern><rect x="0" y="0" width="100%" height="100%" fill="url(#pattern_L1_1)"/></g><g fi:class="KUsePattern" opacity="0.05"><pattern id="pattern_L1_3" width="350" height="350" patternUnits="userSpaceOnUse"><use xlink:href="#L1_3" x="-350" y="-350"/><use xlink:href="#L1_3" x="0" y="-350"/><use xlink:href="#L1_3" x="350" y="-350"/><use xlink:href="#L1_3" x="-350" y="0"/><use xlink:href="#L1_3" x="0" y="0"/><use xlink:href="#L1_3" x="350" y="0"/><use xlink:href="#L1_3" x="-350" y="350"/><use xlink:href="#L1_3" x="0" y="350"/><use xlink:href="#L1_3" x="350" y="350"/></pattern><rect x="0" y="0" width="100%" height="100%" fill="url(#pattern_L1_3)"/></g><g fi:class="KUsePattern" opacity="0.07"><pattern id="pattern_L1_4" width="350" height="350" patternUnits="userSpaceOnUse"><use xlink:href="#L1_4" x="-350" y="-350"/><use xlink:href="#L1_4" x="0" y="-350"/><use xlink:href="#L1_4" x="350" y="-350"/><use xlink:href="#L1_4" x="-350" y="0"/><use xlink:href="#L1_4" x="0" y="0"/><use xlink:href="#L1_4" x="350" y="0"/><use xlink:href="#L1_4" x="-350" y="350"/><use xlink:href="#L1_4" x="0" y="350"/><use xlink:href="#L1_4" x="350" y="350"/></pattern><rect x="0" y="0" width="100%" height="100%" fill="url(#pattern_L1_4)"/></g><g fi:class="KUsePattern" opacity="0.07"><pattern id="pattern_L1_5" width="350" height="350" patternUnits="userSpaceOnUse"><use xlink:href="#L1_5" x="-350" y="-350"/><use xlink:href="#L1_5" x="0" y="-350"/><use xlink:href="#L1_5" x="350" y="-350"/><use xlink:href="#L1_5" x="-350" y="0"/><use xlink:href="#L1_5" x="0" y="0"/><use xlink:href="#L1_5" x="350" y="0"/><use xlink:href="#L1_5" x="-350" y="350"/><use xlink:href="#L1_5" x="0" y="350"/><use xlink:href="#L1_5" x="350" y="350"/></pattern><rect x="0" y="0" width="100%" height="100%" fill="url(#pattern_L1_5)"/></g><g fi:class="KUsePattern" opacity="0.06"><pattern id="pattern_L1_7" width="350" height="350" patternUnits="userSpaceOnUse"><use xlink:href="#L1_7" x="-350" y="-350"/><use xlink:href="#L1_7" x="0" y="-350"/><use xlink:href="#L1_7" x="350" y="-350"/><use xlink:href="#L1_7" x="-350" y="0"/><use xlink:href="#L1_7" x="0" y="0"/><use xlink:href="#L1_7" x="350" y="0"/><use xlink:href="#L1_7" x="-350" y="350"/><use xlink:href="#L1_7" x="0" y="350"/><use xlink:href="#L1_7" x="350" y="350"/></pattern><rect x="0" y="0" width="100%" height="100%" fill="url(#pattern_L1_7)"/></g><g fi:class="KUsePattern" opacity="0.07"><pattern id="pattern_L1_8" width="350" height="350" patternUnits="userSpaceOnUse"><use xlink:href="#L1_8" x="-350" y="-350"/><use xlink:href="#L1_8" x="0" y="-350"/><use xlink:href="#L1_8" x="350" y="-350"/><use xlink:href="#L1_8" x="-350" y="0"/><use xlink:href="#L1_8" x="0" y="0"/><use xlink:href="#L1_8" x="350" y="0"/><use xlink:href="#L1_8" x="-350" y="350"/><use xlink:href="#L1_8" x="0" y="350"/><use xlink:href="#L1_8" x="350" y="350"/></pattern><rect x="0" y="0" width="100%" height="100%" fill="url(#pattern_L1_8)"/></g><g fi:class="KUsePattern" opacity="0.08"><pattern id="pattern_L1_11" width="350" height="350" patternUnits="userSpaceOnUse"><use xlink:href="#L1_11" x="-350" y="-350"/><use xlink:href="#L1_11" x="0" y="-350"/><use xlink:href="#L1_11" x="350" y="-350"/><use xlink:href="#L1_11" x="-350" y="0"/><use xlink:href="#L1_11" x="0" y="0"/><use xlink:href="#L1_11" x="350" y="0"/><use xlink:href="#L1_11" x="-350" y="350"/><use xlink:href="#L1_11" x="0" y="350"/><use xlink:href="#L1_11" x="350" y="350"/></pattern><rect x="0" y="0" width="100%" height="100%" fill="url(#pattern_L1_11)"/></g><g fi:class="KUsePattern" opacity="0.04"><pattern id="pattern_L1_12" width="350" height="350" patternUnits="userSpaceOnUse"><use xlink:href="#L1_12" x="-350" y="-350"/><use xlink:href="#L1_12" x="0" y="-350"/><use xlink:href="#L1_12" x="350" y="-350"/><use xlink:href="#L1_12" x="-350" y="0"/><use xlink:href="#L1_12" x="0" y="0"/><use xlink:href="#L1_12" x="350" y="0"/><use xlink:href="#L1_12" x="-350" y="350"/><use xlink:href="#L1_12" x="0" y="350"/><use xlink:href="#L1_12" x="350" y="350"/></pattern><rect x="0" y="0" width="100%" height="100%" fill="url(#pattern_L1_12)"/></g><g fi:class="KUsePattern" opacity="0.07"><pattern id="pattern_L1_13" width="350" height="350" patternUnits="userSpaceOnUse"><use xlink:href="#L1_13" x="-350" y="-350"/><use xlink:href="#L1_13" x="0" y="-350"/><use xlink:href="#L1_13" x="350" y="-350"/><use xlink:href="#L1_13" x="-350" y="0"/><use xlink:href="#L1_13" x="0" y="0"/><use xlink:href="#L1_13" x="350" y="0"/><use xlink:href="#L1_13" x="-350" y="350"/><use xlink:href="#L1_13" x="0" y="350"/><use xlink:href="#L1_13" x="350" y="350"/></pattern><rect x="0" y="0" width="100%" height="100%" fill="url(#pattern_L1_13)"/></g></svg>