<?xml version="1.0" encoding="UTF-8"?>
<svg width="100px" height="89px" viewBox="0 0 100 89" version="1.1" xmlns="http://www.w3.org/2000/svg" xmlns:xlink="http://www.w3.org/1999/xlink">
    <!-- Generator: Sketch 52.6 (67491) - http://www.bohemiancoding.com/sketch -->
    <title>payment-failure</title>
    <desc>Created with Sketch.</desc>
    <g id="New-Designs" stroke="none" stroke-width="1" fill="none" fill-rule="evenodd">
        <g id="error-page" transform="translate(-690.000000, -260.000000)" fill="#F54D61">
            <g id="payment-failure" transform="translate(690.000000, 260.000000)">
                <path d="M92.2700587,0 L7.72994129,0 C3.46771037,0 0,3.45527203 0,7.70221473 L0,57.6203659 C0,61.8673086 3.46771037,65.3225806 7.72994129,65.3225806 L39.0410959,65.3225806 C39.8516634,65.3225806 40.5088063,64.6677949 40.5088063,63.8601348 C40.5088063,63.0524747 39.8516634,62.397689 39.0410959,62.397689 L7.72994129,62.397689 C5.08630137,62.397689 2.93542074,60.2545234 2.93542074,57.6203659 L2.93542074,7.70221473 C2.93542074,5.06805729 5.08630137,2.92489167 7.72994129,2.92489167 L92.2700587,2.92489167 C94.9136986,2.92489167 97.0645793,5.06805729 97.0645793,7.70221473 L97.0645793,57.6203659 C97.0645793,58.428026 97.7217221,59.0828117 98.5322896,59.0828117 C99.3428571,59.0828117 100,58.428026 100,57.6203659 L100,7.70221473 C100,3.45527203 96.5322896,0 92.2700587,0 Z" id="Path"></path>
                <path d="M40.4519172,51.6129032 L11.9674376,51.6129032 C11.1481132,51.6129032 10.483871,52.1545161 10.483871,52.8225806 C10.483871,53.4906452 11.1481132,54.0322581 11.9674376,54.0322581 L40.4519172,54.0322581 C41.2712416,54.0322581 41.9354839,53.4906452 41.9354839,52.8225806 C41.9354839,52.1545161 41.2712416,51.6129032 40.4519172,51.6129032 Z" id="Path"></path>
                <path d="M29.0322581,24.4742752 L29.0322581,18.2676603 C29.0322581,15.7543691 26.9739728,13.7096774 24.4439728,13.7096774 L15.0721562,13.7096774 C12.5421562,13.7096774 10.483871,15.7543691 10.483871,18.2676603 L10.483871,24.4742752 C10.483871,26.9875664 12.5421562,29.0322581 15.0721562,29.0322581 L24.4439728,29.0322581 C26.9739728,29.0322581 29.0322581,26.9875664 29.0322581,24.4742752 Z M13.4125637,24.4742752 L13.4125637,22.8256431 L15.0721562,22.8256431 C15.8808659,22.8256431 16.5365025,22.1743365 16.5365025,21.3709677 C16.5365025,20.567599 15.8808659,19.9162924 15.0721562,19.9162924 L13.4125637,19.9162924 L13.4125637,18.2676603 C13.4125637,17.3585851 14.1570374,16.6190282 15.0721562,16.6190282 L18.2937182,16.6190282 L18.2937182,26.1229073 L15.0721562,26.1229073 C14.1570374,26.1229073 13.4125637,25.3833503 13.4125637,24.4742752 Z M24.4439728,26.1229073 L21.2224109,26.1229073 L21.2224109,16.6190282 L24.4439728,16.6190282 C25.3590917,16.6190282 26.1035654,17.3585851 26.1035654,18.2676603 L26.1035654,19.9162924 L24.4439728,19.9162924 C23.6352632,19.9162924 22.9796265,20.567599 22.9796265,21.3709677 C22.9796265,22.1743365 23.6352632,22.8256431 24.4439728,22.8256431 L26.1035654,22.8256431 L26.1035654,24.4742752 C26.1035654,25.3833503 25.3590917,26.1229073 24.4439728,26.1229073 Z" id="Shape" fill-rule="nonzero"></path>
                <path d="M10.483871,43.7955255 C10.483871,44.5497919 11.0254839,45.1612903 11.6935484,45.1612903 C12.3616129,45.1612903 12.9032258,44.5497919 12.9032258,43.7955255 L12.9032258,40.8818939 C12.9032258,40.1276275 12.3616129,39.516129 11.6935484,39.516129 C11.0254839,39.516129 10.483871,40.1276275 10.483871,40.8818939 L10.483871,43.7955255 Z" id="Path"></path>
                <path d="M16.1290323,40.8818939 L16.1290323,43.7955255 C16.1290323,44.5497919 16.6706452,45.1612903 17.3387097,45.1612903 C18.0067742,45.1612903 18.5483871,44.5497919 18.5483871,43.7955255 L18.5483871,40.8818939 C18.5483871,40.1276275 18.0067742,39.516129 17.3387097,39.516129 C16.6706452,39.516129 16.1290323,40.1276275 16.1290323,40.8818939 Z" id="Path"></path>
                <path d="M20.9677419,40.8818939 L20.9677419,43.7955255 C20.9677419,44.5497919 21.5093548,45.1612903 22.1774194,45.1612903 C22.8454839,45.1612903 23.3870968,44.5497919 23.3870968,43.7955255 L23.3870968,40.8818939 C23.3870968,40.1276275 22.8454839,39.516129 22.1774194,39.516129 C21.5093548,39.516129 20.9677419,40.1276275 20.9677419,40.8818939 Z" id="Path"></path>
                <path d="M25,40.8818939 L25,43.7955255 C25,44.5497919 25.5416129,45.1612903 26.2096774,45.1612903 C26.8777419,45.1612903 27.4193548,44.5497919 27.4193548,43.7955255 L27.4193548,40.8818939 C27.4193548,40.1276275 26.8777419,39.516129 26.2096774,39.516129 C25.5416129,39.516129 25,40.1276275 25,40.8818939 Z" id="Path"></path>
                <path d="M33.8709677,43.7955255 L33.8709677,40.8818939 C33.8709677,40.1276275 33.3293548,39.516129 32.6612903,39.516129 C31.9932258,39.516129 31.4516129,40.1276275 31.4516129,40.8818939 L31.4516129,43.7955255 C31.4516129,44.5497919 31.9932258,45.1612903 32.6612903,45.1612903 C33.3293548,45.1612903 33.8709677,44.5497919 33.8709677,43.7955255 Z" id="Path"></path>
                <path d="M38.7096774,43.7955255 L38.7096774,40.8818939 C38.7096774,40.1276275 38.1680645,39.516129 37.5,39.516129 C36.8319355,39.516129 36.2903226,40.1276275 36.2903226,40.8818939 L36.2903226,43.7955255 C36.2903226,44.5497919 36.8319355,45.1612903 37.5,45.1612903 C38.1680645,45.1612903 38.7096774,44.5497919 38.7096774,43.7955255 Z" id="Path"></path>
                <path d="M42.3387097,39.516129 C41.6706452,39.516129 41.1290323,40.1276275 41.1290323,40.8818939 L41.1290323,43.7955255 C41.1290323,44.5497919 41.6706452,45.1612903 42.3387097,45.1612903 C43.0067742,45.1612903 43.5483871,44.5497919 43.5483871,43.7955255 L43.5483871,40.8818939 C43.5483871,40.1276275 43.0067742,39.516129 42.3387097,39.516129 Z" id="Path"></path>
                <path d="M48.3870968,43.7955255 L48.3870968,40.8818939 C48.3870968,40.1276275 47.8454839,39.516129 47.1774194,39.516129 C46.5093548,39.516129 45.9677419,40.1276275 45.9677419,40.8818939 L45.9677419,43.7955255 C45.9677419,44.5497919 46.5093548,45.1612903 47.1774194,45.1612903 C47.8454839,45.1612903 48.3870968,44.5497919 48.3870968,43.7955255 Z" id="Path"></path>
                <path d="M81.7405385,29.0322581 C86.0279401,29.0322581 89.516129,25.595345 89.516129,21.3709677 C89.516129,17.1465904 86.0279401,13.7096774 81.7405385,13.7096774 L72.2917196,13.7096774 C68.004318,13.7096774 64.516129,17.1465904 64.516129,21.3709677 C64.516129,25.595345 68.004318,29.0322581 72.2917196,29.0322581 L81.7405385,29.0322581 Z M67.4688849,21.3709677 C67.4688849,18.7508065 69.6324676,16.6190282 72.2917196,16.6190282 L81.7405385,16.6190282 C84.3997904,16.6190282 86.5633731,18.7508065 86.5633731,21.3709677 C86.5633731,23.991129 84.3997904,26.1229073 81.7405385,26.1229073 L72.2917196,26.1229073 C69.6324676,26.1229073 67.4688849,23.991129 67.4688849,21.3709677 Z" id="Shape" fill-rule="nonzero"></path>
                <path d="M68.5483871,38.7096774 C54.7632891,38.7096774 43.5483871,49.9245794 43.5483871,63.7096774 C43.5483871,77.4947755 54.7632891,88.7096774 68.5483871,88.7096774 C82.3334851,88.7096774 93.5483871,77.4947755 93.5483871,63.7096774 C93.5483871,49.9245794 82.3334851,38.7096774 68.5483871,38.7096774 Z M68.5483871,85.7685009 C56.3850538,85.7685009 46.4895636,75.8730108 46.4895636,63.7096774 C46.4895636,51.5463441 56.3850538,41.6508539 68.5483871,41.6508539 C80.7117204,41.6508539 90.6072106,51.5463441 90.6072106,63.7096774 C90.6072106,75.8730108 80.7117204,85.7685009 68.5483871,85.7685009 Z" id="Shape" fill-rule="nonzero"></path>
                <path d="M81.0191801,51.2388836 C80.442603,50.6623076 79.5077568,50.6623076 78.9313766,51.2388836 L68.9516129,61.2186276 L58.9718492,51.2388836 C58.3952721,50.6623076 57.4604259,50.6623076 56.8840457,51.2388836 C56.3074686,51.8154595 56.3074686,52.7503039 56.8840457,53.326683 L66.8638094,63.306427 L56.8840457,73.2861711 C56.3074686,73.862747 56.3074686,74.7975914 56.8840457,75.3739704 C57.1722358,75.66216 57.5501901,75.8064516 57.9279475,75.8064516 C58.3057048,75.8064516 58.6836591,75.6623568 58.9718492,75.3739704 L68.9516129,65.3942264 L78.9313766,75.3739704 C79.2195667,75.66216 79.597521,75.8064516 79.9752784,75.8064516 C80.3530357,75.8064516 80.73099,75.6623568 81.0191801,75.3739704 C81.5957572,74.7973945 81.5957572,73.8625501 81.0191801,73.2861711 L71.0394164,63.306427 L81.0191801,53.326683 C81.5957572,52.7503039 81.5957572,51.8152627 81.0191801,51.2388836 Z" id="Path"></path>
            </g>
        </g>
    </g>
</svg>