<?xml version="1.0" encoding="UTF-8"?>
<svg width="50px" height="59px" viewBox="0 0 50 59" version="1.1" xmlns="http://www.w3.org/2000/svg" xmlns:xlink="http://www.w3.org/1999/xlink">
    <!-- Generator: Sketch 52.6 (67491) - http://www.bohemiancoding.com/sketch -->
    <title>shield</title>
    <desc>Created with Sketch.</desc>
    <g id="New-Designs" stroke="none" stroke-width="1" fill="none" fill-rule="evenodd">
        <g id="Landing-Page" transform="translate(-1031.000000, -2320.000000)" fill="#FFFFFF">
            <g id="support-to-love" transform="translate(0.000000, 2121.000000)">
                <g id="Group-11" transform="translate(245.000000, 199.000000)">
                    <g id="Group-9-Copy-2" transform="translate(671.000000, 0.000000)">
                        <g id="shield" transform="translate(115.000000, 0.000000)">
                            <path d="M48.7500762,10.4477246 C44.8486638,10.4477246 41.8877998,8.20249805 38.7525605,5.82578906 C35.1507971,3.09508008 31.0685642,0 25.0001172,0 C18.9316702,0 14.8494373,3.09508008 11.2474394,5.82578906 C8.11243455,8.20249805 5.15145336,10.4477246 1.25004102,10.4477246 C0.55992275,10.4477246 0,10.998084 0,11.6769297 C0,26.0287949 1.81769815,35.5851816 5.89383733,42.6627617 C9.94126553,49.6906758 15.9662359,54.0614004 24.3750381,58.8353301 C24.5683978,58.9451484 24.7841403,59 25,59 C25.2158597,59 25.4316022,58.9450332 25.6249619,58.8353301 C34.0338813,54.0614004 40.0587345,49.690791 44.106397,42.6627617 C48.1823018,35.5851816 50,26.0287949 50,11.6769297 C50.0001172,10.998084 49.4401944,10.4477246 48.7500762,10.4477246 Z M25.0001172,56.3496094 C9.92204675,47.7039199 2.70152766,40.2557461 2.50430079,12.8443691 C6.62274472,12.4363242 9.74532772,10.068834 12.7741606,7.77255859 C16.2200644,5.16008008 19.7835075,2.45829492 25.0001172,2.45829492 C30.2166097,2.45829492 33.7799356,5.15984961 37.2260738,7.77255859 C40.2546723,10.0689492 43.3774896,12.436209 47.4959336,12.8443691 C47.2987067,40.2557461 40.0781876,47.7039199 25.0001172,56.3496094 Z" id="Shape" fill-rule="nonzero"></path>
                            <path d="M9.85590859,14.4846668 C9.5342865,14.0413268 8.77883767,13.8712366 8.16827103,14.1046853 C8.01308193,14.1640468 7.85566748,14.2223027 7.69778453,14.2788577 C7.07878498,14.500145 6.8240406,15.0439232 7.12867974,15.4934715 C7.3460616,15.8141765 7.7894925,16 8.25049198,16 C8.43566478,16 8.62399994,15.9700641 8.80144257,15.9066205 C8.97982219,15.8428367 9.15726483,15.7770968 9.33236498,15.7101664 C9.94304874,15.4765475 10.1772964,14.9280068 9.85590859,14.4846668 Z" id="Path"></path>
                            <path d="M42.8948876,23.9947957 C42.9250426,23.9982258 42.9551977,24 42.9849839,24 C43.4879372,24 43.9172089,23.5077231 43.9634098,22.8524578 C43.9749369,22.6913619 43.9858186,22.5295563 43.9964236,22.3684604 C44.0423478,21.6740448 43.6406491,21.0636072 43.0992412,21.0047043 C42.5586632,20.9449734 42.0818996,21.4610244 42.0361598,22.15544 C42.0258314,22.3113317 42.0152264,22.4678147 42.0040681,22.6239429 C41.9551007,23.3180037 42.3538485,23.9317531 42.8948876,23.9947957 Z" id="Path"></path>
                            <path d="M12.2682144,14 C12.5250009,14 12.7844005,13.921764 13.0086433,13.7589712 C13.7425398,13.2269426 14.4574326,12.6806027 15.1485709,12.1519135 C18.3823948,9.67960882 21.1750971,7.54433902 24.7330517,7.54433902 C25.4327416,7.54433902 26,6.97474292 26,6.27216951 C26,5.56983462 25.4327416,5 24.7330517,5 C20.3201713,5 17.062474,7.49055179 13.6135526,10.1276768 C12.9348855,10.6467057 12.2331764,11.1831469 11.52541,11.6962128 C10.9579141,12.1076672 10.8303522,12.9026688 11.2398804,13.4722649 C11.4875215,13.8169326 11.8750768,14 12.2682144,14 Z" id="Path"></path>
                            <path d="M25.0253027,50.2918863 C21.8626155,48.3249307 18.0426668,45.6836638 15.1784294,42.2775152 C14.7370111,41.7523237 13.9570561,41.687931 13.4366227,42.1329531 C12.9159576,42.578209 12.8518882,43.3649444 13.2933066,43.890136 C16.5839008,47.8038295 20.9491923,50.7177425 24.3843771,52.8192098 C24.3906335,52.8228326 24.3973532,52.8255205 24.4036095,52.8291433 C24.4332691,52.8464393 24.4636239,52.8615149 24.4945579,52.8763568 C24.5143696,52.8858229 24.5340655,52.8963407 24.5541089,52.9046381 C24.5819147,52.9160909 24.6100682,52.9250895 24.6386851,52.9345556 C24.6625518,52.9425024 24.6860709,52.9516179 24.7101694,52.9580454 C24.7360057,52.9649405 24.7623054,52.9690308 24.7883734,52.9741728 C24.8146731,52.9795486 24.8409729,52.9860931 24.8676202,52.9894821 C24.9050422,52.9943905 24.9425802,52.9955591 24.9805816,52.9970784 C24.9950638,52.9975458 25.009546,53 25.0240282,53 C25.0244917,53 25.0249551,53 25.0253027,53 C25.0257661,53 25.0263454,53 25.0265771,53 C25.0410593,53 25.0555416,52.9975458 25.0700238,52.9970784 C25.1079093,52.9955591 25.1457948,52.9945073 25.1832169,52.9894821 C25.2095166,52.9860931 25.2353529,52.9795486 25.2614209,52.9744066 C25.2879524,52.9692645 25.3145997,52.9651742 25.3406677,52.9580454 C25.3645344,52.9517347 25.3880536,52.9427361 25.4115727,52.9349062 C25.4399579,52.9254401 25.4685748,52.9164415 25.4966123,52.904755 C25.5166558,52.8965744 25.5361199,52.8860566 25.5559316,52.8764736 C25.5868656,52.8616318 25.6174521,52.8465562 25.64688,52.8292602 C25.6534839,52.8256374 25.659856,52.8229495 25.6661124,52.8193266 C29.1012972,50.7179763 33.4664728,47.8041801 36.7571829,43.8900191 C40.5095865,39.4256575 42.8748242,33.3843189 43.9877545,25.4205504 C44.0829897,24.7387597 43.6123752,24.1085065 42.9365764,24.0123266 C42.2599666,23.9163804 41.6356088,24.3909694 41.5402578,25.0726432 C40.4944091,32.5556289 38.3133854,38.1836158 34.8720601,42.2778658 C32.0081703,45.6836638 28.1885691,48.3249307 25.0253027,50.2918863 Z" id="Path"></path>
                            <path d="M33.0661361,15.1851375 L20.0273704,28.2072557 L16.9334538,25.1169105 C16.1681769,24.3528379 15.1480422,23.932007 14.0607655,23.932007 C12.9732546,23.932007 11.9531198,24.3528379 11.1874915,25.1171445 C9.6040914,26.6994734 9.6040914,29.2736103 11.1879602,30.855471 L17.1635875,36.8227033 L17.2153793,36.8736103 C17.2229958,36.880983 17.2307294,36.8882387 17.2383459,36.8956115 L17.2908407,36.9444119 C17.3000976,36.9529549 17.3093545,36.961498 17.318963,36.9696899 L17.3727468,37.0167349 C17.3809491,37.0241077 17.3893858,37.0311293 17.3978225,37.038151 L17.4523093,37.0832066 C17.4584025,37.0885898 17.4648472,37.0933879 17.4710575,37.0985372 L17.5264818,37.1428906 C17.5366761,37.1509655 17.5469876,37.1590404 17.5575334,37.1667642 L17.6143638,37.2094792 C17.6223318,37.2153306 17.6301826,37.221182 17.6382677,37.2267993 L17.6953325,37.2675249 C17.7038863,37.2736103 17.7124402,37.2794617 17.720994,37.285196 L17.7791134,37.3245173 C17.7883703,37.3306027 17.7976272,37.3368051 17.8070013,37.3427736 L17.8658236,37.3803394 C17.8737916,37.3852545 17.8816424,37.3902867 17.8897276,37.3949678 L17.9493702,37.4310123 C17.9573381,37.4359274 17.9651889,37.4407256 17.9732741,37.4454067 L18.0332682,37.4796957 C18.0449858,37.4866004 18.0568206,37.4931539 18.0686554,37.4994734 L18.1297041,37.53189 C18.1360316,37.5352838 18.1424763,37.5387946 18.148921,37.5418373 L18.2104384,37.5733177 C18.2212186,37.578935 18.2322332,37.5843183 18.2431305,37.5897016 L18.305351,37.6191925 C18.3141392,37.6232885 18.3229274,37.6271504 18.3317156,37.6314804 L18.3634704,37.6456407 C18.3857338,37.6564073 18.4083488,37.6663546 18.4315496,37.6758338 L18.4950591,37.7016969 C18.5009179,37.7041545 18.5065423,37.706261 18.5124011,37.7086015 L18.5761449,37.7334114 C18.5856362,37.7372733 18.5953618,37.7410181 18.6050874,37.744646 L18.6698857,37.7681685 C18.6800801,37.7717964 18.6906259,37.7755413 18.7011717,37.778935 L18.7324578,37.7894675 C18.7536666,37.7973084 18.775227,37.80433 18.7972561,37.8108836 L18.8622888,37.8306612 C18.8715457,37.8332358 18.8808026,37.8362785 18.8901767,37.8386191 L18.9557953,37.8569924 C18.9648179,37.85945 18.9739576,37.8619075 18.9832145,37.8643651 L19.0493018,37.8812171 C19.05809,37.8834406 19.0672297,37.8855471 19.0761351,37.8878877 L19.1422224,37.9029842 C19.1514793,37.9052077 19.1609706,37.9073142 19.170579,37.9093037 L19.2366663,37.9228789 C19.2494385,37.9255705 19.2620935,37.927794 19.2747485,37.9302516 L19.3074407,37.9358689 C19.3268919,37.9397308 19.3466946,37.9434757 19.3668489,37.9464014 L19.4335221,37.9565828 C19.4434821,37.9583382 19.4535592,37.9595085 19.4635192,37.9609128 L19.5306611,37.9694558 C19.5401523,37.9707431 19.5498779,37.9719134 19.5593692,37.9728496 L19.5911239,37.9762434 C19.6120984,37.978935 19.6330729,37.9813926 19.654399,37.983148 L19.7220096,37.9887654 C19.7347817,37.9898186 19.7474368,37.9907548 19.7600918,37.9912229 L19.7918465,37.9929783 C19.8125866,37.9947338 19.8335612,37.995904 19.8545357,37.9963721 L19.9221463,37.9985957 C19.9290596,37.9988297 19.9355043,37.9988297 19.9424177,37.9990638 L20.0095596,38 C20.0156528,38 20.0215116,38 20.0277219,38 C20.033815,38 20.0396738,38 20.0458842,38 L20.1134948,37.9990638 C20.1204081,37.9988297 20.1268528,37.9988297 20.1337662,37.9985957 L20.2016112,37.9963721 C20.2225857,37.995904 20.2435602,37.9946167 20.2643003,37.9929783 L20.2960551,37.9912229 C20.3090616,37.9905208 20.321951,37.9897016 20.3349575,37.9886483 L20.4020994,37.983031 C20.4230739,37.9812756 20.4438141,37.9791691 20.4645542,37.9763604 L20.4963089,37.9729666 C20.5055658,37.9720304 20.5148228,37.9709772 20.5239625,37.9698069 L20.5915731,37.9610298 C20.6021189,37.9597425 20.6125476,37.9583382 20.6228591,37.9566998 L20.6895323,37.9465184 C20.7100381,37.9433587 20.7305439,37.9396138 20.750581,37.9355178 L20.78257,37.9299005 C20.7951079,37.9279111 20.8074114,37.9255705 20.8197149,37.9227618 L20.8855678,37.9091867 C20.8941217,37.9074312 20.9026755,37.9057929 20.9112294,37.9038034 L20.9779025,37.8884728 C20.9884484,37.8860152 20.998877,37.8835576 21.0094229,37.880866 L21.0750415,37.864014 C21.0838297,37.8617905 21.0923835,37.85945 21.1009374,37.8568754 L21.1663216,37.8386191 C21.1753442,37.8361615 21.1846011,37.8334699 21.1933893,37.8307782 L21.2585392,37.8110006 C21.279045,37.8046811 21.2995508,37.7980105 21.3195879,37.7907548 L21.3518113,37.7802224 C21.3632946,37.7763604 21.3747778,37.7723815 21.3861439,37.7682855 L21.4509423,37.744763 C21.4606679,37.7411352 21.4703935,37.7373903 21.4798848,37.7335284 L21.5436285,37.7087185 C21.5507763,37.7060269 21.5578068,37.7031012 21.5648374,37.7001755 L21.6278781,37.6743125 C21.6481496,37.6661205 21.6680695,37.6569924 21.6877551,37.6477472 L21.7202129,37.6333528 C21.7307587,37.6287888 21.7411874,37.6238736 21.7517332,37.6189585 L21.8137193,37.5894675 C21.8219217,37.5856056 21.8303583,37.5813926 21.8385607,37.5771796 L21.9000781,37.5461673 C21.9198809,37.53622 21.9395664,37.5256875 21.9586661,37.514687 L21.9906552,37.4976009 C21.9996777,37.4926858 22.0088175,37.4876536 22.0174885,37.4825044 L22.0779514,37.4482153 C22.087677,37.442598 22.0971682,37.4369807 22.1066595,37.4311293 L22.1663021,37.3950848 C22.175559,37.3894675 22.1848159,37.3836161 22.19419,37.3777648 L22.252778,37.3401989 C22.2594571,37.336103 22.2659017,37.3316559 22.2722293,37.3272089 L22.3308173,37.2881217 C22.3407772,37.2812171 22.3508544,37.2745465 22.36058,37.2674078 L22.4176447,37.2266823 C22.4273704,37.2197776 22.437096,37.212873 22.4465872,37.2055003 L22.5029489,37.1627853 C22.5098623,37.157402 22.5165413,37.1522528 22.5234547,37.1469865 L22.578879,37.1031012 C22.593526,37.0916325 22.6078215,37.0795787 22.622117,37.0675249 L22.6536373,37.0414277 C22.6646519,37.0324166 22.6756664,37.0231714 22.6860951,37.0138092 L22.7396445,36.9665301 C22.7467923,36.9604447 22.7534713,36.9542422 22.7603847,36.9480398 L22.8131139,36.8992393 C22.8209647,36.8921006 22.828464,36.8848449 22.8360804,36.8774722 L22.8878723,36.8272674 C22.8993555,36.8162668 22.9103701,36.8050322 22.9211503,36.7937975 L38.8125671,20.9227618 C40.3962015,19.340433 40.3957328,16.7662961 38.8116297,15.1849035 C38.0465872,14.4208309 37.0264524,14 35.9391758,14 C34.8516648,14.000117 33.8314129,14.4209479 33.0661361,15.1851375 Z M37.0442632,19.1577531 L21.1324578,35.0489175 C21.1298799,35.0518432 21.1268333,35.0545348 21.1242554,35.0571094 L21.0080168,35.1604447 C21.0067278,35.161498 21.0054389,35.1625512 21.0039156,35.1638385 L20.8553364,35.2689292 L20.6441851,35.3783499 C20.6437164,35.378584 20.6428962,35.378818 20.6424275,35.3790521 L20.5025193,35.4301931 C20.500996,35.4306612 20.4995899,35.4312463 20.4981838,35.4317145 L20.2823455,35.4821533 C20.2798848,35.4826214 20.2771897,35.4830895 20.2744947,35.4836747 L20.1663412,35.4965477 C20.1637633,35.4970158 20.1609511,35.4972499 20.1584904,35.4976009 L20.0972073,35.5012288 C20.0946294,35.5012288 20.0920515,35.5014628 20.0893565,35.5016969 L20.0273704,35.5029842 L19.9881164,35.502282 L19.9658529,35.5018139 C19.9632751,35.5015799 19.9604628,35.5013458 19.957885,35.5013458 L19.8954301,35.497718 C19.8932038,35.4974839 19.8908603,35.4972499 19.8882824,35.4966647 L19.7807148,35.4837917 C19.777551,35.4833236 19.7746216,35.4825044 19.7714579,35.4820363 L19.5563226,35.4318315 C19.5560883,35.4318315 19.5556196,35.4315974 19.555268,35.4315974 L19.4325847,35.387244 L19.1977639,35.2677589 L18.9816912,35.1053248 L12.9553266,29.0898771 C12.3462455,28.4813341 12.3462455,27.4906963 12.9553266,26.8821533 C13.2482668,26.5895846 13.6408066,26.4284377 14.0607655,26.4284377 C14.480373,26.4284377 14.8729128,26.5895846 15.1659701,26.8819193 L19.1436285,30.8550029 C19.3779807,31.089292 19.6958793,31.2207139 20.0272532,31.2207139 C20.3586271,31.2207139 20.6765257,31.089292 20.9112294,30.855237 L34.8340884,16.9503803 C35.1270286,16.6578116 35.5195684,16.4966647 35.9389415,16.4966647 C36.3585489,16.4966647 36.7508544,16.6578116 37.044146,16.9506144 C37.65311,17.5590404 37.6533443,18.5492101 37.0442632,19.1577531 Z" id="Shape" fill-rule="nonzero"></path>
                        </g>
                    </g>
                </g>
            </g>
        </g>
    </g>
</svg>