<svg width="73" height="73" viewBox="0 0 73 73" fill="none" xmlns="http://www.w3.org/2000/svg">
<g filter="url(#filter0_d)">
<circle cx="36.5" cy="32.5" r="32.5" fill="#2075FB"/>
</g>
<path fill-rule="evenodd" clip-rule="evenodd" d="M45.327 17.8458C47.2674 19.3167 49.1 20.7059 51.5146 20.7059C51.9418 20.7059 52.2884 21.0466 52.2883 21.4669C52.2883 30.3513 51.1631 36.2672 48.6399 40.6486C46.1342 44.9992 42.4045 47.7049 37.199 50.6602C37.0793 50.7281 36.9458 50.7621 36.8121 50.7621C36.6785 50.7621 36.5449 50.7281 36.4252 50.6602C31.2198 47.7049 27.4901 44.9992 24.9845 40.6486C22.4612 36.2672 21.3359 30.3513 21.3359 21.4669C21.3359 21.0466 21.6826 20.7059 22.1098 20.7059C24.5246 20.7059 26.3574 19.3164 28.2978 17.8454L28.2986 17.8447L28.2991 17.8444C30.5288 16.154 33.0558 14.2383 36.8122 14.2383C40.5688 14.2383 43.0958 16.1542 45.3255 17.8446L45.3256 17.8447L45.327 17.8458ZM22.8844 22.1895C23.0065 39.1584 27.4763 43.7692 36.8104 49.1213C46.1444 43.7692 50.6143 39.1584 50.7364 22.1895C48.1868 21.9368 46.2537 20.4714 44.3788 19.0498C42.2455 17.4324 40.0396 15.76 36.8104 15.76C33.5812 15.76 31.3753 17.4324 29.2422 19.0496L29.2419 19.0498L29.2416 19.05C27.3667 20.4714 25.4338 21.9369 22.8844 22.1895Z" fill="white"/>
<path fill-rule="evenodd" clip-rule="evenodd" d="M27.4359 23.2048C27.2368 22.9304 26.7692 22.8251 26.3912 22.9696C26.2951 23.0063 26.1977 23.0424 26.0999 23.0774C25.7167 23.2144 25.559 23.551 25.7476 23.8293C25.8822 24.0278 26.1567 24.1429 26.4421 24.1429C26.5567 24.1429 26.6733 24.1243 26.7831 24.0851C26.8936 24.0456 27.0034 24.0049 27.1118 23.9635C27.4899 23.8188 27.6349 23.4793 27.4359 23.2048Z" fill="white"/>
<path fill-rule="evenodd" clip-rule="evenodd" d="M47.886 29.0922C47.9047 29.0943 47.9233 29.0954 47.9418 29.0954C48.2531 29.0954 48.5189 28.7907 48.5475 28.385C48.5546 28.2853 48.5613 28.1851 48.5679 28.0854C48.5963 27.6555 48.3477 27.2777 48.0125 27.2412C47.6779 27.2042 47.3827 27.5237 47.3544 27.9536C47.348 28.0501 47.3415 28.1469 47.3345 28.2436C47.3042 28.6732 47.5511 29.0532 47.886 29.0922Z" fill="white"/>
<path fill-rule="evenodd" clip-rule="evenodd" d="M28.9296 22.9049C29.0886 22.9049 29.2492 22.8565 29.388 22.7557C29.8423 22.4264 30.2848 22.0882 30.7127 21.7609C32.7146 20.2304 34.4434 18.9086 36.6459 18.9086C37.0791 18.9086 37.4302 18.556 37.4302 18.121C37.4302 17.6863 37.0791 17.3335 36.6459 17.3335C33.9142 17.3335 31.8975 18.8753 29.7624 20.5078C29.3423 20.8291 28.9079 21.1612 28.4698 21.4788C28.1185 21.7335 28.0395 22.2256 28.293 22.5782C28.4463 22.7916 28.6862 22.9049 28.9296 22.9049Z" fill="white"/>
<path fill-rule="evenodd" clip-rule="evenodd" d="M36.8231 45.3711C34.8653 44.1535 32.5006 42.5184 30.7275 40.4099C30.4542 40.0847 29.9714 40.0449 29.6492 40.3204C29.3269 40.596 29.2872 41.083 29.5605 41.4082C31.5975 43.8309 34.2998 45.6348 36.4264 46.9357C36.4303 46.9379 36.4344 46.9396 36.4383 46.9418C36.4566 46.9525 36.4754 46.9619 36.4946 46.9711C36.5068 46.9769 36.519 46.9834 36.5314 46.9886C36.5487 46.9957 36.5661 47.0012 36.5838 47.0071C36.5986 47.012 36.6131 47.0176 36.6281 47.0216C36.6441 47.0259 36.6603 47.0284 36.6765 47.0316C36.6928 47.0349 36.709 47.039 36.7255 47.0411C36.7487 47.0441 36.7719 47.0448 36.7955 47.0458C36.8044 47.0461 36.8134 47.0476 36.8224 47.0476C36.8226 47.0476 36.8229 47.0476 36.8231 47.0476C36.8234 47.0476 36.8238 47.0476 36.8239 47.0476C36.8329 47.0476 36.8419 47.0461 36.8508 47.0458C36.8743 47.0448 36.8977 47.0442 36.9209 47.0411C36.9372 47.039 36.9532 47.0349 36.9693 47.0318C36.9857 47.0286 37.0022 47.026 37.0184 47.0216C37.0331 47.0177 37.0477 47.0121 37.0623 47.0073C37.0798 47.0014 37.0975 46.9959 37.1149 46.9886C37.1273 46.9836 37.1394 46.9771 37.1516 46.9711C37.1708 46.9619 37.1897 46.9526 37.2079 46.9419C37.212 46.9397 37.216 46.938 37.2198 46.9358C39.3464 45.6349 42.0486 43.8311 44.0857 41.4081C46.4086 38.6444 47.8728 34.9046 48.5618 29.9746C48.6208 29.5525 48.3294 29.1624 47.9111 29.1028C47.4922 29.0435 47.1057 29.3372 47.0467 29.7592C46.3993 34.3916 45.0491 37.8755 42.9188 40.4101C41.1459 42.5184 38.7814 44.1535 36.8231 45.3711Z" fill="white"/>
<path fill-rule="evenodd" clip-rule="evenodd" d="M33.7309 31.6998L41.8025 23.6384C42.2762 23.1654 42.9078 22.9049 43.581 22.9048C44.2541 22.9048 44.8856 23.1653 45.3592 23.6383C46.3398 24.6173 46.3401 26.2108 45.3598 27.1903L35.5222 37.0152C35.5156 37.0222 35.5088 37.0291 35.5016 37.0359L35.4696 37.067C35.4649 37.0716 35.4602 37.0761 35.4554 37.0805L35.4227 37.1107C35.4184 37.1146 35.4143 37.1184 35.4099 37.1222L35.3767 37.1514C35.3703 37.1572 35.3635 37.1629 35.3566 37.1685L35.3371 37.1847C35.3283 37.1921 35.3194 37.1996 35.3104 37.2067L35.2761 37.2339L35.2634 37.2437L35.2285 37.2701C35.2226 37.2747 35.2166 37.2789 35.2106 37.2832L35.1752 37.3084C35.1711 37.3115 35.1668 37.3144 35.1625 37.3173C35.1606 37.3186 35.1587 37.3199 35.1568 37.3212L35.1205 37.3454C35.1166 37.3482 35.1126 37.3509 35.1085 37.3535L35.0722 37.3767L35.055 37.3875L35.018 37.4098C35.0122 37.4134 35.0063 37.4169 35.0003 37.4203L34.9628 37.4416C34.9575 37.4448 34.9518 37.4479 34.9462 37.4509L34.9264 37.4615C34.9146 37.4683 34.9024 37.4748 34.8902 37.481L34.8521 37.5002C34.847 37.5028 34.8418 37.5054 34.8367 37.5078L34.7983 37.526L34.7959 37.5272C34.7902 37.5298 34.7845 37.5325 34.7788 37.535L34.7587 37.5439C34.7465 37.5496 34.7342 37.5552 34.7216 37.5603L34.6826 37.5763C34.6783 37.5781 34.6739 37.5799 34.6695 37.5816L34.63 37.597C34.6242 37.5994 34.6181 37.6017 34.6121 37.6039L34.572 37.6185L34.5508 37.6259L34.5308 37.6324C34.5184 37.6369 34.5057 37.641 34.493 37.6449L34.4527 37.6572L34.4359 37.662L34.3954 37.6733C34.3902 37.6749 34.3849 37.6764 34.3794 37.6777L34.3388 37.6882L34.3193 37.6929L34.278 37.7024C34.2727 37.7036 34.2674 37.7046 34.2621 37.7057L34.2214 37.7141C34.2137 37.7159 34.2061 37.7173 34.1984 37.7185L34.1786 37.722C34.1662 37.7245 34.1535 37.7269 34.1408 37.7288L34.0995 37.7351C34.0931 37.7361 34.0867 37.737 34.0801 37.7378L34.0383 37.7432L34.0212 37.7452L34.0015 37.7473C33.9887 37.749 33.9758 37.7503 33.9628 37.7514L33.9213 37.7549C33.9132 37.7556 33.9052 37.7561 33.8972 37.7565L33.8775 37.7576C33.8647 37.7586 33.8517 37.7594 33.8387 37.7597L33.7967 37.7611L33.7842 37.7613L33.7423 37.7619H33.7311H33.7198L33.6783 37.7613L33.6657 37.7611L33.6239 37.7597C33.6109 37.7594 33.5979 37.7587 33.5851 37.7576L33.5654 37.7565C33.5576 37.7562 33.5497 37.7556 33.5418 37.755L33.5 37.7515C33.4868 37.7504 33.4738 37.7489 33.4608 37.7472L33.4411 37.7451C33.4353 37.7445 33.4292 37.7438 33.4234 37.743L33.3818 37.7377C33.38 37.7375 33.3782 37.7372 33.3764 37.737C33.372 37.7364 33.3676 37.7358 33.3632 37.7351L33.322 37.7287C33.3095 37.7269 33.2972 37.7246 33.2852 37.7222L33.2649 37.7188C33.2571 37.7172 33.2493 37.7159 33.2414 37.7142L33.2005 37.7058L33.1829 37.7019L33.142 37.6925L33.1254 37.6884L33.0845 37.678L33.0675 37.6734L33.0269 37.662C33.0233 37.6611 33.0198 37.6601 33.0163 37.659C33.0141 37.6584 33.0118 37.6577 33.0096 37.6571L32.9694 37.6449C32.9557 37.6408 32.9424 37.6365 32.9292 37.6316L32.9099 37.6251C32.9033 37.623 32.8968 37.6207 32.8905 37.6184L32.8504 37.6039C32.8444 37.6016 32.8384 37.5993 32.8325 37.5969L32.793 37.5815L32.7823 37.5773L32.743 37.5613C32.7286 37.5554 32.7146 37.5492 32.7008 37.5426L32.6812 37.5338C32.6775 37.532 32.6739 37.5303 32.6703 37.5287C32.6685 37.5279 32.6667 37.527 32.6648 37.5262L32.6263 37.5079L32.6233 37.5065C32.6176 37.5036 32.6118 37.5008 32.6061 37.4978L32.568 37.4783C32.564 37.4764 32.56 37.4742 32.5561 37.4721L32.5183 37.4521C32.511 37.4482 32.5037 37.4441 32.4964 37.4398L32.4593 37.4186L32.4445 37.4097L32.4076 37.3874C32.4026 37.3845 32.3977 37.3814 32.3928 37.3783L32.3563 37.3551L32.3391 37.3438L32.3031 37.3194L32.2872 37.3085L32.2519 37.2833C32.2477 37.2804 32.2437 37.2774 32.2396 37.2744L32.2371 37.2726L32.2019 37.2461C32.1954 37.2413 32.189 37.2363 32.1827 37.2313L32.1484 37.2039C32.1456 37.2015 32.1427 37.1993 32.1398 37.197C32.1388 37.1961 32.1378 37.1953 32.1368 37.1944L32.103 37.1665C32.0978 37.1622 32.0926 37.1578 32.0875 37.1532L32.0542 37.1241C32.0483 37.1191 32.0426 37.1138 32.0369 37.1085L32.0368 37.1085L32.0043 37.0783L31.9901 37.0646L31.958 37.0331L28.2588 33.3391C27.2784 32.3599 27.2784 30.7664 28.2586 29.7868C28.7325 29.3137 29.364 29.0532 30.0372 29.0532C30.7103 29.0532 31.3418 29.3137 31.8156 29.7867L33.7309 31.6998ZM34.4172 35.9349L44.2674 26.0975C44.6444 25.7208 44.6443 25.1079 44.2673 24.7312C44.0857 24.55 43.8429 24.4502 43.5831 24.4502C43.3235 24.4502 43.0805 24.55 42.8992 24.7311L34.2803 33.3388C34.135 33.4837 33.9382 33.5651 33.733 33.5651C33.5279 33.5651 33.3311 33.4837 33.186 33.3387L30.7237 30.8792C30.5423 30.6982 30.2993 30.5984 30.0395 30.5984C29.7795 30.5984 29.5365 30.6982 29.3552 30.8793C28.9781 31.256 28.9781 31.8693 29.3552 32.246L33.0858 35.9698L33.2195 36.0704L33.3649 36.1444L33.4409 36.1718L33.4415 36.172L33.5747 36.203L33.5804 36.2041L33.647 36.2121C33.6486 36.2125 33.6501 36.2126 33.6514 36.2128L33.6901 36.215L33.695 36.2153L33.7088 36.2156L33.7331 36.216L33.7715 36.2152L33.7763 36.2149L33.8143 36.2127L33.8191 36.212L33.8861 36.2041L33.8909 36.2031L34.0246 36.1719L34.0272 36.171L34.1139 36.1393L34.1149 36.1389L34.2457 36.0711L34.3376 36.0061L34.3402 36.004L34.4121 35.94C34.4127 35.9395 34.4132 35.9389 34.4138 35.9384C34.4149 35.9373 34.4161 35.9361 34.4172 35.9349Z" fill="white"/>
<defs>
<filter id="filter0_d" x="0" y="0" width="73" height="73" filterUnits="userSpaceOnUse" color-interpolation-filters="sRGB">
<feFlood flood-opacity="0" result="BackgroundImageFix"/>
<feColorMatrix in="SourceAlpha" type="matrix" values="0 0 0 0 0 0 0 0 0 0 0 0 0 0 0 0 0 0 127 0"/>
<feOffset dy="4"/>
<feGaussianBlur stdDeviation="2"/>
<feColorMatrix type="matrix" values="0 0 0 0 0 0 0 0 0 0 0 0 0 0 0 0 0 0 0.15 0"/>
<feBlend mode="normal" in2="BackgroundImageFix" result="effect1_dropShadow"/>
<feBlend mode="normal" in="SourceGraphic" in2="effect1_dropShadow" result="shape"/>
</filter>
</defs>
</svg>
