<svg width="25" height="25" viewBox="0 0 25 25" fill="none" xmlns="http://www.w3.org/2000/svg">
<path d="M24.6939 23.2245L18.6837 17.2143C20.1735 15.398 21.0714 13.0714 21.0714 10.5357C21.0714 4.71939 16.352 0 10.5357 0C4.71429 0 0 4.71939 0 10.5357C0 16.352 4.71429 21.0714 10.5357 21.0714C13.0714 21.0714 15.3929 20.1786 17.2092 18.6888L23.2194 24.6939C23.6276 25.102 24.2857 25.102 24.6939 24.6939C25.102 24.2908 25.102 23.6276 24.6939 23.2245ZM10.5357 18.9745C5.87755 18.9745 2.09184 15.1888 2.09184 10.5357C2.09184 5.88265 5.87755 2.09184 10.5357 2.09184C15.1888 2.09184 18.9796 5.88265 18.9796 10.5357C18.9796 15.1888 15.1888 18.9745 10.5357 18.9745Z" fill="white"/>
</svg>
