<svg width="45" height="45" viewBox="0 0 45 45" fill="none" xmlns="http://www.w3.org/2000/svg">
<g clip-path="url(#clip0)">
<path d="M33.75 45C33.6263 45 33.5025 44.9756 33.3862 44.9269C32.94 44.7375 22.5 40.2262 22.5 31.005V23.1694C22.5 22.7662 22.7569 22.41 23.1375 22.2806L33.45 18.7987C33.645 18.7331 33.8569 18.7331 34.05 18.7987L44.3625 22.2806C44.7431 22.4081 45 22.7662 45 23.1694V31.005C45 40.2262 34.56 44.7375 34.1138 44.9269C33.9975 44.9756 33.8737 45 33.75 45ZM24.375 23.8444V31.005C24.375 38.1 31.9781 42.1762 33.75 43.0294C35.52 42.1744 43.125 38.0812 43.125 31.005V23.8444L33.75 20.6775L24.375 23.8444Z" fill="#2176FF"/>
<path d="M32.8116 35.625C32.7947 35.625 32.776 35.625 32.761 35.6231C32.4929 35.6081 32.2472 35.4825 32.0804 35.2725L28.3304 30.585C28.0079 30.18 28.0716 29.5912 28.4766 29.2669C28.8835 28.9481 29.4704 29.0119 29.7947 29.4131L32.8885 33.2812L38.7104 27.4612C39.076 27.0956 39.6704 27.0956 40.036 27.4612C40.4016 27.8269 40.4016 28.4212 40.036 28.7869L33.4735 35.3494C33.2991 35.5256 33.0591 35.625 32.8116 35.625V35.625Z" fill="#2176FF"/>
<path d="M34.6875 15H6.5625C2.94375 15 0 12.0563 0 8.4375C0 4.81875 2.94375 1.875 6.5625 1.875H34.6875C38.3062 1.875 41.25 4.81875 41.25 8.4375C41.25 12.0563 38.3062 15 34.6875 15ZM6.5625 3.75C3.97688 3.75 1.875 5.85188 1.875 8.4375C1.875 11.0231 3.97688 13.125 6.5625 13.125H34.6875C37.2731 13.125 39.375 11.0231 39.375 8.4375C39.375 5.85188 37.2731 3.75 34.6875 3.75H6.5625Z" fill="#031B4E"/>
<path d="M8.4375 11.25C6.88687 11.25 5.625 9.98813 5.625 8.4375C5.625 6.88687 6.88687 5.625 8.4375 5.625C9.98813 5.625 11.25 6.88687 11.25 8.4375C11.25 9.98813 9.98813 11.25 8.4375 11.25ZM8.4375 7.5C7.92187 7.5 7.5 7.92187 7.5 8.4375C7.5 8.95313 7.92187 9.375 8.4375 9.375C8.95313 9.375 9.375 8.95313 9.375 8.4375C9.375 7.92187 8.95313 7.5 8.4375 7.5Z" fill="#031B4E"/>
<path d="M17.8125 11.25C16.2619 11.25 15 9.98813 15 8.4375C15 6.88687 16.2619 5.625 17.8125 5.625C19.3631 5.625 20.625 6.88687 20.625 8.4375C20.625 9.98813 19.3631 11.25 17.8125 11.25ZM17.8125 7.5C17.2969 7.5 16.875 7.92187 16.875 8.4375C16.875 8.95313 17.2969 9.375 17.8125 9.375C18.3281 9.375 18.75 8.95313 18.75 8.4375C18.75 7.92187 18.3281 7.5 17.8125 7.5Z" fill="#031B4E"/>
<path d="M17.8125 26.25H6.5625C2.94375 26.25 0 23.3063 0 19.6875C0 17.9363 0.6825 16.29 1.92375 15.0488C3.165 13.8075 4.81125 13.125 6.5625 13.125H34.6875C36.1537 13.125 37.5356 13.5956 38.6775 14.4862C39.0862 14.805 39.1594 15.3938 38.8406 15.8025C38.5219 16.2094 37.9331 16.2825 37.5244 15.9656C36.7144 15.3338 35.7337 15 34.6875 15H6.5625C5.31375 15 4.13625 15.4894 3.24937 16.3744C2.3625 17.2594 1.875 18.4388 1.875 19.6875C1.875 22.2731 3.97687 24.375 6.5625 24.375H17.8125C18.33 24.375 18.75 24.795 18.75 25.3125C18.75 25.83 18.33 26.25 17.8125 26.25Z" fill="#031B4E"/>
<path d="M8.4375 22.5C6.88687 22.5 5.625 21.2381 5.625 19.6875C5.625 18.1369 6.88687 16.875 8.4375 16.875C9.98813 16.875 11.25 18.1369 11.25 19.6875C11.25 21.2381 9.98813 22.5 8.4375 22.5ZM8.4375 18.75C7.92187 18.75 7.5 19.1719 7.5 19.6875C7.5 20.2031 7.92187 20.625 8.4375 20.625C8.95313 20.625 9.375 20.2031 9.375 19.6875C9.375 19.1719 8.95313 18.75 8.4375 18.75Z" fill="#031B4E"/>
<path d="M17.8125 22.5C16.2619 22.5 15 21.2381 15 19.6875C15 18.1369 16.2619 16.875 17.8125 16.875C19.3631 16.875 20.625 18.1369 20.625 19.6875C20.625 21.2381 19.3631 22.5 17.8125 22.5ZM17.8125 18.75C17.2969 18.75 16.875 19.1719 16.875 19.6875C16.875 20.2031 17.2969 20.625 17.8125 20.625C18.3281 20.625 18.75 20.2031 18.75 19.6875C18.75 19.1719 18.3281 18.75 17.8125 18.75Z" fill="#031B4E"/>
<path d="M17.8125 37.5H6.5625C2.94375 37.5 0 34.5563 0 30.9375C0 29.1863 0.6825 27.54 1.92375 26.2988C3.165 25.0575 4.81125 24.375 6.5625 24.375H17.8125C18.33 24.375 18.75 24.795 18.75 25.3125C18.75 25.83 18.33 26.25 17.8125 26.25H6.5625C5.31375 26.25 4.13625 26.7394 3.24938 27.6244C2.3625 28.5094 1.875 29.6888 1.875 30.9375C1.875 33.5231 3.97688 35.625 6.5625 35.625H17.8125C18.33 35.625 18.75 36.045 18.75 36.5625C18.75 37.08 18.33 37.5 17.8125 37.5Z" fill="#031B4E"/>
<path d="M8.4375 33.75C6.88687 33.75 5.625 32.4881 5.625 30.9375C5.625 29.3869 6.88687 28.125 8.4375 28.125C9.98813 28.125 11.25 29.3869 11.25 30.9375C11.25 32.4881 9.98813 33.75 8.4375 33.75ZM8.4375 30C7.92187 30 7.5 30.4219 7.5 30.9375C7.5 31.4531 7.92187 31.875 8.4375 31.875C8.95313 31.875 9.375 31.4531 9.375 30.9375C9.375 30.4219 8.95313 30 8.4375 30Z" fill="#031B4E"/>
<path d="M17.8125 33.75C16.2619 33.75 15 32.4881 15 30.9375C15 29.3869 16.2619 28.125 17.8125 28.125C19.3631 28.125 20.625 29.3869 20.625 30.9375C20.625 32.4881 19.3631 33.75 17.8125 33.75ZM17.8125 30C17.2969 30 16.875 30.4219 16.875 30.9375C16.875 31.4531 17.2969 31.875 17.8125 31.875C18.3281 31.875 18.75 31.4531 18.75 30.9375C18.75 30.4219 18.3281 30 17.8125 30Z" fill="#031B4E"/>
</g>
<defs>
<clipPath id="clip0">
<rect width="45" height="45" fill="white"/>
</clipPath>
</defs>
</svg>
