<svg xmlns="http://www.w3.org/2000/svg" width="167px" viewBox="0 0 473.19 156.91"><defs><style>.cls-1{fill:#0db04b;}.cls-2{fill:#262626;}</style></defs><g id="Layer_2" data-name="Layer 2"><g id="Layer_1-2" data-name="Layer 1"><path class="cls-1" d="M48.78,132.52a24.39,24.39,0,1,1-24.39-24.39A24.39,24.39,0,0,1,48.78,132.52Z"/><path class="cls-2" d="M232.28,104.89,254.8,86l5.27-31.82L242.83,32.56h-56.1l-26,21.94-13,78.36,17.07,22.68,62.67,0L247,132.87,250.07,114h-32l-.91,6.12-5.47,4-28.14-.05-3.52-4,2.43-15.32Zm-40.49-43,4.64-4h28.26l3.37,4-2.74,13.65-3.37,3H188.62Z"/><polygon class="cls-2" points="358.34 114.01 325.09 114.08 323.86 121.66 318.39 125.67 290.67 125.67 287.19 121.72 296.17 65.94 301.63 61.93 329.89 61.93 332.44 65.94 331.75 73.26 365.37 73.32 368.54 54.16 353.56 32.56 293.23 32.56 268.55 54.13 255.51 132.86 273.09 155.54 335.83 155.54 355.58 132.86 358.88 114.01 358.34 114.01 358.34 114.01"/><polygon class="cls-2" points="110.63 120.25 106.01 124.26 93.56 124.26 90.18 120.25 92.34 106.13 99.89 61.86 130.01 61.86 134.71 32.69 106.79 32.69 112.41 0 79.72 0 74.1 32.69 58.72 32.69 54.02 61.86 69.97 61.86 58.23 132.74 74.66 154.84 81.61 154.84 121.36 154.84 120.71 154.84 138.97 132.86 142.1 114.13 111.54 114.13 110.63 120.25"/><polygon class="cls-2" points="456.82 32.55 421.63 32.55 414.5 38.36 409.91 41.73 412.26 26.99 416.64 0 385.98 0 360.23 155.54 391.53 155.54 404.76 73.32 415.33 65.98 435.8 65.98 440.31 74.66 427.26 155.54 456.96 155.54 473.19 54.16 456.82 32.55"/></g></g></svg>