<?xml version="1.0" encoding="UTF-8"?>
<svg width="57px" height="60px" viewBox="0 0 57 60" version="1.1" xmlns="http://www.w3.org/2000/svg" xmlns:xlink="http://www.w3.org/1999/xlink">
    <!-- Generator: Sketch 52.6 (67491) - http://www.bohemiancoding.com/sketch -->
    <title>bar-chart</title>
    <desc>Created with Sketch.</desc>
    <g id="New-Designs" stroke="none" stroke-width="1" fill="none" fill-rule="evenodd">
        <g id="Landing-Page" transform="translate(-357.000000, -2320.000000)" fill="#FFFFFF">
            <g id="support-to-love" transform="translate(0.000000, 2121.000000)">
                <g id="Group-11" transform="translate(245.000000, 199.000000)">
                    <g id="Group-9">
                        <g id="bar-chart" transform="translate(112.000000, 0.000000)">
                            <path d="M55.7108203,57.65625 L53.1405469,57.65625 L53.1405469,20.33625 C53.1405469,18.5991797 51.7272656,17.1860156 49.9903125,17.1860156 L44.2453125,17.1860156 C42.5082422,17.1860156 41.0950781,18.5992969 41.0950781,20.33625 L41.0950781,57.65625 L34.5686719,57.65625 L34.5686719,37.2451172 C34.5686719,35.5080469 33.1555078,34.0948828 31.4184375,34.0948828 L25.6734375,34.0948828 C23.9363672,34.0948828 22.5232031,35.5081641 22.5232031,37.2451172 L22.5232031,57.65625 L15.9967969,57.65625 L15.9967969,47.0854687 C15.9967969,45.3483984 14.5835156,43.9352344 12.8465625,43.9352344 L7.10144531,43.9352344 C5.364375,43.9352344 3.95121094,45.3485156 3.95121094,47.0854687 L3.95121094,57.65625 L1.24230469,57.65625 C0.595078125,57.65625 0.0704296875,58.1808984 0.0704296875,58.828125 C0.0704296875,59.4753516 0.595078125,60 1.24230469,60 L55.7108203,60 C56.3580469,60 56.8826953,59.4753516 56.8826953,58.828125 C56.8826953,58.1808984 56.3580469,57.65625 55.7108203,57.65625 Z M13.6528125,57.65625 L6.29484375,57.65625 L6.29484375,47.0854688 C6.29484375,46.6407422 6.65660156,46.2789844 7.10132812,46.2789844 L12.8463281,46.2789844 C13.2910547,46.2789844 13.6528125,46.6407422 13.6528125,47.0854688 L13.6528125,57.65625 Z M32.2248047,57.65625 L24.8668359,57.65625 L24.8668359,37.2451172 C24.8668359,36.8003906 25.2285937,36.4386328 25.6733203,36.4386328 L31.4183203,36.4386328 C31.8629297,36.4386328 32.2248047,36.8003906 32.2248047,37.2451172 L32.2248047,57.65625 Z M50.7967969,57.65625 L43.4388281,57.65625 L43.4388281,20.33625 C43.4388281,19.8915234 43.8005859,19.5297656 44.2453125,19.5297656 L49.9903125,19.5297656 C50.4350391,19.5297656 50.7967969,19.8915234 50.7967969,20.33625 L50.7967969,57.65625 Z" id="Shape" fill-rule="nonzero"></path>
                            <path d="M53.1377344,1.23234375 C53.1541406,0.912539063 53.0416406,0.58734375 52.7974219,0.343125 C52.5532031,0.09890625 52.2280078,-0.0137109375 51.9082031,0.0028125 C51.8893359,0.0019921875 51.8707031,0 51.8514844,0 L44.7616406,0 C44.1144141,0 43.5897656,0.524648438 43.5897656,1.171875 C43.5897656,1.81910156 44.1144141,2.34375 44.7616406,2.34375 L49.1394141,2.34375 L37.5546094,13.9286719 L33.1858594,9.55992188 C32.9661328,9.34019531 32.6680078,9.21667969 32.3572266,9.21667969 C32.0464453,9.21667969 31.7483203,9.34019531 31.5285937,9.55992188 L10.4619141,30.6267188 C10.0042969,31.0843359 10.0042969,31.8263672 10.4619141,32.2841016 C10.6907812,32.5127344 10.9906641,32.6271094 11.2905469,32.6271094 C11.5904297,32.6271094 11.8904297,32.5127344 12.1191797,32.2838672 L32.3572266,12.0457031 L36.7259766,16.4144531 C37.1835937,16.8720703 37.925625,16.8720703 38.3833594,16.4144531 L50.7967969,4.00113281 L50.7967969,7.96324219 C50.7967969,8.61046875 51.3214453,9.13511719 51.9686719,9.13511719 C52.6158984,9.13511719 53.1405469,8.61046875 53.1405469,7.96324219 L53.1405469,1.2890625 C53.1405469,1.26996094 53.1385547,1.25132813 53.1377344,1.23234375 Z" id="Path"></path>
                            <circle id="Oval" cx="7.340625" cy="35.5441406" r="1.171875"></circle>
                        </g>
                    </g>
                </g>
            </g>
        </g>
    </g>
</svg>