<svg width="478" height="391" viewBox="0 0 478 391" fill="none" xmlns="http://www.w3.org/2000/svg">
<g clip-path="url(#clip0)">
<path opacity="0.48" d="M466.016 15.1818H52.9221C47.1294 15.1818 42.4336 19.8776 42.4336 25.6702V282.726C42.4336 288.519 47.1294 293.214 52.9221 293.214H466.016C471.809 293.214 476.504 288.519 476.504 282.726V25.6702C476.504 19.8776 471.809 15.1818 466.016 15.1818Z" fill="#2176FF" fill-opacity="0.77"/>
<path opacity="0.18" d="M467.917 313.512C467.601 322.617 465.515 331.887 460.417 339.434C453.995 348.938 443.565 354.821 433.463 360.352L404.822 376.114C392.271 383.029 379.04 390.107 364.732 390.306C354.606 390.458 344.809 387.118 335.071 384.318C289.59 371.192 241.682 369.353 194.666 372.669C170.583 374.368 146.618 377.357 122.758 380.954C103.668 383.79 80.7574 393.224 63.5422 382.056C44.7919 369.868 33.2838 350.133 22.6899 330.973C13.467 314.344 4.1153 297.304 1.06837 278.542C-3.61922 249.549 7.60756 219.772 25.1743 196.216C30.4573 189.182 36.2253 182.525 42.4363 176.294V282.738C42.4363 285.525 43.5395 288.199 45.5048 290.175C47.4701 292.151 50.1377 293.269 52.9248 293.285H466.007C467.477 299.922 468.119 306.716 467.917 313.512Z" fill="#8BB8FF"/>
<path opacity="0.18" d="M313.572 15.1935H203.121C207.278 12.0326 211.794 9.37352 216.574 7.27147C225.305 3.4628 234.821 1.76355 244.313 1.08385C268.197 -0.638836 292.15 4.6347 313.572 15.1935Z" fill="#2176FF"/>
<path d="M212.513 258.222C213.59 259.648 214.883 260.898 216.345 261.925C218.52 263.098 220.914 263.808 223.377 264.011L260.784 269.648C261.156 269.673 261.515 269.794 261.827 269.999C262.034 270.224 262.191 270.492 262.286 270.783C262.381 271.074 262.412 271.382 262.378 271.687C262.551 278.69 261.606 285.677 259.577 292.382C259.47 292.931 259.205 293.436 258.815 293.836C258.31 294.177 257.713 294.357 257.104 294.351C244.518 295.418 231.873 295.078 219.252 294.738C217.13 294.768 215.012 294.536 212.947 294.046C209.431 293.062 206.56 290.66 203.912 288.187C198.228 282.902 175.224 261.655 173.829 258.772C171.98 254.643 170.49 250.361 169.376 245.975C168.204 241.756 176.77 241.229 176.595 236.846C176.471 233.816 176.835 230.785 177.673 227.869C178.296 225.269 179.589 222.878 181.423 220.932C182.712 219.76 180.72 211.814 182.501 211.721C184.564 218.752 193.892 232.815 197.947 238.838C202.453 245.554 207.316 252.025 212.513 258.222Z" fill="#FFA200"/>
<path d="M212.513 258.222C213.59 259.648 214.883 260.898 216.345 261.925C218.52 263.098 220.914 263.808 223.377 264.011L260.784 269.648C261.156 269.673 261.515 269.794 261.827 269.999C262.034 270.224 262.191 270.492 262.286 270.783C262.381 271.074 262.412 271.382 262.378 271.687C262.551 278.69 261.606 285.677 259.577 292.382C259.47 292.931 259.205 293.436 258.815 293.836C258.31 294.177 257.713 294.357 257.104 294.351C244.518 295.418 231.873 295.078 219.252 294.738C217.13 294.768 215.012 294.536 212.947 294.046C209.431 293.062 206.56 290.66 203.912 288.187C198.228 282.902 175.224 261.655 173.829 258.772C171.98 254.643 170.49 250.361 169.376 245.975C168.204 241.756 176.77 241.229 176.595 236.846C176.471 233.816 176.835 230.785 177.673 227.869C178.296 225.269 179.589 222.878 181.423 220.932C182.712 219.76 180.72 211.814 182.501 211.721C184.564 218.752 193.892 232.815 197.947 238.838C202.453 245.554 207.316 252.025 212.513 258.222Z" fill="url(#paint0_linear)"/>
<path d="M117.857 198.853C115.337 201.099 112.987 203.527 110.825 206.119C105.645 212.482 102.2 220.053 98.989 227.6C90.4459 247.686 83.0044 269.167 85.2192 290.882C85.2611 292.189 85.6147 293.467 86.2505 294.609C87.2592 295.902 88.676 296.815 90.2701 297.199C94.3835 298.511 98.7781 298.57 103.161 298.605C120.048 298.757 136.959 298.91 153.834 298.089C156.447 297.96 159.213 297.761 161.381 296.285C162.964 295.072 164.228 293.491 165.061 291.679C169.596 283.148 170.92 273.28 174.436 264.304C179.123 252.585 192.014 241.932 189.295 229.58C177.67 177.138 123.177 194.013 117.857 198.853Z" fill="#FFA200"/>
<path d="M117.857 198.853C115.337 201.099 112.987 203.527 110.825 206.119C105.645 212.482 102.2 220.053 98.989 227.6C90.4459 247.686 83.0044 269.167 85.2192 290.882C85.2611 292.189 85.6147 293.467 86.2505 294.609C87.2592 295.902 88.676 296.815 90.2701 297.199C94.3835 298.511 98.7781 298.57 103.161 298.605C120.048 298.757 136.959 298.91 153.834 298.089C156.447 297.96 159.213 297.761 161.381 296.285C162.964 295.072 164.228 293.491 165.061 291.679C169.596 283.148 170.92 273.28 174.436 264.304C179.123 252.585 192.014 241.932 189.295 229.58C177.67 177.138 123.177 194.013 117.857 198.853Z" fill="url(#paint1_linear)"/>
<path d="M194.17 155.411C192.189 165.032 190.115 174.911 184.795 183.197C182.855 186.542 180.05 189.303 176.673 191.189C173.24 192.912 168.88 193.146 165.669 191.037C164.064 189.994 162.306 188.353 160.56 189.126C159.294 189.701 158.884 191.271 158.708 192.642C158.268 196.01 158.316 199.424 158.849 202.779C159.066 203.724 159.122 204.699 159.013 205.662C158.786 206.553 158.305 207.36 157.629 207.984C156.953 208.608 156.111 209.023 155.204 209.178C153.391 209.442 151.541 209.152 149.896 208.346C147.336 207.201 145.097 205.447 143.373 203.236C141.648 201.026 140.492 198.426 140.005 195.666C139.759 193.801 139.642 191.921 139.653 190.041C139.431 181.697 138.106 173.388 138.376 165.056C138.645 156.724 140.72 148.051 146.38 141.899C149.649 138.549 153.532 135.859 157.818 133.977C164.204 130.93 171.33 128.785 178.314 129.899C181.094 130.338 183.745 131.374 186.085 132.936C188.426 134.497 190.401 136.548 191.873 138.946C195.529 144.559 195.541 148.743 194.17 155.411Z" fill="#F9C5BA"/>
<path d="M211.618 134.211C212.094 130.301 211.368 126.338 209.536 122.85C207.704 119.363 204.854 116.515 201.364 114.688C198.259 113.141 194.801 112.484 191.45 111.594C183.598 109.484 176.063 105.992 168.012 105.242C159.961 104.492 150.703 107.316 147.117 114.617C146.461 115.953 145.816 117.57 144.375 117.922C143.587 118.007 142.791 117.935 142.031 117.711C136.652 116.762 131.812 121.356 129.386 126.242C125.472 134.153 125.273 143.376 126.128 152.153C126.913 160.274 128.988 169.052 135.503 173.997C136.148 174.489 137.097 174.935 137.718 174.407C138.003 174.11 138.18 173.727 138.222 173.318C138.878 170.238 139.122 167.086 138.949 163.942C138.82 161.599 138.445 159.114 139.054 156.805C139.664 154.497 141.621 152.305 144.011 152.376C146.226 152.376 148.008 154.438 148.558 156.595C148.951 158.79 148.867 161.044 148.312 163.204C148.664 164.083 149.894 163.028 150.105 162.114C151.723 154.755 152.086 146.516 157.195 141.02C158.235 142.096 158.992 143.412 159.398 144.852C160.162 144.061 161.133 143.501 162.201 143.235C163.268 142.97 164.388 143.011 165.434 143.352C166.917 143.998 168.28 144.889 169.465 145.989C181.911 155.704 209.005 152.821 211.618 134.211Z" fill="#312F3D"/>
<path d="M121.443 210.853C117.506 213.713 115.584 218.74 115.467 223.592C115.35 228.444 120.483 259.229 125.322 267.972C129.073 274.769 136.889 292.511 148.76 297.41C152.276 298.863 204.25 298.253 228.367 295.64C228.215 289.933 227.934 284.226 227.559 278.519C227.594 277.766 227.366 277.024 226.914 276.421C226.305 275.788 225.438 271.651 224.57 271.651C210.508 271.71 196.328 276.011 182.265 276.339C180.223 276.471 178.172 276.349 176.159 275.976C174.512 275.565 172.933 274.917 171.472 274.054C160.62 267.913 154.62 255.854 150.378 244.124C147.131 235.076 144.518 225.713 139.831 217.264C138.166 214.252 136.678 211.322 133.397 209.998C129.541 208.439 125.018 208.263 121.443 210.853Z" fill="#EC9600"/>
<path d="M121.443 210.853C117.506 213.713 115.584 218.74 115.467 223.592C115.35 228.444 120.483 259.229 125.322 267.972C129.073 274.769 136.889 292.511 148.76 297.41C152.276 298.863 204.25 298.253 228.367 295.64C228.215 289.933 227.934 284.226 227.559 278.519C227.594 277.766 227.366 277.024 226.914 276.421C226.305 275.788 225.438 271.651 224.57 271.651C210.508 271.71 196.328 276.011 182.265 276.339C180.223 276.471 178.172 276.349 176.159 275.976C174.512 275.565 172.933 274.917 171.472 274.054C160.62 267.913 154.62 255.854 150.378 244.124C147.131 235.076 144.518 225.713 139.831 217.264C138.166 214.252 136.678 211.322 133.397 209.998C129.541 208.439 125.018 208.263 121.443 210.853Z" fill="url(#paint2_linear)"/>
<path d="M226.303 270.55C233.604 269.859 241.714 271.487 246.343 277.171C246.83 277.689 247.149 278.343 247.257 279.046C247.252 279.679 247.056 280.296 246.694 280.816C243.964 285.351 238.034 286.429 233.054 288.222C230.463 289.15 227.989 290.377 225.682 291.879C224.384 292.908 222.882 293.651 221.276 294.058C217.76 294.586 214.842 291.445 213.249 288.304C211.42 284.789 208.561 277.57 212.077 274.241C214.948 271.605 222.694 270.878 226.303 270.55Z" fill="#FFDAD2"/>
<path d="M286.76 268.745C288.06 269.484 289.177 270.505 290.03 271.733C290.446 272.355 290.693 273.074 290.747 273.82C290.8 274.566 290.658 275.313 290.335 275.987C289.782 276.818 289.028 277.495 288.143 277.956C281.663 281.812 273.717 282.503 267.155 286.16C265.809 287.138 264.265 287.81 262.631 288.128C261.671 288.149 260.719 287.949 259.849 287.542C258.979 287.136 258.215 286.534 257.615 285.784C256.42 284.292 255.503 282.597 254.908 280.78C247.232 260.624 275.721 261.714 286.76 268.745Z" fill="#FFDAD2"/>
<path d="M101.051 259.745H131.415V284.683C131.415 287.014 130.489 289.249 128.84 290.898C127.192 292.546 124.956 293.472 122.625 293.472H109.84C107.509 293.472 105.273 292.546 103.625 290.898C101.977 289.249 101.051 287.014 101.051 284.683V259.745Z" fill="white"/>
<path d="M129.367 265.792H138.567C140.509 265.792 142.372 266.564 143.746 267.937C145.119 269.311 145.891 271.174 145.891 273.116V276.152C145.891 278.094 145.119 279.957 143.746 281.331C142.372 282.704 140.509 283.476 138.567 283.476H129.367V265.792Z" stroke="white" stroke-width="3.86726" stroke-miterlimit="10"/>
<path d="M470.703 292.933H59.3907C55.7922 292.933 52.875 295.848 52.875 299.443C52.875 303.038 55.7922 305.953 59.3907 305.953H470.703C474.302 305.953 477.219 303.038 477.219 299.443C477.219 295.848 474.302 292.933 470.703 292.933Z" fill="#876551"/>
<path d="M395.094 306.152H162.602V386.79H395.094V306.152Z" fill="#2176FF"/>
<path d="M164.185 306.152H72.8594V386.79H164.185V306.152Z" fill="white"/>
<path d="M395.102 306.152H164.133V386.79H395.102V306.152Z" fill="#E2E2E2"/>
<path d="M164.185 306.152H72.8594V386.79H164.185V306.152Z" fill="#D5D5D5"/>
<path opacity="0.18" d="M476.493 25.682V77.0111H42.4336V25.682C42.4336 22.8948 43.5367 20.221 45.502 18.2447C47.4673 16.2684 50.135 15.1504 52.9221 15.1349H466.004C468.791 15.1504 471.459 16.2684 473.424 18.2447C475.389 20.221 476.493 22.8948 476.493 25.682Z" fill="#2176FF"/>
<path d="M229.782 292.71H380.301C384.521 292.71 387.941 289.29 387.941 285.07C387.941 280.85 384.521 277.429 380.301 277.429H229.782C225.562 277.429 222.141 280.85 222.141 285.07C222.141 289.29 225.562 292.71 229.782 292.71Z" fill="#2176FF"/>
<path d="M229.782 292.71H380.301C384.521 292.71 387.941 289.29 387.941 285.07C387.941 280.85 384.521 277.429 380.301 277.429H229.782C225.562 277.429 222.141 280.85 222.141 285.07C222.141 289.29 225.562 292.71 229.782 292.71Z" fill="#F0EEEE"/>
<path d="M281.984 292.734H397.498L427.968 215.471C428.372 214.441 428.519 213.328 428.396 212.229C428.272 211.129 427.883 210.077 427.26 209.162C426.638 208.248 425.801 207.499 424.824 206.981C423.847 206.463 422.757 206.191 421.651 206.189H331.005C326.62 206.197 322.339 207.522 318.716 209.992C315.092 212.462 312.294 215.963 310.684 220.041L281.984 292.734Z" fill="#D7D7D7"/>
<path d="M287.852 292.816H397.565L426.499 219.42C426.885 218.442 427.026 217.385 426.91 216.34C426.793 215.295 426.423 214.294 425.832 213.425C425.24 212.556 424.445 211.845 423.515 211.354C422.585 210.863 421.55 210.607 420.499 210.607H334.411C330.241 210.605 326.166 211.858 322.718 214.203C319.269 216.549 316.606 219.877 315.075 223.756L287.852 292.816Z" fill="#2176FF"/>
<path d="M287.852 292.816H397.565L426.499 219.42C426.885 218.442 427.026 217.385 426.91 216.34C426.793 215.295 426.423 214.294 425.832 213.425C425.24 212.556 424.445 211.845 423.515 211.354C422.585 210.863 421.55 210.607 420.499 210.607H334.411C330.241 210.605 326.166 211.858 322.718 214.203C319.269 216.549 316.606 219.877 315.075 223.756L287.852 292.816Z" fill="#EFEFEF"/>
<path opacity="0.51" d="M412.062 181.943H249.637V191.083H412.062V181.943Z" fill="white"/>
<path d="M365.104 166.298H249.637V175.439H365.104V166.298Z" fill="#3DDC97"/>
<path d="M458.189 166.298H380.891V175.439H458.189V166.298Z" fill="white"/>
<path d="M457.92 108.43H339.078V116.551H457.92V108.43Z" fill="white"/>
<path opacity="0.51" d="M441.327 122.856H314.188V130.977H441.327V122.856Z" fill="white"/>
<path d="M330.005 108.43H251.84V116.551H330.005V108.43Z" fill="white"/>
<path d="M457.921 136.848H286.133V144.969H457.921V136.848Z" fill="#3DDC97"/>
<path opacity="0.51" d="M277.059 136.848H251.84V144.969H277.059V136.848Z" fill="white"/>
<path opacity="0.51" d="M457.92 151.274H344.527V159.395H457.92V151.274Z" fill="white"/>
<path d="M330.005 151.274H251.84V159.395H330.005V151.274Z" fill="white"/>
<path d="M302.103 122.516H251.84V130.637H302.103V122.516Z" fill="white"/>
<path d="M414.451 81.0892H295.609V89.2105H414.451V81.0892Z" fill="white"/>
<path opacity="0.51" d="M397.862 95.5153H270.723V103.637H397.862V95.5153Z" fill="white"/>
<path d="M286.556 81.0892H208.391V89.2105H286.556V81.0892Z" fill="white"/>
<path d="M413.397 64.2725H294.555V72.3937H413.397V64.2725Z" fill="#3DDC97"/>
<path d="M285.501 49.0145H207.336V57.1358H285.501V49.0145Z" fill="white"/>
<path d="M285.501 35.0924H207.336V43.2137H285.501V35.0924Z" fill="#3DDC97"/>
<path d="M258.653 95.1754H208.391V103.297H258.653V95.1754Z" fill="#3DDC97"/>
</g>
<defs>
<linearGradient id="paint0_linear" x1="175.259" y1="244.335" x2="234.147" y2="266.776" gradientUnits="userSpaceOnUse">
<stop offset="0.01"/>
<stop offset="0.12" stop-opacity="0.75"/>
<stop offset="1" stop-opacity="0"/>
</linearGradient>
<linearGradient id="paint1_linear" x1="13601.3" y1="29544.4" x2="11958.2" y2="19773.1" gradientUnits="userSpaceOnUse">
<stop offset="0.01"/>
<stop offset="0.12" stop-opacity="0.75"/>
<stop offset="1" stop-opacity="0"/>
</linearGradient>
<linearGradient id="paint2_linear" x1="15285.1" y1="24409.4" x2="17176.8" y2="19028.1" gradientUnits="userSpaceOnUse">
<stop offset="0.01" stop-color="#FFA200"/>
<stop offset="0.12" stop-opacity="0.75"/>
<stop offset="1" stop-opacity="0"/>
</linearGradient>
<clipPath id="clip0">
<rect width="477.22" height="389.55" fill="white" transform="translate(0 0.755615)"/>
</clipPath>
</defs>
</svg>
