<?xml version="1.0" encoding="UTF-8"?>
<svg width="136px" height="20px" viewBox="0 0 136 20" version="1.1" xmlns="http://www.w3.org/2000/svg" xmlns:xlink="http://www.w3.org/1999/xlink">
    <!-- Generator: Sketch 52.6 (67491) - http://www.bohemiancoding.com/sketch -->
    <title>Blue logo</title>
    <desc>Created with Sketch.</desc>
    <g id="New-Designs" stroke="none" stroke-width="1" fill="none" fill-rule="evenodd">
        <g id="Domain-Search-Copy" transform="translate(-239.000000, -1596.000000)" fill="#FFFFFF">
            <g id="Blue-logo" transform="translate(239.000000, 1596.000000)">
                <path d="M26.0643127,18.9721494 C25.8628532,19.0082438 25.5632468,19.0598073 25.1689373,19.1234023 C24.7746277,19.1869972 24.3751526,19.2196541 23.9705118,19.2196541 C23.565871,19.2196541 23.204277,19.1921535 22.8822863,19.1371525 C22.5602955,19.0821515 22.289961,18.9721494 22.0695609,18.8071463 C21.8491608,18.6421432 21.6786951,18.4169827 21.5598857,18.1333836 C21.4410763,17.8497845 21.3808106,17.4785275 21.3808106,17.0196127 L21.3808106,1.06931251 C21.5822701,1.03321808 21.8818765,0.981654612 22.276186,0.918059665 C22.6704956,0.854464718 23.0699707,0.821807854 23.4746115,0.821807854 C23.8792523,0.821807854 24.2408463,0.849308371 24.562837,0.904309406 C24.8848278,0.959310441 25.1551623,1.06931251 25.3755624,1.23431562 C25.5959625,1.39931872 25.7664282,1.62447921 25.8852376,1.9080783 C26.004047,2.19167738 26.0643127,2.56293437 26.0643127,3.02184925 L26.0643127,18.9721494 Z" id="Shape"></path>
                <path d="M35.291993,19.4396582 C34.2089331,19.4396582 33.2033577,19.2884054 32.2752667,18.9858997 C31.3471756,18.683394 30.5396159,18.2296354 29.8508656,17.624624 C29.1621153,17.0196127 28.6197244,16.2581921 28.2254149,15.3420811 C27.8311053,14.4259701 27.6330896,13.3534499 27.6330896,12.1245205 C27.6330896,10.9144978 27.8311053,9.87463446 28.2254149,9.00321181 C28.6197244,8.13178916 29.1397309,7.41677571 29.7819905,6.85817145 C30.4242502,6.29956718 31.1594912,5.88705942 31.9859915,5.62064816 C32.8124919,5.35423689 33.6579329,5.22189065 34.5205927,5.22189065 C35.4934525,5.22189065 36.3802185,5.36798715 37.1791688,5.66189893 C37.9781192,5.95581072 38.6668695,6.35800578 39.2454198,6.8719217 C39.82397,7.38583763 40.2733796,7.99944292 40.5953704,8.71445638 C40.9173611,9.42946983 41.0774956,10.2080782 41.0774956,11.0520004 C41.0774956,11.6759184 40.9035861,12.1520211 40.5540453,12.4820273 C40.2045046,12.8120335 39.7189356,13.0234437 39.0938947,13.1145392 L32.2890417,14.1320583 C32.4905011,14.7370697 32.9037513,15.1908282 33.5287922,15.4933339 C34.1538331,15.7958396 34.8701334,15.9470925 35.6776932,15.9470925 C36.4301529,15.9470925 37.1430094,15.8508407 37.8128191,15.658337 C38.4826288,15.4658334 39.0301853,15.2406729 39.4520448,14.9845744 C39.7464856,15.1684841 39.9944357,15.4245826 40.1958952,15.7545889 C40.3973546,16.0845951 40.4989453,16.4335079 40.4989453,16.7996085 C40.4989453,17.624624 40.1132451,18.2382293 39.3418448,18.6421432 C38.7546852,18.9532428 38.0934849,19.164653 37.3582439,19.2746551 C36.623003,19.3846572 35.9342527,19.4396582 35.291993,19.4396582 Z M34.5205927,8.63195482 C34.0797925,8.63195482 33.6992579,8.70586247 33.3772671,8.85195896 C33.0552764,8.99805546 32.7935513,9.18712152 32.5920918,9.41571957 C32.3906323,9.64431763 32.2391073,9.90213498 32.1375166,10.1857341 C32.0359259,10.4693332 31.9773821,10.7580886 31.9584415,11.0520004 L36.6694936,10.2819859 C36.6143936,9.91588524 36.4129341,9.54806581 36.0633933,9.18196518 C35.7138526,8.81586454 35.2007336,8.63195482 34.5205927,8.63195482 Z" id="Shape"></path>
                <path d="M48.8001566,16.029594 C49.1118161,16.029594 49.4561913,15.9969372 49.833282,15.9333422 C50.2103728,15.8697473 50.4893167,15.7820894 50.6735574,15.6720873 L50.6735574,13.4720459 L48.6899565,13.637049 C48.1751157,13.6731434 47.7532561,13.7831455 47.422656,13.9670552 C47.0920558,14.1509649 46.9267558,14.4259701 46.9267558,14.7920707 C46.9267558,15.1581714 47.0696714,15.4572395 47.3537809,15.6858376 C47.6378904,15.9144356 48.1200157,16.029594 48.8001566,16.029594 Z M48.5797565,5.22189065 C49.5715569,5.22189065 50.4755417,5.32329881 51.2934327,5.52439635 C52.1113237,5.72549388 52.8086834,6.03315592 53.3872336,6.44566368 C53.9657839,6.85817145 54.4117497,7.38068128 54.7234092,8.01319318 C55.0350687,8.64570508 55.1917594,9.3933754 55.1917594,10.2544854 L55.1917594,16.4146013 C55.1917594,16.890704 55.059175,17.2808676 54.7922843,17.5833733 C54.5253935,17.885879 54.2085684,18.1471339 53.8418088,18.367138 C52.6485489,19.0821515 50.9679982,19.4396582 48.8001566,19.4396582 C47.8272968,19.4396582 46.9491401,19.3485627 46.1691304,19.164653 C45.3891207,18.9807433 44.7175891,18.7057381 44.1579795,18.3396375 C43.5983699,17.9735369 43.1661791,17.5060281 42.8631289,16.9371111 C42.5600788,16.3681942 42.4085537,15.7081817 42.4085537,14.9570739 C42.4085537,13.69205 42.7856445,12.720938 43.5381042,12.042019 C44.290564,11.3631 45.4579957,10.9419983 47.0369558,10.7769952 L50.6460074,10.3919879 L50.6460074,10.1994843 C50.6460074,9.66838058 50.4118323,9.2868109 49.9434821,9.05821285 C49.4751319,8.82961479 48.8001566,8.71445638 47.9185562,8.71445638 C47.2211965,8.71445638 46.5410556,8.78836402 45.8798553,8.93446052 C45.218655,9.08055702 44.6211641,9.26446673 44.0891045,9.48447087 C43.8497638,9.31946776 43.6483043,9.06680676 43.4830042,8.72820664 C43.3177042,8.38960651 43.2350541,8.03553735 43.2350541,7.66943671 C43.2350541,7.193334 43.3504198,6.81176432 43.5794293,6.52816524 C43.8084387,6.24456615 44.1631452,6.00049906 44.6401047,5.79940152 C45.1721643,5.59830399 45.8023709,5.45048871 46.5272806,5.35939324 C47.2521903,5.26829778 47.9374968,5.22189065 48.5797565,5.22189065 Z" id="Shape"></path>
                <path d="M65.2081622,10.5294905 C65.2081622,9.96057358 65.0480277,9.54462825 64.7260369,9.27821699 C64.4040462,9.01180572 63.9684116,8.87945948 63.4174114,8.87945948 C63.0506518,8.87945948 62.687336,8.92586661 62.3291859,9.01696207 C61.9710357,9.10805753 61.66282,9.24556012 61.4062605,9.42946983 L61.4062605,18.9721494 C61.2220198,19.0271504 60.9327446,19.0821515 60.5384351,19.1371525 C60.1441255,19.1921535 59.7343191,19.2196541 59.3124595,19.2196541 C58.9078187,19.2196541 58.5462248,19.1921535 58.224234,19.1371525 C57.9022433,19.0821515 57.6319088,18.9721494 57.4115087,18.8071463 C57.1911086,18.6421432 57.0206429,18.4169827 56.9018335,18.1333836 C56.783024,17.8497845 56.7227584,17.4785275 56.7227584,17.0196127 L56.7227584,8.76945741 C56.7227584,8.2744481 56.8277928,7.87053425 57.0395835,7.55943464 C57.2513742,7.24833504 57.5406494,6.96301717 57.9074089,6.7069186 C58.5324498,6.26691032 59.3176252,5.90940359 60.262935,5.63439842 C61.2082447,5.35939324 62.2603108,5.22189065 63.4174114,5.22189065 C65.4922717,5.22189065 67.0901724,5.67564919 68.2111135,6.58316627 C69.3320546,7.49068335 69.8916642,8.75055081 69.8916642,10.3644874 L69.8916642,18.9721494 C69.7074235,19.0271504 69.4181484,19.0821515 69.0238388,19.1371525 C68.6295293,19.1921535 68.2197229,19.2196541 67.7978633,19.2196541 C67.3932225,19.2196541 67.0316286,19.1921535 66.7096378,19.1371525 C66.3876471,19.0821515 66.1173126,18.9721494 65.8969125,18.8071463 C65.6765124,18.6421432 65.5060467,18.4169827 65.3872372,18.1333836 C65.2684278,17.8497845 65.2081622,17.4785275 65.2081622,17.0196127 L65.2081622,10.5294905 Z" id="Shape"></path>
                <path d="M83.012547,15.0120749 C83.012547,16.4060074 82.4890967,17.4957154 81.4421963,18.2846365 C80.3952958,19.0735576 78.8524951,19.4671587 76.8137942,19.4671587 C76.0423939,19.4671587 75.3260936,19.4121577 74.6648933,19.3021556 C74.003693,19.1921535 73.4389177,19.0219941 72.9705675,18.793396 C72.5022173,18.564798 72.1354578,18.2760426 71.868567,17.9271297 C71.6016763,17.5782169 71.4690918,17.1657092 71.4690918,16.6896065 C71.4690918,16.2495982 71.5603513,15.8783412 71.744592,15.5758355 C71.9288327,15.2733298 72.1492328,15.0206688 72.4057923,14.8195713 C72.9378519,15.113483 73.5491178,15.374738 74.2378681,15.603336 C74.9266184,15.8319341 75.7204031,15.9470925 76.6209441,15.9470925 C77.190885,15.9470925 77.6265196,15.8645909 77.9295697,15.6995878 C78.2326198,15.5345847 78.3841449,15.3145806 78.3841449,15.0395754 C78.3841449,14.7834768 78.2739449,14.5806605 78.0535448,14.434564 C77.8331447,14.2884675 77.4663851,14.1681528 76.9515443,14.0770573 L76.1250439,13.9120542 C74.5271432,13.6009546 73.337327,13.1093828 72.5573173,12.4407765 C71.7773076,11.7721702 71.3864418,10.8130896 71.3864418,9.56697242 C71.3864418,8.88805339 71.5328012,8.2744481 71.827242,7.72443775 C72.1216828,7.1744274 72.5349329,6.71551251 73.0669926,6.34941187 C73.5990522,5.98331123 74.2378681,5.69799336 74.9817184,5.49689583 C75.7255687,5.2957983 76.5469035,5.19439014 77.4474445,5.19439014 C78.1275854,5.19439014 78.7646795,5.24423482 79.3621704,5.34564298 C79.9596612,5.44705114 80.4779458,5.59830399 80.918746,5.79940152 C81.3595462,6.00049906 81.709087,6.26175397 81.9656465,6.58316627 C82.222206,6.90457857 82.3513467,7.28442947 82.3513467,7.72443775 C82.3513467,8.14553942 82.2738623,8.5082025 82.1171716,8.81070819 C81.9604809,9.11321388 81.764187,9.36587489 81.5248463,9.56697242 C81.3784869,9.47587696 81.1580868,9.37962514 80.863646,9.27821699 C80.5692053,9.17680883 80.2489364,9.08571336 79.8993956,9.00321181 C79.5498548,8.92071026 79.1968703,8.85195896 78.8387201,8.79695793 C78.48057,8.74195689 78.1551354,8.71445638 77.8606947,8.71445638 C77.2545944,8.71445638 76.7862442,8.78320767 76.4556441,8.92071026 C76.1250439,9.05821285 75.9597438,9.27306064 75.9597438,9.56697242 C75.9597438,9.76806995 76.0510033,9.93307306 76.235244,10.0619817 C76.4194847,10.1908904 76.7673036,10.3094864 77.2821444,10.4194885 L78.1361948,10.6119921 C79.8993956,11.0159059 81.1529211,11.5693539 81.8967715,12.2757734 C82.6406218,12.9821929 83.012547,13.8931476 83.012547,15.0120749 Z" id="Shape"></path>
                <path d="M89.1546328,14.4070635 C89.1546328,14.8831662 89.3061579,15.2234851 89.609208,15.4245826 C89.9122581,15.6256802 90.3392833,15.7270883 90.8902836,15.7270883 C91.1657837,15.7270883 91.4498932,15.7047442 91.7443339,15.658337 C92.0387747,15.6119299 92.2953342,15.5534913 92.5157343,15.4795837 C92.6810344,15.6806812 92.8239501,15.9058417 92.9427595,16.1533464 C93.0615689,16.400851 93.1218346,16.6982004 93.1218346,17.0471132 C93.1218346,17.74322 92.8601094,18.312137 92.3366592,18.7521453 C91.813209,19.1921535 90.8902836,19.4121577 89.567883,19.4121577 C87.9510416,19.4121577 86.7078473,19.046057 85.8348563,18.312137 C84.9618653,17.5782169 84.5262307,16.3871008 84.5262307,14.7370697 L84.5262307,2.96684822 C84.7276902,2.91184718 85.0169653,2.8516898 85.3940561,2.78809486 C85.7711469,2.72449991 86.1706221,2.69184304 86.5924817,2.69184304 C87.4000414,2.69184304 88.0302479,2.83450198 88.4796575,3.11810107 C88.9290671,3.40170015 89.1546328,4.00327397 89.1546328,4.91938496 L89.1546328,6.67941808 L92.7636844,6.67941808 C92.8738845,6.88051562 92.9789189,7.13317662 93.0805095,7.43568231 C93.1821002,7.73818801 93.2320346,8.07335056 93.2320346,8.4394512 C93.2320346,9.08055702 93.0891189,9.54462825 92.8050094,9.82822734 C92.5208999,10.1118264 92.1386435,10.2544854 91.6616839,10.2544854 L89.1546328,10.2544854 L89.1546328,14.4070635 Z" id="Shape"></path>
                <path d="M101.221538,16.029594 C101.533198,16.029594 101.877573,15.9969372 102.254664,15.9333422 C102.631754,15.8697473 102.910698,15.7820894 103.094939,15.6720873 L103.094939,13.4720459 L101.111338,13.637049 C100.596497,13.6731434 100.174638,13.7831455 99.8440376,13.9670552 C99.5134374,14.1509649 99.3481373,14.4259701 99.3481373,14.7920707 C99.3481373,15.1581714 99.491053,15.4572395 99.7751625,15.6858376 C100.059272,15.9144356 100.541397,16.029594 101.221538,16.029594 Z M101.001138,5.22189065 C101.992939,5.22189065 102.896923,5.32329881 103.714814,5.52439635 C104.532705,5.72549388 105.230065,6.03315592 105.808615,6.44566368 C106.387165,6.85817145 106.833131,7.38068128 107.144791,8.01319318 C107.45645,8.64570508 107.613141,9.3933754 107.613141,10.2544854 L107.613141,16.4146013 C107.613141,16.890704 107.480557,17.2808676 107.213666,17.5833733 C106.946775,17.885879 106.62995,18.1471339 106.26319,18.367138 C105.06993,19.0821515 103.38938,19.4396582 101.221538,19.4396582 C100.248678,19.4396582 99.3705217,19.3485627 98.590512,19.164653 C97.8105023,18.9807433 97.1389707,18.7057381 96.5793611,18.3396375 C96.0197515,17.9735369 95.5875607,17.5060281 95.2845105,16.9371111 C94.9814604,16.3681942 94.8299353,15.7081817 94.8299353,14.9570739 C94.8299353,13.69205 95.2070261,12.720938 95.9594858,12.042019 C96.7119455,11.3631 97.8793773,10.9419983 99.4583374,10.7769952 L103.067389,10.3919879 L103.067389,10.1994843 C103.067389,9.66838058 102.833214,9.2868109 102.364864,9.05821285 C101.896513,8.82961479 101.221538,8.71445638 100.339938,8.71445638 C99.6425781,8.71445638 98.9624372,8.78836402 98.3012369,8.93446052 C97.6400366,9.08055702 97.0425457,9.26446673 96.5104861,9.48447087 C96.2711453,9.31946776 96.0696859,9.06680676 95.9043858,8.72820664 C95.7390857,8.38960651 95.6564357,8.03553735 95.6564357,7.66943671 C95.6564357,7.193334 95.7718014,6.81176432 96.0008108,6.52816524 C96.2298203,6.24456615 96.5845267,6.00049906 97.0614863,5.79940152 C97.5935459,5.59830399 98.2237525,5.45048871 98.9486622,5.35939324 C99.6735718,5.26829778 100.358878,5.22189065 101.001138,5.22189065 Z" id="Shape"></path>
                <path d="M117.226511,8.90696 C116.76677,8.90696 116.331136,8.98086764 115.917886,9.12696414 C115.504635,9.27306064 115.146485,9.48962721 114.843435,9.7732263 C114.540385,10.0568254 114.2976,10.4108946 114.11336,10.8319962 C113.929119,11.2530979 113.83786,11.7481072 113.83786,12.3170242 C113.83786,13.4531393 114.163294,14.3056553 114.815885,14.8745723 C115.468476,15.4434893 116.262261,15.7270883 117.198961,15.7270883 C117.749961,15.7270883 118.226921,15.6634934 118.631562,15.5345847 C119.036203,15.405676 119.394353,15.2681735 119.706012,15.122077 C120.072772,15.3781755 120.348272,15.658337 120.532513,15.9608427 C120.716753,16.2633484 120.808013,16.6260115 120.808013,17.0471132 C120.808013,17.7982211 120.449863,18.3808883 119.733562,18.793396 C119.017262,19.2059038 118.025462,19.4121577 116.758161,19.4121577 C115.60106,19.4121577 114.55416,19.2419982 113.61746,18.9033981 C112.680759,18.564798 111.876643,18.0869765 111.206833,17.4733712 C110.537024,16.8597659 110.017017,16.1206895 109.650258,15.2595795 C109.283498,14.3984696 109.099258,13.4445454 109.099258,12.3995257 C109.099258,11.189503 109.297273,10.130733 109.691583,9.22321595 C110.085892,8.31569887 110.623118,7.56802855 111.303259,6.98192377 C111.983399,6.395819 112.768575,5.95581072 113.658785,5.66189893 C114.548994,5.36798715 115.49086,5.22189065 116.482661,5.22189065 C117.805061,5.22189065 118.824412,5.4608014 119.540712,5.93690411 C120.257013,6.41300682 120.615163,7.0283309 120.615163,7.77943878 C120.615163,8.1283516 120.532513,8.45320146 120.367213,8.75570715 C120.201912,9.05821285 120.009062,9.31946776 119.788662,9.5394719 C119.477003,9.3933754 119.099912,9.25071647 118.659112,9.11321388 C118.218312,8.97571129 117.741352,8.90696 117.226511,8.90696 Z" id="Shape"></path>
                <path d="M135.435502,16.5796044 C135.344243,17.4407143 135.091127,18.1007268 134.677877,18.5596416 C134.264627,19.0185565 133.663692,19.2471546 132.873351,19.2471546 C132.286192,19.2471546 131.762741,19.1044956 131.303001,18.8208966 C130.84326,18.5372975 130.347359,18.0560384 129.8153,17.3771194 L127.087849,13.9670552 L127.087849,18.9721494 C126.886389,19.0082438 126.586783,19.0598073 126.192473,19.1234023 C125.798164,19.1869972 125.398689,19.2196541 124.994048,19.2196541 C124.589407,19.2196541 124.227813,19.1921535 123.905822,19.1371525 C123.583831,19.0821515 123.313497,18.9721494 123.093097,18.8071463 C122.872697,18.6421432 122.702231,18.4169827 122.583422,18.1333836 C122.464612,17.8497845 122.404347,17.4785275 122.404347,17.0196127 L122.404347,1.09681303 C122.605806,1.04181199 122.905412,0.981654612 123.299722,0.918059665 C123.694031,0.854464718 124.093507,0.821807854 124.498147,0.821807854 C124.902788,0.821807854 125.264382,0.849308371 125.586373,0.904309406 C125.908364,0.959310441 126.178698,1.06931251 126.399098,1.23431562 C126.619498,1.39931872 126.789964,1.62447921 126.908774,1.9080783 C127.027583,2.19167738 127.087849,2.56293437 127.087849,3.02184925 L127.087849,10.2819859 L131.826451,5.44189479 C132.782092,5.44189479 133.548327,5.65330502 134.126877,6.0744067 C134.705427,6.49550837 134.994702,7.0283309 134.994702,7.66943671 C134.994702,7.94444189 134.948212,8.19710289 134.856952,8.42570094 C134.765693,8.654299 134.622777,8.88805339 134.429927,9.12696414 C134.237077,9.36587489 133.989127,9.61681711 133.686077,9.88322837 C133.383026,10.1496396 133.030042,10.4555829 132.625401,10.8044957 L131.0275,12.1795216 L135.435502,16.5796044 Z" id="Shape"></path>
                <g id="Group" transform="translate(9.252483, 10.235333) rotate(-90.000000) translate(-9.252483, -10.235333) translate(-0.347517, 1.035333)">
                    <path d="M19.1458305,17.7843663 C18.9321413,17.824475 18.6143472,17.8773456 18.1961009,17.9448011 C17.7778546,18.0140797 17.3541291,18.0468959 16.9249244,18.0468959 C16.4957197,18.0468959 16.1121751,18.0177259 15.7706378,17.959386 C15.4291004,17.9010461 15.1423551,17.7843663 14.9085756,17.6093467 C14.674796,17.434327 14.4939821,17.1973211 14.3679603,16.8946829 C14.2419385,16.5938678 14.1780144,16.2000735 14.1780144,15.7133 L14.1780144,0.346206661 C14.3917035,0.307921104 14.7094976,0.253227451 15.1277439,0.185771945 C15.5459902,0.11831644 15.9697157,0.0836771263 16.3989204,0.0836771263 C16.8281251,0.0836771263 17.2116697,0.112847075 17.5532071,0.171186971 C17.8947444,0.229526868 18.1814897,0.346206661 18.4152693,0.52122635 C18.6490489,0.69624604 18.8298627,0.935074991 18.9558846,1.23589008 C19.0819064,1.53670517 19.1458305,1.93049947 19.1458305,2.41727299 L19.1458305,17.7843663 Z M15.2725875,3.62855991 C15.2725875,3.99722965 15.3966105,4.30855077 15.6446566,4.56070267 C15.8927026,4.81285457 16.2209989,4.93938567 16.6295453,4.93938567 C17.0380917,4.93938567 17.366388,4.81285457 17.614434,4.56070267 C17.8624801,4.30855077 17.9865031,3.99722965 17.9865031,3.62855991 C17.9865031,3.25989017 17.8624801,2.94856905 17.614434,2.69641715 C17.366388,2.44426526 17.0380917,2.31773416 16.6295453,2.31773416 C16.2209989,2.31773416 15.8927026,2.44426526 15.6446566,2.69641715 C15.3966105,2.94856905 15.2725875,3.25989017 15.2725875,3.62855991 Z" id="Combined-Shape"></path>
                    <path d="M12.1423047,17.7843663 C11.9286155,17.824475 11.6108214,17.8773456 11.1925751,17.9448011 C10.7743288,18.0140797 10.3506033,18.0468959 9.92139864,18.0468959 C9.49219394,18.0468959 9.10864931,18.0177259 8.76711196,17.959386 C8.4255746,17.9010461 8.13882933,17.7843663 7.90504975,17.6093467 C7.67127017,17.434327 7.49045628,17.1973211 7.36443447,16.8946829 C7.23841267,16.5938678 7.17448856,16.2000735 7.17448856,15.7133 L7.17448856,0.346206661 C7.38817771,0.307921104 7.70597183,0.253227451 8.12421811,0.185771945 C8.54246439,0.11831644 8.96618988,0.0836771263 9.39539458,0.0836771263 C9.82459928,0.0836771263 10.2081439,0.112847075 10.5496813,0.171186971 C10.8912186,0.229526868 11.1779639,0.346206661 11.4117435,0.52122635 C11.645523,0.69624604 11.8263369,0.935074991 11.9523587,1.23589008 C12.0783805,1.53670517 12.1423047,1.93049947 12.1423047,2.41727299 L12.1423047,17.7843663 Z M8.26879488,3.62855991 C8.26879488,3.99722965 8.3928179,4.30855077 8.64086394,4.56070267 C8.88890999,4.81285457 9.21720622,4.93938567 9.62575265,4.93938567 C10.0342991,4.93938567 10.3625953,4.81285457 10.6106414,4.56070267 C10.8586874,4.30855077 10.9827104,3.99722965 10.9827104,3.62855991 C10.9827104,3.25989017 10.8586874,2.94856905 10.6106414,2.69641715 C10.3625953,2.44426526 10.0342991,2.31773416 9.62575265,2.31773416 C9.21720622,2.31773416 8.88890999,2.44426526 8.64086394,2.69641715 C8.3928179,2.94856905 8.26879488,3.25989017 8.26879488,3.62855991 Z" id="Combined-Shape"></path>
                    <path d="M5.20362136,17.7843663 C4.98993221,17.824475 4.6721381,17.8773456 4.25389182,17.9448011 C3.83564553,18.0140797 3.41192004,18.0468959 2.98271535,18.0468959 C2.55351065,18.0468959 2.16996602,18.0177259 1.82842867,17.959386 C1.48689131,17.9010461 1.20014604,17.7843663 0.966366462,17.6093467 C0.732586881,17.434327 0.551772986,17.1973211 0.425751181,16.8946829 C0.299729376,16.5938678 0.235805272,16.2000735 0.235805272,15.7133 L0.235805272,0.346206661 C0.44949442,0.307921104 0.767288537,0.253227451 1.18553482,0.185771945 C1.6037811,0.11831644 2.02750659,0.0836771263 2.45671129,0.0836771263 C2.88591599,0.0836771263 3.26946061,0.112847075 3.61099797,0.171186971 C3.95253533,0.229526868 4.23928059,0.346206661 4.47306017,0.52122635 C4.70683975,0.69624604 4.88765365,0.935074991 5.01367545,1.23589008 C5.13969726,1.53670517 5.20362136,1.93049947 5.20362136,2.41727299 L5.20362136,17.7843663 Z M1.33037843,3.62855991 C1.33037843,3.99722965 1.45440145,4.30855077 1.7024475,4.56070267 C1.95049354,4.81285457 2.27878978,4.93938567 2.6873362,4.93938567 C3.09588263,4.93938567 3.42417887,4.81285457 3.67222491,4.56070267 C3.92027096,4.30855077 4.04429398,3.99722965 4.04429398,3.62855991 C4.04429398,3.25989017 3.92027096,2.94856905 3.67222491,2.69641715 C3.42417887,2.44426526 3.09588263,2.31773416 2.6873362,2.31773416 C2.27878978,2.31773416 1.95049354,2.44426526 1.7024475,2.69641715 C1.45440145,2.94856905 1.33037843,3.25989017 1.33037843,3.62855991 Z" id="Combined-Shape"></path>
                </g>
            </g>
        </g>
    </g>
</svg>