<?xml version="1.0" encoding="UTF-8"?>
<svg width="204px" height="29px" viewBox="0 0 204 29" version="1.1" xmlns="http://www.w3.org/2000/svg" xmlns:xlink="http://www.w3.org/1999/xlink">
    <!-- Generator: Sketch 52.6 (67491) - http://www.bohemiancoding.com/sketch -->
    <title>Blue logo</title>
    <desc>Created with Sketch.</desc>
    <g id="New-Designs" stroke="none" stroke-width="1" fill="none" fill-rule="evenodd">
        <g id="Domain-Search-Copy" transform="translate(-239.000000, -1597.000000)" fill="#FFFFFF">
            <g id="Blue-logo" transform="translate(239.000000, 1596.000000)">
                <path d="M39.096469,28.4582241 C38.7942798,28.5123658 38.3448703,28.589711 37.7534059,28.6851034 C37.1619416,28.7804958 36.5627288,28.8294811 35.9557676,28.8294811 C35.3488064,28.8294811 34.8064156,28.7882303 34.3234294,28.7057288 C33.8404433,28.6232272 33.4349415,28.4582241 33.1043414,28.2107195 C32.7737412,27.9632148 32.5180427,27.6254741 32.3398285,27.2000754 C32.1616144,26.7746768 32.0712159,26.2177913 32.0712159,25.529419 L32.0712159,1.60396877 C32.3734051,1.54982712 32.8228147,1.47248192 33.414279,1.3770895 C34.0057433,1.28169708 34.6049561,1.23271178 35.2119173,1.23271178 C35.8188785,1.23271178 36.3612694,1.27396256 36.8442555,1.35646411 C37.3272417,1.43896566 37.7327434,1.60396877 38.0633436,1.85147342 C38.3939437,2.09897808 38.6496423,2.43671881 38.8278564,2.86211744 C39.0060706,3.28751607 39.096469,3.84440155 39.096469,4.53277388 L39.096469,28.4582241 Z" id="Shape"></path>
                <path d="M52.9379895,29.1594873 C51.3133997,29.1594873 49.8050365,28.932608 48.4129,28.4788495 C47.0207634,28.025091 45.8094238,27.3444532 44.7762984,26.4369361 C43.7431729,25.529419 42.9295866,24.3872881 42.3381223,23.0131216 C41.746658,21.6389552 41.4496344,20.0301749 41.4496344,18.1867808 C41.4496344,16.3717467 41.746658,14.8119517 42.3381223,13.5048177 C42.9295866,12.1976837 43.7095963,11.1251636 44.6729858,10.2872572 C45.6363753,9.44935078 46.7392367,8.83058913 47.9789873,8.43097224 C49.2187378,8.03135534 50.4868993,7.83283598 51.780889,7.83283598 C53.2401787,7.83283598 54.5703277,8.05198073 55.7687533,8.4928484 C56.9671788,8.93371607 58.0003042,9.53700868 58.8681296,10.3078826 C59.735955,11.0787564 60.4100694,11.9991644 60.8930555,13.0716846 C61.3760417,14.1442047 61.6162434,15.3121174 61.6162434,16.5780005 C61.6162434,17.5138775 61.3553792,18.2280316 60.831068,18.7230409 C60.3067568,19.2180502 59.5784034,19.5351656 58.640842,19.6718088 L48.4335625,21.1980875 C48.7357517,22.1056046 49.355627,22.7862424 50.2931883,23.2400009 C51.2307497,23.6937595 52.3052001,23.9206387 53.5165397,23.9206387 C54.6452293,23.9206387 55.7145142,23.776261 56.7192287,23.4875056 C57.7239432,23.1987501 58.5452779,22.8610094 59.1780673,22.4768616 C59.6197284,22.7527261 59.9916536,23.136874 60.2938428,23.6318833 C60.596032,24.1268926 60.748418,24.6502618 60.748418,25.1994128 C60.748418,26.4369361 60.1698677,27.357344 59.0127672,27.9632148 C58.1320277,28.4298642 57.1402273,28.7469795 56.0373659,28.9119826 C54.9345044,29.0769858 53.901379,29.1594873 52.9379895,29.1594873 Z M51.780889,12.9479322 C51.1196887,12.9479322 50.5488869,13.0587937 50.0659007,13.2779384 C49.5829146,13.4970832 49.1903269,13.7806823 48.8881377,14.1235794 C48.5859485,14.4664764 48.3586609,14.8532025 48.2062749,15.2786011 C48.0538889,15.7039997 47.9660732,16.1371329 47.9376623,16.5780005 L55.0042404,15.4229788 C54.9215904,14.8738279 54.6194012,14.3220987 54.09509,13.7729478 C53.5707788,13.2237968 52.8011004,12.9479322 51.780889,12.9479322 Z" id="Shape"></path>
                <path d="M73.2002349,24.0443911 C73.6677242,24.0443911 74.1842869,23.9954058 74.7499231,23.9000133 C75.3155593,23.8046209 75.7339751,23.6731341 76.0103361,23.508131 L76.0103361,20.2080689 L73.0349348,20.4555735 C72.2626735,20.5097152 71.6298842,20.6747183 71.133984,20.9505828 C70.6380837,21.2264474 70.3901336,21.6389552 70.3901336,22.1881061 C70.3901336,22.7372571 70.6045072,23.1858593 71.0306714,23.5287563 C71.4568357,23.8716534 72.1800235,24.0443911 73.2002349,24.0443911 Z M72.8696347,7.83283598 C74.3573354,7.83283598 75.7133126,7.98494822 76.940149,8.28659452 C78.1669855,8.58824082 79.2130251,9.04973388 80.0808504,9.66849553 C80.9486758,10.2872572 81.6176246,11.0710219 82.0851138,12.0197898 C82.5526031,12.9685576 82.7876391,14.0900631 82.7876391,15.381728 L82.7876391,24.6219019 C82.7876391,25.336056 82.5887625,25.9213014 82.1884264,26.3750599 C81.7880903,26.8288184 81.3128526,27.2207008 80.7627132,27.550707 C78.9728234,28.6232272 76.4519973,29.1594873 73.2002349,29.1594873 C71.7409452,29.1594873 70.4237102,29.0228441 69.2536956,28.7469795 C68.083681,28.471115 67.0763837,28.0586072 66.2369693,27.5094563 C65.3975549,26.9603053 64.7492686,26.2590421 64.2946934,25.4056667 C63.8401182,24.5522912 63.6128306,23.5622726 63.6128306,22.4356108 C63.6128306,20.5380751 64.1784668,19.081407 65.3071564,18.0630285 C66.4358459,17.04465 68.1869936,16.4129974 70.5554337,16.1654928 L75.9690111,15.5879819 L75.9690111,15.2992265 C75.9690111,14.5025709 75.6177485,13.9302163 74.9152231,13.5873193 C74.2126978,13.2444222 73.2002349,13.0716846 71.8778343,13.0716846 C70.8317948,13.0716846 69.8115834,13.182546 68.8197829,13.4016908 C67.8279825,13.6208355 66.9317462,13.8967001 66.1336567,14.2267063 C65.7746456,13.9792016 65.4724564,13.6002101 65.2245063,13.09231 C64.9765562,12.5844098 64.8525812,12.053306 64.8525812,11.5041551 C64.8525812,10.790001 65.0256297,10.2176465 65.3691439,9.79224785 C65.7126581,9.36684922 66.2447177,9.00074858 66.9601571,8.69910228 C67.7582465,8.39745598 68.7035563,8.17573306 69.7909209,8.03908986 C70.8782854,7.90244667 71.9062452,7.83283598 72.8696347,7.83283598 Z" id="Shape"></path>
                <path d="M97.8122432,15.7942358 C97.8122432,14.9408604 97.5720416,14.3169424 97.0890554,13.9173255 C96.6060693,13.5177086 95.9526174,13.3191892 95.126117,13.3191892 C94.5759777,13.3191892 94.031004,13.3887999 93.4937788,13.5254431 C92.9565536,13.6620863 92.4942299,13.8683402 92.1093907,14.1442047 L92.1093907,28.4582241 C91.8330296,28.5407257 91.3991169,28.6232272 90.8076526,28.7057288 C90.2161883,28.7882303 89.6014786,28.8294811 88.9686893,28.8294811 C88.3617281,28.8294811 87.8193372,28.7882303 87.3363511,28.7057288 C86.8533649,28.6232272 86.4478632,28.4582241 86.117263,28.2107195 C85.7866629,27.9632148 85.5309643,27.6254741 85.3527502,27.2000754 C85.174536,26.7746768 85.0841376,26.2177913 85.0841376,25.529419 L85.0841376,13.1541861 C85.0841376,12.4116721 85.2416892,11.8058014 85.5593753,11.339152 C85.8770614,10.8725026 86.3109741,10.4445258 86.8611134,10.0603779 C87.7986747,9.40036548 88.9764377,8.86410539 90.3944024,8.45159763 C91.8123671,8.03908986 93.3904663,7.83283598 95.126117,7.83283598 C98.2384075,7.83283598 100.635259,8.51347379 102.31667,9.87474941 C103.998082,11.236025 104.837496,13.1258262 104.837496,15.5467311 L104.837496,28.4582241 C104.561135,28.5407257 104.127223,28.6232272 103.535758,28.7057288 C102.944294,28.7882303 102.329584,28.8294811 101.696795,28.8294811 C101.089834,28.8294811 100.547443,28.7882303 100.064457,28.7057288 C99.5814706,28.6232272 99.1759688,28.4582241 98.8453687,28.2107195 C98.5147685,27.9632148 98.25907,27.6254741 98.0808558,27.2000754 C97.9026417,26.7746768 97.8122432,26.2177913 97.8122432,25.529419 L97.8122432,15.7942358 Z" id="Shape"></path>
                <path d="M124.51882,22.5181123 C124.51882,24.6090111 123.733645,26.2435731 122.163294,27.4269547 C120.592944,28.6103363 118.278743,29.2007381 115.220691,29.2007381 C114.063591,29.2007381 112.98914,29.1182365 111.99734,28.9532334 C111.005539,28.7882303 110.158377,28.5329911 109.455851,28.1900941 C108.753326,27.847197 108.203187,27.4140638 107.802851,26.8906946 C107.402514,26.3673254 107.203638,25.7485637 107.203638,25.0344097 C107.203638,24.3743973 107.340527,23.8175118 107.616888,23.3637532 C107.893249,22.9099947 108.223849,22.5310032 108.608688,22.2293569 C109.406778,22.6702246 110.323677,23.0621069 111.356802,23.405004 C112.389928,23.7479011 113.580605,23.9206387 114.931416,23.9206387 C115.786328,23.9206387 116.439779,23.7968864 116.894355,23.5493817 C117.34893,23.3018771 117.576217,22.9718709 117.576217,22.5593631 C117.576217,22.1752153 117.410917,21.8709908 117.080317,21.651846 C116.749717,21.4327013 116.199578,21.2522291 115.427316,21.1155859 L114.187566,20.8680813 C111.790715,20.4014319 110.005991,19.6640742 108.835976,18.6611647 C107.665961,17.6582553 107.079663,16.2196344 107.079663,14.3504586 C107.079663,13.3320801 107.299202,12.4116721 107.740863,11.5866566 C108.182524,10.7616411 108.802399,10.0732688 109.600489,9.52411781 C110.398578,8.97496685 111.356802,8.54699005 112.472578,8.24534374 C113.588353,7.94369744 114.820355,7.79158521 116.171167,7.79158521 C117.191378,7.79158521 118.147019,7.86635224 119.043256,8.01846447 C119.939492,8.17057671 120.716919,8.39745598 121.378119,8.69910228 C122.039319,9.00074858 122.563631,9.39263096 122.94847,9.87474941 C123.333309,10.3568679 123.52702,10.9266442 123.52702,11.5866566 C123.52702,12.2183091 123.410793,12.7623037 123.175757,13.2160623 C122.940721,13.6698208 122.646281,14.0488123 122.287269,14.3504586 C122.06773,14.2138154 121.73713,14.0694377 121.295469,13.9173255 C120.853808,13.7652132 120.373405,13.62857 119.849093,13.5048177 C119.324782,13.3810654 118.795305,13.2779384 118.25808,13.1954369 C117.720855,13.1129353 117.232703,13.0716846 116.791042,13.0716846 C115.881892,13.0716846 115.179366,13.1748115 114.683466,13.3810654 C114.187566,13.5873193 113.939616,13.909591 113.939616,14.3504586 C113.939616,14.6521049 114.076505,14.8996096 114.352866,15.0929726 C114.629227,15.2863356 115.150955,15.4642296 115.923217,15.6292327 L117.204292,15.9179881 C119.849093,16.5238589 121.729382,17.3540308 122.845157,18.4136601 C123.960933,19.4732894 124.51882,20.8397214 124.51882,22.5181123 Z" id="Shape"></path>
                <path d="M133.731949,21.6105953 C133.731949,22.3247493 133.959237,22.8352277 134.413812,23.136874 C134.868387,23.4385203 135.508925,23.5906325 136.335425,23.5906325 C136.748676,23.5906325 137.17484,23.5571163 137.616501,23.4875056 C138.058162,23.4178949 138.443001,23.330237 138.773601,23.2193755 C139.021552,23.5210218 139.235925,23.8587626 139.414139,24.2300195 C139.592353,24.6012765 139.682752,25.0473005 139.682752,25.5706698 C139.682752,26.61483 139.290164,27.4682055 138.504989,28.1282179 C137.719813,28.7882303 136.335425,29.1182365 134.351824,29.1182365 C131.926562,29.1182365 130.061771,28.5690856 128.752284,27.4682055 C127.442798,26.3673254 126.789346,24.5806511 126.789346,22.1056046 L126.789346,4.45027233 C127.091535,4.36777078 127.525448,4.2775347 128.091084,4.18214228 C128.65672,4.08674986 129.255933,4.03776457 129.888722,4.03776457 C131.100062,4.03776457 132.045372,4.25175297 132.719486,4.6771516 C133.393601,5.10255023 133.731949,6.00491096 133.731949,7.37907744 L133.731949,10.0191271 L139.145527,10.0191271 C139.310827,10.3207734 139.468378,10.6997649 139.620764,11.1535235 C139.77315,11.607282 139.848052,12.1100258 139.848052,12.6591768 C139.848052,13.6208355 139.633678,14.3169424 139.207514,14.742341 C138.78135,15.1677396 138.207965,15.381728 137.492526,15.381728 L133.731949,15.381728 L133.731949,21.6105953 Z" id="Shape"></path>
                <path d="M151.832307,24.0443911 C152.299797,24.0443911 152.816359,23.9954058 153.381995,23.9000133 C153.947632,23.8046209 154.366047,23.6731341 154.642408,23.508131 L154.642408,20.2080689 L151.667007,20.4555735 C150.894746,20.5097152 150.261957,20.6747183 149.766056,20.9505828 C149.270156,21.2264474 149.022206,21.6389552 149.022206,22.1881061 C149.022206,22.7372571 149.23658,23.1858593 149.662744,23.5287563 C150.088908,23.8716534 150.812096,24.0443911 151.832307,24.0443911 Z M151.501707,7.83283598 C152.989408,7.83283598 154.345385,7.98494822 155.572221,8.28659452 C156.799058,8.58824082 157.845097,9.04973388 158.712923,9.66849553 C159.580748,10.2872572 160.249697,11.0710219 160.717186,12.0197898 C161.184675,12.9685576 161.419712,14.0900631 161.419712,15.381728 L161.419712,24.6219019 C161.419712,25.336056 161.220835,25.9213014 160.820499,26.3750599 C160.420163,26.8288184 159.944925,27.2207008 159.394786,27.550707 C157.604896,28.6232272 155.08407,29.1594873 151.832307,29.1594873 C150.373018,29.1594873 149.055783,29.0228441 147.885768,28.7469795 C146.715753,28.471115 145.708456,28.0586072 144.869042,27.5094563 C144.029627,26.9603053 143.381341,26.2590421 142.926766,25.4056667 C142.472191,24.5522912 142.244903,23.5622726 142.244903,22.4356108 C142.244903,20.5380751 142.810539,19.081407 143.939229,18.0630285 C145.067918,17.04465 146.819066,16.4129974 149.187506,16.1654928 L154.601083,15.5879819 L154.601083,15.2992265 C154.601083,14.5025709 154.249821,13.9302163 153.547296,13.5873193 C152.84477,13.2444222 151.832307,13.0716846 150.509907,13.0716846 C149.463867,13.0716846 148.443656,13.182546 147.451855,13.4016908 C146.460055,13.6208355 145.563819,13.8967001 144.765729,14.2267063 C144.406718,13.9792016 144.104529,13.6002101 143.856579,13.09231 C143.608629,12.5844098 143.484654,12.053306 143.484654,11.5041551 C143.484654,10.790001 143.657702,10.2176465 144.001216,9.79224785 C144.34473,9.36684922 144.87679,9.00074858 145.592229,8.69910228 C146.390319,8.39745598 147.335629,8.17573306 148.422993,8.03908986 C149.510358,7.90244667 150.538318,7.83283598 151.501707,7.83283598 Z" id="Shape"></path>
                <path d="M175.839767,13.36044 C175.150155,13.36044 174.496704,13.4713015 173.876828,13.6904462 C173.256953,13.909591 172.719728,14.2344408 172.265153,14.6598395 C171.810577,15.0852381 171.446401,15.6163418 171.17004,16.2479943 C170.893679,16.8796468 170.756789,17.6221608 170.756789,18.4755363 C170.756789,20.1797089 171.244941,21.458483 172.223828,22.3118584 C173.202714,23.1652339 174.393391,23.5906325 175.798442,23.5906325 C176.624942,23.5906325 177.340381,23.4952401 177.947343,23.3018771 C178.554304,23.1085141 179.091529,22.9022602 179.559018,22.6831154 C180.109158,23.0672633 180.522408,23.4875056 180.798769,23.9412641 C181.07513,24.3950226 181.212019,24.9390173 181.212019,25.5706698 C181.212019,26.6973316 180.674794,27.5713324 179.600343,28.1900941 C178.525893,28.8088557 177.038192,29.1182365 175.137241,29.1182365 C173.401591,29.1182365 171.83124,28.8629974 170.426189,28.3550972 C169.021139,27.847197 167.814965,27.1304647 166.81025,26.2100568 C165.805536,25.2896489 165.025526,24.1810342 164.475387,22.8893693 C163.925247,21.5977044 163.648886,20.1668181 163.648886,18.5992886 C163.648886,16.7842544 163.94591,15.1960995 164.537374,13.8348239 C165.128839,12.4735483 165.934676,11.3520428 166.954888,10.4728857 C167.975099,9.59372849 169.152862,8.93371607 170.488177,8.4928484 C171.823492,8.05198073 173.236291,7.83283598 174.723991,7.83283598 C176.707592,7.83283598 178.236618,8.1912021 179.311068,8.90535616 C180.385519,9.61951023 180.922744,10.5424963 180.922744,11.6691582 C180.922744,12.1925274 180.798769,12.6798022 180.550819,13.1335607 C180.302869,13.5873193 180.013594,13.9792016 179.682993,14.3092079 C179.215504,14.0900631 178.649868,13.8760747 177.988668,13.6698208 C177.327467,13.4635669 176.612028,13.36044 175.839767,13.36044 Z" id="Shape"></path>
                <path d="M203.153254,24.8694066 C203.016364,26.1610715 202.636691,27.1510901 202.016816,27.8394625 C201.39694,28.5278348 200.495538,28.8707319 199.310027,28.8707319 C198.429287,28.8707319 197.644112,28.6567435 196.954501,28.2313448 C196.26489,27.8059462 195.521039,27.0840576 194.72295,26.0656791 L190.631773,20.9505828 L190.631773,28.4582241 C190.329584,28.5123658 189.880174,28.589711 189.28871,28.6851034 C188.697246,28.7804958 188.098033,28.8294811 187.491072,28.8294811 C186.88411,28.8294811 186.341719,28.7882303 185.858733,28.7057288 C185.375747,28.6232272 184.970245,28.4582241 184.639645,28.2107195 C184.309045,27.9632148 184.053347,27.6254741 183.875132,27.2000754 C183.696918,26.7746768 183.60652,26.2177913 183.60652,25.529419 L183.60652,1.64521954 C183.908709,1.56271799 184.358119,1.47248192 184.949583,1.3770895 C185.541047,1.28169708 186.14026,1.23271178 186.747221,1.23271178 C187.354182,1.23271178 187.896573,1.27396256 188.379559,1.35646411 C188.862546,1.43896566 189.268047,1.60396877 189.598647,1.85147342 C189.929248,2.09897808 190.184946,2.43671881 190.36316,2.86211744 C190.541374,3.28751607 190.631773,3.84440155 190.631773,4.53277388 L190.631773,15.4229788 L197.739676,8.16284219 C199.173138,8.16284219 200.32249,8.47995753 201.190315,9.11161005 C202.058141,9.74326256 202.492053,10.5424963 202.492053,11.5041551 C202.492053,11.9166628 202.422317,12.2956543 202.285428,12.6385514 C202.148539,12.9814485 201.934165,13.3320801 201.64489,13.6904462 C201.355615,14.0488123 200.98369,14.4252257 200.529115,14.8248426 C200.07454,15.2244595 199.545063,15.6833743 198.938102,16.2067436 L196.541251,18.2692824 L203.153254,24.8694066 Z" id="Shape"></path>
                <g id="Group" transform="translate(13.878725, 15.352999) rotate(-90.000000) translate(-13.878725, -15.352999) translate(-0.521275, 1.552999)">
                    <path d="M28.7187457,26.6765495 C28.398212,26.7367125 27.9215208,26.8160183 27.2941514,26.9172016 C26.666782,27.0211195 26.0311937,27.0703438 25.3873867,27.0703438 C24.7435796,27.0703438 24.1682627,27.0265889 23.6559566,26.9390791 C23.1436506,26.8515692 22.7135327,26.6765495 22.3628633,26.41402 C22.012194,26.1514905 21.7409731,25.7959817 21.5519404,25.3420244 C21.3629077,24.8908018 21.2670216,24.3001103 21.2670216,23.56995 L21.2670216,0.519309991 C21.5875553,0.461881655 22.0642465,0.379841176 22.6916159,0.278657918 C23.3189853,0.17747466 23.9545735,0.125515689 24.5983806,0.125515689 C25.2421876,0.125515689 25.8175046,0.169270612 26.3298106,0.256780457 C26.8421166,0.344290301 27.2722345,0.519309991 27.6229039,0.781839525 C27.9735733,1.04436906 28.2447941,1.40261249 28.4338268,1.85383512 C28.6228595,2.30505776 28.7187457,2.89574921 28.7187457,3.62590948 L28.7187457,26.6765495 Z M22.9088813,5.44283987 C22.9088813,5.99584448 23.0949158,6.46282616 23.4669849,6.841054 C23.839054,7.21928185 24.3314983,7.4090785 24.944318,7.4090785 C25.5571376,7.4090785 26.0495819,7.21928185 26.421651,6.841054 C26.7937201,6.46282616 26.9797546,5.99584448 26.9797546,5.44283987 C26.9797546,4.88983525 26.7937201,4.42285358 26.421651,4.04462573 C26.0495819,3.66639788 25.5571376,3.47660124 24.944318,3.47660124 C24.3314983,3.47660124 23.839054,3.66639788 23.4669849,4.04462573 C23.0949158,4.42285358 22.9088813,4.88983525 22.9088813,5.44283987 Z" id="Combined-Shape"></path>
                    <path d="M18.213457,26.6765495 C17.8929233,26.7367125 17.4162321,26.8160183 16.7888627,26.9172016 C16.1614932,27.0211195 15.525905,27.0703438 14.882098,27.0703438 C14.2382909,27.0703438 13.662974,27.0265889 13.1506679,26.9390791 C12.6383619,26.8515692 12.208244,26.6765495 11.8575746,26.41402 C11.5069053,26.1514905 11.2356844,25.7959817 11.0466517,25.3420244 C10.857619,24.8908018 10.7617328,24.3001103 10.7617328,23.56995 L10.7617328,0.519309991 C11.0822666,0.461881655 11.5589577,0.379841176 12.1863272,0.278657918 C12.8136966,0.17747466 13.4492848,0.125515689 14.0930919,0.125515689 C14.7368989,0.125515689 15.3122159,0.169270612 15.8245219,0.256780457 C16.3368279,0.344290301 16.7669458,0.519309991 17.1176152,0.781839525 C17.4682846,1.04436906 17.7395054,1.40261249 17.9285381,1.85383512 C18.1175708,2.30505776 18.213457,2.89574921 18.213457,3.62590948 L18.213457,26.6765495 Z M12.4031923,5.44283987 C12.4031923,5.99584448 12.5892268,6.46282616 12.9612959,6.841054 C13.333365,7.21928185 13.8258093,7.4090785 14.438629,7.4090785 C15.0514486,7.4090785 15.543893,7.21928185 15.915962,6.841054 C16.2880311,6.46282616 16.4740656,5.99584448 16.4740656,5.44283987 C16.4740656,4.88983525 16.2880311,4.42285358 15.915962,4.04462573 C15.543893,3.66639788 15.0514486,3.47660124 14.438629,3.47660124 C13.8258093,3.47660124 13.333365,3.66639788 12.9612959,4.04462573 C12.5892268,4.42285358 12.4031923,4.88983525 12.4031923,5.44283987 Z" id="Combined-Shape"></path>
                    <path d="M7.80543204,26.6765495 C7.48489832,26.7367125 7.00820715,26.8160183 6.38083772,26.9172016 C5.7534683,27.0211195 5.11788007,27.0703438 4.47407302,27.0703438 C3.83026597,27.0703438 3.25494903,27.0265889 2.742643,26.9390791 C2.23033696,26.8515692 1.80021906,26.6765495 1.44954969,26.41402 C1.09888032,26.1514905 0.82765948,25.7959817 0.638626772,25.3420244 C0.449594064,24.8908018 0.353707908,24.3001103 0.353707908,23.56995 L0.353707908,0.519309991 C0.67424163,0.461881655 1.15093281,0.379841176 1.77830223,0.278657918 C2.40567165,0.17747466 3.04125988,0.125515689 3.68506693,0.125515689 C4.32887398,0.125515689 4.90419092,0.169270612 5.41649695,0.256780457 C5.92880299,0.344290301 6.35892089,0.519309991 6.70959026,0.781839525 C7.06025963,1.04436906 7.33148047,1.40261249 7.52051318,1.85383512 C7.70954589,2.30505776 7.80543204,2.89574921 7.80543204,3.62590948 L7.80543204,26.6765495 Z M1.99556764,5.44283987 C1.99556764,5.99584448 2.18160217,6.46282616 2.55367124,6.841054 C2.92574031,7.21928185 3.41818466,7.4090785 4.03100431,7.4090785 C4.64382395,7.4090785 5.1362683,7.21928185 5.50833737,6.841054 C5.88040644,6.46282616 6.06644097,5.99584448 6.06644097,5.44283987 C6.06644097,4.88983525 5.88040644,4.42285358 5.50833737,4.04462573 C5.1362683,3.66639788 4.64382395,3.47660124 4.03100431,3.47660124 C3.41818466,3.47660124 2.92574031,3.66639788 2.55367124,4.04462573 C2.18160217,4.42285358 1.99556764,4.88983525 1.99556764,5.44283987 Z" id="Combined-Shape"></path>
                </g>
            </g>
        </g>
    </g>
</svg>